<svg width="34" height="32" viewBox="0 0 34 32" fill="none" xmlns="http://www.w3.org/2000/svg">
<path d="M16.85 13.918C15.7367 13.918 14.8578 14.8555 14.8578 15.9102C14.8578 17.0234 15.7367 17.9609 16.85 17.9609C17.9633 17.9609 18.8422 17.0234 18.8422 15.9102C18.8422 14.8555 17.9047 13.918 16.85 13.918ZM10.3461 13.918C9.23281 13.918 8.35391 14.8555 8.35391 15.9102C8.35391 17.0234 9.23281 17.9609 10.3461 17.9609C11.4594 17.9609 12.3383 17.0234 12.3383 15.9102C12.3383 14.8555 11.4594 13.918 10.3461 13.918ZM23.2953 13.918C22.182 13.918 21.3031 14.8555 21.3031 15.9102C21.3031 17.0234 22.182 17.9609 23.2953 17.9609C24.4086 17.9609 25.2875 17.0234 25.2875 15.9102C25.2875 14.8555 24.4086 13.918 23.2953 13.918ZM32.3188 10.6953C31.3813 9.28906 30.1508 8 28.5102 6.94531C25.4047 4.95312 21.3617 3.78125 17.0258 3.78125C15.5609 3.78125 14.2133 3.95703 12.807 4.19141C11.9867 3.3125 10.9906 2.60938 9.93594 2.02344C6.01016 0.0898438 2.55313 0.792969 0.853907 1.4375C0.502344 1.55469 0.267969 1.84766 0.267969 2.19922C0.267969 2.43359 0.385157 2.66797 0.502344 2.78516C1.73281 4.07422 3.78359 6.59375 3.25625 8.87891C1.32266 10.8711 0.267969 13.2734 0.267969 15.7344C0.267969 18.2539 1.32266 20.6562 3.25625 22.6484C3.78359 24.9336 1.73281 27.4531 0.502344 28.7422C0.385157 28.8594 0.267969 29.0938 0.267969 29.3281C0.267969 29.6797 0.502344 29.9727 0.853907 30.0898C2.55313 30.7344 6.01016 31.4375 9.93594 29.5039C10.9906 28.918 11.9867 28.2148 12.807 27.3359C14.2133 27.5703 15.6195 27.7461 17.0258 27.7461C17.0844 27.7461 17.0258 27.7461 17.0844 27.7461C21.3617 27.7461 25.4047 26.5742 28.5102 24.582C30.1508 23.5273 31.3813 22.2383 32.3188 20.832C33.3148 19.25 33.8422 17.5508 33.8422 15.793C33.8422 13.9766 33.3148 12.2773 32.3188 10.6953ZM16.85 24.7578C16.85 24.7578 16.85 24.7578 16.7914 24.7578C15.0336 24.7578 13.2758 24.5234 11.6352 24.1133L10.4633 25.2266C9.81875 25.8711 9.05703 26.3984 8.29531 26.8672C7.35781 27.3359 6.30313 27.6289 5.18984 27.7461C5.24844 27.6289 5.30703 27.5117 5.36563 27.3945C6.5375 25.2266 6.88906 23.293 6.30313 21.5352C4.36953 20.0117 3.25625 18.0781 3.25625 15.9688C3.25625 11.1055 9.35 7.12109 16.85 7.12109C24.4086 7.12109 30.5023 11.1055 30.5023 15.9688C30.5023 20.832 24.4086 24.7578 16.85 24.7578Z" fill="#500AD2"/>
</svg>
