<svg width="32" height="30" viewBox="0 0 32 30" fill="none" xmlns="http://www.w3.org/2000/svg">
<path d="M30.5434 16.9219H17.1195L26.0688 25.9277C26.4086 26.2676 26.975 26.2676 27.3148 25.9277C29.5238 23.8887 31.0531 21.1133 31.4496 17.9414C31.5629 17.4316 31.1098 16.9219 30.5434 16.9219ZM29.6371 13.2969C29.184 6.5 23.8031 1.11914 17.0063 0.666016C16.4965 0.609375 16.1 1.0625 16.1 1.57227V14.2031H28.7309C29.2406 14.2031 29.6938 13.8066 29.6371 13.2969ZM13.3813 16.9219V3.49805C13.3813 2.98828 12.8715 2.53516 12.3617 2.5918C5.56484 3.55469 0.410547 9.44531 0.69375 16.5254C0.920313 23.7754 7.15078 29.7227 14.4574 29.6094C17.2895 29.6094 19.9516 28.7031 22.1039 27.1172C22.557 26.834 22.557 26.1543 22.1605 25.7578L13.3813 16.9219Z" fill="#500AD2"/>
</svg>
