<svg width="38" height="30" viewBox="0 0 38 30" fill="none" xmlns="http://www.w3.org/2000/svg">
<path d="M2.7875 13.3125C2.73086 13.3125 2.73086 13.3125 2.73086 13.3125C1.76797 13.3125 0.975 14.1621 0.975 15.125V22.375C0.975 22.4316 0.91836 22.4316 0.91836 22.4316C0.91836 23.3945 1.76797 24.1875 2.73086 24.1875H2.7875H4.6V13.3125H2.7875ZM31.7875 10.5938C31.7875 8.10156 29.7484 6.0625 27.2563 6.0625H20.9125V2.4375C20.9125 1.47461 20.0629 0.625 19.1 0.625C18.0805 0.625 17.2875 1.47461 17.2875 2.4375V6.0625H10.9438C10.8871 6.0625 10.8871 6.0625 10.8871 6.0625C8.39492 6.0625 6.4125 8.10156 6.4125 10.5938V26C6.4125 28.0391 7.99844 29.625 10.0375 29.625H28.1625C30.1449 29.625 31.7309 28.0391 31.7875 26V10.5938ZM15.9281 15.125C15.9281 16.4277 14.9086 17.3906 13.6625 17.3906C12.3598 17.3906 11.3969 16.4277 11.3969 15.125C11.3969 13.8789 12.3598 12.8594 13.6625 12.8594C14.9086 12.8594 15.9281 13.8789 15.9281 15.125ZM15.475 22.375V24.1875H11.85V22.375H15.475ZM20.9125 22.375V24.1875H17.2875V22.375H20.9125ZM26.8031 15.125C26.8031 16.4277 25.7836 17.3906 24.5375 17.3906C23.2348 17.3906 22.2719 16.4277 22.2719 15.125C22.2719 13.8789 23.2348 12.8594 24.5375 12.8594C25.7836 12.8594 26.8031 13.8789 26.8031 15.125ZM26.35 22.375V24.1875H22.725V22.375H26.35ZM37.225 15.125C37.225 14.1621 36.3754 13.3125 35.4125 13.3125H33.6V24.1875H35.4125V24.2441C36.3754 24.2441 37.225 23.3945 37.225 22.4316V22.375V15.125Z" fill="#500AD2"/>
</svg>
