<svg width="38" height="31" viewBox="0 0 38 31" fill="none" xmlns="http://www.w3.org/2000/svg">
<path d="M22.8188 19.5H15.3188C14.2641 19.5 13.4438 20.3789 13.4438 21.375V28.875C13.4438 29.9297 14.2641 30.75 15.3188 30.75H22.8188C23.8148 30.75 24.6938 29.9297 24.6938 28.875V21.375C24.6938 20.3789 23.8148 19.5 22.8188 19.5ZM11.5688 2.625C11.5688 1.62891 10.6898 0.75 9.69375 0.75H2.19375C1.13906 0.75 0.31875 1.62891 0.31875 2.625V10.125C0.31875 11.1797 1.13906 12 2.19375 12H7.76016L12.0375 19.5586C12.682 18.3867 13.9125 17.625 15.3188 17.625L11.5688 11.0625V8.25H24.6938V4.5H11.5688V2.625ZM35.9438 0.75H28.4438C27.3891 0.75 26.5688 1.62891 26.5688 2.625V10.125C26.5688 11.1797 27.3891 12 28.4438 12H35.9438C36.9398 12 37.8188 11.1797 37.8188 10.125V2.625C37.8188 1.62891 36.9398 0.75 35.9438 0.75Z" fill="#500AD2"/>
</svg>
