<svg width="28" height="30" viewBox="0 0 28 30" fill="none" xmlns="http://www.w3.org/2000/svg">
<path d="M25.9789 5.38281L15.1039 0.851562C14.7641 0.738281 14.4242 0.681641 14.0844 0.681641C13.6879 0.681641 13.348 0.738281 13.0082 0.851562L2.1332 5.38281C1.11367 5.83594 0.490625 6.79883 0.490625 7.875C0.490625 19.1465 6.94766 26.9062 13.0082 29.4551C13.6879 29.7383 14.4242 29.7383 15.1039 29.4551C19.975 27.416 27.6781 20.4492 27.6781 7.875C27.6781 6.79883 26.9984 5.83594 25.9789 5.38281ZM14.0844 25.9434V4.36328L23.9965 8.49805C23.8266 17.0508 19.352 23.2812 14.0844 25.9434Z" fill="#500AD2"/>
</svg>
