<svg width="19" height="19" viewBox="0 0 19 19" fill="none" xmlns="http://www.w3.org/2000/svg">
<path d="M7.27984 13.4366C7.0965 13.22 7.00484 12.9743 7.00484 12.6996C7.00484 12.425 7.0965 12.1956 7.27984 12.0116L9.12984 10.1616H1.95484C1.6715 10.1616 1.43384 10.0656 1.24184 9.87362C1.04984 9.68162 0.954171 9.44429 0.954837 9.16162C0.954837 8.87829 1.05084 8.64062 1.24284 8.44862C1.43484 8.25662 1.67217 8.16096 1.95484 8.16162H9.12984L7.27984 6.31162C7.07984 6.11162 6.97984 5.87396 6.97984 5.59862C6.97984 5.32329 7.07984 5.08596 7.27984 4.88662C7.46317 4.68662 7.6925 4.58662 7.96784 4.58662C8.24317 4.58662 8.47217 4.67829 8.65484 4.86162L12.2548 8.46163C12.3548 8.56163 12.4258 8.66996 12.4678 8.78662C12.5098 8.90329 12.5305 9.02829 12.5298 9.16162C12.5298 9.29496 12.5092 9.41996 12.4678 9.53662C12.4265 9.65329 12.3555 9.76162 12.2548 9.86162L8.65484 13.4616C8.45484 13.6616 8.2215 13.7533 7.95484 13.7366C7.68817 13.72 7.46317 13.62 7.27984 13.4366ZM10.9548 18.1616C10.6715 18.1616 10.4342 18.066 10.2428 17.8746C10.0515 17.6833 9.9555 17.4456 9.95484 17.1616C9.95484 16.8783 10.0508 16.6406 10.2428 16.4486C10.4348 16.2566 10.6722 16.161 10.9548 16.1616H16.9548V2.16162H10.9548C10.6715 2.16162 10.4338 2.06562 10.2418 1.87362C10.0498 1.68162 9.95417 1.44429 9.95484 1.16162C9.95484 0.878291 10.0508 0.640624 10.2428 0.448624C10.4348 0.256624 10.6722 0.160958 10.9548 0.161625H16.9548C17.5048 0.161625 17.9758 0.357625 18.3678 0.749625C18.7598 1.14162 18.9555 1.61229 18.9548 2.16162V16.1616C18.9548 16.7116 18.7588 17.1826 18.3668 17.5746C17.9748 17.9666 17.5042 18.1623 16.9548 18.1616H10.9548Z" fill="url(#paint0_linear_1505_281)"/>
<defs>
<linearGradient id="paint0_linear_1505_281" x1="0.954834" y1="0.161621" x2="18.9548" y2="18.1616" gradientUnits="userSpaceOnUse">
<stop stop-color="#4300A3"/>
<stop offset="0.0909091" stop-color="#4D00AA"/>
<stop offset="0.181818" stop-color="#5700B1"/>
<stop offset="0.272727" stop-color="#6000B7"/>
<stop offset="0.363636" stop-color="#6A00BE"/>
<stop offset="0.454545" stop-color="#7200C5"/>
<stop offset="0.545455" stop-color="#7B00CB"/>
<stop offset="0.636364" stop-color="#8300D2"/>
<stop offset="0.727273" stop-color="#8C00DA"/>
<stop offset="0.818182" stop-color="#9500E2"/>
<stop offset="0.909091" stop-color="#9E00E9"/>
<stop offset="1" stop-color="#A700F1"/>
</linearGradient>
</defs>
</svg>
