<svg width="21" height="19" viewBox="0 0 21 19" fill="none" xmlns="http://www.w3.org/2000/svg">
<path d="M18.8292 14.9852C19.2371 14.9854 19.6293 15.1425 19.9244 15.4239C20.2196 15.7054 20.3952 16.0897 20.4148 16.4971C20.4344 16.9045 20.2965 17.3038 20.0297 17.6123C19.7629 17.9208 19.3877 18.1149 18.9817 18.1542L18.8292 18.1616H1.88804C1.48016 18.1614 1.088 18.0043 0.792807 17.7228C0.497616 17.4414 0.322027 17.0571 0.302426 16.6497C0.282825 16.2423 0.420714 15.843 0.68752 15.5345C0.954326 15.226 1.3296 15.0319 1.73557 14.9926L1.88804 14.9852H18.8292ZM18.8292 7.57339C19.2504 7.57339 19.6544 7.74072 19.9523 8.03857C20.2501 8.33642 20.4175 8.7404 20.4175 9.16162C20.4175 9.58285 20.2501 9.98682 19.9523 10.2847C19.6544 10.5825 19.2504 10.7499 18.8292 10.7499H1.88804C1.46681 10.7499 1.06284 10.5825 0.764988 10.2847C0.467136 9.98682 0.299805 9.58285 0.299805 9.16162C0.299805 8.7404 0.467136 8.33642 0.764988 8.03857C1.06284 7.74072 1.46681 7.57339 1.88804 7.57339H18.8292ZM18.8292 0.161621C19.2504 0.161621 19.6544 0.328953 19.9523 0.626805C20.2501 0.924656 20.4175 1.32863 20.4175 1.74986C20.4175 2.17108 20.2501 2.57506 19.9523 2.87291C19.6544 3.17076 19.2504 3.33809 18.8292 3.33809H1.88804C1.46681 3.33809 1.06284 3.17076 0.764988 2.87291C0.467136 2.57506 0.299805 2.17108 0.299805 1.74986C0.299805 1.32863 0.467136 0.924656 0.764988 0.626805C1.06284 0.328953 1.46681 0.161621 1.88804 0.161621H18.8292Z" fill="url(#paint0_linear_1505_268)"/>
<defs>
<linearGradient id="paint0_linear_1505_268" x1="0.299805" y1="0.161621" x2="18.189" y2="20.1555" gradientUnits="userSpaceOnUse">
<stop stop-color="#4300A3"/>
<stop offset="0.0909091" stop-color="#4D00AA"/>
<stop offset="0.181818" stop-color="#5700B1"/>
<stop offset="0.272727" stop-color="#6000B7"/>
<stop offset="0.363636" stop-color="#6A00BE"/>
<stop offset="0.454545" stop-color="#7200C5"/>
<stop offset="0.545455" stop-color="#7B00CB"/>
<stop offset="0.636364" stop-color="#8300D2"/>
<stop offset="0.727273" stop-color="#8C00DA"/>
<stop offset="0.818182" stop-color="#9500E2"/>
<stop offset="0.909091" stop-color="#9E00E9"/>
<stop offset="1" stop-color="#A700F1"/>
</linearGradient>
</defs>
</svg>
