<svg width="443" height="329" viewBox="0 0 443 329" fill="none" xmlns="http://www.w3.org/2000/svg">
<rect y="117" width="443" height="95" rx="12" fill="#7047EB"/>
<rect y="117" width="443" height="95" rx="12" fill="url(#paint0_linear_219_12)"/>
<path fill-rule="evenodd" clip-rule="evenodd" d="M56.1821 163.51C57.4794 163.51 58.2089 162.018 57.4123 160.994L43.102 142.602C42.478 141.799 41.2657 141.799 40.6417 142.602L26.3314 160.994C25.5348 162.018 26.2643 163.51 27.5616 163.51H32.7363C33.597 163.51 34.2949 164.208 34.2949 165.069V184.441C34.2949 185.302 34.9928 186 35.8536 186H47.8898C48.7507 186 49.4486 185.302 49.4486 184.441V165.069C49.4486 164.208 50.1464 163.51 51.0073 163.51H56.1821Z" fill="url(#paint1_radial_219_12)" fill-opacity="0.8"/>
<rect x="42" y="238" width="370" height="91" rx="11.4947" fill="#F1F1F1"/>
<rect x="37" width="370" height="91" rx="11.4947" fill="#F1F1F1"/>
<path d="M85.229 156V150.771L80.294 141.3H83.339L86.594 148.083L89.828 141.3H92.831L87.917 150.771V156H85.229ZM97.6218 156.252C96.6138 156.252 95.7038 156.021 94.8918 155.559C94.0938 155.097 93.4568 154.46 92.9808 153.648C92.5188 152.822 92.2878 151.87 92.2878 150.792C92.2878 149.714 92.5258 148.769 93.0018 147.957C93.4778 147.131 94.1148 146.487 94.9128 146.025C95.7248 145.563 96.6348 145.332 97.6428 145.332C98.6368 145.332 99.5328 145.563 100.331 146.025C101.143 146.487 101.78 147.131 102.242 147.957C102.718 148.769 102.956 149.714 102.956 150.792C102.956 151.87 102.718 152.822 102.242 153.648C101.78 154.46 101.143 155.097 100.331 155.559C99.5188 156.021 98.6158 156.252 97.6218 156.252ZM97.6218 153.921C98.3218 153.921 98.9308 153.662 99.4488 153.144C99.9668 152.612 100.226 151.828 100.226 150.792C100.226 149.756 99.9668 148.979 99.4488 148.461C98.9308 147.929 98.3288 147.663 97.6428 147.663C96.9288 147.663 96.3128 147.929 95.7948 148.461C95.2908 148.979 95.0388 149.756 95.0388 150.792C95.0388 151.828 95.2908 152.612 95.7948 153.144C96.3128 153.662 96.9218 153.921 97.6218 153.921ZM109.265 156.252C107.963 156.252 106.955 155.846 106.241 155.034C105.541 154.222 105.191 153.032 105.191 151.464V145.584H107.858V151.212C107.858 152.108 108.04 152.794 108.404 153.27C108.768 153.746 109.342 153.984 110.126 153.984C110.868 153.984 111.477 153.718 111.953 153.186C112.443 152.654 112.688 151.912 112.688 150.96V145.584H115.376V156H113.003L112.793 154.236C112.471 154.852 112.002 155.342 111.386 155.706C110.784 156.07 110.077 156.252 109.265 156.252ZM118.136 156V145.584H120.53L120.782 147.537C121.16 146.865 121.671 146.333 122.315 145.941C122.973 145.535 123.743 145.332 124.625 145.332V148.167H123.869C123.281 148.167 122.756 148.258 122.294 148.44C121.832 148.622 121.468 148.937 121.202 149.385C120.95 149.833 120.824 150.456 120.824 151.254V156H118.136ZM134.511 156L130.626 141.3H133.503L136.149 152.997L139.257 141.3H142.218L145.242 152.997L147.888 141.3H150.786L146.796 156H143.604L140.685 145.101L137.682 156H134.511ZM156.624 156.252C155.574 156.252 154.643 156.028 153.831 155.58C153.019 155.132 152.382 154.502 151.92 153.69C151.458 152.878 151.227 151.94 151.227 150.876C151.227 149.798 151.451 148.839 151.899 147.999C152.361 147.159 152.991 146.508 153.789 146.046C154.601 145.57 155.553 145.332 156.645 145.332C157.667 145.332 158.57 145.556 159.354 146.004C160.138 146.452 160.747 147.068 161.181 147.852C161.629 148.622 161.853 149.483 161.853 150.435C161.853 150.589 161.846 150.75 161.832 150.918C161.832 151.086 161.825 151.261 161.811 151.443H153.894C153.95 152.255 154.23 152.892 154.734 153.354C155.252 153.816 155.875 154.047 156.603 154.047C157.149 154.047 157.604 153.928 157.968 153.69C158.346 153.438 158.626 153.116 158.808 152.724H161.538C161.342 153.382 161.013 153.984 160.551 154.53C160.103 155.062 159.543 155.482 158.871 155.79C158.213 156.098 157.464 156.252 156.624 156.252ZM156.645 147.516C155.987 147.516 155.406 147.705 154.902 148.083C154.398 148.447 154.076 149.007 153.936 149.763H159.123C159.081 149.077 158.829 148.531 158.367 148.125C157.905 147.719 157.331 147.516 156.645 147.516ZM170.288 156.252C169.504 156.252 168.818 156.105 168.23 155.811C167.642 155.517 167.166 155.104 166.802 154.572L166.508 156H164.114V140.88H166.802V147.075C167.138 146.613 167.579 146.207 168.125 145.857C168.685 145.507 169.406 145.332 170.288 145.332C171.268 145.332 172.143 145.57 172.913 146.046C173.683 146.522 174.292 147.173 174.74 147.999C175.188 148.825 175.412 149.763 175.412 150.813C175.412 151.863 175.188 152.801 174.74 153.627C174.292 154.439 173.683 155.083 172.913 155.559C172.143 156.021 171.268 156.252 170.288 156.252ZM169.721 153.9C170.575 153.9 171.282 153.613 171.842 153.039C172.402 152.465 172.682 151.723 172.682 150.813C172.682 149.903 172.402 149.154 171.842 148.566C171.282 147.978 170.575 147.684 169.721 147.684C168.853 147.684 168.139 147.978 167.579 148.566C167.033 149.14 166.76 149.882 166.76 150.792C166.76 151.702 167.033 152.451 167.579 153.039C168.139 153.613 168.853 153.9 169.721 153.9ZM182.118 156.252C181.194 156.252 180.382 156.105 179.682 155.811C178.982 155.503 178.422 155.083 178.002 154.551C177.582 154.019 177.33 153.403 177.246 152.703H179.955C180.039 153.109 180.263 153.459 180.627 153.753C181.005 154.033 181.488 154.173 182.076 154.173C182.664 154.173 183.091 154.054 183.357 153.816C183.637 153.578 183.777 153.305 183.777 152.997C183.777 152.549 183.581 152.248 183.189 152.094C182.797 151.926 182.251 151.765 181.551 151.611C181.103 151.513 180.648 151.394 180.186 151.254C179.724 151.114 179.297 150.939 178.905 150.729C178.527 150.505 178.219 150.225 177.981 149.889C177.743 149.539 177.624 149.112 177.624 148.608C177.624 147.684 177.988 146.907 178.716 146.277C179.458 145.647 180.494 145.332 181.824 145.332C183.056 145.332 184.036 145.619 184.764 146.193C185.506 146.767 185.947 147.558 186.087 148.566H183.546C183.392 147.796 182.811 147.411 181.803 147.411C181.299 147.411 180.907 147.509 180.627 147.705C180.361 147.901 180.228 148.146 180.228 148.44C180.228 148.748 180.431 148.993 180.837 149.175C181.243 149.357 181.782 149.525 182.454 149.679C183.182 149.847 183.847 150.036 184.449 150.246C185.065 150.442 185.555 150.743 185.919 151.149C186.283 151.541 186.465 152.108 186.465 152.85C186.479 153.494 186.311 154.075 185.961 154.593C185.611 155.111 185.107 155.517 184.449 155.811C183.791 156.105 183.014 156.252 182.118 156.252ZM190.295 143.967C189.805 143.967 189.399 143.82 189.077 143.526C188.769 143.232 188.615 142.861 188.615 142.413C188.615 141.965 188.769 141.601 189.077 141.321C189.399 141.027 189.805 140.88 190.295 140.88C190.785 140.88 191.184 141.027 191.492 141.321C191.814 141.601 191.975 141.965 191.975 142.413C191.975 142.861 191.814 143.232 191.492 143.526C191.184 143.82 190.785 143.967 190.295 143.967ZM188.951 156V145.584H191.639V156H188.951ZM199.086 156C197.994 156 197.119 155.734 196.461 155.202C195.803 154.67 195.474 153.725 195.474 152.367V147.831H193.689V145.584H195.474L195.789 142.791H198.162V145.584H200.976V147.831H198.162V152.388C198.162 152.892 198.267 153.242 198.477 153.438C198.701 153.62 199.079 153.711 199.611 153.711H200.913V156H199.086ZM208.078 156.252C207.028 156.252 206.097 156.028 205.285 155.58C204.473 155.132 203.836 154.502 203.374 153.69C202.912 152.878 202.681 151.94 202.681 150.876C202.681 149.798 202.905 148.839 203.353 147.999C203.815 147.159 204.445 146.508 205.243 146.046C206.055 145.57 207.007 145.332 208.099 145.332C209.121 145.332 210.024 145.556 210.808 146.004C211.592 146.452 212.201 147.068 212.635 147.852C213.083 148.622 213.307 149.483 213.307 150.435C213.307 150.589 213.3 150.75 213.286 150.918C213.286 151.086 213.279 151.261 213.265 151.443H205.348C205.404 152.255 205.684 152.892 206.188 153.354C206.706 153.816 207.329 154.047 208.057 154.047C208.603 154.047 209.058 153.928 209.422 153.69C209.8 153.438 210.08 153.116 210.262 152.724H212.992C212.796 153.382 212.467 153.984 212.005 154.53C211.557 155.062 210.997 155.482 210.325 155.79C209.667 156.098 208.918 156.252 208.078 156.252ZM208.099 147.516C207.441 147.516 206.86 147.705 206.356 148.083C205.852 148.447 205.53 149.007 205.39 149.763H210.577C210.535 149.077 210.283 148.531 209.821 148.125C209.359 147.719 208.785 147.516 208.099 147.516ZM224.478 156.252C223.176 156.252 222.168 155.846 221.454 155.034C220.754 154.222 220.404 153.032 220.404 151.464V145.584H223.071V151.212C223.071 152.108 223.253 152.794 223.617 153.27C223.981 153.746 224.555 153.984 225.339 153.984C226.081 153.984 226.69 153.718 227.166 153.186C227.656 152.654 227.901 151.912 227.901 150.96V145.584H230.589V156H228.216L228.006 154.236C227.684 154.852 227.215 155.342 226.599 155.706C225.997 156.07 225.29 156.252 224.478 156.252ZM237.653 156.252C236.729 156.252 235.917 156.105 235.217 155.811C234.517 155.503 233.957 155.083 233.537 154.551C233.117 154.019 232.865 153.403 232.781 152.703H235.49C235.574 153.109 235.798 153.459 236.162 153.753C236.54 154.033 237.023 154.173 237.611 154.173C238.199 154.173 238.626 154.054 238.892 153.816C239.172 153.578 239.312 153.305 239.312 152.997C239.312 152.549 239.116 152.248 238.724 152.094C238.332 151.926 237.786 151.765 237.086 151.611C236.638 151.513 236.183 151.394 235.721 151.254C235.259 151.114 234.832 150.939 234.44 150.729C234.062 150.505 233.754 150.225 233.516 149.889C233.278 149.539 233.159 149.112 233.159 148.608C233.159 147.684 233.523 146.907 234.251 146.277C234.993 145.647 236.029 145.332 237.359 145.332C238.591 145.332 239.571 145.619 240.299 146.193C241.041 146.767 241.482 147.558 241.622 148.566H239.081C238.927 147.796 238.346 147.411 237.338 147.411C236.834 147.411 236.442 147.509 236.162 147.705C235.896 147.901 235.763 148.146 235.763 148.44C235.763 148.748 235.966 148.993 236.372 149.175C236.778 149.357 237.317 149.525 237.989 149.679C238.717 149.847 239.382 150.036 239.984 150.246C240.6 150.442 241.09 150.743 241.454 151.149C241.818 151.541 242 152.108 242 152.85C242.014 153.494 241.846 154.075 241.496 154.593C241.146 155.111 240.642 155.517 239.984 155.811C239.326 156.105 238.549 156.252 237.653 156.252ZM245.831 143.967C245.341 143.967 244.935 143.82 244.613 143.526C244.305 143.232 244.151 142.861 244.151 142.413C244.151 141.965 244.305 141.601 244.613 141.321C244.935 141.027 245.341 140.88 245.831 140.88C246.321 140.88 246.72 141.027 247.028 141.321C247.35 141.601 247.511 141.965 247.511 142.413C247.511 142.861 247.35 143.232 247.028 143.526C246.72 143.82 246.321 143.967 245.831 143.967ZM244.487 156V145.584H247.175V156H244.487ZM249.98 156V145.584H252.353L252.563 147.348C252.885 146.732 253.347 146.242 253.949 145.878C254.565 145.514 255.286 145.332 256.112 145.332C257.4 145.332 258.401 145.738 259.115 146.55C259.829 147.362 260.186 148.552 260.186 150.12V156H257.498V150.372C257.498 149.476 257.316 148.79 256.952 148.314C256.588 147.838 256.021 147.6 255.251 147.6C254.495 147.6 253.872 147.866 253.382 148.398C252.906 148.93 252.668 149.672 252.668 150.624V156H249.98ZM267.167 152.892C266.663 152.892 266.194 152.836 265.76 152.724L264.983 153.501C265.221 153.627 265.543 153.732 265.949 153.816C266.355 153.9 267.013 153.984 267.923 154.068C269.309 154.194 270.317 154.523 270.947 155.055C271.577 155.587 271.892 156.322 271.892 157.26C271.892 157.876 271.724 158.457 271.388 159.003C271.052 159.563 270.534 160.011 269.834 160.347C269.134 160.697 268.238 160.872 267.146 160.872C265.662 160.872 264.465 160.592 263.555 160.032C262.645 159.486 262.19 158.66 262.19 157.554C262.19 156.616 262.645 155.804 263.555 155.118C263.275 154.992 263.03 154.859 262.82 154.719C262.624 154.579 262.449 154.432 262.295 154.278V153.795L264.122 151.863C263.31 151.149 262.904 150.232 262.904 149.112C262.904 148.412 263.072 147.775 263.408 147.201C263.758 146.627 264.248 146.172 264.878 145.836C265.508 145.5 266.271 145.332 267.167 145.332C267.755 145.332 268.301 145.416 268.805 145.584H272.753V147.222L270.968 147.348C271.248 147.88 271.388 148.468 271.388 149.112C271.388 149.812 271.22 150.449 270.884 151.023C270.548 151.597 270.058 152.052 269.414 152.388C268.784 152.724 268.035 152.892 267.167 152.892ZM267.167 150.834C267.713 150.834 268.161 150.687 268.511 150.393C268.875 150.099 269.057 149.679 269.057 149.133C269.057 148.587 268.875 148.167 268.511 147.873C268.161 147.579 267.713 147.432 267.167 147.432C266.593 147.432 266.131 147.579 265.781 147.873C265.431 148.167 265.256 148.587 265.256 149.133C265.256 149.679 265.431 150.099 265.781 150.393C266.131 150.687 266.593 150.834 267.167 150.834ZM264.647 157.281C264.647 157.799 264.885 158.184 265.361 158.436C265.851 158.702 266.446 158.835 267.146 158.835C267.818 158.835 268.364 158.695 268.784 158.415C269.204 158.149 269.414 157.785 269.414 157.323C269.414 156.945 269.274 156.63 268.994 156.378C268.728 156.126 268.189 155.972 267.377 155.916C266.803 155.874 266.271 155.811 265.781 155.727C265.375 155.951 265.081 156.196 264.899 156.462C264.731 156.728 264.647 157.001 264.647 157.281ZM289.508 156.252C288.528 156.252 287.653 156.014 286.883 155.538C286.113 155.062 285.504 154.411 285.056 153.585C284.608 152.759 284.384 151.821 284.384 150.771C284.384 149.721 284.608 148.79 285.056 147.978C285.504 147.152 286.113 146.508 286.883 146.046C287.653 145.57 288.528 145.332 289.508 145.332C290.292 145.332 290.978 145.479 291.566 145.773C292.154 146.067 292.63 146.48 292.994 147.012V140.88H295.682V156H293.288L292.994 154.509C292.658 154.971 292.21 155.377 291.65 155.727C291.104 156.077 290.39 156.252 289.508 156.252ZM290.075 153.9C290.943 153.9 291.65 153.613 292.196 153.039C292.756 152.451 293.036 151.702 293.036 150.792C293.036 149.882 292.756 149.14 292.196 148.566C291.65 147.978 290.943 147.684 290.075 147.684C289.221 147.684 288.514 147.971 287.954 148.545C287.394 149.119 287.114 149.861 287.114 150.771C287.114 151.681 287.394 152.43 287.954 153.018C288.514 153.606 289.221 153.9 290.075 153.9ZM303.481 156.252C302.431 156.252 301.5 156.028 300.688 155.58C299.876 155.132 299.239 154.502 298.777 153.69C298.315 152.878 298.084 151.94 298.084 150.876C298.084 149.798 298.308 148.839 298.756 147.999C299.218 147.159 299.848 146.508 300.646 146.046C301.458 145.57 302.41 145.332 303.502 145.332C304.524 145.332 305.427 145.556 306.211 146.004C306.995 146.452 307.604 147.068 308.038 147.852C308.486 148.622 308.71 149.483 308.71 150.435C308.71 150.589 308.703 150.75 308.689 150.918C308.689 151.086 308.682 151.261 308.668 151.443H300.751C300.807 152.255 301.087 152.892 301.591 153.354C302.109 153.816 302.732 154.047 303.46 154.047C304.006 154.047 304.461 153.928 304.825 153.69C305.203 153.438 305.483 153.116 305.665 152.724H308.395C308.199 153.382 307.87 153.984 307.408 154.53C306.96 155.062 306.4 155.482 305.728 155.79C305.07 156.098 304.321 156.252 303.481 156.252ZM303.502 147.516C302.844 147.516 302.263 147.705 301.759 148.083C301.255 148.447 300.933 149.007 300.793 149.763H305.98C305.938 149.077 305.686 148.531 305.224 148.125C304.762 147.719 304.188 147.516 303.502 147.516ZM316.031 156.252C314.981 156.252 314.05 156.028 313.238 155.58C312.426 155.132 311.789 154.502 311.327 153.69C310.865 152.878 310.634 151.94 310.634 150.876C310.634 149.798 310.858 148.839 311.306 147.999C311.768 147.159 312.398 146.508 313.196 146.046C314.008 145.57 314.96 145.332 316.052 145.332C317.074 145.332 317.977 145.556 318.761 146.004C319.545 146.452 320.154 147.068 320.588 147.852C321.036 148.622 321.26 149.483 321.26 150.435C321.26 150.589 321.253 150.75 321.239 150.918C321.239 151.086 321.232 151.261 321.218 151.443H313.301C313.357 152.255 313.637 152.892 314.141 153.354C314.659 153.816 315.282 154.047 316.01 154.047C316.556 154.047 317.011 153.928 317.375 153.69C317.753 153.438 318.033 153.116 318.215 152.724H320.945C320.749 153.382 320.42 153.984 319.958 154.53C319.51 155.062 318.95 155.482 318.278 155.79C317.62 156.098 316.871 156.252 316.031 156.252ZM316.052 147.516C315.394 147.516 314.813 147.705 314.309 148.083C313.805 148.447 313.483 149.007 313.343 149.763H318.53C318.488 149.077 318.236 148.531 317.774 148.125C317.312 147.719 316.738 147.516 316.052 147.516ZM323.521 160.62V145.584H325.915L326.209 147.075C326.545 146.613 326.986 146.207 327.532 145.857C328.092 145.507 328.813 145.332 329.695 145.332C330.675 145.332 331.55 145.57 332.32 146.046C333.09 146.522 333.699 147.173 334.147 147.999C334.595 148.825 334.819 149.763 334.819 150.813C334.819 151.863 334.595 152.801 334.147 153.627C333.699 154.439 333.09 155.083 332.32 155.559C331.55 156.021 330.675 156.252 329.695 156.252C328.911 156.252 328.225 156.105 327.637 155.811C327.049 155.517 326.573 155.104 326.209 154.572V160.62H323.521ZM329.128 153.9C329.982 153.9 330.689 153.613 331.249 153.039C331.809 152.465 332.089 151.723 332.089 150.813C332.089 149.903 331.809 149.154 331.249 148.566C330.689 147.978 329.982 147.684 329.128 147.684C328.26 147.684 327.546 147.978 326.986 148.566C326.44 149.14 326.167 149.882 326.167 150.792C326.167 151.702 326.44 152.451 326.986 153.039C327.546 153.613 328.26 153.9 329.128 153.9ZM337.22 156V140.88H339.908V156H337.22ZM344.104 143.967C343.614 143.967 343.208 143.82 342.886 143.526C342.578 143.232 342.424 142.861 342.424 142.413C342.424 141.965 342.578 141.601 342.886 141.321C343.208 141.027 343.614 140.88 344.104 140.88C344.594 140.88 344.993 141.027 345.301 141.321C345.623 141.601 345.784 141.965 345.784 142.413C345.784 142.861 345.623 143.232 345.301 143.526C344.993 143.82 344.594 143.967 344.104 143.967ZM342.76 156V145.584H345.448V156H342.76ZM348.254 156V145.584H350.627L350.837 147.348C351.159 146.732 351.621 146.242 352.223 145.878C352.839 145.514 353.56 145.332 354.386 145.332C355.674 145.332 356.675 145.738 357.389 146.55C358.103 147.362 358.46 148.552 358.46 150.12V156H355.772V150.372C355.772 149.476 355.59 148.79 355.226 148.314C354.862 147.838 354.295 147.6 353.525 147.6C352.769 147.6 352.146 147.866 351.656 148.398C351.18 148.93 350.942 149.672 350.942 150.624V156H348.254ZM366.091 156.252C365.041 156.252 364.11 156.028 363.298 155.58C362.486 155.132 361.849 154.502 361.387 153.69C360.925 152.878 360.694 151.94 360.694 150.876C360.694 149.798 360.918 148.839 361.366 147.999C361.828 147.159 362.458 146.508 363.256 146.046C364.068 145.57 365.02 145.332 366.112 145.332C367.134 145.332 368.037 145.556 368.821 146.004C369.605 146.452 370.214 147.068 370.648 147.852C371.096 148.622 371.32 149.483 371.32 150.435C371.32 150.589 371.313 150.75 371.299 150.918C371.299 151.086 371.292 151.261 371.278 151.443H363.361C363.417 152.255 363.697 152.892 364.201 153.354C364.719 153.816 365.342 154.047 366.07 154.047C366.616 154.047 367.071 153.928 367.435 153.69C367.813 153.438 368.093 153.116 368.275 152.724H371.005C370.809 153.382 370.48 153.984 370.018 154.53C369.57 155.062 369.01 155.482 368.338 155.79C367.68 156.098 366.931 156.252 366.091 156.252ZM366.112 147.516C365.454 147.516 364.873 147.705 364.369 148.083C363.865 148.447 363.543 149.007 363.403 149.763H368.59C368.548 149.077 368.296 148.531 367.834 148.125C367.372 147.719 366.798 147.516 366.112 147.516ZM374.736 156.147C374.246 156.147 373.84 155.993 373.518 155.685C373.21 155.377 373.056 155.006 373.056 154.572C373.056 154.124 373.21 153.746 373.518 153.438C373.84 153.13 374.246 152.976 374.736 152.976C375.226 152.976 375.625 153.13 375.933 153.438C376.255 153.746 376.416 154.124 376.416 154.572C376.416 155.006 376.255 155.377 375.933 155.685C375.625 155.993 375.226 156.147 374.736 156.147ZM382.217 156.252C381.321 156.252 380.586 156.112 380.012 155.832C379.438 155.538 379.011 155.153 378.731 154.677C378.451 154.201 378.311 153.676 378.311 153.102C378.311 152.136 378.689 151.352 379.445 150.75C380.201 150.148 381.335 149.847 382.847 149.847H385.493V149.595C385.493 148.881 385.29 148.356 384.884 148.02C384.478 147.684 383.974 147.516 383.372 147.516C382.826 147.516 382.35 147.649 381.944 147.915C381.538 148.167 381.286 148.545 381.188 149.049H378.563C378.633 148.293 378.885 147.635 379.319 147.075C379.767 146.515 380.341 146.088 381.041 145.794C381.741 145.486 382.525 145.332 383.393 145.332C384.877 145.332 386.046 145.703 386.9 146.445C387.754 147.187 388.181 148.237 388.181 149.595V156H385.892L385.64 154.32C385.332 154.88 384.898 155.342 384.338 155.706C383.792 156.07 383.085 156.252 382.217 156.252ZM382.826 154.152C383.596 154.152 384.191 153.9 384.611 153.396C385.045 152.892 385.318 152.269 385.43 151.527H383.141C382.427 151.527 381.916 151.66 381.608 151.926C381.3 152.178 381.146 152.493 381.146 152.871C381.146 153.277 381.3 153.592 381.608 153.816C381.916 154.04 382.322 154.152 382.826 154.152ZM392.195 143.967C391.705 143.967 391.299 143.82 390.977 143.526C390.669 143.232 390.515 142.861 390.515 142.413C390.515 141.965 390.669 141.601 390.977 141.321C391.299 141.027 391.705 140.88 392.195 140.88C392.685 140.88 393.084 141.027 393.392 141.321C393.714 141.601 393.875 141.965 393.875 142.413C393.875 142.861 393.714 143.232 393.392 143.526C393.084 143.82 392.685 143.967 392.195 143.967ZM390.851 156V145.584H393.539V156H390.851Z" fill="white"/>
<path d="M81.365 188V172.88H84.053V179.18C84.403 178.606 84.872 178.158 85.46 177.836C86.062 177.5 86.748 177.332 87.518 177.332C88.806 177.332 89.8 177.738 90.5 178.55C91.214 179.362 91.571 180.552 91.571 182.12V188H88.904V182.372C88.904 181.476 88.722 180.79 88.358 180.314C88.008 179.838 87.448 179.6 86.678 179.6C85.922 179.6 85.292 179.866 84.788 180.398C84.298 180.93 84.053 181.672 84.053 182.624V188H81.365ZM98.7824 188C97.6904 188 96.8154 187.734 96.1574 187.202C95.4994 186.67 95.1704 185.725 95.1704 184.367V179.831H93.3854V177.584H95.1704L95.4854 174.791H97.8584V177.584H100.672V179.831H97.8584V184.388C97.8584 184.892 97.9634 185.242 98.1734 185.438C98.3974 185.62 98.7754 185.711 99.3074 185.711H100.609V188H98.7824ZM107.621 188C106.529 188 105.654 187.734 104.996 187.202C104.338 186.67 104.009 185.725 104.009 184.367V179.831H102.224V177.584H104.009L104.324 174.791H106.697V177.584H109.511V179.831H106.697V184.388C106.697 184.892 106.802 185.242 107.012 185.438C107.236 185.62 107.614 185.711 108.146 185.711H109.448V188H107.621ZM111.819 192.62V177.584H114.213L114.507 179.075C114.843 178.613 115.284 178.207 115.83 177.857C116.39 177.507 117.111 177.332 117.993 177.332C118.973 177.332 119.848 177.57 120.618 178.046C121.388 178.522 121.997 179.173 122.445 179.999C122.893 180.825 123.117 181.763 123.117 182.813C123.117 183.863 122.893 184.801 122.445 185.627C121.997 186.439 121.388 187.083 120.618 187.559C119.848 188.021 118.973 188.252 117.993 188.252C117.209 188.252 116.523 188.105 115.935 187.811C115.347 187.517 114.871 187.104 114.507 186.572V192.62H111.819ZM117.426 185.9C118.28 185.9 118.987 185.613 119.547 185.039C120.107 184.465 120.387 183.723 120.387 182.813C120.387 181.903 120.107 181.154 119.547 180.566C118.987 179.978 118.28 179.684 117.426 179.684C116.558 179.684 115.844 179.978 115.284 180.566C114.738 181.14 114.465 181.882 114.465 182.792C114.465 183.702 114.738 184.451 115.284 185.039C115.844 185.613 116.558 185.9 117.426 185.9ZM129.823 188.252C128.899 188.252 128.087 188.105 127.387 187.811C126.687 187.503 126.127 187.083 125.707 186.551C125.287 186.019 125.035 185.403 124.951 184.703H127.66C127.744 185.109 127.968 185.459 128.332 185.753C128.71 186.033 129.193 186.173 129.781 186.173C130.369 186.173 130.796 186.054 131.062 185.816C131.342 185.578 131.482 185.305 131.482 184.997C131.482 184.549 131.286 184.248 130.894 184.094C130.502 183.926 129.956 183.765 129.256 183.611C128.808 183.513 128.353 183.394 127.891 183.254C127.429 183.114 127.002 182.939 126.61 182.729C126.232 182.505 125.924 182.225 125.686 181.889C125.448 181.539 125.329 181.112 125.329 180.608C125.329 179.684 125.693 178.907 126.421 178.277C127.163 177.647 128.199 177.332 129.529 177.332C130.761 177.332 131.741 177.619 132.469 178.193C133.211 178.767 133.652 179.558 133.792 180.566H131.251C131.097 179.796 130.516 179.411 129.508 179.411C129.004 179.411 128.612 179.509 128.332 179.705C128.066 179.901 127.933 180.146 127.933 180.44C127.933 180.748 128.136 180.993 128.542 181.175C128.948 181.357 129.487 181.525 130.159 181.679C130.887 181.847 131.552 182.036 132.154 182.246C132.77 182.442 133.26 182.743 133.624 183.149C133.988 183.541 134.17 184.108 134.17 184.85C134.184 185.494 134.016 186.075 133.666 186.593C133.316 187.111 132.812 187.517 132.154 187.811C131.496 188.105 130.719 188.252 129.823 188.252ZM137.707 188.147C137.217 188.147 136.811 187.993 136.489 187.685C136.181 187.377 136.027 187.006 136.027 186.572C136.027 186.124 136.181 185.746 136.489 185.438C136.811 185.13 137.217 184.976 137.707 184.976C138.197 184.976 138.596 185.13 138.904 185.438C139.226 185.746 139.387 186.124 139.387 186.572C139.387 187.006 139.226 187.377 138.904 187.685C138.596 187.993 138.197 188.147 137.707 188.147ZM137.707 180.503C137.217 180.503 136.811 180.349 136.489 180.041C136.181 179.733 136.027 179.362 136.027 178.928C136.027 178.48 136.181 178.102 136.489 177.794C136.811 177.486 137.217 177.332 137.707 177.332C138.197 177.332 138.596 177.486 138.904 177.794C139.226 178.102 139.387 178.48 139.387 178.928C139.387 179.362 139.226 179.733 138.904 180.041C138.596 180.349 138.197 180.503 137.707 180.503ZM140.755 190.331L146.005 171.683H148.63L143.359 190.331H140.755ZM147.072 190.331L152.322 171.683H154.947L149.676 190.331H147.072ZM158.095 192.62L160.51 187.307H159.88L155.827 177.584H158.746L161.665 184.913L164.71 177.584H167.566L160.951 192.62H158.095ZM173.419 188.252C172.411 188.252 171.501 188.021 170.689 187.559C169.891 187.097 169.254 186.46 168.778 185.648C168.316 184.822 168.085 183.87 168.085 182.792C168.085 181.714 168.323 180.769 168.799 179.957C169.275 179.131 169.912 178.487 170.71 178.025C171.522 177.563 172.432 177.332 173.44 177.332C174.434 177.332 175.33 177.563 176.128 178.025C176.94 178.487 177.577 179.131 178.039 179.957C178.515 180.769 178.753 181.714 178.753 182.792C178.753 183.87 178.515 184.822 178.039 185.648C177.577 186.46 176.94 187.097 176.128 187.559C175.316 188.021 174.413 188.252 173.419 188.252ZM173.419 185.921C174.119 185.921 174.728 185.662 175.246 185.144C175.764 184.612 176.023 183.828 176.023 182.792C176.023 181.756 175.764 180.979 175.246 180.461C174.728 179.929 174.126 179.663 173.44 179.663C172.726 179.663 172.11 179.929 171.592 180.461C171.088 180.979 170.836 181.756 170.836 182.792C170.836 183.828 171.088 184.612 171.592 185.144C172.11 185.662 172.719 185.921 173.419 185.921ZM185.062 188.252C183.76 188.252 182.752 187.846 182.038 187.034C181.338 186.222 180.988 185.032 180.988 183.464V177.584H183.655V183.212C183.655 184.108 183.837 184.794 184.201 185.27C184.565 185.746 185.139 185.984 185.923 185.984C186.665 185.984 187.274 185.718 187.75 185.186C188.24 184.654 188.485 183.912 188.485 182.96V177.584H191.173V188H188.8L188.59 186.236C188.268 186.852 187.799 187.342 187.183 187.706C186.581 188.07 185.874 188.252 185.062 188.252ZM193.932 188V177.584H196.326L196.578 179.537C196.956 178.865 197.467 178.333 198.111 177.941C198.769 177.535 199.539 177.332 200.421 177.332V180.167H199.665C199.077 180.167 198.552 180.258 198.09 180.44C197.628 180.622 197.264 180.937 196.998 181.385C196.746 181.833 196.62 182.456 196.62 183.254V188H193.932ZM204.296 188L201.251 177.584H203.918L205.724 185.081L207.824 177.584H210.806L212.906 185.081L214.733 177.584H217.4L214.334 188H211.541L209.315 180.209L207.089 188H204.296ZM223.787 188.252C222.737 188.252 221.806 188.028 220.994 187.58C220.182 187.132 219.545 186.502 219.083 185.69C218.621 184.878 218.39 183.94 218.39 182.876C218.39 181.798 218.614 180.839 219.062 179.999C219.524 179.159 220.154 178.508 220.952 178.046C221.764 177.57 222.716 177.332 223.808 177.332C224.83 177.332 225.733 177.556 226.517 178.004C227.301 178.452 227.91 179.068 228.344 179.852C228.792 180.622 229.016 181.483 229.016 182.435C229.016 182.589 229.009 182.75 228.995 182.918C228.995 183.086 228.988 183.261 228.974 183.443H221.057C221.113 184.255 221.393 184.892 221.897 185.354C222.415 185.816 223.038 186.047 223.766 186.047C224.312 186.047 224.767 185.928 225.131 185.69C225.509 185.438 225.789 185.116 225.971 184.724H228.701C228.505 185.382 228.176 185.984 227.714 186.53C227.266 187.062 226.706 187.482 226.034 187.79C225.376 188.098 224.627 188.252 223.787 188.252ZM223.808 179.516C223.15 179.516 222.569 179.705 222.065 180.083C221.561 180.447 221.239 181.007 221.099 181.763H226.286C226.244 181.077 225.992 180.531 225.53 180.125C225.068 179.719 224.494 179.516 223.808 179.516ZM237.451 188.252C236.667 188.252 235.981 188.105 235.393 187.811C234.805 187.517 234.329 187.104 233.965 186.572L233.671 188H231.277V172.88H233.965V179.075C234.301 178.613 234.742 178.207 235.288 177.857C235.848 177.507 236.569 177.332 237.451 177.332C238.431 177.332 239.306 177.57 240.076 178.046C240.846 178.522 241.455 179.173 241.903 179.999C242.351 180.825 242.575 181.763 242.575 182.813C242.575 183.863 242.351 184.801 241.903 185.627C241.455 186.439 240.846 187.083 240.076 187.559C239.306 188.021 238.431 188.252 237.451 188.252ZM236.884 185.9C237.738 185.9 238.445 185.613 239.005 185.039C239.565 184.465 239.845 183.723 239.845 182.813C239.845 181.903 239.565 181.154 239.005 180.566C238.445 179.978 237.738 179.684 236.884 179.684C236.016 179.684 235.302 179.978 234.742 180.566C234.196 181.14 233.923 181.882 233.923 182.792C233.923 183.702 234.196 184.451 234.742 185.039C235.302 185.613 236.016 185.9 236.884 185.9ZM249.281 188.252C248.357 188.252 247.545 188.105 246.845 187.811C246.145 187.503 245.585 187.083 245.165 186.551C244.745 186.019 244.493 185.403 244.409 184.703H247.118C247.202 185.109 247.426 185.459 247.79 185.753C248.168 186.033 248.651 186.173 249.239 186.173C249.827 186.173 250.254 186.054 250.52 185.816C250.8 185.578 250.94 185.305 250.94 184.997C250.94 184.549 250.744 184.248 250.352 184.094C249.96 183.926 249.414 183.765 248.714 183.611C248.266 183.513 247.811 183.394 247.349 183.254C246.887 183.114 246.46 182.939 246.068 182.729C245.69 182.505 245.382 182.225 245.144 181.889C244.906 181.539 244.787 181.112 244.787 180.608C244.787 179.684 245.151 178.907 245.879 178.277C246.621 177.647 247.657 177.332 248.987 177.332C250.219 177.332 251.199 177.619 251.927 178.193C252.669 178.767 253.11 179.558 253.25 180.566H250.709C250.555 179.796 249.974 179.411 248.966 179.411C248.462 179.411 248.07 179.509 247.79 179.705C247.524 179.901 247.391 180.146 247.391 180.44C247.391 180.748 247.594 180.993 248 181.175C248.406 181.357 248.945 181.525 249.617 181.679C250.345 181.847 251.01 182.036 251.612 182.246C252.228 182.442 252.718 182.743 253.082 183.149C253.446 183.541 253.628 184.108 253.628 184.85C253.642 185.494 253.474 186.075 253.124 186.593C252.774 187.111 252.27 187.517 251.612 187.811C250.954 188.105 250.177 188.252 249.281 188.252ZM257.459 175.967C256.969 175.967 256.563 175.82 256.241 175.526C255.933 175.232 255.779 174.861 255.779 174.413C255.779 173.965 255.933 173.601 256.241 173.321C256.563 173.027 256.969 172.88 257.459 172.88C257.949 172.88 258.348 173.027 258.656 173.321C258.978 173.601 259.139 173.965 259.139 174.413C259.139 174.861 258.978 175.232 258.656 175.526C258.348 175.82 257.949 175.967 257.459 175.967ZM256.115 188V177.584H258.803V188H256.115ZM266.249 188C265.157 188 264.282 187.734 263.624 187.202C262.966 186.67 262.637 185.725 262.637 184.367V179.831H260.852V177.584H262.637L262.952 174.791H265.325V177.584H268.139V179.831H265.325V184.388C265.325 184.892 265.43 185.242 265.64 185.438C265.864 185.62 266.242 185.711 266.774 185.711H268.076V188H266.249ZM275.241 188.252C274.191 188.252 273.26 188.028 272.448 187.58C271.636 187.132 270.999 186.502 270.537 185.69C270.075 184.878 269.844 183.94 269.844 182.876C269.844 181.798 270.068 180.839 270.516 179.999C270.978 179.159 271.608 178.508 272.406 178.046C273.218 177.57 274.17 177.332 275.262 177.332C276.284 177.332 277.187 177.556 277.971 178.004C278.755 178.452 279.364 179.068 279.798 179.852C280.246 180.622 280.47 181.483 280.47 182.435C280.47 182.589 280.463 182.75 280.449 182.918C280.449 183.086 280.442 183.261 280.428 183.443H272.511C272.567 184.255 272.847 184.892 273.351 185.354C273.869 185.816 274.492 186.047 275.22 186.047C275.766 186.047 276.221 185.928 276.585 185.69C276.963 185.438 277.243 185.116 277.425 184.724H280.155C279.959 185.382 279.63 185.984 279.168 186.53C278.72 187.062 278.16 187.482 277.488 187.79C276.83 188.098 276.081 188.252 275.241 188.252ZM275.262 179.516C274.604 179.516 274.023 179.705 273.519 180.083C273.015 180.447 272.693 181.007 272.553 181.763H277.74C277.698 181.077 277.446 180.531 276.984 180.125C276.522 179.719 275.948 179.516 275.262 179.516ZM283.886 188.147C283.396 188.147 282.99 187.993 282.668 187.685C282.36 187.377 282.206 187.006 282.206 186.572C282.206 186.124 282.36 185.746 282.668 185.438C282.99 185.13 283.396 184.976 283.886 184.976C284.376 184.976 284.775 185.13 285.083 185.438C285.405 185.746 285.566 186.124 285.566 186.572C285.566 187.006 285.405 187.377 285.083 187.685C284.775 187.993 284.376 188.147 283.886 188.147ZM292.879 188.252C291.815 188.252 290.877 188.021 290.065 187.559C289.253 187.097 288.609 186.453 288.133 185.627C287.671 184.801 287.44 183.856 287.44 182.792C287.44 181.728 287.671 180.783 288.133 179.957C288.609 179.131 289.253 178.487 290.065 178.025C290.877 177.563 291.815 177.332 292.879 177.332C294.209 177.332 295.329 177.682 296.239 178.382C297.149 179.068 297.73 180.02 297.982 181.238H295.147C295.007 180.734 294.727 180.342 294.307 180.062C293.901 179.768 293.418 179.621 292.858 179.621C292.116 179.621 291.486 179.901 290.968 180.461C290.45 181.021 290.191 181.798 290.191 182.792C290.191 183.786 290.45 184.563 290.968 185.123C291.486 185.683 292.116 185.963 292.858 185.963C293.418 185.963 293.901 185.823 294.307 185.543C294.727 185.263 295.007 184.864 295.147 184.346H297.982C297.73 185.522 297.149 186.467 296.239 187.181C295.329 187.895 294.209 188.252 292.879 188.252ZM305.366 188.252C304.358 188.252 303.448 188.021 302.636 187.559C301.838 187.097 301.201 186.46 300.725 185.648C300.263 184.822 300.032 183.87 300.032 182.792C300.032 181.714 300.27 180.769 300.746 179.957C301.222 179.131 301.859 178.487 302.657 178.025C303.469 177.563 304.379 177.332 305.387 177.332C306.381 177.332 307.277 177.563 308.075 178.025C308.887 178.487 309.524 179.131 309.986 179.957C310.462 180.769 310.7 181.714 310.7 182.792C310.7 183.87 310.462 184.822 309.986 185.648C309.524 186.46 308.887 187.097 308.075 187.559C307.263 188.021 306.36 188.252 305.366 188.252ZM305.366 185.921C306.066 185.921 306.675 185.662 307.193 185.144C307.711 184.612 307.97 183.828 307.97 182.792C307.97 181.756 307.711 180.979 307.193 180.461C306.675 179.929 306.073 179.663 305.387 179.663C304.673 179.663 304.057 179.929 303.539 180.461C303.035 180.979 302.783 181.756 302.783 182.792C302.783 183.828 303.035 184.612 303.539 185.144C304.057 185.662 304.666 185.921 305.366 185.921ZM313.103 188V177.584H315.476L315.707 178.991C316.043 178.487 316.484 178.088 317.03 177.794C317.59 177.486 318.234 177.332 318.962 177.332C320.572 177.332 321.713 177.955 322.385 179.201C322.763 178.627 323.267 178.172 323.897 177.836C324.541 177.5 325.241 177.332 325.997 177.332C327.355 177.332 328.398 177.738 329.126 178.55C329.854 179.362 330.218 180.552 330.218 182.12V188H327.53V182.372C327.53 181.476 327.355 180.79 327.005 180.314C326.669 179.838 326.144 179.6 325.43 179.6C324.702 179.6 324.114 179.866 323.666 180.398C323.232 180.93 323.015 181.672 323.015 182.624V188H320.327V182.372C320.327 181.476 320.152 180.79 319.802 180.314C319.452 179.838 318.913 179.6 318.185 179.6C317.471 179.6 316.89 179.866 316.442 180.398C316.008 180.93 315.791 181.672 315.791 182.624V188H313.103Z" fill="#2DCA72"/>
<path d="M80 190.625H331.415V191.675H80V190.625Z" fill="#2DCA72"/>
<a href="https://yourwebsite.com">
<rect fill="black" fill-opacity="0" y="-2.00077" width="251.415" height="27.342"/>
</a>
<path d="M71.229 39V33.771L66.294 24.3H69.339L72.594 31.083L75.828 24.3H78.831L73.917 33.771V39H71.229ZM83.6218 39.252C82.6138 39.252 81.7038 39.021 80.8918 38.559C80.0938 38.097 79.4568 37.46 78.9808 36.648C78.5188 35.822 78.2878 34.87 78.2878 33.792C78.2878 32.714 78.5258 31.769 79.0018 30.957C79.4778 30.131 80.1148 29.487 80.9128 29.025C81.7248 28.563 82.6348 28.332 83.6428 28.332C84.6368 28.332 85.5328 28.563 86.3308 29.025C87.1428 29.487 87.7798 30.131 88.2418 30.957C88.7178 31.769 88.9558 32.714 88.9558 33.792C88.9558 34.87 88.7178 35.822 88.2418 36.648C87.7798 37.46 87.1428 38.097 86.3308 38.559C85.5188 39.021 84.6158 39.252 83.6218 39.252ZM83.6218 36.921C84.3218 36.921 84.9308 36.662 85.4488 36.144C85.9668 35.612 86.2258 34.828 86.2258 33.792C86.2258 32.756 85.9668 31.979 85.4488 31.461C84.9308 30.929 84.3288 30.663 83.6428 30.663C82.9288 30.663 82.3128 30.929 81.7948 31.461C81.2908 31.979 81.0388 32.756 81.0388 33.792C81.0388 34.828 81.2908 35.612 81.7948 36.144C82.3128 36.662 82.9218 36.921 83.6218 36.921ZM95.2651 39.252C93.9631 39.252 92.9551 38.846 92.2411 38.034C91.5411 37.222 91.1911 36.032 91.1911 34.464V28.584H93.8581V34.212C93.8581 35.108 94.0401 35.794 94.4041 36.27C94.7681 36.746 95.3421 36.984 96.1261 36.984C96.8681 36.984 97.4771 36.718 97.9531 36.186C98.4431 35.654 98.6881 34.912 98.6881 33.96V28.584H101.376V39H99.0031L98.7931 37.236C98.4711 37.852 98.0021 38.342 97.3861 38.706C96.7841 39.07 96.0771 39.252 95.2651 39.252ZM104.136 39V28.584H106.53L106.782 30.537C107.16 29.865 107.671 29.333 108.315 28.941C108.973 28.535 109.743 28.332 110.625 28.332V31.167H109.869C109.281 31.167 108.756 31.258 108.294 31.44C107.832 31.622 107.468 31.937 107.202 32.385C106.95 32.833 106.824 33.456 106.824 34.254V39H104.136ZM120.511 39L116.626 24.3H119.503L122.149 35.997L125.257 24.3H128.218L131.242 35.997L133.888 24.3H136.786L132.796 39H129.604L126.685 28.101L123.682 39H120.511ZM142.624 39.252C141.574 39.252 140.643 39.028 139.831 38.58C139.019 38.132 138.382 37.502 137.92 36.69C137.458 35.878 137.227 34.94 137.227 33.876C137.227 32.798 137.451 31.839 137.899 30.999C138.361 30.159 138.991 29.508 139.789 29.046C140.601 28.57 141.553 28.332 142.645 28.332C143.667 28.332 144.57 28.556 145.354 29.004C146.138 29.452 146.747 30.068 147.181 30.852C147.629 31.622 147.853 32.483 147.853 33.435C147.853 33.589 147.846 33.75 147.832 33.918C147.832 34.086 147.825 34.261 147.811 34.443H139.894C139.95 35.255 140.23 35.892 140.734 36.354C141.252 36.816 141.875 37.047 142.603 37.047C143.149 37.047 143.604 36.928 143.968 36.69C144.346 36.438 144.626 36.116 144.808 35.724H147.538C147.342 36.382 147.013 36.984 146.551 37.53C146.103 38.062 145.543 38.482 144.871 38.79C144.213 39.098 143.464 39.252 142.624 39.252ZM142.645 30.516C141.987 30.516 141.406 30.705 140.902 31.083C140.398 31.447 140.076 32.007 139.936 32.763H145.123C145.081 32.077 144.829 31.531 144.367 31.125C143.905 30.719 143.331 30.516 142.645 30.516ZM156.288 39.252C155.504 39.252 154.818 39.105 154.23 38.811C153.642 38.517 153.166 38.104 152.802 37.572L152.508 39H150.114V23.88H152.802V30.075C153.138 29.613 153.579 29.207 154.125 28.857C154.685 28.507 155.406 28.332 156.288 28.332C157.268 28.332 158.143 28.57 158.913 29.046C159.683 29.522 160.292 30.173 160.74 30.999C161.188 31.825 161.412 32.763 161.412 33.813C161.412 34.863 161.188 35.801 160.74 36.627C160.292 37.439 159.683 38.083 158.913 38.559C158.143 39.021 157.268 39.252 156.288 39.252ZM155.721 36.9C156.575 36.9 157.282 36.613 157.842 36.039C158.402 35.465 158.682 34.723 158.682 33.813C158.682 32.903 158.402 32.154 157.842 31.566C157.282 30.978 156.575 30.684 155.721 30.684C154.853 30.684 154.139 30.978 153.579 31.566C153.033 32.14 152.76 32.882 152.76 33.792C152.76 34.702 153.033 35.451 153.579 36.039C154.139 36.613 154.853 36.9 155.721 36.9ZM168.118 39.252C167.194 39.252 166.382 39.105 165.682 38.811C164.982 38.503 164.422 38.083 164.002 37.551C163.582 37.019 163.33 36.403 163.246 35.703H165.955C166.039 36.109 166.263 36.459 166.627 36.753C167.005 37.033 167.488 37.173 168.076 37.173C168.664 37.173 169.091 37.054 169.357 36.816C169.637 36.578 169.777 36.305 169.777 35.997C169.777 35.549 169.581 35.248 169.189 35.094C168.797 34.926 168.251 34.765 167.551 34.611C167.103 34.513 166.648 34.394 166.186 34.254C165.724 34.114 165.297 33.939 164.905 33.729C164.527 33.505 164.219 33.225 163.981 32.889C163.743 32.539 163.624 32.112 163.624 31.608C163.624 30.684 163.988 29.907 164.716 29.277C165.458 28.647 166.494 28.332 167.824 28.332C169.056 28.332 170.036 28.619 170.764 29.193C171.506 29.767 171.947 30.558 172.087 31.566H169.546C169.392 30.796 168.811 30.411 167.803 30.411C167.299 30.411 166.907 30.509 166.627 30.705C166.361 30.901 166.228 31.146 166.228 31.44C166.228 31.748 166.431 31.993 166.837 32.175C167.243 32.357 167.782 32.525 168.454 32.679C169.182 32.847 169.847 33.036 170.449 33.246C171.065 33.442 171.555 33.743 171.919 34.149C172.283 34.541 172.465 35.108 172.465 35.85C172.479 36.494 172.311 37.075 171.961 37.593C171.611 38.111 171.107 38.517 170.449 38.811C169.791 39.105 169.014 39.252 168.118 39.252ZM176.295 26.967C175.805 26.967 175.399 26.82 175.077 26.526C174.769 26.232 174.615 25.861 174.615 25.413C174.615 24.965 174.769 24.601 175.077 24.321C175.399 24.027 175.805 23.88 176.295 23.88C176.785 23.88 177.184 24.027 177.492 24.321C177.814 24.601 177.975 24.965 177.975 25.413C177.975 25.861 177.814 26.232 177.492 26.526C177.184 26.82 176.785 26.967 176.295 26.967ZM174.951 39V28.584H177.639V39H174.951ZM185.086 39C183.994 39 183.119 38.734 182.461 38.202C181.803 37.67 181.474 36.725 181.474 35.367V30.831H179.689V28.584H181.474L181.789 25.791H184.162V28.584H186.976V30.831H184.162V35.388C184.162 35.892 184.267 36.242 184.477 36.438C184.701 36.62 185.079 36.711 185.611 36.711H186.913V39H185.086ZM194.078 39.252C193.028 39.252 192.097 39.028 191.285 38.58C190.473 38.132 189.836 37.502 189.374 36.69C188.912 35.878 188.681 34.94 188.681 33.876C188.681 32.798 188.905 31.839 189.353 30.999C189.815 30.159 190.445 29.508 191.243 29.046C192.055 28.57 193.007 28.332 194.099 28.332C195.121 28.332 196.024 28.556 196.808 29.004C197.592 29.452 198.201 30.068 198.635 30.852C199.083 31.622 199.307 32.483 199.307 33.435C199.307 33.589 199.3 33.75 199.286 33.918C199.286 34.086 199.279 34.261 199.265 34.443H191.348C191.404 35.255 191.684 35.892 192.188 36.354C192.706 36.816 193.329 37.047 194.057 37.047C194.603 37.047 195.058 36.928 195.422 36.69C195.8 36.438 196.08 36.116 196.262 35.724H198.992C198.796 36.382 198.467 36.984 198.005 37.53C197.557 38.062 196.997 38.482 196.325 38.79C195.667 39.098 194.918 39.252 194.078 39.252ZM194.099 30.516C193.441 30.516 192.86 30.705 192.356 31.083C191.852 31.447 191.53 32.007 191.39 32.763H196.577C196.535 32.077 196.283 31.531 195.821 31.125C195.359 30.719 194.785 30.516 194.099 30.516ZM208.147 39L208.924 35.325H205.9V32.91H209.449L210.1 29.844H207.013V27.429H210.625L211.402 23.817H213.922L213.145 27.429H217.135L217.912 23.817H220.432L219.676 27.429H222.406V29.844H219.151L218.5 32.91H221.293V35.325H217.975L217.198 39H214.657L215.455 35.325H211.465L210.688 39H208.147ZM211.969 32.91H215.959L216.631 29.844H212.641L211.969 32.91ZM226.298 39V27.366L223.883 27.933V25.875L227.432 24.3H229.091V39H226.298Z" fill="#35389D"/>
<path d="M74.085 272.252C72.601 272.252 71.327 271.937 70.263 271.307C69.199 270.663 68.38 269.774 67.806 268.64C67.232 267.492 66.945 266.169 66.945 264.671C66.945 263.173 67.232 261.85 67.806 260.702C68.38 259.554 69.199 258.658 70.263 258.014C71.327 257.37 72.601 257.048 74.085 257.048C75.849 257.048 77.291 257.489 78.411 258.371C79.545 259.239 80.252 260.464 80.532 262.046H77.571C77.389 261.248 76.997 260.625 76.395 260.177C75.807 259.715 75.023 259.484 74.043 259.484C72.685 259.484 71.621 259.946 70.851 260.87C70.081 261.794 69.696 263.061 69.696 264.671C69.696 266.281 70.081 267.548 70.851 268.472C71.621 269.382 72.685 269.837 74.043 269.837C75.023 269.837 75.807 269.627 76.395 269.207C76.997 268.773 77.389 268.178 77.571 267.422H80.532C80.252 268.934 79.545 270.117 78.411 270.971C77.291 271.825 75.849 272.252 74.085 272.252ZM87.8464 272.252C86.8384 272.252 85.9284 272.021 85.1164 271.559C84.3184 271.097 83.6814 270.46 83.2054 269.648C82.7434 268.822 82.5124 267.87 82.5124 266.792C82.5124 265.714 82.7504 264.769 83.2264 263.957C83.7024 263.131 84.3394 262.487 85.1374 262.025C85.9494 261.563 86.8594 261.332 87.8674 261.332C88.8614 261.332 89.7574 261.563 90.5554 262.025C91.3674 262.487 92.0044 263.131 92.4664 263.957C92.9424 264.769 93.1804 265.714 93.1804 266.792C93.1804 267.87 92.9424 268.822 92.4664 269.648C92.0044 270.46 91.3674 271.097 90.5554 271.559C89.7434 272.021 88.8404 272.252 87.8464 272.252ZM87.8464 269.921C88.5464 269.921 89.1554 269.662 89.6734 269.144C90.1914 268.612 90.4504 267.828 90.4504 266.792C90.4504 265.756 90.1914 264.979 89.6734 264.461C89.1554 263.929 88.5534 263.663 87.8674 263.663C87.1534 263.663 86.5374 263.929 86.0194 264.461C85.5154 264.979 85.2634 265.756 85.2634 266.792C85.2634 267.828 85.5154 268.612 86.0194 269.144C86.5374 269.662 87.1464 269.921 87.8464 269.921ZM95.5838 272V261.584H97.9568L98.1878 262.991C98.5238 262.487 98.9648 262.088 99.5108 261.794C100.071 261.486 100.715 261.332 101.443 261.332C103.053 261.332 104.194 261.955 104.866 263.201C105.244 262.627 105.748 262.172 106.378 261.836C107.022 261.5 107.722 261.332 108.478 261.332C109.836 261.332 110.879 261.738 111.607 262.55C112.335 263.362 112.699 264.552 112.699 266.12V272H110.011V266.372C110.011 265.476 109.836 264.79 109.486 264.314C109.15 263.838 108.625 263.6 107.911 263.6C107.183 263.6 106.595 263.866 106.147 264.398C105.713 264.93 105.496 265.672 105.496 266.624V272H102.808V266.372C102.808 265.476 102.633 264.79 102.283 264.314C101.933 263.838 101.394 263.6 100.666 263.6C99.9518 263.6 99.3708 263.866 98.9228 264.398C98.4888 264.93 98.2718 265.672 98.2718 266.624V272H95.5838ZM115.251 276.62V261.584H117.645L117.939 263.075C118.275 262.613 118.716 262.207 119.262 261.857C119.822 261.507 120.543 261.332 121.425 261.332C122.405 261.332 123.28 261.57 124.05 262.046C124.82 262.522 125.429 263.173 125.877 263.999C126.325 264.825 126.549 265.763 126.549 266.813C126.549 267.863 126.325 268.801 125.877 269.627C125.429 270.439 124.82 271.083 124.05 271.559C123.28 272.021 122.405 272.252 121.425 272.252C120.641 272.252 119.955 272.105 119.367 271.811C118.779 271.517 118.303 271.104 117.939 270.572V276.62H115.251ZM120.858 269.9C121.712 269.9 122.419 269.613 122.979 269.039C123.539 268.465 123.819 267.723 123.819 266.813C123.819 265.903 123.539 265.154 122.979 264.566C122.419 263.978 121.712 263.684 120.858 263.684C119.99 263.684 119.276 263.978 118.716 264.566C118.17 265.14 117.897 265.882 117.897 266.792C117.897 267.702 118.17 268.451 118.716 269.039C119.276 269.613 119.99 269.9 120.858 269.9ZM134.011 272.252C132.961 272.252 132.03 272.028 131.218 271.58C130.406 271.132 129.769 270.502 129.307 269.69C128.845 268.878 128.614 267.94 128.614 266.876C128.614 265.798 128.838 264.839 129.286 263.999C129.748 263.159 130.378 262.508 131.176 262.046C131.988 261.57 132.94 261.332 134.032 261.332C135.054 261.332 135.957 261.556 136.741 262.004C137.525 262.452 138.134 263.068 138.568 263.852C139.016 264.622 139.24 265.483 139.24 266.435C139.24 266.589 139.233 266.75 139.219 266.918C139.219 267.086 139.212 267.261 139.198 267.443H131.281C131.337 268.255 131.617 268.892 132.121 269.354C132.639 269.816 133.262 270.047 133.99 270.047C134.536 270.047 134.991 269.928 135.355 269.69C135.733 269.438 136.013 269.116 136.195 268.724H138.925C138.729 269.382 138.4 269.984 137.938 270.53C137.49 271.062 136.93 271.482 136.258 271.79C135.6 272.098 134.851 272.252 134.011 272.252ZM134.032 263.516C133.374 263.516 132.793 263.705 132.289 264.083C131.785 264.447 131.463 265.007 131.323 265.763H136.51C136.468 265.077 136.216 264.531 135.754 264.125C135.292 263.719 134.718 263.516 134.032 263.516ZM145.957 272C144.865 272 143.99 271.734 143.332 271.202C142.674 270.67 142.345 269.725 142.345 268.367V263.831H140.56V261.584H142.345L142.66 258.791H145.033V261.584H147.847V263.831H145.033V268.388C145.033 268.892 145.138 269.242 145.348 269.438C145.572 269.62 145.95 269.711 146.482 269.711H147.784V272H145.957ZM151.604 259.967C151.114 259.967 150.708 259.82 150.386 259.526C150.078 259.232 149.924 258.861 149.924 258.413C149.924 257.965 150.078 257.601 150.386 257.321C150.708 257.027 151.114 256.88 151.604 256.88C152.094 256.88 152.493 257.027 152.801 257.321C153.123 257.601 153.284 257.965 153.284 258.413C153.284 258.861 153.123 259.232 152.801 259.526C152.493 259.82 152.094 259.967 151.604 259.967ZM150.26 272V261.584H152.948V272H150.26ZM160.395 272C159.303 272 158.428 271.734 157.77 271.202C157.112 270.67 156.783 269.725 156.783 268.367V263.831H154.998V261.584H156.783L157.098 258.791H159.471V261.584H162.285V263.831H159.471V268.388C159.471 268.892 159.576 269.242 159.786 269.438C160.01 269.62 160.388 269.711 160.92 269.711H162.222V272H160.395ZM169.324 272.252C168.316 272.252 167.406 272.021 166.594 271.559C165.796 271.097 165.159 270.46 164.683 269.648C164.221 268.822 163.99 267.87 163.99 266.792C163.99 265.714 164.228 264.769 164.704 263.957C165.18 263.131 165.817 262.487 166.615 262.025C167.427 261.563 168.337 261.332 169.345 261.332C170.339 261.332 171.235 261.563 172.033 262.025C172.845 262.487 173.482 263.131 173.944 263.957C174.42 264.769 174.658 265.714 174.658 266.792C174.658 267.87 174.42 268.822 173.944 269.648C173.482 270.46 172.845 271.097 172.033 271.559C171.221 272.021 170.318 272.252 169.324 272.252ZM169.324 269.921C170.024 269.921 170.633 269.662 171.151 269.144C171.669 268.612 171.928 267.828 171.928 266.792C171.928 265.756 171.669 264.979 171.151 264.461C170.633 263.929 170.031 263.663 169.345 263.663C168.631 263.663 168.015 263.929 167.497 264.461C166.993 264.979 166.741 265.756 166.741 266.792C166.741 267.828 166.993 268.612 167.497 269.144C168.015 269.662 168.624 269.921 169.324 269.921ZM177.061 272V261.584H179.455L179.707 263.537C180.085 262.865 180.596 262.333 181.24 261.941C181.898 261.535 182.668 261.332 183.55 261.332V264.167H182.794C182.206 264.167 181.681 264.258 181.219 264.44C180.757 264.622 180.393 264.937 180.127 265.385C179.875 265.833 179.749 266.456 179.749 267.254V272H177.061ZM189.692 272.252C188.768 272.252 187.956 272.105 187.256 271.811C186.556 271.503 185.996 271.083 185.576 270.551C185.156 270.019 184.904 269.403 184.82 268.703H187.529C187.613 269.109 187.837 269.459 188.201 269.753C188.579 270.033 189.062 270.173 189.65 270.173C190.238 270.173 190.665 270.054 190.931 269.816C191.211 269.578 191.351 269.305 191.351 268.997C191.351 268.549 191.155 268.248 190.763 268.094C190.371 267.926 189.825 267.765 189.125 267.611C188.677 267.513 188.222 267.394 187.76 267.254C187.298 267.114 186.871 266.939 186.479 266.729C186.101 266.505 185.793 266.225 185.555 265.889C185.317 265.539 185.198 265.112 185.198 264.608C185.198 263.684 185.562 262.907 186.29 262.277C187.032 261.647 188.068 261.332 189.398 261.332C190.63 261.332 191.61 261.619 192.338 262.193C193.08 262.767 193.521 263.558 193.661 264.566H191.12C190.966 263.796 190.385 263.411 189.377 263.411C188.873 263.411 188.481 263.509 188.201 263.705C187.935 263.901 187.802 264.146 187.802 264.44C187.802 264.748 188.005 264.993 188.411 265.175C188.817 265.357 189.356 265.525 190.028 265.679C190.756 265.847 191.421 266.036 192.023 266.246C192.639 266.442 193.129 266.743 193.493 267.149C193.857 267.541 194.039 268.108 194.039 268.85C194.053 269.494 193.885 270.075 193.535 270.593C193.185 271.111 192.681 271.517 192.023 271.811C191.365 272.105 190.588 272.252 189.692 272.252ZM204.47 272L200.585 257.3H203.462L206.108 268.997L209.216 257.3H212.177L215.201 268.997L217.847 257.3H220.745L216.755 272H213.563L210.644 261.101L207.641 272H204.47ZM226.583 272.252C225.533 272.252 224.602 272.028 223.79 271.58C222.978 271.132 222.341 270.502 221.879 269.69C221.417 268.878 221.186 267.94 221.186 266.876C221.186 265.798 221.41 264.839 221.858 263.999C222.32 263.159 222.95 262.508 223.748 262.046C224.56 261.57 225.512 261.332 226.604 261.332C227.626 261.332 228.529 261.556 229.313 262.004C230.097 262.452 230.706 263.068 231.14 263.852C231.588 264.622 231.812 265.483 231.812 266.435C231.812 266.589 231.805 266.75 231.791 266.918C231.791 267.086 231.784 267.261 231.77 267.443H223.853C223.909 268.255 224.189 268.892 224.693 269.354C225.211 269.816 225.834 270.047 226.562 270.047C227.108 270.047 227.563 269.928 227.927 269.69C228.305 269.438 228.585 269.116 228.767 268.724H231.497C231.301 269.382 230.972 269.984 230.51 270.53C230.062 271.062 229.502 271.482 228.83 271.79C228.172 272.098 227.423 272.252 226.583 272.252ZM226.604 263.516C225.946 263.516 225.365 263.705 224.861 264.083C224.357 264.447 224.035 265.007 223.895 265.763H229.082C229.04 265.077 228.788 264.531 228.326 264.125C227.864 263.719 227.29 263.516 226.604 263.516ZM240.247 272.252C239.463 272.252 238.777 272.105 238.189 271.811C237.601 271.517 237.125 271.104 236.761 270.572L236.467 272H234.073V256.88H236.761V263.075C237.097 262.613 237.538 262.207 238.084 261.857C238.644 261.507 239.365 261.332 240.247 261.332C241.227 261.332 242.102 261.57 242.872 262.046C243.642 262.522 244.251 263.173 244.699 263.999C245.147 264.825 245.371 265.763 245.371 266.813C245.371 267.863 245.147 268.801 244.699 269.627C244.251 270.439 243.642 271.083 242.872 271.559C242.102 272.021 241.227 272.252 240.247 272.252ZM239.68 269.9C240.534 269.9 241.241 269.613 241.801 269.039C242.361 268.465 242.641 267.723 242.641 266.813C242.641 265.903 242.361 265.154 241.801 264.566C241.241 263.978 240.534 263.684 239.68 263.684C238.812 263.684 238.098 263.978 237.538 264.566C236.992 265.14 236.719 265.882 236.719 266.792C236.719 267.702 236.992 268.451 237.538 269.039C238.098 269.613 238.812 269.9 239.68 269.9ZM252.077 272.252C251.153 272.252 250.341 272.105 249.641 271.811C248.941 271.503 248.381 271.083 247.961 270.551C247.541 270.019 247.289 269.403 247.205 268.703H249.914C249.998 269.109 250.222 269.459 250.586 269.753C250.964 270.033 251.447 270.173 252.035 270.173C252.623 270.173 253.05 270.054 253.316 269.816C253.596 269.578 253.736 269.305 253.736 268.997C253.736 268.549 253.54 268.248 253.148 268.094C252.756 267.926 252.21 267.765 251.51 267.611C251.062 267.513 250.607 267.394 250.145 267.254C249.683 267.114 249.256 266.939 248.864 266.729C248.486 266.505 248.178 266.225 247.94 265.889C247.702 265.539 247.583 265.112 247.583 264.608C247.583 263.684 247.947 262.907 248.675 262.277C249.417 261.647 250.453 261.332 251.783 261.332C253.015 261.332 253.995 261.619 254.723 262.193C255.465 262.767 255.906 263.558 256.046 264.566H253.505C253.351 263.796 252.77 263.411 251.762 263.411C251.258 263.411 250.866 263.509 250.586 263.705C250.32 263.901 250.187 264.146 250.187 264.44C250.187 264.748 250.39 264.993 250.796 265.175C251.202 265.357 251.741 265.525 252.413 265.679C253.141 265.847 253.806 266.036 254.408 266.246C255.024 266.442 255.514 266.743 255.878 267.149C256.242 267.541 256.424 268.108 256.424 268.85C256.438 269.494 256.27 270.075 255.92 270.593C255.57 271.111 255.066 271.517 254.408 271.811C253.75 272.105 252.973 272.252 252.077 272.252ZM260.254 259.967C259.764 259.967 259.358 259.82 259.036 259.526C258.728 259.232 258.574 258.861 258.574 258.413C258.574 257.965 258.728 257.601 259.036 257.321C259.358 257.027 259.764 256.88 260.254 256.88C260.744 256.88 261.143 257.027 261.451 257.321C261.773 257.601 261.934 257.965 261.934 258.413C261.934 258.861 261.773 259.232 261.451 259.526C261.143 259.82 260.744 259.967 260.254 259.967ZM258.91 272V261.584H261.598V272H258.91ZM269.045 272C267.953 272 267.078 271.734 266.42 271.202C265.762 270.67 265.433 269.725 265.433 268.367V263.831H263.648V261.584H265.433L265.748 258.791H268.121V261.584H270.935V263.831H268.121V268.388C268.121 268.892 268.226 269.242 268.436 269.438C268.66 269.62 269.038 269.711 269.57 269.711H270.872V272H269.045ZM278.037 272.252C276.987 272.252 276.056 272.028 275.244 271.58C274.432 271.132 273.795 270.502 273.333 269.69C272.871 268.878 272.64 267.94 272.64 266.876C272.64 265.798 272.864 264.839 273.312 263.999C273.774 263.159 274.404 262.508 275.202 262.046C276.014 261.57 276.966 261.332 278.058 261.332C279.08 261.332 279.983 261.556 280.767 262.004C281.551 262.452 282.16 263.068 282.594 263.852C283.042 264.622 283.266 265.483 283.266 266.435C283.266 266.589 283.259 266.75 283.245 266.918C283.245 267.086 283.238 267.261 283.224 267.443H275.307C275.363 268.255 275.643 268.892 276.147 269.354C276.665 269.816 277.288 270.047 278.016 270.047C278.562 270.047 279.017 269.928 279.381 269.69C279.759 269.438 280.039 269.116 280.221 268.724H282.951C282.755 269.382 282.426 269.984 281.964 270.53C281.516 271.062 280.956 271.482 280.284 271.79C279.626 272.098 278.877 272.252 278.037 272.252ZM278.058 263.516C277.4 263.516 276.819 263.705 276.315 264.083C275.811 264.447 275.489 265.007 275.349 265.763H280.536C280.494 265.077 280.242 264.531 279.78 264.125C279.318 263.719 278.744 263.516 278.058 263.516ZM292.106 272L292.883 268.325H289.859V265.91H293.408L294.059 262.844H290.972V260.429H294.584L295.361 256.817H297.881L297.104 260.429H301.094L301.871 256.817H304.391L303.635 260.429H306.365V262.844H303.11L302.459 265.91H305.252V268.325H301.934L301.157 272H298.616L299.414 268.325H295.424L294.647 272H292.106ZM295.928 265.91H299.918L300.59 262.844H296.6L295.928 265.91ZM308.304 272V270.047C309.2 269.305 310.068 268.57 310.908 267.842C311.762 267.114 312.518 266.393 313.176 265.679C313.848 264.965 314.38 264.272 314.772 263.6C315.178 262.914 315.381 262.249 315.381 261.605C315.381 261.003 315.213 260.471 314.877 260.009C314.555 259.547 314.016 259.316 313.26 259.316C312.49 259.316 311.909 259.568 311.517 260.072C311.125 260.576 310.929 261.185 310.929 261.899H308.325C308.353 260.821 308.591 259.925 309.039 259.211C309.487 258.483 310.082 257.944 310.824 257.594C311.566 257.23 312.399 257.048 313.323 257.048C314.821 257.048 315.983 257.461 316.809 258.287C317.649 259.099 318.069 260.156 318.069 261.458C318.069 262.27 317.88 263.061 317.502 263.831C317.138 264.601 316.655 265.343 316.053 266.057C315.451 266.771 314.8 267.443 314.1 268.073C313.4 268.689 312.721 269.263 312.063 269.795H318.426V272H308.304Z" fill="#35389D"/>
<defs>
<linearGradient id="paint0_linear_219_12" x1="0" y1="117" x2="38.9535" y2="298.647" gradientUnits="userSpaceOnUse">
<stop stop-color="#4300A3"/>
<stop offset="0.0909091" stop-color="#4D00AA"/>
<stop offset="0.181818" stop-color="#5700B1"/>
<stop offset="0.272727" stop-color="#6000B7"/>
<stop offset="0.363636" stop-color="#6A00BE"/>
<stop offset="0.454545" stop-color="#7200C5"/>
<stop offset="0.545455" stop-color="#7B00CB"/>
<stop offset="0.636364" stop-color="#8300D2"/>
<stop offset="0.727273" stop-color="#8C00DA"/>
<stop offset="0.818182" stop-color="#9500E2"/>
<stop offset="0.909091" stop-color="#9E00E9"/>
<stop offset="1" stop-color="#A700F1"/>
</linearGradient>
<radialGradient id="paint1_radial_219_12" cx="0" cy="0" r="1" gradientUnits="userSpaceOnUse" gradientTransform="translate(41.8719 164) rotate(88.6224) scale(31.4376 22.6927)">
<stop offset="0.619911" stop-color="#F1F1F1"/>
<stop offset="1" stop-color="white"/>
</radialGradient>
</defs>
</svg>
