<svg width="20" height="21" viewBox="0 0 20 21" fill="none" xmlns="http://www.w3.org/2000/svg">
<path d="M2.5 8.38667H17.5M5.83333 12.5533H6.66667M10 12.5533H10.8333M5 15.8867H15C15.663 15.8867 16.2989 15.6233 16.7678 15.1544C17.2366 14.6856 17.5 14.0497 17.5 13.3867V6.72C17.5 6.05696 17.2366 5.42108 16.7678 4.95223C16.2989 4.48339 15.663 4.22 15 4.22H5C4.33696 4.22 3.70107 4.48339 3.23223 4.95223C2.76339 5.42108 2.5 6.05696 2.5 6.72V13.3867C2.5 14.0497 2.76339 14.6856 3.23223 15.1544C3.70107 15.6233 4.33696 15.8867 5 15.8867Z" stroke="#94A3B8" stroke-width="1.66667" stroke-linecap="round" stroke-linejoin="round"/>
</svg>
