<svg width="21" height="21" viewBox="0 0 21 21" fill="none" xmlns="http://www.w3.org/2000/svg">
<mask id="mask0_122_2104" style="mask-type:luminance" maskUnits="userSpaceOnUse" x="0" y="0" width="21" height="21">
<path d="M20.0034 0.0498657H0.00341797V20.0499H20.0034V0.0498657Z" fill="white"/>
</mask>
<g mask="url(#mask0_122_2104)">
<path d="M14.1328 18.5846C14.1161 18.5848 14.0993 18.5849 14.0823 18.5849C14.0288 18.5849 13.9753 18.5848 13.9219 18.5846H14.1328Z" fill="white"/>
<path d="M14.1909 18.5836C11.5741 18.5199 10.4832 15.5409 11.4816 12.9849C11.0292 12.9849 6.31476 13.0927 6.29891 12.9757C5.88667 11.5064 3.88119 2.75408 7.78304 1.51488H18.5748C15.6138 2.41601 16.1059 6.53064 16.5801 10.4941C17.0685 14.5779 17.5379 18.5012 14.1909 18.5836Z" fill="white"/>
<path d="M3.33895 12.9849H1.7329C1.29889 14.729 0.783095 18.5846 4.5198 18.5846H14.2768C11.5983 18.5846 10.4725 15.5686 11.4818 12.9849H3.33895Z" fill="#E5E7EB"/>
<path d="M3.33895 12.9849H1.7329C1.29889 14.729 0.783095 18.5846 4.5198 18.5846H14.2768C11.5983 18.5846 10.4725 15.5686 11.4818 12.9849H3.33895Z" stroke="#4B5563" stroke-width="1.71429" stroke-linecap="round" stroke-linejoin="round"/>
<path d="M9.7832 5.61159H12.4226" stroke="#4B5563" stroke-width="1.71429" stroke-linecap="round" stroke-linejoin="round"/>
<path d="M9.7832 9.30225H12.4226" stroke="#4B5563" stroke-width="1.71429" stroke-linecap="round" stroke-linejoin="round"/>
<path d="M14.1328 18.5846C14.1161 18.5848 14.0993 18.5849 14.0823 18.5849C14.0288 18.5849 13.9753 18.5848 13.9219 18.5846H14.1328Z" stroke="#4B5563" stroke-width="1.71429" stroke-linejoin="round"/>
<path d="M14.1909 18.5836C11.5741 18.5199 10.4832 15.5409 11.4816 12.9849C11.0292 12.9849 6.31476 13.0927 6.29891 12.9757C5.88667 11.5064 3.88119 2.75408 7.78304 1.51488H18.5748C15.6138 2.41601 16.1059 6.53064 16.5801 10.4941C17.0685 14.5779 17.5379 18.5012 14.1909 18.5836Z" stroke="#4B5563" stroke-width="1.71429" stroke-linejoin="round"/>
</g>
</svg>
