<svg width="20" height="21" viewBox="0 0 20 21" fill="none" xmlns="http://www.w3.org/2000/svg">
<path d="M10.0562 6.38184C9.37874 6.38184 8.81321 6.61849 8.3606 7.00288C7.908 7.38726 7.64311 7.6992 7.56689 8.64017H8.94871C8.97882 8.16968 9.09127 8.061 9.28558 7.88222C9.47989 7.70343 9.72125 7.59146 10.0106 7.59146C10.2999 7.59146 10.5357 7.67332 10.7182 7.8601C10.9012 8.04642 10.9925 8.27507 10.9925 8.55642C10.9925 8.83777 10.9045 9.07113 10.73 9.26168L9.89627 10.094C9.65256 10.3377 9.60175 10.5334 9.52929 10.6816C9.45684 10.8298 9.52788 11.0552 9.52788 11.3596V11.9336H10.4689V11.5421C10.4689 11.2382 10.6048 11.002 10.7422 10.8345C10.7949 10.7738 10.8989 10.6995 10.9873 10.612C11.0748 10.524 11.1981 10.4214 11.3237 10.3033C11.4493 10.1857 11.559 10.0883 11.6352 10.0121C11.7109 9.93636 11.8253 9.8065 11.9702 9.62395C12.2209 9.31955 12.3489 8.93893 12.3489 8.48209C12.3489 7.81964 12.1372 7.30446 11.7109 6.93466C11.2837 6.56627 10.7337 6.38184 10.0562 6.38184Z" fill="#94A3B8"/>
<path d="M9.97007 12.4722C9.73007 12.4722 9.5249 12.5565 9.35313 12.7235C9.18184 12.8911 9.09619 13.0906 9.09619 13.3231C9.09619 13.5551 9.18372 13.7532 9.35878 13.9169C9.53384 14.0807 9.74137 14.1621 9.9809 14.1621C10.2209 14.1621 10.4265 14.0783 10.5978 13.9113C10.7687 13.7438 10.8548 13.5438 10.8548 13.3118C10.8548 13.0798 10.7668 12.8816 10.5917 12.7174C10.4176 12.5536 10.2101 12.4722 9.97007 12.4722Z" fill="#94A3B8"/>
<path d="M9.99826 2.05334C5.58087 2.05334 2 5.63421 2 10.0516C2 14.469 5.58087 18.0499 9.99826 18.0499C14.4157 18.0499 17.9965 14.469 17.9965 10.0516C17.9965 5.63421 14.4157 2.05334 9.99826 2.05334ZM9.99826 16.6384C6.36046 16.6384 3.41146 13.6894 3.41146 10.0516C3.41146 6.41381 6.36046 3.4648 9.99826 3.4648C13.6361 3.4648 16.5851 6.41381 16.5851 10.0516C16.5851 13.6894 13.6361 16.6384 9.99826 16.6384Z" fill="#94A3B8"/>
</svg>
