<svg width="20" height="21" viewBox="0 0 20 21" fill="none" xmlns="http://www.w3.org/2000/svg">
<path d="M10 6.72001V10.0533L12.5 12.5533M17.5 10.0533C17.5 11.0383 17.306 12.0135 16.9291 12.9235C16.5522 13.8334 15.9997 14.6602 15.3033 15.3566C14.6069 16.0531 13.7801 16.6055 12.8701 16.9824C11.9602 17.3594 10.9849 17.5533 10 17.5533C9.01509 17.5533 8.03982 17.3594 7.12987 16.9824C6.21993 16.6055 5.39314 16.0531 4.6967 15.3566C4.00026 14.6602 3.44781 13.8334 3.0709 12.9235C2.69399 12.0135 2.5 11.0383 2.5 10.0533C2.5 8.06422 3.29018 6.15657 4.6967 4.75004C6.10322 3.34352 8.01088 2.55334 10 2.55334C11.9891 2.55334 13.8968 3.34352 15.3033 4.75004C16.7098 6.15657 17.5 8.06422 17.5 10.0533Z" stroke="#94A3B8" strokeWidth="1.66667" strokeLinecap="round" sstrokelinejoin="round"/>
</svg>
