<svg width="18" height="18" viewBox="0 0 18 18" fill="none" xmlns="http://www.w3.org/2000/svg">
<path d="M6.27813 9.02208C8.25966 9.02208 9.86563 7.41583 9.86563 5.43458C9.86563 3.45332 8.25966 1.84708 6.27813 1.84708C4.29659 1.84708 2.69063 3.45332 2.69063 5.43458C2.69063 7.41583 4.29659 9.02208 6.27813 9.02208ZM6.27813 3.19239C7.51441 3.19239 8.52031 4.19829 8.52031 5.43458C8.52031 6.67086 7.51441 7.67676 6.27813 7.67676C5.04212 7.67676 4.03594 6.67058 4.03594 5.43458C4.03594 4.19829 5.04212 3.19239 6.27813 3.19239ZM7.69911 10.3674H4.85714C2.1752 10.3674 0 12.5423 0 15.2245C0 15.7627 0.434984 16.1971 0.971428 16.1971H11.5854C12.1218 16.1971 12.5563 15.7627 12.5563 15.2245C12.5563 12.5423 10.3813 10.3674 7.69911 10.3674ZM1.36521 14.8518C1.55215 13.0888 3.04657 11.7127 4.85714 11.7127H7.69911C9.50996 11.7127 10.9811 13.0897 11.1913 14.8518H1.36521ZM17.2648 7.45255H15.9195V6.10723C15.9195 5.73727 15.6196 5.43458 15.2469 5.43458C14.8741 5.43458 14.5742 5.73587 14.5742 6.10723V7.45255H13.2289C12.8589 7.45255 12.5563 7.75524 12.5563 8.1252C12.5563 8.49516 12.8575 8.79786 13.2289 8.79786H14.5742V10.1432C14.5742 10.5159 14.8769 10.8158 15.2469 10.8158C15.6168 10.8158 15.9195 10.5145 15.9195 10.1432V8.79786H17.2648C17.6376 8.79786 17.9375 8.49797 17.9375 8.1252C17.9375 7.75244 17.6376 7.45255 17.2648 7.45255Z" fill="#E2E8F0"/>
</svg>
