<svg width="20" height="21" viewBox="0 0 20 21" fill="none" xmlns="http://www.w3.org/2000/svg">
<path d="M8.60417 4.42514C8.95917 2.9618 11.0408 2.9618 11.3958 4.42514C11.4491 4.64497 11.5535 4.84912 11.7006 5.02097C11.8477 5.19282 12.0332 5.32752 12.2422 5.41409C12.4512 5.50067 12.6776 5.53668 12.9032 5.51919C13.1287 5.50171 13.3469 5.43122 13.54 5.31347C14.8258 4.53014 16.2983 6.0018 15.515 7.28847C15.3974 7.48152 15.327 7.69958 15.3096 7.92495C15.2922 8.15031 15.3281 8.37661 15.4146 8.58545C15.5011 8.79429 15.6356 8.97978 15.8073 9.12685C15.9789 9.27391 16.1829 9.37839 16.4025 9.4318C17.8658 9.7868 17.8658 11.8685 16.4025 12.2235C16.1827 12.2767 15.9785 12.3812 15.8067 12.5282C15.6348 12.6753 15.5001 12.8609 15.4135 13.0698C15.327 13.2788 15.291 13.5053 15.3084 13.7308C15.3259 13.9563 15.3964 14.1745 15.5142 14.3676C16.2975 15.6535 14.8258 17.126 13.5392 16.3426C13.3461 16.2251 13.1281 16.1547 12.9027 16.1372C12.6773 16.1198 12.451 16.1558 12.2422 16.2422C12.0333 16.3287 11.8479 16.4633 11.7008 16.6349C11.5537 16.8066 11.4492 17.0105 11.3958 17.2301C11.0408 18.6935 8.95917 18.6935 8.60417 17.2301C8.5509 17.0103 8.44648 16.8062 8.29941 16.6343C8.15233 16.4625 7.96676 16.3278 7.75779 16.2412C7.54882 16.1546 7.32236 16.1186 7.09685 16.1361C6.87133 16.1536 6.65313 16.2241 6.46 16.3418C5.17417 17.1251 3.70167 15.6535 4.485 14.3668C4.60258 14.1738 4.67296 13.9557 4.6904 13.7303C4.70785 13.505 4.67187 13.2787 4.58539 13.0698C4.49892 12.861 4.36438 12.6755 4.19273 12.5284C4.02107 12.3814 3.81714 12.2769 3.5975 12.2235C2.13417 11.8685 2.13417 9.7868 3.5975 9.4318C3.81733 9.37854 4.02148 9.27412 4.19333 9.12704C4.36518 8.97997 4.49988 8.7944 4.58645 8.58543C4.67303 8.37646 4.70904 8.15 4.69156 7.92448C4.67407 7.69897 4.60359 7.48076 4.48583 7.28764C3.7025 6.0018 5.17417 4.5293 6.46083 5.31264C7.29083 5.8193 8.37417 5.37097 8.60417 4.42514Z" stroke="#94A3B8" strokeWidth="1.66667" strokeLinecap="round" sstrokelinejoin="round"/>
<path d="M12.5 10.8276C12.5 11.4907 12.2366 12.1266 11.7678 12.5954C11.2989 13.0642 10.663 13.3276 10 13.3276C9.33696 13.3276 8.70107 13.0642 8.23223 12.5954C7.76339 12.1266 7.5 11.4907 7.5 10.8276C7.5 10.1646 7.76339 9.52871 8.23223 9.05987C8.70107 8.59103 9.33696 8.32764 10 8.32764C10.663 8.32764 11.2989 8.59103 11.7678 9.05987C12.2366 9.52871 12.5 10.1646 12.5 10.8276Z" stroke="#94A3B8" strokeWidth="1.66667" strokeLinecap="round" sstrokelinejoin="round"/>
</svg>
