<svg width="20" height="21" viewBox="0 0 20 21" fill="none" xmlns="http://www.w3.org/2000/svg">
<g clip-path="url(#clip0_122_2160)">
<path d="M5 3.55334C4.46957 3.55334 3.96086 3.76406 3.58579 4.13913C3.21071 4.5142 3 5.02291 3 5.55334V7.55334C3 8.08378 3.21071 8.59248 3.58579 8.96756C3.96086 9.34263 4.46957 9.55334 5 9.55334H7C7.53043 9.55334 8.03914 9.34263 8.41421 8.96756C8.78929 8.59248 9 8.08378 9 7.55334V5.55334C9 5.02291 8.78929 4.5142 8.41421 4.13913C8.03914 3.76406 7.53043 3.55334 7 3.55334H5ZM5 11.5533C4.46957 11.5533 3.96086 11.7641 3.58579 12.1391C3.21071 12.5142 3 13.0229 3 13.5533V15.5533C3 16.0838 3.21071 16.5925 3.58579 16.9676C3.96086 17.3426 4.46957 17.5533 5 17.5533H7C7.53043 17.5533 8.03914 17.3426 8.41421 16.9676C8.78929 16.5925 9 16.0838 9 15.5533V13.5533C9 13.0229 8.78929 12.5142 8.41421 12.1391C8.03914 11.7641 7.53043 11.5533 7 11.5533H5ZM11 5.55334C11 5.02291 11.2107 4.5142 11.5858 4.13913C11.9609 3.76406 12.4696 3.55334 13 3.55334H15C15.5304 3.55334 16.0391 3.76406 16.4142 4.13913C16.7893 4.5142 17 5.02291 17 5.55334V7.55334C17 8.08378 16.7893 8.59248 16.4142 8.96756C16.0391 9.34263 15.5304 9.55334 15 9.55334H13C12.4696 9.55334 11.9609 9.34263 11.5858 8.96756C11.2107 8.59248 11 8.08378 11 7.55334V5.55334ZM11 13.5533C11 13.0229 11.2107 12.5142 11.5858 12.1391C11.9609 11.7641 12.4696 11.5533 13 11.5533H15C15.5304 11.5533 16.0391 11.7641 16.4142 12.1391C16.7893 12.5142 17 13.0229 17 13.5533V15.5533C17 16.0838 16.7893 16.5925 16.4142 16.9676C16.0391 17.3426 15.5304 17.5533 15 17.5533H13C12.4696 17.5533 11.9609 17.3426 11.5858 16.9676C11.2107 16.5925 11 16.0838 11 15.5533V13.5533Z" fill="#500AD2"/>
<path d="M5 3.55334C4.46957 3.55334 3.96086 3.76406 3.58579 4.13913C3.21071 4.5142 3 5.02291 3 5.55334V7.55334C3 8.08378 3.21071 8.59248 3.58579 8.96756C3.96086 9.34263 4.46957 9.55334 5 9.55334H7C7.53043 9.55334 8.03914 9.34263 8.41421 8.96756C8.78929 8.59248 9 8.08378 9 7.55334V5.55334C9 5.02291 8.78929 4.5142 8.41421 4.13913C8.03914 3.76406 7.53043 3.55334 7 3.55334H5ZM5 11.5533C4.46957 11.5533 3.96086 11.7641 3.58579 12.1391C3.21071 12.5142 3 13.0229 3 13.5533V15.5533C3 16.0838 3.21071 16.5925 3.58579 16.9676C3.96086 17.3426 4.46957 17.5533 5 17.5533H7C7.53043 17.5533 8.03914 17.3426 8.41421 16.9676C8.78929 16.5925 9 16.0838 9 15.5533V13.5533C9 13.0229 8.78929 12.5142 8.41421 12.1391C8.03914 11.7641 7.53043 11.5533 7 11.5533H5ZM11 5.55334C11 5.02291 11.2107 4.5142 11.5858 4.13913C11.9609 3.76406 12.4696 3.55334 13 3.55334H15C15.5304 3.55334 16.0391 3.76406 16.4142 4.13913C16.7893 4.5142 17 5.02291 17 5.55334V7.55334C17 8.08378 16.7893 8.59248 16.4142 8.96756C16.0391 9.34263 15.5304 9.55334 15 9.55334H13C12.4696 9.55334 11.9609 9.34263 11.5858 8.96756C11.2107 8.59248 11 8.08378 11 7.55334V5.55334ZM11 13.5533C11 13.0229 11.2107 12.5142 11.5858 12.1391C11.9609 11.7641 12.4696 11.5533 13 11.5533H15C15.5304 11.5533 16.0391 11.7641 16.4142 12.1391C16.7893 12.5142 17 13.0229 17 13.5533V15.5533C17 16.0838 16.7893 16.5925 16.4142 16.9676C16.0391 17.3426 15.5304 17.5533 15 17.5533H13C12.4696 17.5533 11.9609 17.3426 11.5858 16.9676C11.2107 16.5925 11 16.0838 11 15.5533V13.5533Z" fill="url(#paint0_linear_122_2160)"/>
</g>
<defs>
<linearGradient id="paint0_linear_122_2160" x1="3" y1="3.55334" x2="17" y2="17.5533" gradientUnits="userSpaceOnUse">
<stop stop-color="#4300A3"/>
<stop offset="0.0909091" stop-color="#4D00AA"/>
<stop offset="0.181818" stop-color="#5700B1"/>
<stop offset="0.272727" stop-color="#6000B7"/>
<stop offset="0.363636" stop-color="#6A00BE"/>
<stop offset="0.454545" stop-color="#7200C5"/>
<stop offset="0.545455" stop-color="#7B00CB"/>
<stop offset="0.636364" stop-color="#8300D2"/>
<stop offset="0.727273" stop-color="#8C00DA"/>
<stop offset="0.818182" stop-color="#9500E2"/>
<stop offset="0.909091" stop-color="#9E00E9"/>
<stop offset="1" stop-color="#A700F1"/>
</linearGradient>
<clipPath id="clip0_122_2160">
<rect width="20" height="20" fill="white" transform="translate(0 0.553345)"/>
</clipPath>
</defs>
</svg>
