<svg width="25" height="25" viewBox="0 0 25 25" fill="none" xmlns="http://www.w3.org/2000/svg">
<g clip-path="url(#clip0_122_2136)">
<path fill-rule="evenodd" clip-rule="evenodd" d="M6.36003 8.79547C6.585 8.57057 6.89008 8.44423 7.20819 8.44423C7.52629 8.44423 7.83138 8.57057 8.05634 8.79547L12.0068 12.7459L15.9573 8.79547C16.0679 8.68089 16.2003 8.5895 16.3467 8.52663C16.493 8.46375 16.6505 8.43066 16.8097 8.42928C16.969 8.42789 17.127 8.45824 17.2744 8.51856C17.4219 8.57888 17.5558 8.66796 17.6685 8.7806C17.7811 8.89324 17.8702 9.02718 17.9305 9.17462C17.9908 9.32205 18.0212 9.48002 18.0198 9.63931C18.0184 9.7986 17.9853 9.95602 17.9224 10.1024C17.8596 10.2487 17.7682 10.3811 17.6536 10.4918L12.855 15.2904C12.63 15.5153 12.3249 15.6416 12.0068 15.6416C11.6887 15.6416 11.3836 15.5153 11.1587 15.2904L6.36003 10.4918C6.13513 10.2668 6.00879 9.96173 6.00879 9.64363C6.00879 9.32552 6.13513 9.02044 6.36003 8.79547Z" fill="#64748B"/>
</g>
<defs>
<clipPath id="clip0_122_2136">
<rect width="23.9931" height="23.9931" fill="white" transform="translate(0.0102539 0.0463867)"/>
</clipPath>
</defs>
</svg>
