<svg width="19" height="20" viewBox="0 0 19 20" fill="none" xmlns="http://www.w3.org/2000/svg">
<path d="M9.5 0.0533447C4.256 0.0533447 0 4.30934 0 9.55334C0 14.7973 4.256 19.0533 9.5 19.0533C14.744 19.0533 19 14.7973 19 9.55334C19 4.30934 14.744 0.0533447 9.5 0.0533447ZM4.8165 15.5193C5.225 14.6643 7.714 13.8283 9.5 13.8283C11.286 13.8283 13.775 14.6643 14.1835 15.5193C12.8915 16.5453 11.267 17.1533 9.5 17.1533C7.733 17.1533 6.1085 16.5453 4.8165 15.5193ZM15.542 14.1418C14.1835 12.4888 10.887 11.9283 9.5 11.9283C8.113 11.9283 4.8165 12.4888 3.458 14.1418C2.489 12.8783 1.9 11.2823 1.9 9.55334C1.9 5.36384 5.3105 1.95334 9.5 1.95334C13.6895 1.95334 17.1 5.36384 17.1 9.55334C17.1 11.2823 16.511 12.8783 15.542 14.1418ZM9.5 3.85334C7.657 3.85334 6.175 5.33534 6.175 7.17834C6.175 9.02135 7.657 10.5033 9.5 10.5033C11.343 10.5033 12.825 9.02135 12.825 7.17834C12.825 5.33534 11.343 3.85334 9.5 3.85334ZM9.5 8.60334C8.7115 8.60334 8.075 7.96684 8.075 7.17834C8.075 6.38984 8.7115 5.75334 9.5 5.75334C10.2885 5.75334 10.925 6.38984 10.925 7.17834C10.925 7.96684 10.2885 8.60334 9.5 8.60334Z" fill="#94A3B8"/>
</svg>
