<svg width="21" height="21" viewBox="0 0 21 21" fill="none" xmlns="http://www.w3.org/2000/svg">
<g clip-path="url(#clip0_393_990)">
<path fill-rule="evenodd" clip-rule="evenodd" d="M0.133789 0.188477H20.1338V20.1885H0.133789V0.188477Z" fill="#0193CE"/>
<path fill-rule="evenodd" clip-rule="evenodd" d="M11.2521 11.5526H13.9334L14.7521 10.6089L15.6521 11.5526H16.6021L15.2271 10.2401L16.6084 8.82139H15.6584L14.7584 9.76514L13.9709 8.82764H11.2584V8.29639H14.1834L14.7584 9.03389L15.4396 8.29639H17.9709L16.0709 10.2401L17.9709 12.0776H15.4396L14.7521 11.3464L14.1771 12.0776H11.2521V11.5526ZM13.5459 11.0276H11.9646V10.5026H13.4396V9.98389H11.9646V9.45889H13.6521L14.2834 10.2464L13.5459 11.0276ZM4.4834 12.0776H2.2959L4.15215 8.29639H5.90215L6.1209 8.71514V8.29639H8.3084L8.7459 9.34639L9.1834 8.29639H11.2521V12.0776H9.6084V11.5526L9.3959 12.0776H8.0834L7.86465 11.5526V12.0776H5.46465L5.2459 11.4526H4.70215L4.4834 12.0776ZM10.7084 11.5526V8.82139H9.6209L8.7459 10.7151L7.86465 8.82139H6.77715V11.3464L5.46465 8.82139H4.58965L3.27715 11.5526H4.0459L4.26465 10.9276H5.6834L5.90215 11.5526H7.4209V9.45264L8.4209 11.5526H9.07715L10.0584 9.45264V11.5526H10.7084ZM5.46465 10.3964L5.02715 9.24014L4.4834 10.3964H5.46465Z" fill="white"/>
</g>
<defs>
<clipPath id="clip0_393_990">
<rect width="20" height="20" fill="white" transform="translate(0.133789 0.188477)"/>
</clipPath>
</defs>
</svg>
