<svg width="21" height="21" viewBox="0 0 21 21" fill="none" xmlns="http://www.w3.org/2000/svg">
<g clip-path="url(#clip0_393_954)">
<path fill-rule="evenodd" clip-rule="evenodd" d="M0.133789 0.188477H20.1338V20.1885H0.133789V0.188477Z" fill="#003663"/>
<path fill-rule="evenodd" clip-rule="evenodd" d="M0.133789 0.188477H20.1338V20.1885H0.133789V0.188477Z" fill="white"/>
<path d="M17.2707 4.56348H2.94629C2.83649 4.56372 2.7267 4.56455 2.61691 4.56598C2.50697 4.56731 2.39729 4.57692 2.28879 4.59473C2.17879 4.61473 2.07629 4.64723 1.97629 4.69785C1.77888 4.79844 1.61848 4.95906 1.51816 5.1566C1.46691 5.2566 1.43504 5.35848 1.41504 5.46848C1.39629 5.5766 1.38941 5.68723 1.38629 5.7966L1.38379 5.9466V14.1716C1.3842 14.2816 1.38503 14.3916 1.38629 14.5016C1.38941 14.611 1.39566 14.7216 1.41504 14.8297C1.43504 14.9397 1.46691 15.0422 1.51816 15.1416C1.61847 15.3394 1.77915 15.5 1.97691 15.6004C2.07691 15.651 2.17879 15.6835 2.28879 15.7029C2.39691 15.7222 2.50754 15.7291 2.61691 15.7322L2.76691 15.7341H17.4494L17.6007 15.7322C17.7094 15.7291 17.82 15.7222 17.9288 15.7029C18.0382 15.6835 18.1407 15.651 18.2407 15.6004C18.4383 15.5 18.5988 15.3393 18.6988 15.1416C18.7486 15.0432 18.7834 14.9378 18.8019 14.8291C18.8197 14.7208 18.8294 14.6113 18.8307 14.5016C18.8319 14.4516 18.8325 14.4016 18.8325 14.351L18.8332 14.1716V5.94723C18.8332 5.89723 18.8319 5.84723 18.8307 5.7966C18.8294 5.68666 18.8198 5.57697 18.8019 5.46848C18.7671 5.24937 18.6639 5.04687 18.5071 4.88994C18.3503 4.73301 18.1479 4.62968 17.9288 4.59473C17.8203 4.57695 17.7106 4.56734 17.6007 4.56598L17.4494 4.5641L17.2707 4.56348Z" fill="black"/>
<path d="M17.2702 4.93604H17.4465C17.494 4.93604 17.5421 4.93728 17.5902 4.93853C17.6734 4.94041 17.7715 4.94479 17.8621 4.96166C17.9415 4.97604 18.0077 4.99729 18.0715 5.03041C18.1989 5.09511 18.3024 5.19864 18.3671 5.32604C18.399 5.38854 18.4209 5.45478 18.4346 5.53478C18.4509 5.62478 18.4559 5.72229 18.4577 5.80666L18.4602 5.95041V14.3492C18.4602 14.3967 18.459 14.4442 18.4577 14.4917C18.4572 14.583 18.4494 14.6741 18.4346 14.7642C18.4227 14.8368 18.3997 14.9072 18.3665 14.9729C18.3017 15.1003 18.1982 15.2038 18.0709 15.2685C18.0053 15.3016 17.9351 15.3246 17.8627 15.3367C17.773 15.3509 17.6823 15.3586 17.5915 15.3598C17.5432 15.361 17.4948 15.3617 17.4465 15.3617H2.76898C2.72086 15.3617 2.67273 15.361 2.62648 15.3598C2.53521 15.3586 2.44414 15.3509 2.35398 15.3367C2.28112 15.3245 2.21053 15.3013 2.14461 15.2679C2.01731 15.2036 1.91393 15.1002 1.84961 14.9729C1.81625 14.907 1.79307 14.8364 1.78086 14.7635C1.76665 14.6736 1.75913 14.5827 1.75836 14.4917C1.75704 14.444 1.7562 14.3963 1.75586 14.3485V5.94979C1.75586 5.90166 1.75648 5.85416 1.75836 5.80603C1.76023 5.72291 1.76461 5.62541 1.78148 5.53416C1.79337 5.4615 1.81634 5.39109 1.84961 5.32541C1.9142 5.19794 2.01776 5.09438 2.14523 5.02978C2.20836 4.99728 2.27461 4.97604 2.35398 4.96104C2.44416 4.94702 2.53523 4.9395 2.62648 4.93853L2.76898 4.93604H17.2702Z" fill="white"/>
<path d="M6.1474 8.32084C6.29678 8.13334 6.39803 7.88334 6.37115 7.62646C6.1524 7.63709 5.88553 7.77021 5.73115 7.95771C5.5924 8.11771 5.4699 8.37959 5.50178 8.62521C5.7474 8.64646 5.9924 8.50209 6.1474 8.32084ZM6.36865 8.67271C6.0124 8.65146 5.70865 8.87521 5.53865 8.87521C5.36803 8.87521 5.1074 8.68334 4.82553 8.68896C4.64211 8.69363 4.46311 8.74622 4.30632 8.8415C4.14952 8.93678 4.0204 9.07144 3.93178 9.23209C3.54865 9.89209 3.83053 10.8715 4.20303 11.4096C4.38428 11.6752 4.60178 11.9683 4.88928 11.9577C5.16053 11.9471 5.2674 11.7827 5.59678 11.7827C5.92678 11.7827 6.0224 11.9577 6.3099 11.9527C6.60803 11.9471 6.79428 11.6865 6.9749 11.4202C7.18303 11.1165 7.26803 10.824 7.27303 10.8077C7.26803 10.8027 6.69803 10.584 6.69303 9.92959C6.68803 9.38084 7.1399 9.12021 7.16178 9.10459C6.90553 8.72646 6.50678 8.68334 6.36803 8.67334" fill="black"/>
<path d="M9.47309 7.93066C10.2481 7.93066 10.7875 8.46504 10.7875 9.24316C10.7875 10.0232 10.2375 10.56 9.45371 10.56H8.59559V11.9244H7.97559V7.93066H9.47309ZM8.59559 10.04H9.30684C9.84684 10.04 10.1537 9.74941 10.1537 9.24566C10.1537 8.74191 9.84684 8.45379 9.30996 8.45379H8.59559V10.04ZM10.95 11.0969C10.95 10.5875 11.34 10.275 12.0318 10.2363L12.8287 10.1894V9.96504C12.8287 9.64129 12.61 9.44754 12.245 9.44754C11.8987 9.44754 11.6831 9.61379 11.6306 9.87379H11.0662C11.0993 9.34754 11.5475 8.96004 12.2668 8.96004C12.9731 8.96004 13.4237 9.33379 13.4237 9.91816V11.9244H12.8512V11.4457H12.8375C12.6687 11.7694 12.3 11.9744 11.9187 11.9744C11.3481 11.9744 10.95 11.62 10.95 11.0969ZM12.8287 10.8344V10.6044L12.1118 10.6482C11.7556 10.6732 11.5531 10.8313 11.5531 11.0807C11.5531 11.335 11.7631 11.5013 12.0843 11.5013C12.5025 11.5013 12.8287 11.2138 12.8287 10.8344ZM13.965 12.9957V12.5113C14.0087 12.5225 14.1087 12.5225 14.1587 12.5225C14.4356 12.5225 14.585 12.4063 14.6762 12.1075C14.6762 12.1013 14.7287 11.93 14.7287 11.9275L13.6775 9.01316H14.325L15.0618 11.3819H15.0725L15.8087 9.01316H16.44L15.3493 12.0769C15.1006 12.7832 14.8125 13.0094 14.2093 13.0094C14.1279 13.0091 14.0465 13.0045 13.9656 12.9957H13.965Z" fill="black"/>
</g>
<defs>
<clipPath id="clip0_393_954">
<rect width="20" height="20" fill="white" transform="translate(0.133789 0.188477)"/>
</clipPath>
</defs>
</svg>
