<svg width="21" height="21" viewBox="0 0 21 21" fill="none" xmlns="http://www.w3.org/2000/svg">
<g clip-path="url(#clip0_393_980)">
<path fill-rule="evenodd" clip-rule="evenodd" d="M0.133789 0.188477H20.1338V20.1885H0.133789V0.188477Z" fill="#EBF1F8"/>
<path fill-rule="evenodd" clip-rule="evenodd" d="M0.133789 0.188477H20.1338V20.1885H0.133789V0.188477Z" fill="white"/>
<path d="M8.45816 5.2016V5.18848H11.7475V5.2016C14.3257 5.39285 16.3213 7.56848 16.3213 10.1885C16.3213 12.8085 14.3257 14.9841 11.7475 15.1754V15.1885H8.45816V15.1754C5.87941 14.9841 3.88379 12.8085 3.88379 10.1885C3.88379 7.56848 5.87941 5.39285 8.45816 5.2016Z" fill="#0165AC"/>
<path d="M9.80512 13.0155C10.9851 12.5905 11.7739 11.458 11.7739 10.1886C11.7739 8.91922 10.9851 7.78734 9.80512 7.36172V13.0155ZM7.83137 7.36172C6.65074 7.78672 5.86262 8.91922 5.86262 10.1886C5.86262 11.458 6.65074 12.5898 7.83137 13.0155V7.36172ZM8.81824 14.5217C6.45574 14.5217 4.54199 12.5817 4.54199 10.1886C4.54199 7.79484 6.45637 5.85547 8.81824 5.85547C11.1801 5.85547 13.0945 7.79547 13.0945 10.1886C13.0945 12.5823 11.1801 14.5217 8.81824 14.5217Z" fill="white"/>
</g>
<defs>
<clipPath id="clip0_393_980">
<rect width="20" height="20" fill="white" transform="translate(0.133789 0.188477)"/>
</clipPath>
</defs>
</svg>
