<svg width="21" height="21" viewBox="0 0 21 21" fill="none" xmlns="http://www.w3.org/2000/svg">
<path d="M17.324 10.5441C17.324 10.0683 17.2847 9.59257 17.2053 9.11621H10.541V11.8398H14.3622C14.2851 12.2746 14.1197 12.6889 13.8765 13.0573C13.6332 13.4258 13.3171 13.7405 12.9477 13.9823V15.7544H15.2216C15.9196 15.0826 16.4686 14.2716 16.833 13.374C17.1975 12.4765 17.3693 11.5123 17.3374 10.5441H17.324Z" fill="#4285F4"/>
<path d="M10.5413 17.4602C12.4456 17.4602 14.0583 16.839 15.2219 15.7547L12.948 13.9826C12.232 14.4446 11.3932 14.6797 10.5413 14.6571C9.65932 14.6462 8.80279 14.3599 8.09148 13.8384C7.38017 13.3168 6.84963 12.5859 6.57404 11.748H4.2207V13.5596C4.80913 14.7317 5.71182 15.7172 6.82796 16.406C7.9441 17.0948 9.22974 17.4598 10.5413 17.4602Z" fill="#34A853"/>
<path d="M6.57372 11.748C6.27643 10.8689 6.27643 9.91632 6.57372 9.03713V7.21289H4.22039C3.72613 8.1977 3.46875 9.28435 3.46875 10.3862C3.46875 11.4881 3.72613 12.5747 4.22039 13.5596L6.57372 11.748Z" fill="#FBBC04"/>
<path d="M10.5413 6.12794C11.5486 6.11075 12.5222 6.49065 13.2516 7.18552L15.2752 5.16249C14.4684 4.43313 13.5043 3.89961 12.4578 3.60339C11.4113 3.30717 10.3106 3.25622 9.24126 3.4545C8.17188 3.65278 7.16261 4.09495 6.29188 4.74666C5.42114 5.39837 4.7124 6.24206 4.2207 7.21218L6.57404 9.03703C6.84963 8.19914 7.38017 7.4683 8.09148 6.94672C8.80279 6.42513 9.65932 6.13886 10.5413 6.12794Z" fill="#EA4335"/>
</svg>
