<svg width="21" height="21" viewBox="0 0 21 21" fill="none" xmlns="http://www.w3.org/2000/svg">
<g clip-path="url(#clip0_393_997)">
<path fill-rule="evenodd" clip-rule="evenodd" d="M0.133789 0.188477H20.1338V20.1885H0.133789V0.188477Z" fill="black"/>
<path d="M8.27148 6.75391H11.9734V13.5395H8.27148V6.75391Z" fill="#FF5F00"/>
<path d="M8.50613 10.1479C8.50383 9.49726 8.64783 8.85446 8.92749 8.26702C9.20715 7.67958 9.6153 7.16253 10.1218 6.75412C8.38738 5.36412 5.89676 5.56662 4.39926 7.21974C2.90176 8.87287 2.90238 11.4216 4.39926 13.0747C5.89613 14.7279 8.38676 14.9304 10.1218 13.5397C9.61555 13.1315 9.20754 12.6148 8.9279 12.0277C8.64825 11.4406 8.50411 10.7982 8.50613 10.1479Z" fill="#EB001B"/>
<path d="M16.9677 10.1478C16.9677 11.7997 16.0427 13.3066 14.5864 14.0291C13.1302 14.7516 11.3958 14.5609 10.1221 13.5397C10.6282 13.1312 11.0362 12.6143 11.3161 12.0272C11.5959 11.4401 11.7404 10.7976 11.7389 10.1472C11.7389 8.82344 11.1427 7.57219 10.1221 6.75407C11.3958 5.73344 13.1283 5.54344 14.5858 6.26532C16.0433 6.98719 16.9677 8.49407 16.9677 10.1466V10.1478Z" fill="#F79E1B"/>
</g>
<defs>
<clipPath id="clip0_393_997">
<rect width="20" height="20" fill="white" transform="translate(0.133789 0.188477)"/>
</clipPath>
</defs>
</svg>
