<svg width="21" height="21" viewBox="0 0 21 21" fill="none" xmlns="http://www.w3.org/2000/svg">
<g clip-path="url(#clip0_393_1007)">
<path fill-rule="evenodd" clip-rule="evenodd" d="M0.133789 0.188477H20.1338V20.1885H0.133789V0.188477Z" fill="#00579F"/>
<path d="M8.77355 12.611H7.50918L8.2998 7.776H9.56418L8.77355 12.611ZM13.3573 7.89475C12.9953 7.75682 12.6109 7.6869 12.2236 7.6885C10.9748 7.6885 10.0954 8.34663 10.0898 9.2885C10.0798 9.98225 10.7192 10.3685 11.1979 10.5998C11.6873 10.8366 11.8542 10.991 11.8542 11.2016C11.8486 11.5254 11.4586 11.6748 11.0942 11.6748C10.5892 11.6748 10.3192 11.5979 9.90793 11.4179L9.74106 11.3404L9.56418 12.426C9.86106 12.5591 10.4073 12.6779 10.9748 12.6829C12.3017 12.6829 13.1654 12.0348 13.1754 11.0323C13.1804 10.4816 12.8429 10.0598 12.1142 9.71538C11.6717 9.49413 11.4011 9.34475 11.4011 9.1185C11.4061 8.91225 11.6298 8.70163 12.1292 8.70163C12.4531 8.69239 12.7749 8.75582 13.0711 8.88725L13.1854 8.9385L13.3573 7.89475ZM15.0386 10.8985L15.5429 9.54538C15.5379 9.556 15.6473 9.26288 15.7092 9.08288L15.7979 9.49913C15.7979 9.49913 16.0373 10.6566 16.0892 10.8985H15.0386ZM16.5992 7.776H15.6211C15.3192 7.776 15.0898 7.8635 14.9598 8.17725L13.0817 12.611H14.4086L14.6742 11.886H16.2973C16.3342 12.0554 16.4486 12.611 16.4486 12.611H17.6192L16.5992 7.776ZM6.45293 7.776L5.21418 11.0729L5.07918 10.4041C4.85043 9.63288 4.1323 8.79475 3.33105 8.37788L4.46543 12.606H5.80293L7.79043 7.776H6.45293Z" fill="white"/>
<path d="M4.06441 7.77588H2.02941L2.00879 7.874C3.59629 8.27463 4.64691 9.24213 5.07879 10.4046L4.63629 8.18213C4.56379 7.87338 4.34004 7.7865 4.06441 7.77588Z" fill="white"/>
</g>
<defs>
<clipPath id="clip0_393_1007">
<rect width="20" height="20" fill="white" transform="translate(0.133789 0.188477)"/>
</clipPath>
</defs>
</svg>
