<svg width="24" height="25" viewBox="0 0 24 25" fill="none" xmlns="http://www.w3.org/2000/svg">
<path d="M21.2088 0.863037H2.86301C1.42156 0.863037 0.242188 2.04241 0.242188 3.48386V21.8296C0.242188 23.2711 1.42156 24.4504 2.86301 24.4504H21.2088C22.6502 24.4504 23.8296 23.2711 23.8296 21.8296V3.48386C23.8296 2.04241 22.6502 0.863037 21.2088 0.863037ZM21.2088 21.8296H2.86301V15.8279L4.16032 17.1252L9.40196 11.8836L14.6436 17.1252L19.8853 11.8967L21.2088 13.2202V21.8296ZM21.2088 9.49865L19.8853 8.17513L14.6436 13.4299L9.40196 8.18824L4.16032 13.4299L2.86301 12.1195V3.48386H21.2088V9.49865Z" fill="#17171A"/>
</svg>
