<svg width="25" height="25" viewBox="0 0 25 25" fill="none" xmlns="http://www.w3.org/2000/svg">
<path d="M12.4071 0.349365C10.0521 0.349365 7.74999 1.0477 5.79188 2.35607C3.83376 3.66444 2.3076 5.52408 1.40638 7.69982C0.505159 9.87556 0.269359 12.2697 0.728797 14.5794C1.18824 16.8892 2.32228 19.0108 3.98751 20.6761C5.65275 22.3413 7.7744 23.4753 10.0841 23.9348C12.3939 24.3942 14.788 24.1584 16.9638 23.2572C19.1395 22.356 20.9991 20.8298 22.3075 18.8717C23.6159 16.9136 24.3142 14.6115 24.3142 12.2565C24.3082 9.10037 23.0517 6.07526 20.82 3.84356C18.5883 1.61186 15.5632 0.355417 12.4071 0.349365ZM12.4071 2.18123C14.1753 2.18259 15.912 2.64872 17.4432 3.53288C18.9744 4.41704 20.2463 5.68817 21.1313 7.21885H12.4071C11.3809 7.21924 10.3793 7.53302 9.53637 8.11819C8.69339 8.70337 8.04923 9.53203 7.69006 10.4933L4.86213 5.59307C5.80437 4.52001 6.96489 3.66054 8.26607 3.07214C9.56725 2.48375 10.9791 2.18 12.4071 2.18123ZM15.6129 12.2565C15.6129 12.8905 15.4249 13.5103 15.0726 14.0375C14.7203 14.5647 14.2197 14.9756 13.6339 15.2182C13.0481 15.4608 12.4036 15.5243 11.7817 15.4006C11.1598 15.2769 10.5886 14.9716 10.1403 14.5233C9.69196 14.0749 9.38664 13.5037 9.26295 12.8819C9.13925 12.26 9.20274 11.6155 9.44537 11.0297C9.68801 10.4439 10.0989 9.94323 10.6261 9.59098C11.1533 9.23872 11.7731 9.05071 12.4071 9.05071C13.2564 9.05373 14.07 9.39244 14.6706 9.99299C15.2711 10.5935 15.6098 11.4072 15.6129 12.2565ZM2.33187 12.2565C2.3306 10.4876 2.79666 8.74974 3.68287 7.21885L8.04499 14.7753L8.06788 14.8096C8.58461 15.6888 9.35596 16.3904 10.28 16.8217C11.204 17.253 12.2372 17.3938 13.2429 17.2254L10.4035 22.1371C8.12748 21.6686 6.0823 20.4304 4.61219 18.6309C3.14208 16.8313 2.3368 14.5802 2.33187 12.2565ZM12.4071 22.3317L16.7692 14.7753C16.7807 14.7638 16.7807 14.7409 16.7921 14.7295C17.2947 13.8437 17.5157 12.826 17.4257 11.8115C17.3357 10.7971 16.939 9.83415 16.2884 9.05071H21.9557C22.3065 10.083 22.4845 11.1662 22.4823 12.2565C22.4793 14.9277 21.4168 17.4886 19.528 19.3774C17.6392 21.2662 15.0783 22.3287 12.4071 22.3317Z" fill="#17171A"/>
</svg>
