<svg width="24" height="25" viewBox="0 0 24 25" fill="none" xmlns="http://www.w3.org/2000/svg">
<path d="M2.65442 24.98C1.99106 24.98 1.42338 24.744 0.951385 24.272C0.478586 23.7992 0.242188 23.2312 0.242188 22.5678V3.2699C0.242188 2.60654 0.478586 2.03846 0.951385 1.56566C1.42338 1.09366 1.99106 0.857666 2.65442 0.857666H12.3034L19.5401 8.09438V12.9188H17.1278V9.30049H11.0973V3.2699H2.65442V22.5678H9.89113V24.98H2.65442ZM17.4897 15.9643L18.7863 17.2609L14.1125 21.9044V23.1709H15.379L20.0527 18.5273L21.3191 19.7937L16.1328 24.98H12.3034V21.1506L17.4897 15.9643ZM21.3191 19.7937L17.4897 15.9643L19.2386 14.2154C19.4597 13.9943 19.7411 13.8837 20.0828 13.8837C20.4246 13.8837 20.706 13.9943 20.9271 14.2154L23.068 16.3563C23.2891 16.5774 23.3997 16.8588 23.3997 17.2006C23.3997 17.5423 23.2891 17.8237 23.068 18.0449L21.3191 19.7937Z" fill="#17171A"/>
</svg>
