<svg width="27" height="24" viewBox="0 0 27 24" fill="none" xmlns="http://www.w3.org/2000/svg">
<path d="M19.5391 19.668L24.0019 15.2052C24.2533 14.9537 24.5467 14.8331 24.8819 14.8431C25.2171 14.854 25.5105 14.9852 25.7619 15.2366C25.9924 15.488 26.113 15.7814 26.1239 16.1166C26.134 16.4518 26.0133 16.7452 25.7619 16.9966L20.4191 22.3394C20.1677 22.5908 19.8743 22.7165 19.5391 22.7165C19.2039 22.7165 18.9105 22.5908 18.6591 22.3394L15.9877 19.6365C15.7572 19.4061 15.637 19.1178 15.6269 18.7716C15.616 18.4264 15.7363 18.128 15.9877 17.8766C16.2182 17.6461 16.5115 17.5309 16.8677 17.5309C17.2239 17.5309 17.5172 17.6461 17.7477 17.8766L19.5391 19.668ZM5.2707 20.7051L2.3793 23.5965C1.98121 23.9946 1.5253 24.0834 1.01155 23.863C0.498642 23.6434 0.242188 23.2508 0.242188 22.6851V3.10532C0.242188 2.4139 0.488585 1.82179 0.981379 1.329C1.47333 0.837042 2.06502 0.591064 2.75644 0.591064H22.8705C23.5619 0.591064 24.154 0.837042 24.6468 1.329C25.1388 1.82179 25.3847 2.4139 25.3847 3.10532V11.9052H22.8705V3.10532H2.75644V18.1909H12.8135V20.7051H5.2707Z" fill="#17171A"/>
</svg>
