<svg width="20" height="24" viewBox="0 0 20 24" fill="none" xmlns="http://www.w3.org/2000/svg">
<path d="M9.13266 18.1335C9.48351 18.1335 9.82968 18.0894 10.1712 18.0013C10.5119 17.914 10.8284 17.7826 11.1208 17.6072L13.1674 19.6538C13.3818 19.8682 13.6547 19.9754 13.9861 19.9754C14.3174 19.9754 14.5903 19.8682 14.8047 19.6538C15.0191 19.4394 15.1263 19.1665 15.1263 18.8352C15.1263 18.5038 15.0191 18.2309 14.8047 18.0165L12.7581 15.9699C12.9335 15.6775 13.0649 15.3606 13.1522 15.0191C13.2403 14.6784 13.2844 14.3326 13.2844 13.9818C13.2844 12.8513 12.8848 11.8962 12.0856 11.1165C11.2865 10.3369 10.3216 9.94702 9.19113 9.94702C8.06062 9.94702 7.09579 10.3466 6.29663 11.1458C5.49748 11.9449 5.0979 12.9097 5.0979 14.0403C5.0979 15.1708 5.48773 16.1356 6.2674 16.9348C7.04706 17.7339 8.00215 18.1335 9.13266 18.1335ZM9.19113 15.7945C8.70384 15.7945 8.28984 15.6237 7.94913 15.2823C7.60764 14.9415 7.43689 14.5275 7.43689 14.0403C7.43689 13.553 7.60764 13.139 7.94913 12.7982C8.28984 12.4568 8.70384 12.286 9.19113 12.286C9.67842 12.286 10.0924 12.4568 10.4331 12.7982C10.7746 13.139 10.9454 13.553 10.9454 14.0403C10.9454 14.5275 10.7746 14.9415 10.4331 15.2823C10.0924 15.6237 9.67842 15.7945 9.19113 15.7945ZM2.75891 23.981C2.11569 23.981 1.56525 23.7521 1.10758 23.2945C0.649143 22.836 0.419922 22.2852 0.419922 21.642V2.93005C0.419922 2.28683 0.649143 1.736 1.10758 1.27756C1.56525 0.819895 2.11569 0.591064 2.75891 0.591064H11.15C11.4619 0.591064 11.7593 0.649539 12.0424 0.766489C12.3246 0.883438 12.5729 1.04912 12.7873 1.26352L18.4594 6.93557C18.6738 7.14998 18.8395 7.3983 18.9564 7.68054C19.0734 7.96356 19.1318 8.261 19.1318 8.57287V21.642C19.1318 22.2852 18.903 22.836 18.4453 23.2945C17.9869 23.7521 17.4361 23.981 16.7928 23.981H2.75891ZM10.9454 7.60803V2.93005H2.75891V21.642H16.7928V8.77753H12.1149C11.7835 8.77753 11.506 8.66526 11.2822 8.44071C11.0576 8.21695 10.9454 7.93939 10.9454 7.60803Z" fill="#17171A"/>
</svg>
