<svg width="39" height="39" viewBox="0 0 39 39" fill="none" xmlns="http://www.w3.org/2000/svg">
<path d="M37.9106 3.64758L35.5986 1.33555C35.32 1.0535 34.9881 0.829564 34.6223 0.676727C34.2565 0.52389 33.864 0.44519 33.4675 0.44519C33.071 0.44519 32.6785 0.52389 32.3127 0.676727C31.9469 0.829564 31.615 1.0535 31.3364 1.33555L20.7051 11.9689V18.5411H27.2793L37.9106 7.90975C38.1927 7.63113 38.4166 7.29929 38.5694 6.93347C38.7223 6.56765 38.801 6.17513 38.801 5.77867C38.801 5.3822 38.7223 4.98968 38.5694 4.62386C38.4166 4.25804 38.1927 3.9262 37.9106 3.64758ZM25.8901 15.4249H23.8193V13.3541L30.7574 6.42402L32.8282 8.4948L25.8901 15.4249Z" fill="#17171A"/>
<path d="M32.768 34.6245H4.62151V6.47802H16.6843V2.45709H4.62151C3.55607 2.46027 2.53518 2.88493 1.7818 3.63831C1.02842 4.39169 0.603768 5.41258 0.600586 6.47802V34.6245C0.603768 35.6899 1.02842 36.7108 1.7818 37.4642C2.53518 38.2176 3.55607 38.6422 4.62151 38.6454H32.768C33.8334 38.6422 34.8543 38.2176 35.6077 37.4642C36.3611 36.7108 36.7857 35.6899 36.7889 34.6245V22.5617H32.768V34.6245Z" fill="#17171A"/>
</svg>
