<svg width="45" height="21" viewBox="0 0 45 21" fill="none" xmlns="http://www.w3.org/2000/svg">
<path d="M34.4545 0.477337C31.8022 0.477337 29.2972 1.5088 27.5106 3.29543L14.5621 14.7889C13.3833 15.9677 11.8177 16.6123 10.1415 16.6123C6.6972 16.6123 3.89752 13.8311 3.89752 10.3867C3.89752 6.94239 6.6972 4.16113 10.1415 4.16113C11.8177 4.16113 13.3833 4.80579 14.6358 6.05828L16.7171 7.90017L19.4984 5.43203L17.1776 3.38753C16.2552 2.46166 15.1585 1.72777 13.9508 1.22826C12.7431 0.728749 11.4484 0.473525 10.1415 0.477337C4.6527 0.477337 0.195312 4.93472 0.195312 10.3867C0.195312 15.8387 4.6527 20.2961 10.1415 20.2961C12.7939 20.2961 15.2988 19.2647 17.0855 17.478L30.034 5.9846C31.2128 4.80579 32.7784 4.16113 34.4545 4.16113C37.8989 4.16113 40.6986 6.94239 40.6986 10.3867C40.6986 13.8311 37.8989 16.6123 34.4545 16.6123C32.7968 16.6123 31.2128 15.9677 29.9603 14.7152L27.8606 12.8549L25.0793 15.323L27.4185 17.3859C28.3434 18.3071 29.4409 19.0368 30.6483 19.533C31.8557 20.0292 33.1492 20.2823 34.4545 20.2777C39.9434 20.2777 44.4008 15.8387 44.4008 10.3683C44.4008 4.89788 39.9434 0.477337 34.4545 0.477337Z" fill="#17171A"/>
</svg>
