<svg width="129" height="24" viewBox="0 0 129 24" fill="none" xmlns="http://www.w3.org/2000/svg">
<g clip-path="url(#clip0_1153_4392)">
<path d="M13.2275 15.3936C13.2275 15.3936 17.5466 13.8182 17.5466 8.72638C17.5466 6.33238 17.0709 4.66604 15.5507 3.11977C13.9124 1.45343 11.1421 0.847656 9.94922 0.847656H0V23.9999H5.15435V16.4541H8.0141L12.4227 23.9999H18.2924L13.2275 15.3936ZM8.7885 11.999H5.15435V5.30275H8.75989C8.75989 5.30275 12.394 5.33367 12.394 8.4244C12.394 11.5151 10.1299 12.0008 8.7885 12.0008V11.999Z" fill="#DF1828"/>
<path d="M22.9995 0.847656H38.4017V5.27182H28.034V10.0907H37.1802V14.5149H28.0644V19.4539H34.8874L32.5624 23.9999H22.9995V0.847656Z" fill="#DF1828"/>
<path d="M37.7759 23.9999L49.7532 0.847656H55.9788L43.9729 23.9999H37.7759Z" fill="#003AA8"/>
<path d="M55.979 23.9999H61.0153V9.63595L66.4075 16.8179H66.615L72.0376 9.63595V23.9999H77.1025V0.847656H71.7103L66.5256 8.33344L61.3426 0.847656L55.979 11.0003V23.9999Z" fill="#DF1828"/>
<path d="M94.3823 0.847656H89.4372L80.917 23.9999H86.0713L87.8294 18.9991H95.7845L97.6016 23.9999H102.874L94.3841 0.847656H94.3823ZM89.3478 14.5749L91.8803 7.54394L94.2339 14.5749H89.3478Z" fill="#DF1828"/>
<path d="M105.077 0.847656L111.811 12.2119L104.75 23.9999H110.469L114.76 16.2122L118.99 23.9999H124.829L117.709 12.1209L124.561 0.847656H118.811L114.849 8.1206L110.886 0.847656H105.077Z" fill="#DF1828"/>
<path d="M127.273 0C126.319 0 125.545 0.78769 125.545 1.7573C125.545 2.7269 126.319 3.51459 127.273 3.51459C128.226 3.51459 129 2.7269 129 1.7573C129 0.78769 128.226 0 127.273 0ZM127.273 3.12166C126.527 3.12166 125.931 2.51588 125.931 1.7573C125.931 0.998711 126.527 0.392936 127.273 0.392936C128.018 0.392936 128.614 0.998711 128.614 1.7573C128.644 2.48495 128.018 3.12166 127.273 3.12166Z" fill="#DF1828"/>
<path d="M127.392 0.787598C127.54 0.787598 127.66 0.818523 127.75 0.90948C127.839 1.00044 127.869 1.12232 127.869 1.27331C127.869 1.39519 127.839 1.51526 127.78 1.57711C127.721 1.66806 127.66 1.69899 127.542 1.7281C127.632 1.7281 127.691 1.75902 127.751 1.81905C127.782 1.87909 127.81 1.94094 127.841 2.061V2.33387C127.841 2.42483 127.841 2.51579 127.871 2.57582C127.871 2.63585 127.902 2.66678 127.93 2.6977V2.72863H127.514C127.483 2.6977 127.483 2.6686 127.483 2.63767V2.15196C127.483 2.09193 127.453 2.03007 127.424 1.97004C127.394 1.93912 127.335 1.91001 127.245 1.91001H127.036V2.6977H126.648V0.787598H127.392ZM127.243 1.63532C127.333 1.63532 127.392 1.60439 127.451 1.57529C127.51 1.54436 127.51 1.45341 127.51 1.36245C127.51 1.18053 127.421 1.08958 127.242 1.08958H127.063V1.63532H127.242H127.243Z" fill="#DF1828"/>
</g>
<defs>
<clipPath id="clip0_1153_4392">
<rect width="129" height="24" fill="white"/>
</clipPath>
</defs>
</svg>
