<svg width="98" height="29" viewBox="0 0 98 29" fill="none" xmlns="http://www.w3.org/2000/svg">
<path d="M33.3518 9.87123C35.172 8.09659 37.6519 7.00451 40.4049 7.00451V10.0532C36.5143 10.0532 33.3518 13.2157 33.3518 17.1063V25.3652H35.1492V28.3912H28.4602V25.3424H30.3031V10.4173H28.4602V7.36853H33.3518V9.87123ZM14.9229 25.843C14.8546 25.843 14.7864 25.843 14.6954 25.843C11.6466 25.7747 8.82541 24.5234 6.73225 22.2709C2.79619 18.0391 2.79619 11.3956 6.73225 7.14102C8.96192 4.72933 12.5795 3.54624 15.9467 4.11503C17.5166 4.38805 20.3833 5.27537 21.7029 8.25585L22.1124 9.16592H24.6834V1.24831H21.6119V3.34147C20.1785 2.22663 18.4267 1.45308 16.4473 1.1118C12.0334 0.383742 7.46031 1.90811 4.50258 5.07061C-0.502812 10.4628 -0.502812 18.9264 4.50258 24.3413C7.14178 27.2081 10.7593 28.8234 14.6499 28.8917C14.7409 28.8917 14.8319 28.8917 14.9229 28.8917C18.6997 28.8917 22.249 27.4128 24.9564 24.7281L22.795 22.5667C20.6791 24.7054 17.9034 25.843 14.9229 25.843ZM60.4037 10.1442C62.4513 12.1919 63.5662 14.8994 63.5662 17.7661V19.2905H45.0917C45.2737 20.2005 45.6378 21.0651 46.1611 21.8614C47.6399 24.0683 49.9833 25.5017 52.577 25.752C55.1707 26.0022 57.719 25.0922 59.5618 23.2493L61.7233 25.4107C59.5163 27.6176 56.5359 28.8462 53.4416 28.8462C53.0548 28.8462 52.6681 28.8234 52.2813 28.8007C48.7775 28.4594 45.615 26.5483 43.6356 23.5678C41.5652 20.4736 41.3377 16.492 42.9986 13.1475C44.6367 9.87123 47.5717 7.68706 51.0527 7.11826C54.4427 6.57222 57.9465 7.70981 60.4037 10.1442ZM60.3582 16.2645C60.0624 14.7856 59.3343 13.4205 58.2422 12.3057C56.4904 10.5538 53.9649 9.73472 51.5305 10.1442C49.0278 10.5538 46.9119 12.1464 45.7288 14.5353C45.4557 15.1041 45.251 15.6729 45.1145 16.2645H60.3582ZM90.527 7.36853V10.4173H92.3699L87.774 22.9307L83.3147 10.4173H85.1576V7.36853H82.2226H79.6972H76.7622V10.4173H78.6051L74.1457 22.9307L69.5499 10.4173H71.3928V7.36853H64.4307V10.4173H66.2736L72.8944 28.3912H75.4198L80.9485 12.8972L86.4999 28.3912H89.0254L95.6461 10.4173H97.489V7.36853H90.527Z" fill="#1A1A1A"/>
</svg>
