<svg width="101" height="80" viewBox="0 0 101 80" fill="none" xmlns="http://www.w3.org/2000/svg">
<g clip-path="url(#clip0_1139_2306)">
<path d="M100.788 2.50829C100.788 1.47454 99.9334 0.638912 98.901 0.677036C70.6279 1.72042 54.4917 16.5507 54.4917 49.1472V77.4799C54.4917 78.5027 55.3208 79.3318 56.3436 79.3318H97.8121C98.8352 79.3318 99.6639 78.5027 99.6639 77.4799V36.4657C99.6639 35.4429 98.8352 34.6138 97.8121 34.6138H85.2752C84.6578 34.6138 84.1573 34.1133 84.1573 33.4959C84.1573 26.0612 87.8084 20.6447 98.9648 19.9301C99.9723 19.8656 100.788 19.0475 100.788 18.0376V2.50829Z" fill="url(#paint0_linear_1139_2306)" fill-opacity="0.6"/>
<path d="M47.0844 2.50829C47.0844 1.47454 46.2302 0.638912 45.1972 0.677036C16.9244 1.72042 0.788086 16.5507 0.788086 49.1472V77.4799C0.788086 78.5027 1.61719 79.3318 2.63994 79.3318H44.1088C45.1316 79.3318 45.9607 78.5027 45.9607 77.4799V36.4657C45.9607 35.4429 45.1316 34.6138 44.1088 34.6138H31.5716C30.9542 34.6138 30.4536 34.1133 30.4536 33.4959C30.4536 26.0612 34.1048 20.6447 45.261 19.9301C46.2689 19.8656 47.0844 19.0475 47.0844 18.0376V2.50829Z" fill="url(#paint1_linear_1139_2306)" fill-opacity="0.6"/>
</g>
<defs>
<linearGradient id="paint0_linear_1139_2306" x1="54.4917" y1="39.5475" x2="100.344" y2="83.5148" gradientUnits="userSpaceOnUse">
<stop stop-color="#FDA781"/>
<stop offset="1" stop-color="white" stop-opacity="0"/>
</linearGradient>
<linearGradient id="paint1_linear_1139_2306" x1="0.788085" y1="39.5475" x2="46.6397" y2="83.5148" gradientUnits="userSpaceOnUse">
<stop stop-color="#FDA781"/>
<stop offset="1" stop-color="white" stop-opacity="0"/>
</linearGradient>
<clipPath id="clip0_1139_2306">
<rect width="100" height="78.7037" fill="white" transform="translate(0.788086 0.62793)"/>
</clipPath>
</defs>
</svg>
