<svg width="231" height="45" viewBox="0 0 231 45" fill="none" xmlns="http://www.w3.org/2000/svg">
<g filter="url(#filter0_d_1139_2299)">
<path d="M23.4155 32.5033L14.1755 38.0696C13.7673 38.3294 13.3405 38.4407 12.8952 38.4036C12.4499 38.3665 12.0603 38.2181 11.7263 37.9583C11.3923 37.6985 11.1326 37.3742 10.947 36.9853C10.7615 36.5949 10.7244 36.1585 10.8357 35.6761L13.2849 25.1558L5.10241 18.0866C4.73132 17.7526 4.49976 17.3719 4.40773 16.9444C4.31422 16.5184 4.34168 16.1013 4.49011 15.6931C4.63855 15.2849 4.8612 14.9509 5.15807 14.6912C5.45494 14.4314 5.86313 14.2644 6.38265 14.1902L17.1813 13.2439L21.356 3.33591C21.5415 2.89061 21.8295 2.55663 22.2199 2.33398C22.6088 2.11133 23.0073 2 23.4155 2C23.8237 2 24.223 2.11133 24.6134 2.33398C25.0023 2.55663 25.2895 2.89061 25.4751 3.33591L29.6498 13.2439L40.4484 14.1902C40.9679 14.2644 41.3761 14.4314 41.673 14.6912C41.9699 14.9509 42.1925 15.2849 42.341 15.6931C42.4894 16.1013 42.5176 16.5184 42.4256 16.9444C42.3321 17.3719 42.0998 17.7526 41.7287 18.0866L33.5462 25.1558L35.9954 35.6761C36.1067 36.1585 36.0696 36.5949 35.8841 36.9853C35.6985 37.3742 35.4387 37.6985 35.1048 37.9583C34.7708 38.2181 34.3811 38.3665 33.9358 38.4036C33.4905 38.4407 33.0638 38.3294 32.6556 38.0696L23.4155 32.5033Z" fill="white"/>
<path d="M69.5405 32.5033L60.3005 38.0696C59.8923 38.3294 59.4655 38.4407 59.0202 38.4036C58.5749 38.3665 58.1853 38.2181 57.8513 37.9583C57.5173 37.6985 57.2576 37.3742 57.072 36.9853C56.8865 36.5949 56.8494 36.1585 56.9607 35.6761L59.4099 25.1558L51.2274 18.0866C50.8563 17.7526 50.6248 17.3719 50.5327 16.9444C50.4392 16.5184 50.4667 16.1013 50.6151 15.6931C50.7635 15.2849 50.9862 14.9509 51.2831 14.6912C51.5799 14.4314 51.9881 14.2644 52.5077 14.1902L63.3063 13.2439L67.481 3.33591C67.6665 2.89061 67.9545 2.55663 68.3449 2.33398C68.7338 2.11133 69.1323 2 69.5405 2C69.9487 2 70.348 2.11133 70.7384 2.33398C71.1273 2.55663 71.4145 2.89061 71.6001 3.33591L75.7748 13.2439L86.5734 14.1902C87.0929 14.2644 87.5011 14.4314 87.798 14.6912C88.0949 14.9509 88.3175 15.2849 88.466 15.6931C88.6144 16.1013 88.6426 16.5184 88.5506 16.9444C88.4571 17.3719 88.2248 17.7526 87.8537 18.0866L79.6712 25.1558L82.1204 35.6761C82.2317 36.1585 82.1946 36.5949 82.009 36.9853C81.8235 37.3742 81.5637 37.6985 81.2298 37.9583C80.8958 38.2181 80.5061 38.3665 80.0608 38.4036C79.6155 38.4407 79.1888 38.3294 78.7806 38.0696L69.5405 32.5033Z" fill="white"/>
<path d="M115.666 32.5033L106.425 38.0696C106.017 38.3294 105.591 38.4407 105.145 38.4036C104.7 38.3665 104.31 38.2181 103.976 37.9583C103.642 37.6985 103.383 37.3742 103.197 36.9853C103.011 36.5949 102.974 36.1585 103.086 35.6761L105.535 25.1558L97.3524 18.0866C96.9813 17.7526 96.7498 17.3719 96.6577 16.9444C96.5642 16.5184 96.5917 16.1013 96.7401 15.6931C96.8885 15.2849 97.1112 14.9509 97.4081 14.6912C97.7049 14.4314 98.1131 14.2644 98.6327 14.1902L109.431 13.2439L113.606 3.33591C113.792 2.89061 114.08 2.55663 114.47 2.33398C114.859 2.11133 115.257 2 115.666 2C116.074 2 116.473 2.11133 116.863 2.33398C117.252 2.55663 117.54 2.89061 117.725 3.33591L121.9 13.2439L132.698 14.1902C133.218 14.2644 133.626 14.4314 133.923 14.6912C134.22 14.9509 134.443 15.2849 134.591 15.6931C134.739 16.1013 134.768 16.5184 134.676 16.9444C134.582 17.3719 134.35 17.7526 133.979 18.0866L125.796 25.1558L128.245 35.6761C128.357 36.1585 128.32 36.5949 128.134 36.9853C127.949 37.3742 127.689 37.6985 127.355 37.9583C127.021 38.2181 126.631 38.3665 126.186 38.4036C125.741 38.4407 125.314 38.3294 124.906 38.0696L115.666 32.5033Z" fill="white"/>
<path d="M161.79 32.5033L152.55 38.0696C152.142 38.3294 151.715 38.4407 151.27 38.4036C150.824 38.3665 150.435 38.2181 150.101 37.9583C149.767 37.6985 149.507 37.3742 149.322 36.9853C149.136 36.5949 149.099 36.1585 149.21 35.6761L151.659 25.1558L143.477 18.0866C143.106 17.7526 142.874 17.3719 142.782 16.9444C142.689 16.5184 142.716 16.1013 142.865 15.6931C143.013 15.2849 143.236 14.9509 143.533 14.6912C143.829 14.4314 144.238 14.2644 144.757 14.1902L155.556 13.2439L159.731 3.33591C159.916 2.89061 160.204 2.55663 160.594 2.33398C160.983 2.11133 161.382 2 161.79 2C162.198 2 162.598 2.11133 162.988 2.33398C163.377 2.55663 163.664 2.89061 163.85 3.33591L168.024 13.2439L178.823 14.1902C179.342 14.2644 179.751 14.4314 180.048 14.6912C180.344 14.9509 180.567 15.2849 180.715 15.6931C180.864 16.1013 180.892 16.5184 180.8 16.9444C180.707 17.3719 180.474 17.7526 180.103 18.0866L171.921 25.1558L174.37 35.6761C174.481 36.1585 174.444 36.5949 174.259 36.9853C174.073 37.3742 173.813 37.6985 173.479 37.9583C173.145 38.2181 172.756 38.3665 172.31 38.4036C171.865 38.4407 171.438 38.3294 171.03 38.0696L161.79 32.5033Z" fill="white"/>
<path d="M207.915 32.5033L198.675 38.0696C198.267 38.3294 197.84 38.4407 197.395 38.4036C196.949 38.3665 196.56 38.2181 196.226 37.9583C195.892 37.6985 195.632 37.3742 195.447 36.9853C195.261 36.5949 195.224 36.1585 195.335 35.6761L197.784 25.1558L189.602 18.0866C189.231 17.7526 188.999 17.3719 188.907 16.9444C188.814 16.5184 188.841 16.1013 188.99 15.6931C189.138 15.2849 189.361 14.9509 189.658 14.6912C189.954 14.4314 190.363 14.2644 190.882 14.1902L201.681 13.2439L205.856 3.33591C206.041 2.89061 206.329 2.55663 206.719 2.33398C207.108 2.11133 207.507 2 207.915 2C208.323 2 208.723 2.11133 209.113 2.33398C209.502 2.55663 209.789 2.89061 209.975 3.33591L214.149 13.2439L224.948 14.1902C225.467 14.2644 225.876 14.4314 226.173 14.6912C226.469 14.9509 226.692 15.2849 226.84 15.6931C226.989 16.1013 227.017 16.5184 226.925 16.9444C226.832 17.3719 226.599 17.7526 226.228 18.0866L218.046 25.1558L220.495 35.6761C220.606 36.1585 220.569 36.5949 220.384 36.9853C220.198 37.3742 219.938 37.6985 219.604 37.9583C219.27 38.2181 218.881 38.3665 218.435 38.4036C217.99 38.4407 217.563 38.3294 217.155 38.0696L207.915 32.5033Z" fill="white"/>
</g>
<defs>
<filter id="filter0_d_1139_2299" x="0.353516" y="0" width="230.625" height="44.4106" filterUnits="userSpaceOnUse" color-interpolation-filters="sRGB">
<feFlood flood-opacity="0" result="BackgroundImageFix"/>
<feColorMatrix in="SourceAlpha" type="matrix" values="0 0 0 0 0 0 0 0 0 0 0 0 0 0 0 0 0 0 127 0" result="hardAlpha"/>
<feOffset dy="2"/>
<feGaussianBlur stdDeviation="2"/>
<feComposite in2="hardAlpha" operator="out"/>
<feColorMatrix type="matrix" values="0 0 0 0 0 0 0 0 0 0 0 0 0 0 0 0 0 0 0.09 0"/>
<feBlend mode="normal" in2="BackgroundImageFix" result="effect1_dropShadow_1139_2299"/>
<feBlend mode="normal" in="SourceGraphic" in2="effect1_dropShadow_1139_2299" result="shape"/>
</filter>
</defs>
</svg>
