<svg width="18" height="18" viewBox="0 0 18 18" fill="none" xmlns="http://www.w3.org/2000/svg">
<g clip-path="url(#clip0_122_2270)">
<path d="M6.87435 9.05334H11.1243M6.87435 11.8867H11.1243M12.541 15.4283H5.45768C5.08196 15.4283 4.72162 15.2791 4.45595 15.0134C4.19027 14.7477 4.04102 14.3874 4.04102 14.0117V4.09501C4.04102 3.71929 4.19027 3.35895 4.45595 3.09328C4.72162 2.8276 5.08196 2.67834 5.45768 2.67834H9.41443C9.60228 2.67838 9.78242 2.75304 9.91522 2.88589L13.7501 6.7208C13.883 6.85361 13.9576 7.03375 13.9577 7.22159V14.0117C13.9577 14.3874 13.8084 14.7477 13.5428 15.0134C13.2771 15.2791 12.9167 15.4283 12.541 15.4283Z" stroke="#94A3B8" stroke-width="1.41667" stroke-linecap="round" stroke-linejoin="round"/>
</g>
<defs>
<clipPath id="clip0_122_2270">
<rect width="17" height="17" fill="white" transform="translate(0.5 0.553345)"/>
</clipPath>
</defs>
</svg>
