<svg width="17" height="18" viewBox="0 0 17 18" fill="none" xmlns="http://www.w3.org/2000/svg">
<g clip-path="url(#clip0_122_2267)">
<path d="M5.66732 11.8867H4.25065C3.87493 11.8867 3.51459 11.7374 3.24892 11.4718C2.98324 11.2061 2.83398 10.8457 2.83398 10.47V4.80335C2.83398 4.42763 2.98324 4.06729 3.24892 3.80162C3.51459 3.53594 3.87493 3.38668 4.25065 3.38668H9.91732C10.293 3.38668 10.6534 3.53594 10.9191 3.80162C11.1847 4.06729 11.334 4.42763 11.334 4.80335V6.22002M7.08398 14.72H12.7507C13.1264 14.72 13.4867 14.5708 13.7524 14.3051C14.0181 14.0394 14.1673 13.6791 14.1673 13.3034V7.63668C14.1673 7.26096 14.0181 6.90063 13.7524 6.63495C13.4867 6.36927 13.1264 6.22002 12.7507 6.22002H7.08398C6.70826 6.22002 6.34793 6.36927 6.08225 6.63495C5.81657 6.90063 5.66732 7.26096 5.66732 7.63668V13.3034C5.66732 13.6791 5.81657 14.0394 6.08225 14.3051C6.34793 14.5708 6.70826 14.72 7.08398 14.72Z" stroke="#94A3B8" stroke-width="1.41667" stroke-linecap="round" stroke-linejoin="round"/>
</g>
<defs>
<clipPath id="clip0_122_2267">
<rect width="17" height="17" fill="white" transform="translate(0 0.553345)"/>
</clipPath>
</defs>
</svg>
