<svg width="15" height="15" viewBox="0 0 15 15" fill="none" xmlns="http://www.w3.org/2000/svg">
<path d="M6.94546 1.88674C7.15796 1.23437 8.08092 1.23437 8.29271 1.88674L9.36867 5.19749C9.41497 5.3395 9.50499 5.46324 9.62584 5.55102C9.7467 5.6388 9.89221 5.68613 10.0416 5.68624H13.523C14.2094 5.68624 14.4942 6.56458 13.9395 6.96833L11.1232 9.01399C11.0022 9.10194 10.9122 9.22593 10.866 9.36818C10.8198 9.51044 10.8198 9.66367 10.8661 9.80591L11.9413 13.1167C12.1538 13.7697 11.4065 14.3123 10.8519 13.9086L8.03559 11.8629C7.91454 11.7749 7.76874 11.7275 7.61909 11.7275C7.46944 11.7275 7.32363 11.7749 7.20259 11.8629L4.38625 13.9086C3.83163 14.3123 3.08434 13.769 3.29684 13.1167L4.37209 9.80591C4.41832 9.66367 4.41835 9.51044 4.37216 9.36818C4.32597 9.22593 4.23594 9.10194 4.11496 9.01399L1.29863 6.96833C0.743294 6.56458 1.02946 5.68624 1.71513 5.68624H5.19588C5.34537 5.68628 5.49104 5.63902 5.61204 5.55123C5.73304 5.46344 5.82316 5.33962 5.8695 5.19749L6.94546 1.88674Z" stroke="#94A3B8" stroke-width="1.41667" stroke-linecap="round" stroke-linejoin="round"/>
</svg>
