<svg width="18" height="18" viewBox="0 0 18 18" fill="none" xmlns="http://www.w3.org/2000/svg">
<g clip-path="url(#clip0_485_6264)">
<path d="M8.32681 2.4302C8.53931 1.77782 9.46227 1.77782 9.67406 2.4302L10.75 5.74095C10.7963 5.88296 10.8863 6.0067 11.0072 6.09448C11.1281 6.18226 11.2736 6.22959 11.4229 6.2297H14.9044C15.5908 6.2297 15.8755 7.10803 15.3209 7.51178L12.5046 9.55745C12.3836 9.6454 12.2935 9.76938 12.2474 9.91164C12.2012 10.0539 12.2012 10.2071 12.2474 10.3494L13.3227 13.6601C13.5352 14.3132 12.7879 14.8558 12.2333 14.452L9.41693 12.4064C9.29589 12.3184 9.15008 12.271 9.00043 12.271C8.85078 12.271 8.70498 12.3184 8.58393 12.4064L5.7676 14.452C5.21298 14.8558 4.46568 14.3125 4.67818 13.6601L5.75343 10.3494C5.79967 10.2071 5.7997 10.0539 5.75351 9.91164C5.70732 9.76938 5.61729 9.6454 5.49631 9.55745L2.67998 7.51178C2.12464 7.10803 2.41081 6.2297 3.09648 6.2297H6.57723C6.72672 6.22974 6.87239 6.18248 6.99339 6.09469C7.11439 6.0069 7.20451 5.88308 7.25085 5.74095L8.32681 2.4302Z" fill="#94A3B8" stroke="#94A3B8" strokeWidth="1.41667" strokeLinecap="round" sstrokelinejoin="round"/>
</g>
<defs>
<clipPath id="clip0_485_6264">
<rect width="17" height="17" fill="white" transform="translate(0.5 0.356934)"/>
</clipPath>
</defs>
</svg>
