<svg width="15" height="15" viewBox="0 0 15 15" fill="none" xmlns="http://www.w3.org/2000/svg">
<path d="M8.53581 5.89681H11.9103C12.1518 5.89682 12.3892 5.95854 12.6001 6.07611C12.811 6.19367 12.9883 6.36319 13.1153 6.56857C13.2422 6.77394 13.3146 7.00836 13.3255 7.24956C13.3364 7.49076 13.2854 7.73074 13.1775 7.94673L10.6983 12.9051C10.5807 13.1406 10.3997 13.3386 10.1757 13.477C9.95178 13.6154 9.69369 13.6886 9.43043 13.6885H6.58506C6.4696 13.6885 6.35414 13.6743 6.24152 13.646L3.57747 12.9801M8.53581 5.89681V2.35514C8.53581 1.97942 8.38655 1.61909 8.12088 1.35341C7.8552 1.08773 7.49486 0.938477 7.11914 0.938477H7.05185C6.69768 0.938477 6.41081 1.22535 6.41081 1.57952C6.41081 2.08527 6.26135 2.57968 5.98014 3.00043L3.57747 6.60514V12.9801M8.53581 5.89681H7.11914M3.57747 12.9801H2.16081C1.78508 12.9801 1.42475 12.8309 1.15907 12.5652C0.893396 12.2995 0.744141 11.9392 0.744141 11.5635V7.31348C0.744141 6.93775 0.893396 6.57742 1.15907 6.31174C1.42475 6.04607 1.78508 5.89681 2.16081 5.89681H3.93164" stroke="#94A3B8" strokeWidth="1.41667" strokeLinecap="round" sstrokelinejoin="round"/>
</svg>
