<svg width="17" height="18" viewBox="0 0 17 18" fill="none" xmlns="http://www.w3.org/2000/svg">
<g clip-path="url(#clip0_485_6273)">
<rect width="17" height="17" transform="translate(0 0.356934)" fill="white"/>
<path d="M9.91667 7.44027H13.2912C13.5326 7.44027 13.7701 7.50199 13.9809 7.61956C14.1918 7.73713 14.3692 7.90665 14.4961 8.11202C14.6231 8.3174 14.6954 8.55181 14.7063 8.79302C14.7172 9.03422 14.6663 9.2742 14.5584 9.49018L12.0792 14.4485C11.9615 14.684 11.7806 14.8821 11.5566 15.0204C11.3326 15.1588 11.0746 15.2321 10.8113 15.2319H7.96592C7.85046 15.2319 7.735 15.2178 7.62238 15.1894L4.95833 14.5236M9.91667 7.44027V3.8986C9.91667 3.52288 9.76741 3.16254 9.50173 2.89687C9.23606 2.63119 8.87572 2.48193 8.5 2.48193H8.43271C8.07854 2.48193 7.79167 2.76881 7.79167 3.12298C7.79167 3.62873 7.64221 4.12314 7.361 4.54389L4.95833 8.1486V14.5236M9.91667 7.44027H8.5ZM4.95833 14.5236H3.54167C3.16594 14.5236 2.80561 14.3743 2.53993 14.1087C2.27426 13.843 2.125 13.4827 2.125 13.1069V8.85693C2.125 8.48121 2.27426 8.12088 2.53993 7.8552C2.80561 7.58952 3.16594 7.44027 3.54167 7.44027H5.3125" fill="#94A3B8"/>
<path d="M9.91667 7.44027H13.2912C13.5326 7.44027 13.7701 7.50199 13.9809 7.61956C14.1918 7.73713 14.3692 7.90665 14.4961 8.11202C14.6231 8.3174 14.6954 8.55181 14.7063 8.79302C14.7172 9.03422 14.6663 9.2742 14.5584 9.49018L12.0792 14.4485C11.9615 14.684 11.7806 14.8821 11.5566 15.0204C11.3326 15.1588 11.0746 15.2321 10.8113 15.2319H7.96592C7.85046 15.2319 7.735 15.2178 7.62238 15.1894L4.95833 14.5236M9.91667 7.44027V3.8986C9.91667 3.52288 9.76741 3.16254 9.50173 2.89687C9.23606 2.63119 8.87572 2.48193 8.5 2.48193H8.43271C8.07854 2.48193 7.79167 2.76881 7.79167 3.12298C7.79167 3.62873 7.64221 4.12314 7.361 4.54389L4.95833 8.1486V14.5236M9.91667 7.44027H8.5M4.95833 14.5236H3.54167C3.16594 14.5236 2.80561 14.3743 2.53993 14.1087C2.27426 13.843 2.125 13.4827 2.125 13.1069V8.85693C2.125 8.48121 2.27426 8.12088 2.53993 7.8552C2.80561 7.58952 3.16594 7.44027 3.54167 7.44027H5.3125" stroke="#94A3B8" strokeWidth="1.41667" strokeLinecap="round" sstrokelinejoin="round"/>
</g>
<defs>
<clipPath id="clip0_485_6273">
<rect width="17" height="17" fill="white" transform="translate(0 0.356934)"/>
</clipPath>
</defs>
</svg>
