<svg width="15" height="15" viewBox="0 0 15 15" fill="none" xmlns="http://www.w3.org/2000/svg">
<path d="M11.1599 1.64681L8.49654 0.980977C8.3842 0.95282 8.26882 0.938547 8.153 0.938477H5.30692C5.04378 0.938485 4.78584 1.01178 4.56202 1.15016C4.33819 1.28853 4.15733 1.4865 4.03971 1.72189L1.56054 6.68023C1.45262 6.89621 1.40168 7.13619 1.41258 7.37739C1.42347 7.6186 1.49583 7.85301 1.62279 8.05839C1.74974 8.26376 1.92709 8.43328 2.13798 8.55085C2.34887 8.66842 2.5863 8.73013 2.82775 8.73014H6.20225H7.61892M11.1599 1.64681L11.1606 8.02181L8.75792 11.6258C8.47671 12.0473 8.32725 12.5417 8.32725 13.0481C8.32725 13.4016 8.04038 13.6885 7.68621 13.6885H7.61821C7.24249 13.6885 6.88215 13.5392 6.61648 13.2735C6.3508 13.0079 6.20154 12.6475 6.20154 12.2718V8.73014M11.1599 1.64681H12.5773C12.953 1.64681 13.3133 1.79607 13.579 2.06174C13.8447 2.32742 13.9939 2.68775 13.9939 3.06348V7.31348C13.9939 7.6892 13.8447 8.04953 13.579 8.31521C13.3133 8.58089 12.953 8.73014 12.5773 8.73014H10.8064" stroke="#94A3B8" strokeWidth="1.41667" strokeLinecap="round" sstrokelinejoin="round"/>
</svg>
