<svg width="18" height="18" viewBox="0 0 18 18" fill="none" xmlns="http://www.w3.org/2000/svg">
<g clip-path="url(#clip0_485_6276)">
<rect width="17" height="17" transform="translate(0.5 0.356934)" fill="white"/>
<path d="M7.58409 10.2736H4.20959C3.96814 10.2736 3.7307 10.2119 3.51981 10.0943C3.30892 9.97674 3.13158 9.80722 3.00462 9.60184C2.87767 9.39647 2.80531 9.16205 2.79441 8.92085C2.78352 8.67965 2.83445 8.43967 2.94238 8.22368L5.42155 3.26535C5.53917 3.02996 5.72003 2.83199 5.94385 2.69361C6.16767 2.55524 6.42561 2.48194 6.68875 2.48193H9.53484C9.65066 2.482 9.76603 2.49628 9.87838 2.52443L12.5417 3.19027M7.58409 10.2736L7.58338 13.8153C7.58338 14.191 7.73263 14.5513 7.99831 14.817C8.26399 15.0827 8.62432 15.2319 9.00005 15.2319H9.06805C9.42221 15.2319 9.70909 14.9451 9.70909 14.5916C9.70909 14.0851 9.85855 13.5907 10.1398 13.1693L12.5424 9.56527L12.5417 3.19027M7.58409 10.2736H9.00075ZM12.5417 3.19027H13.9591C14.3348 3.19027 14.6951 3.33952 14.9608 3.6052C15.2265 3.87088 15.3758 4.23121 15.3758 4.60693V8.85693C15.3758 9.23266 15.2265 9.59299 14.9608 9.85867C14.6951 10.1243 14.3348 10.2736 13.9591 10.2736H12.1883" fill="#94A3B8"/>
<path d="M7.58409 10.2736H4.20959C3.96814 10.2736 3.7307 10.2119 3.51981 10.0943C3.30892 9.97674 3.13158 9.80722 3.00462 9.60184C2.87767 9.39647 2.80531 9.16205 2.79441 8.92085C2.78352 8.67965 2.83445 8.43967 2.94238 8.22368L5.42155 3.26535C5.53917 3.02996 5.72003 2.83199 5.94385 2.69361C6.16767 2.55524 6.42561 2.48194 6.68875 2.48193H9.53484C9.65066 2.482 9.76603 2.49628 9.87838 2.52443L12.5417 3.19027M7.58409 10.2736L7.58338 13.8153C7.58338 14.191 7.73263 14.5513 7.99831 14.817C8.26399 15.0827 8.62432 15.2319 9.00005 15.2319H9.06805C9.42221 15.2319 9.70909 14.9451 9.70909 14.5916C9.70909 14.0851 9.85855 13.5907 10.1398 13.1693L12.5424 9.56527L12.5417 3.19027M7.58409 10.2736H9.00075M12.5417 3.19027H13.9591C14.3348 3.19027 14.6951 3.33952 14.9608 3.6052C15.2265 3.87088 15.3758 4.23121 15.3758 4.60693V8.85693C15.3758 9.23266 15.2265 9.59299 14.9608 9.85867C14.6951 10.1243 14.3348 10.2736 13.9591 10.2736H12.1883" stroke="#94A3B8" strokeWidth="1.41667" strokeLinecap="round" sstrokelinejoin="round"/>
</g>
<defs>
<clipPath id="clip0_485_6276">
<rect width="17" height="17" fill="white" transform="translate(0.5 0.356934)"/>
</clipPath>
</defs>
</svg>
