<svg width="542" height="357" viewBox="0 0 542 357" fill="none" xmlns="http://www.w3.org/2000/svg">
<g clip-path="url(#clip0_578_29)">
<path fill-rule="evenodd" clip-rule="evenodd" d="M339.488 110.784C339.488 74.2633 309.795 44.6568 273.162 44.6568C236.529 44.6568 206.834 74.261 206.834 110.784V246.414C206.834 282.933 236.527 312.542 273.16 312.542C309.792 312.542 339.488 282.933 339.488 246.414V110.784Z" fill="#FFC233"/>
<path fill-rule="evenodd" clip-rule="evenodd" d="M96.7102 44.6568H156.224V190.474H180.107V251.184H156.224V312.539H95.3301V251.184H21.9082L96.7102 44.6568Z" fill="#FFC233"/>
<path d="M29.861 267.388H3.34567C2.41784 267.388 1.54829 266.937 1.01677 266.182C0.482923 265.427 0.354706 264.457 0.669421 263.588L12.0878 232.06C12.6216 230.586 14.2535 229.824 15.7315 230.354C17.2094 230.886 17.9764 232.513 17.4426 233.986L7.39966 261.713H29.8633C31.4346 261.713 32.7098 262.984 32.7098 264.55C32.7098 266.117 31.4346 267.388 29.8633 267.388H29.861Z" fill="#00052B"/>
<path fill-rule="evenodd" clip-rule="evenodd" d="M441.019 44.6568H500.53V190.474H524.416V251.184H500.53V312.539H439.634V251.184H366.217L441.019 44.6568Z" fill="#FFC233"/>
<path d="M515.484 328.033H478.046C476.867 328.033 475.911 327.08 475.911 325.904C475.911 324.728 476.867 323.775 478.046 323.775H513.35V264.55C513.35 263.374 514.306 262.421 515.486 262.421H539.367C540.547 262.421 541.502 263.374 541.502 264.55C541.502 265.727 540.547 266.68 539.367 266.68H517.621V325.904C517.621 327.08 516.665 328.033 515.486 328.033H515.484ZM514.957 70.2237C513.777 70.2237 512.821 69.2708 512.821 68.0947V33.4214H453.632C452.452 33.4214 451.496 32.4684 451.496 31.2924C451.496 30.1163 452.452 29.1633 453.632 29.1633H514.954C516.134 29.1633 517.09 30.1163 517.09 31.2924V68.0947C517.09 69.2708 516.134 70.2237 514.954 70.2237H514.957Z" fill="#00052B"/>
<path fill-rule="evenodd" clip-rule="evenodd" d="M309.012 204.069C305.007 200.87 300.61 198.188 295.932 196.089L288.838 204.903C286.803 204.134 284.721 203.501 282.609 203.009L281.296 191.634C276.263 190.776 271.153 190.567 266.106 191.006L264.577 202.267C262.458 202.583 260.369 203.048 258.32 203.648L251.401 194.256C246.682 195.969 242.241 198.288 238.178 201.154L242.621 211.841C240.98 213.161 239.441 214.593 238.008 216.129L227.335 211.234C224.205 215.062 221.608 219.288 219.619 223.811L228.846 231.058C228.128 233.027 227.548 235.049 227.114 237.106L215.553 238.024C214.842 242.933 214.791 247.937 215.411 252.904L226.948 254.772C227.342 256.862 227.881 258.928 228.564 260.955L219.204 267.437C221.106 272.118 223.619 276.555 226.678 280.634L237.432 276.623C238.833 278.275 240.346 279.832 241.961 281.29L237.315 291.6C241.32 294.796 245.722 297.481 250.401 299.579L257.494 290.761C259.53 291.53 261.607 292.165 263.719 292.658L265.036 304.033C270.069 304.89 275.174 305.1 280.222 304.658L281.751 293.402C283.87 293.083 285.963 292.621 288.008 292.019L294.932 301.411C299.645 299.698 304.091 297.378 308.154 294.513L303.711 283.83C305.352 282.508 306.891 281.074 308.322 279.542L318.994 284.432C322.128 280.609 324.722 276.381 326.713 271.858L317.486 264.611C318.204 262.64 318.78 260.62 319.216 258.563L330.781 257.645C331.492 252.734 331.539 247.732 330.923 242.763L319.386 240.896C318.992 238.805 318.451 236.741 317.771 234.712L327.126 228.227C325.226 223.546 322.715 219.109 319.654 215.03L308.896 219.041C307.495 217.389 305.982 215.832 304.371 214.377L309.012 204.066V204.069ZM289.411 221.359C304.611 230.633 309.674 250.024 300.711 264.636C291.742 279.247 272.121 283.579 256.919 274.305C241.714 265.034 236.651 245.64 245.619 231.03C254.587 216.417 274.209 212.083 289.411 221.359Z" fill="#00052B"/>
<path fill-rule="evenodd" clip-rule="evenodd" d="M234.531 160.414C231.163 156.947 226.948 154.374 222.316 152.963L218.217 157.244C216.203 156.886 214.161 156.805 212.145 156.993L208.133 152.382C203.475 153.411 199.218 155.631 195.784 158.822L197.635 164.565C196.372 166.088 195.334 167.78 194.551 169.59L188.581 170.562C187.289 175.062 187.247 179.854 188.445 184.459L194.392 185.921C195.138 187.796 196.145 189.574 197.381 191.199L195.42 196.782C198.789 200.254 203.004 202.825 207.636 204.238L211.734 199.957C213.748 200.313 215.791 200.396 217.807 200.206L221.819 204.819C226.475 203.792 230.734 201.57 234.168 198.379L232.319 192.636C233.582 191.113 234.62 189.421 235.403 187.61L241.373 186.634C242.665 182.137 242.707 177.344 241.509 172.742L235.559 171.28C234.813 169.405 233.806 167.626 232.575 166.002L234.531 160.417V160.414ZM218.954 172.119C222.675 174.39 223.913 179.134 221.719 182.711C219.525 186.29 214.721 187.35 211 185.079C207.279 182.809 206.041 178.065 208.235 174.485C210.429 170.911 215.233 169.851 218.954 172.119Z" fill="#00052B"/>
<path d="M135.596 336.661C134.393 336.661 133.416 335.689 133.416 334.487V225.538H79.2876C78.0847 225.538 77.1079 224.566 77.1079 223.365V92.7574C77.1079 91.5581 78.0823 90.5842 79.2876 90.5842C80.4928 90.5842 81.4673 91.5558 81.4673 92.7574V221.191H135.596C136.799 221.191 137.776 222.163 137.776 223.365V334.485C137.776 335.684 136.801 336.658 135.596 336.658V336.661ZM416.448 195.125C415.242 195.125 414.268 194.151 414.268 192.949L414.305 151.48H393.602C392.399 151.48 391.422 150.508 391.422 149.307C391.422 148.105 392.397 147.133 393.602 147.133H416.487C417.066 147.133 417.62 147.364 418.028 147.77C418.436 148.177 418.667 148.73 418.665 149.307L418.625 192.949C418.625 194.149 417.648 195.12 416.445 195.12L416.448 195.125ZM65.3469 190.472H26.8164C25.6135 190.472 24.6367 189.5 24.6367 188.298C24.6367 187.097 25.6112 186.125 26.8164 186.125H63.1672V134.799C63.1672 133.599 64.1416 132.625 65.3469 132.625C66.5521 132.625 67.5266 133.597 67.5266 134.799V188.298C67.5266 189.498 66.5521 190.472 65.3469 190.472Z" fill="#00052B"/>
<path d="M422.698 208.145H410.198C408.946 208.145 407.93 207.132 407.93 205.884V192.952C407.93 191.704 408.946 190.69 410.198 190.69H422.698C423.95 190.69 424.967 191.704 424.967 192.952V205.884C424.967 207.132 423.95 208.145 422.698 208.145ZM412.467 203.622H420.432V195.213H412.467V203.622ZM393.602 158.037H381.102C379.85 158.037 378.834 157.023 378.834 155.775V142.843C378.834 141.595 379.85 140.581 381.102 140.581H393.602C394.854 140.581 395.871 141.595 395.871 142.843V155.775C395.871 157.023 394.854 158.037 393.602 158.037ZM383.371 153.514H391.336V145.104H383.371V153.514ZM490.546 113.555H478.046C476.794 113.555 475.778 112.542 475.778 111.293V98.3659C475.778 97.1177 476.794 96.1044 478.046 96.1044H490.546C491.798 96.1044 492.815 97.1177 492.815 98.3659V111.293C492.815 112.542 491.798 113.555 490.546 113.555ZM480.312 109.032H488.278V100.625H480.312V109.032Z" fill="#00052B"/>
<path d="M135.476 356.284C126.28 356.284 118.799 348.826 118.799 339.657C118.799 330.487 126.28 323.024 135.476 323.024C144.673 323.024 152.159 330.485 152.159 339.657C152.159 348.828 144.675 356.284 135.476 356.284ZM135.476 327.368C128.683 327.368 123.156 332.881 123.156 339.657C123.156 346.432 128.683 351.94 135.476 351.94C142.27 351.94 147.802 346.43 147.802 339.657C147.802 332.884 142.272 327.368 135.476 327.368ZM135.476 346.371C131.763 346.371 128.742 343.359 128.742 339.657C128.742 335.954 131.763 332.94 135.476 332.94C139.19 332.94 142.214 335.952 142.214 339.657C142.214 343.361 139.192 346.371 135.476 346.371ZM135.476 337.284C134.166 337.284 133.099 338.348 133.099 339.654C133.099 340.961 134.166 342.025 135.476 342.025C136.787 342.025 137.854 340.961 137.854 339.654C137.854 338.348 136.787 337.284 135.476 337.284ZM487.228 295.247H477.838C476.635 295.247 475.658 294.275 475.658 293.074C475.658 291.872 476.632 290.901 477.838 290.901H487.228C488.431 290.901 489.407 291.872 489.407 293.074C489.407 294.275 488.433 295.247 487.228 295.247ZM487.228 282.261H477.838C476.635 282.261 475.658 281.29 475.658 280.088C475.658 278.887 476.632 277.915 477.838 277.915H487.228C488.431 277.915 489.407 278.887 489.407 280.088C489.407 281.29 488.433 282.261 487.228 282.261ZM434.691 275.767C419.984 275.767 408.02 263.837 408.02 249.175C408.02 235.795 417.986 224.689 430.905 222.851V134.15H368.084C367.142 137.344 364.174 139.68 360.67 139.68C356.411 139.68 352.945 136.223 352.945 131.977C352.945 127.731 356.409 124.274 360.67 124.274C364.174 124.274 367.139 126.61 368.084 129.804H433.083C434.286 129.804 435.262 130.775 435.262 131.977V222.588C449.707 222.893 461.363 234.702 461.363 249.173C461.363 263.644 449.399 275.765 434.691 275.765V275.767ZM434.691 226.928C422.387 226.928 412.377 236.908 412.377 249.175C412.377 261.443 422.387 271.423 434.691 271.423C446.996 271.423 457.006 261.443 457.006 249.175C457.006 236.908 446.996 226.928 434.691 226.928ZM360.673 128.621C358.817 128.621 357.306 130.127 357.306 131.977C357.306 133.827 358.817 135.333 360.673 135.333C362.528 135.333 364.039 133.827 364.039 131.977C364.039 130.127 362.528 128.621 360.673 128.621ZM487.228 269.276H477.838C476.635 269.276 475.658 268.304 475.658 267.103C475.658 265.901 476.632 264.929 477.838 264.929H487.228C488.431 264.929 489.407 265.901 489.407 267.103C489.407 268.304 488.433 269.276 487.228 269.276ZM107.977 269.153C106.774 269.153 105.798 268.181 105.798 266.979V238.063C105.798 236.864 106.772 235.89 107.977 235.89C109.183 235.89 110.157 236.862 110.157 238.063V266.979C110.157 268.179 109.183 269.153 107.977 269.153ZM96.1627 269.153C94.9598 269.153 93.983 268.181 93.983 266.979V238.063C93.983 236.864 94.9575 235.89 96.1627 235.89C97.368 235.89 98.3424 236.862 98.3424 238.063V266.979C98.3424 268.179 97.368 269.153 96.1627 269.153ZM84.3481 269.153C83.1452 269.153 82.1684 268.181 82.1684 266.979V238.063C82.1684 236.864 83.1428 235.89 84.3481 235.89C85.5533 235.89 86.5278 236.862 86.5278 238.063V266.979C86.5278 268.179 85.5533 269.153 84.3481 269.153ZM487.228 256.292H477.838C476.635 256.292 475.658 255.321 475.658 254.119C475.658 252.918 476.632 251.946 477.838 251.946H487.228C488.431 251.946 489.407 252.918 489.407 254.119C489.407 255.321 488.433 256.292 487.228 256.292ZM60.7165 221.598H54.8907C53.6878 221.598 52.7111 220.627 52.7111 219.425C52.7111 218.223 53.6855 217.252 54.8907 217.252H60.7165C61.9194 217.252 62.8962 218.223 62.8962 219.425C62.8962 220.627 61.9217 221.598 60.7165 221.598ZM60.7165 213.54H54.8907C53.6878 213.54 52.7111 212.568 52.7111 211.367C52.7111 210.165 53.6855 209.194 54.8907 209.194H60.7165C61.9194 209.194 62.8962 210.165 62.8962 211.367C62.8962 212.568 61.9217 213.54 60.7165 213.54ZM60.7165 205.484H54.8907C53.6878 205.484 52.7111 204.512 52.7111 203.311C52.7111 202.109 53.6855 201.138 54.8907 201.138H60.7165C61.9194 201.138 62.8962 202.109 62.8962 203.311C62.8962 204.512 61.9217 205.484 60.7165 205.484ZM511.125 204.013H489.09C487.888 204.013 486.911 203.041 486.911 201.84V180.473C486.911 179.273 487.885 178.299 489.09 178.299H511.125C512.328 178.299 513.305 179.271 513.305 180.473V201.84C513.305 203.039 512.33 204.013 511.125 204.013ZM491.27 199.669H508.948V182.648H491.27V199.669ZM472.97 204.013H450.935C449.732 204.013 448.756 203.041 448.756 201.84V180.473C448.756 179.273 449.73 178.299 450.935 178.299H472.97C474.173 178.299 475.15 179.271 475.15 180.473V201.84C475.15 203.039 474.175 204.013 472.97 204.013ZM453.115 199.669H470.793V182.648H453.115V199.669ZM131.768 204.013H96.1044C94.9015 204.013 93.9247 203.041 93.9247 201.84V190.781C93.9247 189.581 94.8992 188.608 96.1044 188.608H131.768C132.97 188.608 133.947 189.579 133.947 190.781V201.84C133.947 203.039 132.973 204.013 131.768 204.013ZM98.2841 199.669H129.59V192.954H98.2841V199.669ZM21.2745 196.001C17.0154 196.001 13.5488 192.545 13.5488 188.298C13.5488 184.052 17.0154 180.596 21.2745 180.596C25.5336 180.596 29.0002 184.052 29.0002 188.298C29.0002 192.545 25.536 196.001 21.2745 196.001ZM21.2745 184.942C19.4188 184.942 17.9082 186.448 17.9082 188.298C17.9082 190.149 19.4188 191.655 21.2745 191.655C23.1302 191.655 24.6408 190.149 24.6408 188.298C24.6408 186.448 23.1302 184.942 21.2745 184.942ZM131.768 180.77H96.1044C94.9015 180.77 93.9247 179.799 93.9247 178.597V167.538C93.9247 166.339 94.8992 165.365 96.1044 165.365H131.768C132.97 165.365 133.947 166.337 133.947 167.538V178.597C133.947 179.796 132.973 180.77 131.768 180.77ZM98.2841 176.426H129.59V169.711H98.2841V176.426ZM311.514 169.711H261.262C260.059 169.711 259.083 168.74 259.083 167.538V148.358H251.821C250.618 148.358 249.641 147.387 249.641 146.185C249.641 144.984 250.616 144.012 251.821 144.012H259.083V123.775C259.083 122.575 260.057 121.601 261.262 121.601H311.514C312.717 121.601 313.694 122.573 313.694 123.775V144.012H319.44C320.643 144.012 321.62 144.984 321.62 146.185C321.62 147.387 320.646 148.358 319.44 148.358H313.694V167.538C313.694 168.737 312.719 169.711 311.514 169.711ZM263.442 165.367H309.337V148.361H308.02C306.894 148.361 305.793 148.758 304.919 149.479L296.587 156.386C295.347 157.416 293.727 157.82 292.142 157.493C290.556 157.165 289.23 156.149 288.503 154.706L286.076 149.899C283.924 145.634 281.383 140.6 279.588 137.039C279.446 136.758 279.157 136.565 278.842 136.542C278.518 136.514 278.203 136.663 278.017 136.923L277.651 137.434C275.984 139.759 274.019 142.499 272.566 144.528C270.841 146.931 268.041 148.363 265.081 148.363H263.447V165.37L263.442 165.367ZM278.767 132.191C278.903 132.191 279.038 132.195 279.175 132.207C280.994 132.344 282.644 133.444 283.477 135.078C285.274 138.643 287.817 143.68 289.969 147.942L292.396 152.751C292.522 153.002 292.752 153.179 293.028 153.237C293.305 153.295 293.585 153.225 293.799 153.046L302.136 146.136C303.791 144.77 305.88 144.017 308.017 144.017H309.334V125.952H263.44V144.017H265.074C266.633 144.017 268.107 143.261 269.016 141.999C270.468 139.972 272.434 137.232 274.1 134.906L274.469 134.392C275.462 133.011 277.08 132.193 278.765 132.193L278.767 132.191ZM511.13 166.55H489.095C487.892 166.55 486.915 165.579 486.915 164.377V143.01C486.915 141.811 487.89 140.837 489.095 140.837H511.13C512.333 140.837 513.31 141.809 513.31 143.01V164.377C513.31 165.576 512.335 166.55 511.13 166.55ZM491.275 162.206H508.952V145.186H491.275V162.206ZM472.975 166.55H450.94C449.737 166.55 448.76 165.579 448.76 164.377V143.01C448.76 141.811 449.735 140.837 450.94 140.837H472.975C474.178 140.837 475.154 141.809 475.154 143.01V164.377C475.154 165.576 474.18 166.55 472.975 166.55ZM453.12 162.206H470.797V145.186H453.12V162.206ZM127.051 147.905C122.792 147.905 119.326 144.451 119.326 140.207C119.326 136.763 121.606 133.839 124.739 132.858L122.983 30.0372C116.099 28.652 110.898 22.5764 110.898 15.3107C110.898 7.02475 117.659 0.284393 125.97 0.284393C134.281 0.284393 141.036 7.02475 141.036 15.3107C141.036 23.1319 135.01 29.577 127.345 30.272L129.096 132.781C132.367 133.676 134.777 136.667 134.777 140.21C134.777 144.454 131.311 147.907 127.051 147.907V147.905ZM126.429 136.907C124.869 137.2 123.685 138.566 123.685 140.207C123.685 142.057 125.196 143.561 127.051 143.561C128.907 143.561 130.418 142.057 130.418 140.207C130.418 138.527 129.171 137.13 127.55 136.888C127.371 136.939 127.182 136.967 126.986 136.972C126.793 136.972 126.606 136.953 126.427 136.909L126.429 136.907ZM125.97 4.62844C120.062 4.62844 115.258 9.42106 115.258 15.3107C115.258 21.2004 120.062 25.9884 125.97 25.9884C131.877 25.9884 136.679 21.1981 136.679 15.3107C136.679 9.42339 131.875 4.62844 125.97 4.62844ZM223.564 139.159H217.736C216.533 139.159 215.556 138.187 215.556 136.986C215.556 135.784 216.531 134.813 217.736 134.813H223.564C224.767 134.813 225.744 135.784 225.744 136.986C225.744 138.187 224.769 139.159 223.564 139.159ZM65.3556 136.972C61.0965 136.972 57.6299 133.516 57.6299 129.269C57.6299 125.023 61.0941 121.567 65.3556 121.567C69.6171 121.567 73.0813 125.023 73.0813 129.269C73.0813 133.516 69.6171 136.972 65.3556 136.972ZM65.3556 125.913C63.5 125.913 61.9893 127.419 61.9893 129.269C61.9893 131.119 63.5 132.625 65.3556 132.625C67.2113 132.625 68.7219 131.119 68.7219 129.269C68.7219 127.419 67.2113 125.913 65.3556 125.913ZM223.564 131.103H217.736C216.533 131.103 215.556 130.132 215.556 128.93C215.556 127.728 216.531 126.757 217.736 126.757H223.564C224.767 126.757 225.744 127.728 225.744 128.93C225.744 130.132 224.769 131.103 223.564 131.103ZM381.176 125.913C376.917 125.913 373.45 122.457 373.45 118.21C373.45 113.964 376.917 110.508 381.176 110.508C384.677 110.508 387.643 112.844 388.584 116.037H400.108V104.827C400.108 103.628 401.082 102.654 402.287 102.654H478.054C479.257 102.654 480.234 103.626 480.234 104.827C480.234 106.029 479.26 107 478.054 107H404.467V118.21C404.467 119.41 403.493 120.384 402.287 120.384H388.587C387.645 123.577 384.68 125.913 381.178 125.913H381.176ZM381.176 114.854C379.32 114.854 377.809 116.36 377.809 118.21C377.809 120.061 379.32 121.567 381.176 121.567C383.031 121.567 384.54 120.061 384.54 118.21C384.54 116.36 383.031 114.854 381.176 114.854ZM223.564 123.045H217.736C216.533 123.045 215.556 122.073 215.556 120.872C215.556 119.67 216.531 118.698 217.736 118.698H223.564C224.767 118.698 225.744 119.67 225.744 120.872C225.744 122.073 224.769 123.045 223.564 123.045ZM313.922 109.255C309.675 109.255 306.218 105.81 306.218 101.578C306.218 97.3455 309.672 93.8963 313.922 93.8963C318.172 93.8963 321.622 97.3409 321.622 101.578C321.622 105.815 318.167 109.255 313.922 109.255ZM313.922 98.2427C312.078 98.2427 310.577 99.7395 310.577 101.578C310.577 103.416 312.078 104.911 313.922 104.911C315.766 104.911 317.265 103.416 317.265 101.578C317.265 99.7395 315.766 98.2427 313.922 98.2427ZM292.2 109.255C287.955 109.255 284.5 105.81 284.5 101.578C284.5 97.3455 287.955 93.8963 292.2 93.8963C296.445 93.8963 299.9 97.3409 299.9 101.578C299.9 105.815 296.445 109.255 292.2 109.255ZM292.2 98.2427C290.356 98.2427 288.857 99.7395 288.857 101.578C288.857 103.416 290.356 104.911 292.2 104.911C294.044 104.911 295.543 103.416 295.543 101.578C295.543 99.7395 294.044 98.2427 292.2 98.2427ZM270.478 109.255C266.232 109.255 262.778 105.81 262.778 101.578C262.778 97.3455 266.232 93.8963 270.478 93.8963C274.723 93.8963 278.182 97.3409 278.182 101.578C278.182 105.815 274.727 109.255 270.478 109.255ZM270.478 98.2427C268.634 98.2427 267.135 99.7395 267.135 101.578C267.135 103.416 268.634 104.911 270.478 104.911C272.322 104.911 273.823 103.416 273.823 101.578C273.823 99.7395 272.322 98.2427 270.478 98.2427ZM107.982 92.862H60.7211C59.5182 92.862 58.5414 91.8905 58.5414 90.6888V76.1785C58.5414 74.9791 59.5159 74.0053 60.7211 74.0053H107.982C109.185 74.0053 110.162 74.9768 110.162 76.1785V90.6888C110.162 91.8881 109.187 92.862 107.982 92.862ZM62.9008 88.518H105.805V78.3516H62.9008V88.518ZM107.982 69.6915H60.7211C59.5182 69.6915 58.5414 68.7199 58.5414 67.5183C58.5414 66.3166 59.5159 65.3451 60.7211 65.3451H107.982C109.185 65.3451 110.162 66.3166 110.162 67.5183C110.162 68.7199 109.187 69.6915 107.982 69.6915Z" fill="#00052B"/>
<path d="M473.029 89.6034C471.777 89.6034 470.761 88.59 470.761 87.3419V61.3497C470.761 60.1016 471.777 59.0882 473.029 59.0882C474.281 59.0882 475.298 60.1016 475.298 61.3497V87.3419C475.298 88.59 474.281 89.6034 473.029 89.6034ZM463.392 89.6034H449.647C448.395 89.6034 447.379 88.59 447.379 87.3419V61.3497C447.379 60.1016 448.395 59.0882 449.647 59.0882H463.392C464.644 59.0882 465.66 60.1016 465.66 61.3497V87.3419C465.66 88.59 464.644 89.6034 463.392 89.6034ZM451.913 85.0804H461.124V63.6112H451.913V85.0804Z" fill="#00052B"/>
</g>
<defs>
<clipPath id="clip0_578_29">
<rect width="541" height="356" fill="white" transform="translate(0.5 0.284393)"/>
</clipPath>
</defs>
</svg>
