<svg width="16" height="16" viewBox="0 0 16 16" fill="none" xmlns="http://www.w3.org/2000/svg">
<path d="M2.99058 4.9609V13.8982C2.99058 14.2313 2.87808 14.5104 2.65308 14.7354C2.4273 14.9612 2.14782 15.0741 1.81463 15.0741C1.48144 15.0741 1.20195 14.9612 0.976171 14.7354C0.751172 14.5104 0.638672 14.2313 0.638672 13.8982V2.1386C0.638672 1.80541 0.751172 1.52593 0.976171 1.30015C1.20195 1.07515 1.48144 0.962646 1.81463 0.962646H13.5742C13.9074 0.962646 14.1865 1.07515 14.4115 1.30015C14.6373 1.52593 14.7501 1.80541 14.7501 2.1386C14.7501 2.47179 14.6373 2.75128 14.4115 2.97706C14.1865 3.20206 13.9074 3.31456 13.5742 3.31456H4.63692L15.1029 13.7806C15.3185 13.9962 15.4263 14.2705 15.4263 14.6037C15.4263 14.9369 15.3185 15.2113 15.1029 15.4269C14.8873 15.6425 14.6129 15.7503 14.2798 15.7503C13.9466 15.7503 13.6722 15.6425 13.4566 15.4269L2.99058 4.9609Z" fill="white"/>
</svg>
