<svg width="24" height="23" viewBox="0 0 24 23" fill="none" xmlns="http://www.w3.org/2000/svg">
<path d="M18.8203 17.53C18.5247 16.6204 17.6719 15.9496 16.66 15.9496H15.523V12.5386C15.523 12.2371 15.4032 11.9479 15.19 11.7346C14.9768 11.5214 14.6876 11.4016 14.386 11.4016H7.56411V9.12764H9.83809C10.1396 9.12764 10.4288 9.00785 10.6421 8.79462C10.8553 8.58139 10.9751 8.2922 10.9751 7.99065V5.71667H13.249C13.8521 5.71667 14.4305 5.4771 14.857 5.05064C15.2834 4.62419 15.523 4.0458 15.523 3.4427V2.97654C16.8834 3.52498 18.0906 4.3949 19.0413 5.51183C19.9921 6.62876 20.658 7.95944 20.9821 9.38995C21.3062 10.8205 21.2788 12.3082 20.9023 13.7258C20.5258 15.1435 19.8114 16.4488 18.8203 17.53ZM10.9751 20.4179C6.48397 19.8608 3.01616 16.0405 3.01616 11.4016C3.01616 10.6967 3.10712 10.0145 3.25493 9.3664L8.7011 14.8126V15.9496C8.7011 16.5527 8.94068 17.1311 9.36713 17.5575C9.79358 17.984 10.372 18.2235 10.9751 18.2235M12.1121 0.0317383C10.6189 0.0317383 9.14046 0.325829 7.761 0.897218C6.38154 1.46861 5.12814 2.30611 4.07235 3.3619C1.94008 5.49416 0.742188 8.38613 0.742188 11.4016C0.742188 14.4171 1.94008 17.3091 4.07235 19.4413C5.12814 20.4971 6.38154 21.3346 7.761 21.906C9.14046 22.4774 10.6189 22.7715 12.1121 22.7715C15.1275 22.7715 18.0195 21.5736 20.1518 19.4413C22.284 17.3091 23.4819 14.4171 23.4819 11.4016C23.4819 9.9085 23.1878 8.43001 22.6165 7.05055C22.0451 5.67109 21.2076 4.41769 20.1518 3.3619C19.096 2.30611 17.8426 1.46861 16.4631 0.897218C15.0837 0.325829 13.6052 0.0317383 12.1121 0.0317383Z" fill="#17171A"/>
</svg>
