<svg width="17" height="26" viewBox="0 0 17 26" fill="none" xmlns="http://www.w3.org/2000/svg">
<path d="M3.57882 25.7305C3.24785 25.7305 2.97022 25.6183 2.74594 25.394C2.52244 25.1705 2.41069 24.8933 2.41069 24.5623C2.41069 24.2314 2.52244 23.9541 2.74594 23.7306C2.97022 23.5064 3.24785 23.3942 3.57882 23.3942C3.90978 23.3942 4.18741 23.5064 4.41169 23.7306C4.63519 23.9541 4.74694 24.2314 4.74694 24.5623C4.74694 24.8933 4.63519 25.1705 4.41169 25.394C4.18741 25.6183 3.90978 25.7305 3.57882 25.7305ZM8.25131 25.7305C7.92034 25.7305 7.64311 25.6183 7.41961 25.394C7.19533 25.1705 7.08319 24.8933 7.08319 24.5623C7.08319 24.2314 7.19533 23.9541 7.41961 23.7306C7.64311 23.5064 7.92034 23.3942 8.25131 23.3942C8.58228 23.3942 8.85991 23.5064 9.08419 23.7306C9.30769 23.9541 9.41944 24.2314 9.41944 24.5623C9.41944 24.8933 9.30769 25.1705 9.08419 25.394C8.85991 25.6183 8.58228 25.7305 8.25131 25.7305ZM12.9238 25.7305C12.5928 25.7305 12.3156 25.6183 12.0921 25.394C11.8678 25.1705 11.7557 24.8933 11.7557 24.5623C11.7557 24.2314 11.8678 23.9541 12.0921 23.7306C12.3156 23.5064 12.5928 23.3942 12.9238 23.3942C13.2548 23.3942 13.532 23.5064 13.7555 23.7306C13.9798 23.9541 14.0919 24.2314 14.0919 24.5623C14.0919 24.8933 13.9798 25.1705 13.7555 25.394C13.532 25.6183 13.2548 25.7305 12.9238 25.7305ZM8.25131 14.0492C7.27788 14.0492 6.45045 13.7085 5.76905 13.0271C5.08764 12.3457 4.74694 11.5183 4.74694 10.5449V3.53611C4.74694 2.56267 5.08764 1.73525 5.76905 1.05385C6.45045 0.372441 7.27788 0.0317383 8.25131 0.0317383C9.22475 0.0317383 10.0522 0.372441 10.7336 1.05385C11.415 1.73525 11.7557 2.56267 11.7557 3.53611V10.5449C11.7557 11.5183 11.415 12.3457 10.7336 13.0271C10.0522 13.7085 9.22475 14.0492 8.25131 14.0492ZM8.25131 22.2261C7.92034 22.2261 7.64311 22.114 7.41961 21.8897C7.19533 21.6662 7.08319 21.3889 7.08319 21.058V18.6049C5.2726 18.3713 3.73457 17.6217 2.4691 16.3563C1.20363 15.0908 0.434615 13.5722 0.162053 11.8006C0.103647 11.4696 0.191257 11.1776 0.424881 10.9245C0.658506 10.6714 0.970006 10.5449 1.35938 10.5449C1.63194 10.5449 1.8753 10.6469 2.08946 10.8509C2.30361 11.0557 2.43989 11.3041 2.4983 11.5962C2.75139 12.959 3.41333 14.0979 4.48411 15.0129C5.55489 15.928 6.81063 16.3855 8.25131 16.3855C9.692 16.3855 10.9477 15.928 12.0185 15.0129C13.0893 14.0979 13.7512 12.959 14.0043 11.5962C14.0627 11.3041 14.2041 11.0557 14.4284 10.8509C14.6519 10.6469 14.8999 10.5449 15.1724 10.5449C15.5424 10.5449 15.8441 10.6714 16.0777 10.9245C16.3114 11.1776 16.399 11.4696 16.3406 11.8006C16.068 13.5722 15.299 15.0908 14.0335 16.3563C12.7681 17.6217 11.23 18.3713 9.41944 18.6049V21.058C9.41944 21.3889 9.30769 21.6662 9.08419 21.8897C8.85991 22.114 8.58228 22.2261 8.25131 22.2261ZM8.25131 11.713C8.58228 11.713 8.85991 11.6008 9.08419 11.3766C9.30769 11.1531 9.41944 10.8758 9.41944 10.5449V3.53611C9.41944 3.20514 9.30769 2.92752 9.08419 2.70324C8.85991 2.47974 8.58228 2.36799 8.25131 2.36799C7.92034 2.36799 7.64311 2.47974 7.41961 2.70324C7.19533 2.92752 7.08319 3.20514 7.08319 3.53611V10.5449C7.08319 10.8758 7.19533 11.1531 7.41961 11.3766C7.64311 11.6008 7.92034 11.713 8.25131 11.713Z" fill="#17171A"/>
</svg>
