<svg width="24" height="21" viewBox="0 0 24 21" fill="none" xmlns="http://www.w3.org/2000/svg">
<path d="M12.2668 20.709C11.0321 20.709 9.97501 20.2693 9.09569 19.39C8.21638 18.5107 7.77672 17.4536 7.77672 16.2189C7.77672 14.9841 8.21638 13.927 9.09569 13.0477C9.97501 12.1684 11.0321 11.7287 12.2668 11.7287C13.5016 11.7287 14.5587 12.1684 15.438 13.0477C16.3173 13.927 16.757 14.9841 16.757 16.2189C16.757 17.4536 16.3173 18.5107 15.438 19.39C14.5587 20.2693 13.5016 20.709 12.2668 20.709ZM12.2668 18.4639C12.8842 18.4639 13.4129 18.2443 13.853 17.805C14.2923 17.365 14.5119 16.8363 14.5119 16.2189C14.5119 15.6015 14.2923 15.0731 13.853 14.6338C13.4129 14.1938 12.8842 13.9738 12.2668 13.9738C11.6495 13.9738 11.1211 14.1938 10.6818 14.6338C10.2418 15.0731 10.0218 15.6015 10.0218 16.2189C10.0218 16.8363 10.2418 17.365 10.6818 17.805C11.1211 18.2443 11.6495 18.4639 12.2668 18.4639ZM2.22019 6.78959L0.564453 5.24611C2.07987 3.76811 3.8385 2.60816 5.84035 1.76627C7.8422 0.924367 9.98436 0.503418 12.2668 0.503418C14.5493 0.503418 16.6915 0.924367 18.6933 1.76627C20.6952 2.60816 22.4538 3.76811 23.9692 5.24611L22.3135 6.78959C20.9852 5.5361 19.4698 4.5494 17.7672 3.82948C16.0647 3.10881 14.2313 2.74848 12.2668 2.74848C10.3024 2.74848 8.46894 3.10881 6.76644 3.82948C5.06393 4.5494 3.54852 5.5361 2.22019 6.78959ZM18.2163 10.6343C17.4305 9.92333 16.5325 9.36655 15.5222 8.96394C14.5119 8.56207 13.4268 8.36114 12.2668 8.36114C11.1069 8.36114 10.0266 8.56207 9.0261 8.96394C8.0248 9.36655 7.12191 9.92333 6.31743 10.6343L4.66169 9.09078C5.67197 8.15534 6.82706 7.42569 8.12695 6.90185C9.42759 6.378 10.8076 6.11608 12.2668 6.11608C13.7261 6.11608 15.1012 6.378 16.3921 6.90185C17.6831 7.42569 18.8337 8.15534 19.8439 9.09078L18.2163 10.6343Z" fill="#17171A"/>
</svg>
