<svg width="20" height="28" viewBox="0 0 20 28" fill="none" xmlns="http://www.w3.org/2000/svg">
<path d="M14.8019 5.33552L13.085 7.05241L11.1626 5.12998V18.6354H8.76861V5.12998L6.84618 7.05241L5.12928 5.33552L9.9656 0.499207L14.8019 5.33552ZM19.6382 11.3809V24.6808C19.6382 26.0108 18.5501 27.0989 17.2201 27.0989H2.71113C2.06979 27.0989 1.45472 26.8442 1.00123 26.3907C0.547738 25.9372 0.292969 25.3221 0.292969 24.6808V11.3809C0.292969 10.0388 1.36905 8.96276 2.71113 8.96276H6.33836V11.3809H2.71113V24.6808H17.2201V11.3809H13.5928V8.96276H17.2201C17.8614 8.96276 18.4765 9.21753 18.93 9.67102C19.3835 10.1245 19.6382 10.7396 19.6382 11.3809Z" fill="#C1C4CA"/>
</svg>
