<svg width="21" height="20" viewBox="0 0 21 20" fill="none" xmlns="http://www.w3.org/2000/svg">
<path d="M20.9989 15.9934C20.9989 16.7568 20.5736 18.227 19.6191 19.0345C19.428 19.1815 19.2358 19.0986 19.3198 18.8844C19.5981 18.2039 20.2355 16.6297 19.9362 16.2674C19.7262 15.9923 18.8546 16.0123 18.1111 16.0763C17.7709 16.1194 17.4737 16.1393 17.2416 16.1866C17.0284 16.2044 16.9843 16.0154 17.1986 15.8684C17.4737 15.6741 17.7709 15.5271 18.1122 15.419C19.3198 15.0577 20.7165 15.2751 20.916 15.5061C20.9538 15.5502 21 15.6741 21 15.9923L20.9989 15.9934ZM18.9817 17.3522C18.7044 17.564 18.4132 17.757 18.1101 17.9298C15.8817 19.2687 12.996 19.9702 10.4883 19.9702C6.45265 19.9702 2.84338 18.4822 0.104659 15.9923C-0.129518 15.8012 0.0647543 15.524 0.338836 15.6741C3.28968 17.3963 6.94201 18.4381 10.7235 18.4381C13.2516 18.4309 15.7564 17.9552 18.1111 17.0351C18.2812 16.971 18.4724 16.8839 18.6393 16.823C19.0247 16.6497 19.3639 17.0781 18.9817 17.3522ZM12.5024 5.76937C12.5024 4.6762 12.5455 4.03247 12.1832 3.48011C11.8618 3.0254 11.3084 2.75237 10.5366 2.79543C9.69858 2.84163 8.79863 3.39085 8.56865 4.39791C8.52454 4.62894 8.38908 4.85577 8.11079 4.90512L5.5527 4.57958C5.36997 4.53758 5.09274 4.39791 5.18305 4.03247C5.73227 1.14253 8.20215 0.135466 10.5366 0H11.0858C12.3669 0 14.0125 0.366493 15.0658 1.32735C16.3438 2.52029 16.2083 4.12278 16.2083 5.86388V9.98772C16.2083 11.2248 16.7092 11.7729 17.2143 12.4177C17.3508 12.6477 17.397 12.9186 17.1671 13.1055C16.5057 13.6956 15.8346 14.2747 15.154 14.8424C14.9712 14.9821 14.6415 14.9968 14.5134 14.8897C13.7048 14.2124 13.5074 13.8364 13.0065 13.1486C12.1349 14.0632 11.404 14.5684 10.5334 14.8424C9.92122 14.9978 9.29161 15.074 8.66001 15.0693C6.46525 15.0693 4.72625 13.701 4.72625 10.9948C4.72625 8.84308 5.87088 7.38026 7.56158 6.68823C9.25228 5.99515 11.7096 5.77462 12.5014 5.77042L12.5024 5.76937ZM12.0004 11.2216C12.5465 10.3059 12.5014 9.55612 12.5014 7.87697C11.8177 7.87697 11.1299 7.92423 10.5366 8.06389C9.4392 8.38208 8.56865 9.07306 8.56865 10.5369C8.56865 11.6816 9.16407 12.4608 10.1701 12.4608C10.3087 12.4608 10.4305 12.444 10.5366 12.4135C11.2402 12.2182 11.6791 11.8653 12.0004 11.2216Z" fill="#67757C"/>
</svg>
