<svg width="22" height="23" viewBox="0 0 22 23" fill="none" xmlns="http://www.w3.org/2000/svg">
<path d="M0.207031 18.5436H9.20199V20.3426H0.207031V18.5436ZM0.207031 13.1466H9.20199V14.9456H0.207031V13.1466ZM19.9959 9.54867H2.00602C1.5289 9.54867 1.07132 9.35913 0.733943 9.02175C0.396567 8.68438 0.207031 8.2268 0.207031 7.74967V2.3527C0.207031 1.87558 0.396567 1.418 0.733943 1.08062C1.07132 0.743247 1.5289 0.553711 2.00602 0.553711H19.9959C20.4731 0.553711 20.9306 0.743247 21.268 1.08062C21.6054 1.418 21.7949 1.87558 21.7949 2.3527V7.74967C21.7949 8.2268 21.6054 8.68438 21.268 9.02175C20.9306 9.35913 20.4731 9.54867 19.9959 9.54867ZM2.00602 2.3527V7.74967H19.9959V2.3527H2.00602ZM19.9959 22.1416H14.599C14.1218 22.1416 13.6643 21.9521 13.3269 21.6147C12.9895 21.2773 12.8 20.8197 12.8 20.3426V14.9456C12.8 14.4685 12.9895 14.0109 13.3269 13.6736C13.6643 13.3362 14.1218 13.1466 14.599 13.1466H19.9959C20.4731 13.1466 20.9306 13.3362 21.268 13.6736C21.6054 14.0109 21.7949 14.4685 21.7949 14.9456V20.3426C21.7949 20.8197 21.6054 21.2773 21.268 21.6147C20.9306 21.9521 20.4731 22.1416 19.9959 22.1416ZM14.599 14.9456V20.3426H19.9959V14.9456H14.599Z" fill="#67757C"/>
</svg>
