<svg width="20" height="23" viewBox="0 0 20 23" fill="none" xmlns="http://www.w3.org/2000/svg">
<path d="M14.0293 16.8786L14.9916 14.8385C15.0176 14.7802 15.0599 14.7306 15.1135 14.6958C15.167 14.6611 15.2295 14.6426 15.2933 14.6426C15.3572 14.6426 15.4197 14.6611 15.4732 14.6958C15.5268 14.7306 15.5691 14.7802 15.5951 14.8385L16.5585 16.8786L18.7097 17.2078C18.986 17.2502 19.0962 17.6059 18.8971 17.8092L17.3398 19.3972L17.7072 21.6395C17.7537 21.9274 17.4647 22.1477 17.218 22.0111L15.2933 20.9524L13.3687 22.0111C13.1209 22.1477 12.833 21.9274 12.8795 21.6395L13.2469 19.3972L11.6906 17.8092C11.4895 17.6059 11.6006 17.2502 11.877 17.2078L14.0293 16.8786Z" stroke="#67757C" stroke-width="1.5" stroke-linecap="round" stroke-linejoin="round"/>
<path d="M17.941 11.4658V4.84793C17.941 4.76436 17.9246 4.6816 17.8926 4.60439C17.8606 4.52718 17.8138 4.45704 17.7546 4.39798L14.4219 1.06524C14.3029 0.946076 14.1414 0.879055 13.973 0.878906H1.63717C1.4687 0.878906 1.30713 0.94583 1.188 1.06496C1.06888 1.18408 1.00195 1.34565 1.00195 1.51412V21.4174C1.00195 21.5859 1.06888 21.7475 1.188 21.8666C1.30713 21.9857 1.4687 22.0527 1.63717 22.0527H8.41277" stroke="#67757C" stroke-width="1.5" stroke-linecap="round" stroke-linejoin="round"/>
<path d="M13.707 0.878906V4.47844C13.707 4.64691 13.774 4.80848 13.8931 4.92761C14.0122 5.04673 14.1738 5.11366 14.3422 5.11366H17.9418" stroke="#67757C" stroke-width="1.5" stroke-linecap="round" stroke-linejoin="round"/>
</svg>
