<svg width="22" height="21" viewBox="0 0 22 21" fill="none" xmlns="http://www.w3.org/2000/svg">
<path d="M12.0804 16.8149C12.0804 16.4479 12.1235 16.0917 12.1775 15.7355H2.36582V4.9416L11.001 10.3386L19.6361 4.9416V10.4357C20.4133 10.5652 21.1365 10.8351 21.7949 11.2129V2.78281C21.7949 1.59548 20.8235 0.624023 19.6361 0.624023H2.36582C1.17849 0.624023 0.207031 1.59548 0.207031 2.78281V15.7355C0.207031 16.9229 1.17849 17.8943 2.36582 17.8943H12.1775C12.1235 17.5381 12.0804 17.1819 12.0804 16.8149ZM19.6361 2.78281L11.001 8.17979L2.36582 2.78281H19.6361ZM17.4773 13.5768V15.7355H21.7949V17.8943H17.4773V20.0531L14.2392 16.8149L17.4773 13.5768Z" fill="#67757C"/>
</svg>
