<svg width="20" height="21" viewBox="0 0 20 21" fill="none" xmlns="http://www.w3.org/2000/svg">
<path d="M19.0929 0.668945H0.905972C0.468595 0.668945 0.115234 1.02231 0.115234 1.45968V19.6466C0.115234 20.084 0.468595 20.4374 0.905972 20.4374H19.0929C19.5303 20.4374 19.8837 20.084 19.8837 19.6466V1.45968C19.8837 1.02231 19.5303 0.668945 19.0929 0.668945ZM18.3022 18.8559H13.753V12.7821H16.3229L16.7084 9.79949H13.753V7.89431C13.753 7.02944 13.9927 6.44133 15.2307 6.44133H16.8097V3.77259C16.5354 3.73552 15.5989 3.65398 14.5067 3.65398C12.2283 3.65398 10.6691 5.04518 10.6691 7.59778V9.79702H8.09427V12.7796H10.6716V18.8559H1.69671V2.25042H18.3022V18.8559Z" fill="#67757C"/>
</svg>
