<svg width="22" height="23" viewBox="0 0 22 23" fill="none" xmlns="http://www.w3.org/2000/svg">
<path d="M10.7939 6.16559C9.76922 6.16559 8.76751 6.46945 7.91548 7.03876C7.06346 7.60806 6.39938 8.41724 6.00724 9.36396C5.61509 10.3107 5.51249 11.3524 5.71241 12.3575C5.91232 13.3625 6.40577 14.2857 7.13036 15.0103C7.85495 15.7349 8.77813 16.2283 9.78316 16.4282C10.7882 16.6281 11.8299 16.5255 12.7767 16.1334C13.7234 15.7412 14.5326 15.0772 15.1019 14.2251C15.6712 13.3731 15.975 12.3714 15.975 11.3467C15.975 9.97257 15.4292 8.65474 14.4575 7.68309C13.4859 6.71145 12.1681 6.16559 10.7939 6.16559ZM10.7939 14.8007C10.1108 14.8007 9.44299 14.5982 8.87497 14.2186C8.30695 13.8391 7.86424 13.2996 7.60281 12.6685C7.34138 12.0373 7.27298 11.3428 7.40625 10.6728C7.53953 10.0028 7.86849 9.38735 8.35155 8.90429C8.83461 8.42123 9.45007 8.09226 10.1201 7.95899C10.7901 7.82571 11.4846 7.89411 12.1158 8.15554C12.7469 8.41697 13.2864 8.85969 13.6659 9.42771C14.0454 9.99572 14.248 10.6635 14.248 11.3467C14.2452 12.2619 13.8803 13.1388 13.2332 13.7859C12.586 14.4331 11.7091 14.7979 10.7939 14.8007ZM15.5433 0.552734H6.04461C4.44148 0.552734 2.90401 1.18958 1.77042 2.32316C0.636841 3.45674 0 4.99421 0 6.59734V16.096C0 17.6991 0.636841 19.2366 1.77042 20.3702C2.90401 21.5038 4.44148 22.1406 6.04461 22.1406H15.5433C17.1464 22.1406 18.6839 21.5038 19.8175 20.3702C20.951 19.2366 21.5879 17.6991 21.5879 16.096V6.59734C21.5879 4.99421 20.951 3.45674 19.8175 2.32316C18.6839 1.18958 17.1464 0.552734 15.5433 0.552734ZM19.8609 16.096C19.8609 16.663 19.7492 17.2244 19.5322 17.7483C19.3152 18.2721 18.9972 18.7481 18.5963 19.149C18.1953 19.5499 17.7194 19.868 17.1955 20.0849C16.6717 20.3019 16.1103 20.4136 15.5433 20.4136H6.04461C5.47762 20.4136 4.91618 20.3019 4.39234 20.0849C3.86851 19.868 3.39254 19.5499 2.99162 19.149C2.5907 18.7481 2.27267 18.2721 2.05569 17.7483C1.83871 17.2244 1.72703 16.663 1.72703 16.096V6.59734C1.72703 5.45225 2.18192 4.35406 2.99162 3.54435C3.80132 2.73465 4.89952 2.27977 6.04461 2.27977H15.5433C16.1103 2.27977 16.6717 2.39144 17.1955 2.60842C17.7194 2.8254 18.1953 3.14343 18.5963 3.54435C18.9972 3.94528 19.3152 4.42125 19.5322 4.94508C19.7492 5.46891 19.8609 6.03035 19.8609 6.59734V16.096ZM17.7021 5.73383C17.7021 5.99001 17.6261 6.24044 17.4838 6.45344C17.3414 6.66645 17.1392 6.83247 16.9025 6.9305C16.6658 7.02854 16.4054 7.05419 16.1541 7.00421C15.9028 6.95424 15.672 6.83087 15.4909 6.64972C15.3098 6.46858 15.1864 6.23778 15.1364 5.98652C15.0864 5.73527 15.1121 5.47483 15.2101 5.23815C15.3082 5.00147 15.4742 4.79917 15.6872 4.65685C15.9002 4.51452 16.1506 4.43855 16.4068 4.43855C16.7503 4.43855 17.0798 4.57502 17.3227 4.81793C17.5656 5.06084 17.7021 5.3903 17.7021 5.73383Z" fill="#67757C"/>
</svg>
