<svg width="20" height="24" viewBox="0 0 20 24" fill="none" xmlns="http://www.w3.org/2000/svg">
<path d="M10.6327 21.4316V16.5635H9.01002V21.4316H0.896484V23.0543H18.7463V21.4316H10.6327Z" fill="#67757C"/>
<path d="M4.14338 12.5065C4.59148 12.5065 4.95474 12.1432 4.95474 11.6951C4.95474 11.247 4.59148 10.8838 4.14338 10.8838C3.69529 10.8838 3.33203 11.247 3.33203 11.6951C3.33203 12.1432 3.69529 12.5065 4.14338 12.5065Z" fill="#67757C"/>
<path d="M17.9357 14.94H1.70864C1.27841 14.9396 0.865915 14.7685 0.561692 14.4643C0.257468 14.1601 0.0863671 13.7476 0.0859375 13.3173V10.0719C0.0863671 9.64169 0.257468 9.2292 0.561692 8.92497C0.865915 8.62075 1.27841 8.44965 1.70864 8.44922H17.9357C18.3659 8.44965 18.7784 8.62075 19.0827 8.92497C19.3869 9.2292 19.558 9.64169 19.5584 10.0719V13.3173C19.558 13.7476 19.3869 14.1601 19.0827 14.4643C18.7784 14.7685 18.3659 14.9396 17.9357 14.94ZM1.70864 10.0719V13.3173H17.9357V10.0719H1.70864Z" fill="#67757C"/>
<path d="M4.14338 4.39224C4.59148 4.39224 4.95474 4.02898 4.95474 3.58088C4.95474 3.13279 4.59148 2.76953 4.14338 2.76953C3.69529 2.76953 3.33203 3.13279 3.33203 3.58088C3.33203 4.02898 3.69529 4.39224 4.14338 4.39224Z" fill="#67757C"/>
<path d="M17.9357 6.82677H1.70864C1.27841 6.82634 0.865915 6.65523 0.561692 6.35101C0.257468 6.04679 0.0863671 5.63429 0.0859375 5.20406V1.95864C0.0863671 1.52841 0.257468 1.11592 0.561692 0.811692C0.865915 0.507468 1.27841 0.336367 1.70864 0.335938H17.9357C18.3659 0.336367 18.7784 0.507468 19.0827 0.811692C19.3869 1.11592 19.558 1.52841 19.5584 1.95864V5.20406C19.558 5.63429 19.3869 6.04679 19.0827 6.35101C18.7784 6.65523 18.3659 6.82634 17.9357 6.82677ZM1.70864 1.95864V5.20406H17.9357V1.95864H1.70864Z" fill="#67757C"/>
</svg>
