<svg width="23" height="24" viewBox="0 0 23 24" fill="none" xmlns="http://www.w3.org/2000/svg">
<path d="M22.5 0.0400391H8.5878C6.55208 0.0400391 4.59974 0.848726 3.16027 2.2882C1.7208 3.72767 0.912109 5.68001 0.912109 7.71573C0.912109 9.75145 1.7208 11.7038 3.16027 13.1433C4.59974 14.5827 6.55208 15.3914 8.5878 15.3914H11.9459V23.0671H18.6622V1.95896H22.5V0.0400391ZM11.9459 13.4725H8.5878C7.06101 13.4725 5.59676 12.866 4.51715 11.7864C3.43755 10.7068 2.83103 9.24252 2.83103 7.71573C2.83103 6.18894 3.43755 4.72469 4.51715 3.64508C5.59676 2.56548 7.06101 1.95896 8.5878 1.95896H11.9459V13.4725ZM16.7432 21.1482H13.8648V1.95896H16.7432V21.1482Z" fill="#67757C"/>
</svg>
