<svg width="23" height="25" viewBox="0 0 23 25" fill="none" xmlns="http://www.w3.org/2000/svg">
<path d="M16.724 10.0006L12.098 7.26359C11.9792 7.19319 11.8436 7.15611 11.7055 7.15625C11.5673 7.15639 11.4318 7.19373 11.3131 7.26436L6.68715 10.0014C6.57181 10.0694 6.47622 10.1664 6.40983 10.2827C6.34344 10.3989 6.30854 10.5305 6.30859 10.6645V15.9843C6.30859 16.2573 6.45277 16.5094 6.68715 16.6474L11.3131 19.3844C11.4317 19.4556 11.5673 19.4932 11.7056 19.4932C11.8438 19.4932 11.9795 19.4556 12.098 19.3844L16.724 16.6474C16.8393 16.5794 16.9349 16.4824 17.0013 16.3661C17.0677 16.2498 17.1026 16.1182 17.1025 15.9843V10.6645C17.1026 10.5304 17.0677 10.3987 17.0013 10.2823C16.9349 10.1659 16.8393 10.0688 16.724 10.0006ZM15.5605 15.5449L11.7056 17.8255L7.85059 15.5449V11.1039L11.7056 8.82331L15.5605 11.1039V15.5449Z" fill="#67757C"/>
<path d="M3.99609 15.7791V8.75221L8.77627 5.92728L7.99217 4.59963L2.83266 7.64892C2.71731 7.71713 2.62173 7.81422 2.55535 7.93063C2.48897 8.04704 2.45407 8.17874 2.4541 8.31274V15.7791C2.00443 15.9376 1.61483 16.2313 1.33875 16.6201C1.06267 17.0088 0.913638 17.4734 0.912109 17.9502C0.912109 19.2254 1.94987 20.2632 3.2251 20.2632C4.50033 20.2632 5.53809 19.2254 5.53809 17.9502C5.53656 17.4734 5.38753 17.0088 5.11145 16.6201C4.83537 16.2313 4.44576 15.9376 3.99609 15.7791ZM3.2251 18.7212C3.02658 18.7123 2.83914 18.6272 2.7018 18.4836C2.56447 18.34 2.48782 18.1489 2.48782 17.9502C2.48782 17.7515 2.56447 17.5604 2.7018 17.4168C2.83914 17.2732 3.02658 17.1881 3.2251 17.1792C3.42361 17.1881 3.61105 17.2732 3.74839 17.4168C3.88573 17.5604 3.96238 17.7515 3.96238 17.9502C3.96238 18.1489 3.88573 18.34 3.74839 18.4836C3.61105 18.6272 3.42361 18.7123 3.2251 18.7212ZM20.187 15.6372C18.9118 15.6372 17.874 16.675 17.874 17.9502C17.874 18.2224 17.9295 18.4799 18.0167 18.7227L11.7061 22.4513L6.7686 19.5338L5.98449 20.8615L11.3136 24.0102C11.4323 24.0809 11.5678 24.1182 11.7059 24.1183C11.8441 24.1185 11.9797 24.0814 12.0985 24.011L19.0066 19.9286C19.3536 20.136 19.7545 20.2632 20.187 20.2632C21.4622 20.2632 22.5 19.2254 22.5 17.9502C22.5 16.675 21.4622 15.6372 20.187 15.6372ZM20.187 18.7212C19.9885 18.7123 19.8011 18.6272 19.6637 18.4836C19.5264 18.34 19.4497 18.1489 19.4497 17.9502C19.4497 17.7515 19.5264 17.5604 19.6637 17.4168C19.8011 17.2732 19.9885 17.1881 20.187 17.1792C20.3855 17.1881 20.573 17.2732 20.7103 17.4168C20.8476 17.5604 20.9243 17.7515 20.9243 17.9502C20.9243 18.1489 20.8476 18.34 20.7103 18.4836C20.573 18.6272 20.3855 18.7123 20.187 18.7212ZM11.7061 5.61426C12.2697 5.61426 12.7793 5.40378 13.181 5.06839L19.416 8.75298V14.0952H20.958V8.31274C20.958 8.17874 20.9231 8.04704 20.8568 7.93063C20.7904 7.81422 20.6948 7.71713 20.5794 7.64892L13.9743 3.74613C14.0021 3.60196 14.019 3.45393 14.019 3.30127C14.019 2.02604 12.9813 0.988281 11.7061 0.988281C10.4308 0.988281 9.39307 2.02604 9.39307 3.30127C9.39307 4.5765 10.4308 5.61426 11.7061 5.61426ZM11.7061 2.53027C11.8588 2.53012 12.0081 2.57527 12.1351 2.66002C12.2621 2.74476 12.3612 2.86529 12.4197 3.00634C12.4782 3.1474 12.4936 3.30264 12.4638 3.45242C12.434 3.6022 12.3605 3.73978 12.2525 3.84776C12.1446 3.95574 12.007 4.02926 11.8572 4.05902C11.7074 4.08877 11.5522 4.07342 11.4111 4.01491C11.2701 3.9564 11.1495 3.85736 11.0648 3.73033C10.9801 3.6033 10.9349 3.45398 10.9351 3.30127C10.9351 2.87568 11.2812 2.53027 11.7061 2.53027Z" fill="#67757C"/>
</svg>
