<svg width="24" height="24" viewBox="0 0 24 24" fill="none" xmlns="http://www.w3.org/2000/svg">
<path d="M21.5783 0.410156H11.6191C11.179 0.410596 10.7571 0.585615 10.4459 0.896806C10.1347 1.208 9.95965 1.62994 9.95921 2.07002V10.3694H1.65987C1.21978 10.3698 0.79784 10.5448 0.48665 10.856C0.175459 11.1672 0.000439431 11.5891 0 12.0292V23.6483H23.2382V2.07002C23.2377 1.62994 23.0627 1.208 22.7515 0.896806C22.4403 0.585615 22.0184 0.410596 21.5783 0.410156ZM5.80954 21.9884V16.1789H9.12928V21.9884H5.80954ZM21.5783 21.9884H10.7891V15.349C10.7891 15.1289 10.7017 14.9178 10.5461 14.7621C10.3904 14.6065 10.1793 14.519 9.95921 14.519H4.97961C4.75949 14.519 4.5484 14.6065 4.39275 14.7621C4.23711 14.9178 4.14967 15.1289 4.14967 15.349V21.9884H1.65987V12.0292H11.6191V2.07002H21.5783V21.9884Z" fill="#67757C"/>
<path d="M13.2789 5.38976H14.9388V7.04963H13.2789V5.38976ZM18.2586 5.38976H19.9184V7.04963H18.2586V5.38976ZM13.2789 10.3694H14.9388V12.0292H13.2789V10.3694ZM18.2586 10.3694H19.9184V12.0292H18.2586V10.3694ZM13.2789 15.349H14.9388V17.0088H13.2789V15.349ZM18.2586 15.349H19.9184V17.0088H18.2586V15.349ZM2.90477 8.7095C2.13438 8.7095 1.39554 8.40346 0.850787 7.85871C0.306037 7.31396 0 6.57512 0 5.80473C0 5.03434 0.306037 4.2955 0.850787 3.75075C1.39554 3.206 2.13438 2.89996 2.90477 2.89996H3.42514C3.6099 2.18778 4.02569 1.557 4.60736 1.10645C5.18902 0.655891 5.90372 0.411006 6.63947 0.410156H8.29934V2.07002H6.63947C6.19938 2.07046 5.77745 2.24548 5.46626 2.55667C5.15507 2.86786 4.98005 3.2898 4.97961 3.72989V4.55983H2.90477C2.5746 4.55983 2.25796 4.69099 2.02449 4.92445C1.79103 5.15791 1.65987 5.47456 1.65987 5.80473C1.65987 6.1349 1.79103 6.45154 2.02449 6.68501C2.25796 6.91847 2.5746 7.04963 2.90477 7.04963H8.29934V8.7095H2.90477Z" fill="#67757C"/>
</svg>
