<svg width="25" height="25" viewBox="0 0 25 25" fill="none" xmlns="http://www.w3.org/2000/svg">
<g clip-path="url(#clip0_115_1675)">
<path d="M12.9844 0.046875C19.6119 0.046875 24.9844 5.41934 24.9844 12.0469C24.9844 18.6744 19.6119 24.0469 12.9844 24.0469C6.35684 24.0469 0.984375 18.6744 0.984375 12.0469C0.984375 5.41934 6.35684 0.046875 12.9844 0.046875ZM12.9844 4.28217C12.2044 4.28217 11.5726 4.91393 11.5726 5.69393V12.5763L11.5776 12.6949C11.6171 13.1664 11.8917 13.59 12.3117 13.8173L16.547 16.1114L16.6458 16.1608C17.3136 16.4573 18.107 16.1961 18.4613 15.5431L18.51 15.4443C18.8065 14.7765 18.5453 13.9831 17.8924 13.6288L14.3962 11.7363V5.69393L14.3926 5.58806C14.3383 4.85888 13.7291 4.28217 12.9844 4.28217Z" fill="#7F45FF"/>
</g>
<defs>
<clipPath id="clip0_115_1675">
<rect width="24" height="24" fill="white" transform="translate(0.984375 0.046875)"/>
</clipPath>
</defs>
</svg>
