<svg width="25" height="25" viewBox="0 0 25 25" fill="none" xmlns="http://www.w3.org/2000/svg">
<g clip-path="url(#clip0_115_1670)">
<path fill-rule="evenodd" clip-rule="evenodd" d="M0.265625 1.46052L7.36247 8.55737C7.12134 9.01862 6.98496 9.54331 6.98496 10.0999C6.98496 11.9412 8.47766 13.4339 10.319 13.4339C12.1603 13.4339 13.653 11.9412 13.653 10.0999C13.653 8.25853 12.1603 6.76583 10.319 6.76583C9.76254 6.76583 9.23794 6.90215 8.77674 7.14321L1.68041 0.046875L16.7374 3.68131L18.2522 11.2556L18.9481 10.5598C19.3386 10.1692 19.9718 10.1692 20.3623 10.5598L23.8633 14.0608C24.2538 14.4513 24.2538 15.0845 23.8633 15.475L15.6942 23.6441C15.3037 24.0346 14.6706 24.0346 14.28 23.6441L10.779 20.143C10.3885 19.7525 10.3885 19.1193 10.779 18.7288L11.4745 18.0333L3.90029 16.5184L0.265625 1.46052ZM9.37611 9.15679L9.3594 9.17313C9.12758 9.41312 8.98497 9.73983 8.98497 10.0999C8.98497 10.8366 9.58222 11.4339 10.319 11.4339C11.0557 11.4339 11.653 10.8366 11.653 10.0999C11.653 9.3631 11.0557 8.76583 10.319 8.76583C9.95901 8.76583 9.63235 8.90841 9.39237 9.14017L9.37611 9.15679ZM12.9003 19.4359L14.9871 21.5227L21.742 14.7679L19.6552 12.6811L12.9003 19.4359Z" fill="#7F45FF"/>
</g>
<defs>
<clipPath id="clip0_115_1670">
<rect width="24" height="24" fill="white" transform="translate(0.265625 0.046875)"/>
</clipPath>
</defs>
</svg>
