<svg width="40" height="38" viewBox="0 0 40 38" fill="none" xmlns="http://www.w3.org/2000/svg">
<path d="M27.5587 15.8505L35.2104 8.14455L33.6909 6.62507L27.5587 12.7572L24.4655 9.66403L22.946 11.2378L27.5587 15.8505ZM0.859375 37.0146V32.6732H26.9075V37.0146H0.859375ZM29.0782 21.8198C26.0754 21.8198 23.5162 20.7613 21.4005 18.6441C19.2834 16.5284 18.2248 13.9692 18.2248 10.9664C18.2248 7.96366 19.2834 5.40443 21.4005 3.28874C23.5162 1.1716 26.0754 0.113037 29.0782 0.113037C32.081 0.113037 34.6409 1.1716 36.7581 3.28874C38.8738 5.40443 39.9316 7.96366 39.9316 10.9664C39.9316 13.9692 38.8738 16.5284 36.7581 18.6441C34.6409 20.7613 32.081 21.8198 29.0782 21.8198ZM0.859375 19.6491V15.3078H14.5347C14.7879 16.1037 15.0773 16.8634 15.4029 17.587C15.7285 18.3106 16.1265 18.9979 16.5968 19.6491H0.859375ZM0.859375 28.3319V23.9905H21.2638C22.0959 24.497 22.9822 24.9217 23.9228 25.2647C24.8635 25.6091 25.8584 25.8537 26.9075 25.9984V28.3319H0.859375Z" fill="#FF7846"/>
</svg>
