<svg width="41" height="37" viewBox="0 0 41 37" fill="none" xmlns="http://www.w3.org/2000/svg">
<path d="M0.683594 29.5861V24.4788C0.683594 23.4451 0.949906 22.4948 1.48253 21.6278C2.01394 20.7619 2.72045 20.101 3.60208 19.645C5.48693 18.7026 7.40219 17.9955 9.34785 17.5236C11.2935 17.053 13.2696 16.8177 15.276 16.8177C16.6441 16.8177 17.9969 16.9241 19.3345 17.1369C20.6722 17.3497 22.0098 17.6842 23.3475 18.1402C22.8306 18.5658 22.3594 19.0291 21.9338 19.5301C21.5082 20.0323 21.1282 20.5722 20.7938 21.1499C19.8818 20.9066 18.9697 20.7315 18.0577 20.6245C17.1457 20.5187 16.2185 20.4658 15.276 20.4658C13.5736 20.4658 11.8863 20.6707 10.2143 21.0805C8.54222 21.4916 6.88538 22.1075 5.24373 22.9283C4.97012 23.0803 4.75002 23.2931 4.58342 23.5667C4.41561 23.8403 4.3317 24.1443 4.3317 24.4788V25.938H19.0609C19.0001 26.546 18.9697 27.154 18.9697 27.762C18.9697 28.3701 19.0001 28.9781 19.0609 29.5861H0.683594ZM15.276 14.9937C13.2696 14.9937 11.5519 14.2793 10.1231 12.8504C8.69423 11.4216 7.97981 9.70392 7.97981 7.69746C7.97981 5.691 8.69423 3.97335 10.1231 2.54451C11.5519 1.11567 13.2696 0.401245 15.276 0.401245C17.2825 0.401245 19.0001 1.11567 20.429 2.54451C21.8578 3.97335 22.5722 5.691 22.5722 7.69746C22.5722 9.70392 21.8578 11.4216 20.429 12.8504C19.0001 14.2793 17.2825 14.9937 15.276 14.9937ZM15.276 11.3456C16.2793 11.3456 17.1384 10.9881 17.8534 10.273C18.5672 9.55921 18.9241 8.70069 18.9241 7.69746C18.9241 6.69423 18.5672 5.8351 17.8534 5.12007C17.1384 4.40626 16.2793 4.04935 15.276 4.04935C14.2728 4.04935 13.4143 4.40626 12.7005 5.12007C11.9854 5.8351 11.6279 6.69423 11.6279 7.69746C11.6279 8.70069 11.9854 9.55921 12.7005 10.273C13.4143 10.9881 14.2728 11.3456 15.276 11.3456ZM33.5166 7.69746C33.5166 9.70392 32.8021 11.4216 31.3733 12.8504C29.9445 14.2793 28.2268 14.9937 26.2203 14.9937C25.8859 14.9937 25.4603 14.956 24.9435 14.8806C24.4267 14.804 24.0011 14.7201 23.6667 14.6289C24.4875 13.656 25.118 12.5768 25.5582 11.3912C25.9996 10.2055 26.2203 8.9743 26.2203 7.69746C26.2203 6.42062 25.9996 5.18939 25.5582 4.00375C25.118 2.81812 24.4875 1.73888 23.6667 0.766056C24.0923 0.614051 24.5179 0.514944 24.9435 0.468735C25.3691 0.423742 25.7947 0.401245 26.2203 0.401245C28.2268 0.401245 29.9445 1.11567 31.3733 2.54451C32.8021 3.97335 33.5166 5.691 33.5166 7.69746ZM31.6925 36.8823C29.1692 36.8823 27.0187 35.9934 25.2408 34.2155C23.4618 32.4365 22.5722 30.2853 22.5722 27.762C22.5722 25.2084 23.4618 23.0499 25.2408 21.2867C27.0187 19.5234 29.1692 18.6418 31.6925 18.6418C34.2462 18.6418 36.4046 19.5234 38.1679 21.2867C39.9311 23.0499 40.8128 25.2084 40.8128 27.762C40.8128 30.2853 39.9311 32.4365 38.1679 34.2155C36.4046 35.9934 34.2462 36.8823 31.6925 36.8823ZM30.4157 31.8662L36.8455 25.3908L35.5686 24.1139L30.4157 29.2669L27.8164 26.6676L26.5396 27.9901L30.4157 31.8662Z" fill="#FF7846"/>
</svg>
