<svg width="38" height="39" viewBox="0 0 38 39" fill="none" xmlns="http://www.w3.org/2000/svg">
<path d="M4.36945 38.0145C3.22156 38.0145 2.23855 37.6062 1.42042 36.7894C0.603682 35.9713 0.195312 34.9883 0.195312 33.8404V4.62141C0.195312 3.47352 0.603682 2.49051 1.42042 1.67238C2.23855 0.855635 3.22156 0.447266 4.36945 0.447266H33.5884C34.7363 0.447266 35.7193 0.855635 36.5375 1.67238C37.3542 2.49051 37.7626 3.47352 37.7626 4.62141V33.8404C37.7626 34.9883 37.3542 35.9713 36.5375 36.7894C35.7193 37.6062 34.7363 38.0145 33.5884 38.0145H4.36945ZM29.9882 33.8404H33.5884V30.2402L29.9882 33.8404ZM6.14346 33.8404H9.95236L16.2136 27.5792H20.6486L14.3874 33.8404H17.7267L23.9879 27.5792H28.4229L22.1617 33.8404H25.5532L31.8144 27.5792H33.5884V4.62141H4.36945V31.1794L7.96965 27.5792H12.4047L6.14346 33.8404ZM9.90019 23.405L6.97829 20.4831L16.2136 11.2479L20.3877 15.422L28.0577 7.75201L30.9796 10.6739L20.3877 21.318L16.2136 17.1438L9.90019 23.405Z" fill="#FF7846"/>
</svg>
