<svg width="25" height="25" viewBox="0 0 25 25" fill="none" xmlns="http://www.w3.org/2000/svg">
<path fill-rule="evenodd" clip-rule="evenodd" d="M19.4287 11.5947C19.4287 15.7368 16.0708 19.0947 11.9287 19.0947C7.78658 19.0947 4.42871 15.7368 4.42871 11.5947C4.42871 7.45256 7.78658 4.0947 11.9287 4.0947C16.0708 4.0947 19.4287 7.45256 19.4287 11.5947ZM16.0671 10.3656C16.4238 9.94403 16.3713 9.31305 15.9497 8.95631C15.528 8.59957 14.8971 8.65215 14.5403 9.07375L11.1173 13.1191L9.63582 11.6376C9.24529 11.2471 8.61213 11.2471 8.2216 11.6376C7.83108 12.0281 7.83108 12.6613 8.2216 13.0518L10.4716 15.3018C10.6693 15.4995 10.9409 15.6055 11.2203 15.5938C11.4997 15.5822 11.7615 15.4541 11.9421 15.2406L16.0671 10.3656Z" fill="#5FD754"/>
</svg>
