<svg width="302" height="181" viewBox="0 0 302 181" fill="none" xmlns="http://www.w3.org/2000/svg">
<g filter="url(#filter0_d_403_55)">
<g clip-path="url(#clip0_403_55)">
<rect x="46" y="43" width="210" height="89" rx="20" fill="white"/>
<path d="M64.7168 70.8281C64.9316 71.043 65.2969 71.043 65.5117 70.8281L71.8281 64.5117C72.043 64.2969 72.043 63.9316 71.8281 63.7168L71.0547 62.9434C70.8398 62.7285 70.4961 62.7285 70.2812 62.9434L65.125 68.0996L62.6973 65.6934C62.4824 65.4785 62.1387 65.4785 61.9238 65.6934L61.1504 66.4668C60.9355 66.6816 60.9355 67.0469 61.1504 67.2617L64.7168 70.8281Z" fill="#3ADA91"/>
<path d="M91.9062 68.2227H93.3711C93.3242 68.7812 93.168 69.2793 92.9023 69.7168C92.6367 70.1504 92.2637 70.4922 91.7832 70.7422C91.3027 70.9922 90.7188 71.1172 90.0312 71.1172C89.5039 71.1172 89.0293 71.0234 88.6074 70.8359C88.1855 70.6445 87.8242 70.375 87.5234 70.0273C87.2227 69.6758 86.9922 69.252 86.832 68.7559C86.6758 68.2598 86.5977 67.7051 86.5977 67.0918V66.3828C86.5977 65.7695 86.6777 65.2148 86.8379 64.7188C87.002 64.2227 87.2363 63.7988 87.541 63.4473C87.8457 63.0918 88.2109 62.8203 88.6367 62.6328C89.0664 62.4453 89.5488 62.3516 90.084 62.3516C90.7637 62.3516 91.3379 62.4766 91.8066 62.7266C92.2754 62.9766 92.6387 63.3223 92.8965 63.7637C93.1582 64.2051 93.3184 64.7109 93.377 65.2812H91.9121C91.873 64.9141 91.7871 64.5996 91.6543 64.3379C91.5254 64.0762 91.334 63.877 91.0801 63.7402C90.8262 63.5996 90.4941 63.5293 90.084 63.5293C89.748 63.5293 89.4551 63.5918 89.2051 63.7168C88.9551 63.8418 88.7461 64.0254 88.5781 64.2676C88.4102 64.5098 88.2832 64.8086 88.1973 65.1641C88.1152 65.5156 88.0742 65.918 88.0742 66.3711V67.0918C88.0742 67.5215 88.1113 67.9121 88.1855 68.2637C88.2637 68.6113 88.3809 68.9102 88.5371 69.1602C88.6973 69.4102 88.9004 69.6035 89.1465 69.7402C89.3926 69.877 89.6875 69.9453 90.0312 69.9453C90.4492 69.9453 90.7871 69.8789 91.0449 69.7461C91.3066 69.6133 91.5039 69.4199 91.6367 69.166C91.7734 68.9082 91.8633 68.5938 91.9062 68.2227ZM94.2969 67.9004V67.7656C94.2969 67.3086 94.3633 66.8848 94.4961 66.4941C94.6289 66.0996 94.8203 65.7578 95.0703 65.4688C95.3242 65.1758 95.6328 64.9492 95.9961 64.7891C96.3633 64.625 96.7773 64.543 97.2383 64.543C97.7031 64.543 98.1172 64.625 98.4805 64.7891C98.8477 64.9492 99.1582 65.1758 99.4121 65.4688C99.666 65.7578 99.8594 66.0996 99.9922 66.4941C100.125 66.8848 100.191 67.3086 100.191 67.7656V67.9004C100.191 68.3574 100.125 68.7812 99.9922 69.1719C99.8594 69.5625 99.666 69.9043 99.4121 70.1973C99.1582 70.4863 98.8496 70.7129 98.4863 70.877C98.123 71.0371 97.7109 71.1172 97.25 71.1172C96.7852 71.1172 96.3691 71.0371 96.002 70.877C95.6387 70.7129 95.3301 70.4863 95.0762 70.1973C94.8223 69.9043 94.6289 69.5625 94.4961 69.1719C94.3633 68.7812 94.2969 68.3574 94.2969 67.9004ZM95.709 67.7656V67.9004C95.709 68.1855 95.7383 68.4551 95.7969 68.709C95.8555 68.9629 95.9473 69.1855 96.0723 69.377C96.1973 69.5684 96.3574 69.7188 96.5527 69.8281C96.748 69.9375 96.9805 69.9922 97.25 69.9922C97.5117 69.9922 97.7383 69.9375 97.9297 69.8281C98.125 69.7188 98.2852 69.5684 98.4102 69.377C98.5352 69.1855 98.627 68.9629 98.6855 68.709C98.748 68.4551 98.7793 68.1855 98.7793 67.9004V67.7656C98.7793 67.4844 98.748 67.2188 98.6855 66.9688C98.627 66.7148 98.5332 66.4902 98.4043 66.2949C98.2793 66.0996 98.1191 65.9473 97.9238 65.8379C97.7324 65.7246 97.5039 65.668 97.2383 65.668C96.9727 65.668 96.7422 65.7246 96.5469 65.8379C96.3555 65.9473 96.1973 66.0996 96.0723 66.2949C95.9473 66.4902 95.8555 66.7148 95.7969 66.9688C95.7383 67.2188 95.709 67.4844 95.709 67.7656ZM102.775 66.0137V71H101.363V64.6602H102.693L102.775 66.0137ZM102.523 67.5957L102.066 67.5898C102.07 67.1406 102.133 66.7285 102.254 66.3535C102.379 65.9785 102.551 65.6562 102.77 65.3867C102.992 65.1172 103.258 64.9102 103.566 64.7656C103.875 64.6172 104.219 64.543 104.598 64.543C104.902 64.543 105.178 64.5859 105.424 64.6719C105.674 64.7539 105.887 64.8887 106.062 65.0762C106.242 65.2637 106.379 65.5078 106.473 65.8086C106.566 66.1055 106.613 66.4707 106.613 66.9043V71H105.195V66.8984C105.195 66.5938 105.15 66.3535 105.061 66.1777C104.975 65.998 104.848 65.8711 104.68 65.7969C104.516 65.7188 104.311 65.6797 104.064 65.6797C103.822 65.6797 103.605 65.7305 103.414 65.832C103.223 65.9336 103.061 66.0723 102.928 66.248C102.799 66.4238 102.699 66.627 102.629 66.8574C102.559 67.0879 102.523 67.334 102.523 67.5957ZM110.961 64.6602V65.6914H107.387V64.6602H110.961ZM108.418 63.1074H109.83V69.248C109.83 69.4434 109.857 69.5938 109.912 69.6992C109.971 69.8008 110.051 69.8691 110.152 69.9043C110.254 69.9395 110.373 69.957 110.51 69.957C110.607 69.957 110.701 69.9512 110.791 69.9395C110.881 69.9277 110.953 69.916 111.008 69.9043L111.014 70.9824C110.896 71.0176 110.76 71.0488 110.604 71.0762C110.451 71.1035 110.275 71.1172 110.076 71.1172C109.752 71.1172 109.465 71.0605 109.215 70.9473C108.965 70.8301 108.77 70.6406 108.629 70.3789C108.488 70.1172 108.418 69.7695 108.418 69.3359V63.1074ZM114.846 71.1172C114.377 71.1172 113.953 71.041 113.574 70.8887C113.199 70.7324 112.879 70.5156 112.613 70.2383C112.352 69.9609 112.15 69.6348 112.01 69.2598C111.869 68.8848 111.799 68.4805 111.799 68.0469V67.8125C111.799 67.3164 111.871 66.8672 112.016 66.4648C112.16 66.0625 112.361 65.7188 112.619 65.4336C112.877 65.1445 113.182 64.9238 113.533 64.7715C113.885 64.6191 114.266 64.543 114.676 64.543C115.129 64.543 115.525 64.6191 115.865 64.7715C116.205 64.9238 116.486 65.1387 116.709 65.416C116.936 65.6895 117.104 66.0156 117.213 66.3945C117.326 66.7734 117.383 67.1914 117.383 67.6484V68.252H112.484V67.2383H115.988V67.127C115.98 66.873 115.93 66.6348 115.836 66.4121C115.746 66.1895 115.607 66.0098 115.42 65.873C115.232 65.7363 114.982 65.668 114.67 65.668C114.436 65.668 114.227 65.7188 114.043 65.8203C113.863 65.918 113.713 66.0605 113.592 66.248C113.471 66.4355 113.377 66.6621 113.311 66.9277C113.248 67.1895 113.217 67.4844 113.217 67.8125V68.0469C113.217 68.3242 113.254 68.582 113.328 68.8203C113.406 69.0547 113.52 69.2598 113.668 69.4355C113.816 69.6113 113.996 69.75 114.207 69.8516C114.418 69.9492 114.658 69.998 114.928 69.998C115.268 69.998 115.57 69.9297 115.836 69.793C116.102 69.6562 116.332 69.4629 116.527 69.2129L117.271 69.9336C117.135 70.1328 116.957 70.3242 116.738 70.5078C116.52 70.6875 116.252 70.834 115.936 70.9473C115.623 71.0605 115.26 71.1172 114.846 71.1172ZM119.885 66.0137V71H118.473V64.6602H119.803L119.885 66.0137ZM119.633 67.5957L119.176 67.5898C119.18 67.1406 119.242 66.7285 119.363 66.3535C119.488 65.9785 119.66 65.6562 119.879 65.3867C120.102 65.1172 120.367 64.9102 120.676 64.7656C120.984 64.6172 121.328 64.543 121.707 64.543C122.012 64.543 122.287 64.5859 122.533 64.6719C122.783 64.7539 122.996 64.8887 123.172 65.0762C123.352 65.2637 123.488 65.5078 123.582 65.8086C123.676 66.1055 123.723 66.4707 123.723 66.9043V71H122.305V66.8984C122.305 66.5938 122.26 66.3535 122.17 66.1777C122.084 65.998 121.957 65.8711 121.789 65.7969C121.625 65.7188 121.42 65.6797 121.174 65.6797C120.932 65.6797 120.715 65.7305 120.523 65.832C120.332 65.9336 120.17 66.0723 120.037 66.248C119.908 66.4238 119.809 66.627 119.738 66.8574C119.668 67.0879 119.633 67.334 119.633 67.5957ZM128.07 64.6602V65.6914H124.496V64.6602H128.07ZM125.527 63.1074H126.939V69.248C126.939 69.4434 126.967 69.5938 127.021 69.6992C127.08 69.8008 127.16 69.8691 127.262 69.9043C127.363 69.9395 127.482 69.957 127.619 69.957C127.717 69.957 127.811 69.9512 127.9 69.9395C127.99 69.9277 128.062 69.916 128.117 69.9043L128.123 70.9824C128.006 71.0176 127.869 71.0488 127.713 71.0762C127.561 71.1035 127.385 71.1172 127.186 71.1172C126.861 71.1172 126.574 71.0605 126.324 70.9473C126.074 70.8301 125.879 70.6406 125.738 70.3789C125.598 70.1172 125.527 69.7695 125.527 69.3359V63.1074ZM135.922 62.4395V71H134.51V64.1152L132.418 64.8242V63.6582L135.752 62.4395H135.922ZM144.447 66.0195V67.4141C144.447 68.082 144.381 68.6523 144.248 69.125C144.119 69.5938 143.932 69.9746 143.686 70.2676C143.439 70.5605 143.145 70.7754 142.801 70.9121C142.461 71.0488 142.08 71.1172 141.658 71.1172C141.322 71.1172 141.01 71.0742 140.721 70.9883C140.436 70.9023 140.178 70.7676 139.947 70.584C139.717 70.4004 139.52 70.1641 139.355 69.875C139.195 69.582 139.07 69.2324 138.98 68.8262C138.895 68.4199 138.852 67.9492 138.852 67.4141V66.0195C138.852 65.3477 138.918 64.7812 139.051 64.3203C139.184 63.8555 139.373 63.4785 139.619 63.1895C139.865 62.8965 140.158 62.6836 140.498 62.5508C140.842 62.418 141.225 62.3516 141.646 62.3516C141.986 62.3516 142.299 62.3945 142.584 62.4805C142.873 62.5625 143.131 62.6934 143.357 62.873C143.588 63.0527 143.783 63.2871 143.943 63.5762C144.107 63.8613 144.232 64.207 144.318 64.6133C144.404 65.0156 144.447 65.4844 144.447 66.0195ZM143.035 67.6133V65.8086C143.035 65.4688 143.016 65.1699 142.977 64.9121C142.938 64.6504 142.879 64.4297 142.801 64.25C142.727 64.0664 142.633 63.918 142.52 63.8047C142.406 63.6875 142.277 63.6035 142.133 63.5527C141.988 63.498 141.826 63.4707 141.646 63.4707C141.428 63.4707 141.232 63.5137 141.061 63.5996C140.889 63.6816 140.744 63.8145 140.627 63.998C140.51 64.1816 140.42 64.4238 140.357 64.7246C140.299 65.0215 140.27 65.3828 140.27 65.8086V67.6133C140.27 67.957 140.289 68.2598 140.328 68.5215C140.367 68.7832 140.426 69.0078 140.504 69.1953C140.582 69.3789 140.676 69.5312 140.785 69.6523C140.898 69.7695 141.027 69.8555 141.172 69.9102C141.32 69.9648 141.482 69.9922 141.658 69.9922C141.881 69.9922 142.078 69.9492 142.25 69.8633C142.422 69.7773 142.566 69.6406 142.684 69.4531C142.801 69.2617 142.889 69.0137 142.947 68.709C143.006 68.4043 143.035 68.0391 143.035 67.6133ZM147.049 62.4688L148.859 65.5801L150.67 62.4688H152.363L149.785 66.6934L152.428 71H150.717L148.859 67.8301L147.002 71H145.285L147.934 66.6934L145.35 62.4688H147.049ZM158.27 71H156.857V64.0508C156.857 63.5781 156.945 63.1816 157.121 62.8613C157.301 62.5371 157.557 62.293 157.889 62.1289C158.221 61.9609 158.613 61.877 159.066 61.877C159.207 61.877 159.346 61.8867 159.482 61.9062C159.619 61.9219 159.752 61.9473 159.881 61.9824L159.846 63.0723C159.768 63.0527 159.682 63.0391 159.588 63.0312C159.498 63.0234 159.4 63.0195 159.295 63.0195C159.08 63.0195 158.895 63.0605 158.738 63.1426C158.586 63.2207 158.469 63.3359 158.387 63.4883C158.309 63.6406 158.27 63.8281 158.27 64.0508V71ZM159.576 64.6602V65.6914H155.885V64.6602H159.576ZM164.176 69.7285V66.7051C164.176 66.4785 164.135 66.2832 164.053 66.1191C163.971 65.9551 163.846 65.8281 163.678 65.7383C163.514 65.6484 163.307 65.6035 163.057 65.6035C162.826 65.6035 162.627 65.6426 162.459 65.7207C162.291 65.7988 162.16 65.9043 162.066 66.0371C161.973 66.1699 161.926 66.3203 161.926 66.4883H160.52C160.52 66.2383 160.58 65.9961 160.701 65.7617C160.822 65.5273 160.998 65.3184 161.229 65.1348C161.459 64.9512 161.734 64.8066 162.055 64.7012C162.375 64.5957 162.734 64.543 163.133 64.543C163.609 64.543 164.031 64.623 164.398 64.7832C164.77 64.9434 165.061 65.1855 165.271 65.5098C165.486 65.8301 165.594 66.2324 165.594 66.7168V69.5352C165.594 69.8242 165.613 70.084 165.652 70.3145C165.695 70.541 165.756 70.7383 165.834 70.9062V71H164.387C164.32 70.8477 164.268 70.6543 164.229 70.4199C164.193 70.1816 164.176 69.9512 164.176 69.7285ZM164.381 67.1445L164.393 68.0176H163.379C163.117 68.0176 162.887 68.043 162.688 68.0938C162.488 68.1406 162.322 68.2109 162.189 68.3047C162.057 68.3984 161.957 68.5117 161.891 68.6445C161.824 68.7773 161.791 68.9277 161.791 69.0957C161.791 69.2637 161.83 69.418 161.908 69.5586C161.986 69.6953 162.1 69.8027 162.248 69.8809C162.4 69.959 162.584 69.998 162.799 69.998C163.088 69.998 163.34 69.9395 163.555 69.8223C163.773 69.7012 163.945 69.5547 164.07 69.3828C164.195 69.207 164.262 69.041 164.27 68.8848L164.727 69.5117C164.68 69.6719 164.6 69.8438 164.486 70.0273C164.373 70.2109 164.225 70.3867 164.041 70.5547C163.861 70.7188 163.645 70.8535 163.391 70.959C163.141 71.0645 162.852 71.1172 162.523 71.1172C162.109 71.1172 161.74 71.0352 161.416 70.8711C161.092 70.7031 160.838 70.4785 160.654 70.1973C160.471 69.9121 160.379 69.5898 160.379 69.2305C160.379 68.8945 160.441 68.5977 160.566 68.3398C160.695 68.0781 160.883 67.8594 161.129 67.6836C161.379 67.5078 161.684 67.375 162.043 67.2852C162.402 67.1914 162.812 67.1445 163.273 67.1445H164.381ZM170.627 69.2832C170.627 69.1426 170.592 69.0156 170.521 68.9023C170.451 68.7852 170.316 68.6797 170.117 68.5859C169.922 68.4922 169.633 68.4062 169.25 68.3281C168.914 68.2539 168.605 68.166 168.324 68.0645C168.047 67.959 167.809 67.832 167.609 67.6836C167.41 67.5352 167.256 67.3594 167.146 67.1562C167.037 66.9531 166.982 66.7188 166.982 66.4531C166.982 66.1953 167.039 65.9512 167.152 65.7207C167.266 65.4902 167.428 65.2871 167.639 65.1113C167.85 64.9355 168.105 64.7969 168.406 64.6953C168.711 64.5938 169.051 64.543 169.426 64.543C169.957 64.543 170.412 64.6328 170.791 64.8125C171.174 64.9883 171.467 65.2285 171.67 65.5332C171.873 65.834 171.975 66.1738 171.975 66.5527H170.562C170.562 66.3848 170.52 66.2285 170.434 66.084C170.352 65.9355 170.227 65.8164 170.059 65.7266C169.891 65.6328 169.68 65.5859 169.426 65.5859C169.184 65.5859 168.982 65.625 168.822 65.7031C168.666 65.7773 168.549 65.875 168.471 65.9961C168.396 66.1172 168.359 66.25 168.359 66.3945C168.359 66.5 168.379 66.5957 168.418 66.6816C168.461 66.7637 168.531 66.8398 168.629 66.9102C168.727 66.9766 168.859 67.0391 169.027 67.0977C169.199 67.1562 169.414 67.2129 169.672 67.2676C170.156 67.3691 170.572 67.5 170.92 67.6602C171.271 67.8164 171.541 68.0195 171.729 68.2695C171.916 68.5156 172.01 68.8281 172.01 69.207C172.01 69.4883 171.949 69.7461 171.828 69.9805C171.711 70.2109 171.539 70.4121 171.312 70.584C171.086 70.752 170.814 70.8828 170.498 70.9766C170.186 71.0703 169.834 71.1172 169.443 71.1172C168.869 71.1172 168.383 71.0156 167.984 70.8125C167.586 70.6055 167.283 70.3418 167.076 70.0215C166.873 69.6973 166.771 69.3613 166.771 69.0137H168.137C168.152 69.2754 168.225 69.4844 168.354 69.6406C168.486 69.793 168.65 69.9043 168.846 69.9746C169.045 70.041 169.25 70.0742 169.461 70.0742C169.715 70.0742 169.928 70.041 170.1 69.9746C170.271 69.9043 170.402 69.8105 170.492 69.6934C170.582 69.5723 170.627 69.4355 170.627 69.2832ZM176.152 64.6602V65.6914H172.578V64.6602H176.152ZM173.609 63.1074H175.021V69.248C175.021 69.4434 175.049 69.5938 175.104 69.6992C175.162 69.8008 175.242 69.8691 175.344 69.9043C175.445 69.9395 175.564 69.957 175.701 69.957C175.799 69.957 175.893 69.9512 175.982 69.9395C176.072 69.9277 176.145 69.916 176.199 69.9043L176.205 70.9824C176.088 71.0176 175.951 71.0488 175.795 71.0762C175.643 71.1035 175.467 71.1172 175.268 71.1172C174.943 71.1172 174.656 71.0605 174.406 70.9473C174.156 70.8301 173.961 70.6406 173.82 70.3789C173.68 70.1172 173.609 69.7695 173.609 69.3359V63.1074ZM180.037 71.1172C179.568 71.1172 179.145 71.041 178.766 70.8887C178.391 70.7324 178.07 70.5156 177.805 70.2383C177.543 69.9609 177.342 69.6348 177.201 69.2598C177.061 68.8848 176.99 68.4805 176.99 68.0469V67.8125C176.99 67.3164 177.062 66.8672 177.207 66.4648C177.352 66.0625 177.553 65.7188 177.811 65.4336C178.068 65.1445 178.373 64.9238 178.725 64.7715C179.076 64.6191 179.457 64.543 179.867 64.543C180.32 64.543 180.717 64.6191 181.057 64.7715C181.396 64.9238 181.678 65.1387 181.9 65.416C182.127 65.6895 182.295 66.0156 182.404 66.3945C182.518 66.7734 182.574 67.1914 182.574 67.6484V68.252H177.676V67.2383H181.18V67.127C181.172 66.873 181.121 66.6348 181.027 66.4121C180.938 66.1895 180.799 66.0098 180.611 65.873C180.424 65.7363 180.174 65.668 179.861 65.668C179.627 65.668 179.418 65.7188 179.234 65.8203C179.055 65.918 178.904 66.0605 178.783 66.248C178.662 66.4355 178.568 66.6621 178.502 66.9277C178.439 67.1895 178.408 67.4844 178.408 67.8125V68.0469C178.408 68.3242 178.445 68.582 178.52 68.8203C178.598 69.0547 178.711 69.2598 178.859 69.4355C179.008 69.6113 179.188 69.75 179.398 69.8516C179.609 69.9492 179.85 69.998 180.119 69.998C180.459 69.998 180.762 69.9297 181.027 69.793C181.293 69.6562 181.523 69.4629 181.719 69.2129L182.463 69.9336C182.326 70.1328 182.148 70.3242 181.93 70.5078C181.711 70.6875 181.443 70.834 181.127 70.9473C180.814 71.0605 180.451 71.1172 180.037 71.1172ZM185.094 65.8672V71H183.682V64.6602H185.029L185.094 65.8672ZM187.033 64.6191L187.021 65.9316C186.936 65.916 186.842 65.9043 186.74 65.8965C186.643 65.8887 186.545 65.8848 186.447 65.8848C186.205 65.8848 185.992 65.9199 185.809 65.9902C185.625 66.0566 185.471 66.1543 185.346 66.2832C185.225 66.4082 185.131 66.5605 185.064 66.7402C184.998 66.9199 184.959 67.1211 184.947 67.3438L184.625 67.3672C184.625 66.9688 184.664 66.5996 184.742 66.2598C184.82 65.9199 184.938 65.6211 185.094 65.3633C185.254 65.1055 185.453 64.9043 185.691 64.7598C185.934 64.6152 186.213 64.543 186.529 64.543C186.615 64.543 186.707 64.5508 186.805 64.5664C186.906 64.582 186.982 64.5996 187.033 64.6191Z" fill="#8B8A99"/>
<path d="M64.7168 93.8281C64.9316 94.043 65.2969 94.043 65.5117 93.8281L71.8281 87.5117C72.043 87.2969 72.043 86.9316 71.8281 86.7168L71.0547 85.9434C70.8398 85.7285 70.4961 85.7285 70.2812 85.9434L65.125 91.0996L62.6973 88.6934C62.4824 88.4785 62.1387 88.4785 61.9238 88.6934L61.1504 89.4668C60.9355 89.6816 60.9355 90.0469 61.1504 90.2617L64.7168 93.8281Z" fill="#3ADA91"/>
<path d="M90.1895 86.6055L87.6406 94H86.0996L89.3105 85.4688H90.2949L90.1895 86.6055ZM92.3223 94L89.7676 86.6055L89.6562 85.4688H90.6465L93.8691 94H92.3223ZM92.1992 90.8359V92.002H87.5586V90.8359H92.1992ZM96.3945 85.4688V94H94.9238V85.4688H96.3945ZM102.471 89.0137V94H101.059V87.6602H102.389L102.471 89.0137ZM102.219 90.5957L101.762 90.5898C101.766 90.1406 101.828 89.7285 101.949 89.3535C102.074 88.9785 102.246 88.6562 102.465 88.3867C102.688 88.1172 102.953 87.9102 103.262 87.7656C103.57 87.6172 103.914 87.543 104.293 87.543C104.598 87.543 104.873 87.5859 105.119 87.6719C105.369 87.7539 105.582 87.8887 105.758 88.0762C105.938 88.2637 106.074 88.5078 106.168 88.8086C106.262 89.1055 106.309 89.4707 106.309 89.9043V94H104.891V89.8984C104.891 89.5938 104.846 89.3535 104.756 89.1777C104.67 88.998 104.543 88.8711 104.375 88.7969C104.211 88.7188 104.006 88.6797 103.76 88.6797C103.518 88.6797 103.301 88.7305 103.109 88.832C102.918 88.9336 102.756 89.0723 102.623 89.248C102.494 89.4238 102.395 89.627 102.324 89.8574C102.254 90.0879 102.219 90.334 102.219 90.5957ZM111.324 92.7285V89.7051C111.324 89.4785 111.283 89.2832 111.201 89.1191C111.119 88.9551 110.994 88.8281 110.826 88.7383C110.662 88.6484 110.455 88.6035 110.205 88.6035C109.975 88.6035 109.775 88.6426 109.607 88.7207C109.439 88.7988 109.309 88.9043 109.215 89.0371C109.121 89.1699 109.074 89.3203 109.074 89.4883H107.668C107.668 89.2383 107.729 88.9961 107.85 88.7617C107.971 88.5273 108.146 88.3184 108.377 88.1348C108.607 87.9512 108.883 87.8066 109.203 87.7012C109.523 87.5957 109.883 87.543 110.281 87.543C110.758 87.543 111.18 87.623 111.547 87.7832C111.918 87.9434 112.209 88.1855 112.42 88.5098C112.635 88.8301 112.742 89.2324 112.742 89.7168V92.5352C112.742 92.8242 112.762 93.084 112.801 93.3145C112.844 93.541 112.904 93.7383 112.982 93.9062V94H111.535C111.469 93.8477 111.416 93.6543 111.377 93.4199C111.342 93.1816 111.324 92.9512 111.324 92.7285ZM111.529 90.1445L111.541 91.0176H110.527C110.266 91.0176 110.035 91.043 109.836 91.0938C109.637 91.1406 109.471 91.2109 109.338 91.3047C109.205 91.3984 109.105 91.5117 109.039 91.6445C108.973 91.7773 108.939 91.9277 108.939 92.0957C108.939 92.2637 108.979 92.418 109.057 92.5586C109.135 92.6953 109.248 92.8027 109.396 92.8809C109.549 92.959 109.732 92.998 109.947 92.998C110.236 92.998 110.488 92.9395 110.703 92.8223C110.922 92.7012 111.094 92.5547 111.219 92.3828C111.344 92.207 111.41 92.041 111.418 91.8848L111.875 92.5117C111.828 92.6719 111.748 92.8438 111.635 93.0273C111.521 93.2109 111.373 93.3867 111.189 93.5547C111.01 93.7188 110.793 93.8535 110.539 93.959C110.289 94.0645 110 94.1172 109.672 94.1172C109.258 94.1172 108.889 94.0352 108.564 93.8711C108.24 93.7031 107.986 93.4785 107.803 93.1973C107.619 92.9121 107.527 92.5898 107.527 92.2305C107.527 91.8945 107.59 91.5977 107.715 91.3398C107.844 91.0781 108.031 90.8594 108.277 90.6836C108.527 90.5078 108.832 90.375 109.191 90.2852C109.551 90.1914 109.961 90.1445 110.422 90.1445H111.529ZM117.125 87.6602V88.6914H113.551V87.6602H117.125ZM114.582 86.1074H115.994V92.248C115.994 92.4434 116.021 92.5938 116.076 92.6992C116.135 92.8008 116.215 92.8691 116.316 92.9043C116.418 92.9395 116.537 92.957 116.674 92.957C116.771 92.957 116.865 92.9512 116.955 92.9395C117.045 92.9277 117.117 92.916 117.172 92.9043L117.178 93.9824C117.061 94.0176 116.924 94.0488 116.768 94.0762C116.615 94.1035 116.439 94.1172 116.24 94.1172C115.916 94.1172 115.629 94.0605 115.379 93.9473C115.129 93.8301 114.934 93.6406 114.793 93.3789C114.652 93.1172 114.582 92.7695 114.582 92.3359V86.1074ZM122.029 92.5059V87.6602H123.447V94H122.111L122.029 92.5059ZM122.229 91.1875L122.703 91.1758C122.703 91.6016 122.656 91.9941 122.562 92.3535C122.469 92.709 122.324 93.0195 122.129 93.2852C121.934 93.5469 121.684 93.752 121.379 93.9004C121.074 94.0449 120.709 94.1172 120.283 94.1172C119.975 94.1172 119.691 94.0723 119.434 93.9824C119.176 93.8926 118.953 93.7539 118.766 93.5664C118.582 93.3789 118.439 93.1348 118.338 92.834C118.236 92.5332 118.186 92.1738 118.186 91.7559V87.6602H119.598V91.7676C119.598 91.998 119.625 92.1914 119.68 92.3477C119.734 92.5 119.809 92.623 119.902 92.7168C119.996 92.8105 120.105 92.877 120.23 92.916C120.355 92.9551 120.488 92.9746 120.629 92.9746C121.031 92.9746 121.348 92.8965 121.578 92.7402C121.812 92.5801 121.979 92.3652 122.076 92.0957C122.178 91.8262 122.229 91.5234 122.229 91.1875ZM126.312 88.8672V94H124.9V87.6602H126.248L126.312 88.8672ZM128.252 87.6191L128.24 88.9316C128.154 88.916 128.061 88.9043 127.959 88.8965C127.861 88.8887 127.764 88.8848 127.666 88.8848C127.424 88.8848 127.211 88.9199 127.027 88.9902C126.844 89.0566 126.689 89.1543 126.564 89.2832C126.443 89.4082 126.35 89.5605 126.283 89.7402C126.217 89.9199 126.178 90.1211 126.166 90.3438L125.844 90.3672C125.844 89.9688 125.883 89.5996 125.961 89.2598C126.039 88.9199 126.156 88.6211 126.312 88.3633C126.473 88.1055 126.672 87.9043 126.91 87.7598C127.152 87.6152 127.432 87.543 127.748 87.543C127.834 87.543 127.926 87.5508 128.023 87.5664C128.125 87.582 128.201 87.5996 128.252 87.6191ZM132.5 92.7285V89.7051C132.5 89.4785 132.459 89.2832 132.377 89.1191C132.295 88.9551 132.17 88.8281 132.002 88.7383C131.838 88.6484 131.631 88.6035 131.381 88.6035C131.15 88.6035 130.951 88.6426 130.783 88.7207C130.615 88.7988 130.484 88.9043 130.391 89.0371C130.297 89.1699 130.25 89.3203 130.25 89.4883H128.844C128.844 89.2383 128.904 88.9961 129.025 88.7617C129.146 88.5273 129.322 88.3184 129.553 88.1348C129.783 87.9512 130.059 87.8066 130.379 87.7012C130.699 87.5957 131.059 87.543 131.457 87.543C131.934 87.543 132.355 87.623 132.723 87.7832C133.094 87.9434 133.385 88.1855 133.596 88.5098C133.811 88.8301 133.918 89.2324 133.918 89.7168V92.5352C133.918 92.8242 133.938 93.084 133.977 93.3145C134.02 93.541 134.08 93.7383 134.158 93.9062V94H132.711C132.645 93.8477 132.592 93.6543 132.553 93.4199C132.518 93.1816 132.5 92.9512 132.5 92.7285ZM132.705 90.1445L132.717 91.0176H131.703C131.441 91.0176 131.211 91.043 131.012 91.0938C130.812 91.1406 130.646 91.2109 130.514 91.3047C130.381 91.3984 130.281 91.5117 130.215 91.6445C130.148 91.7773 130.115 91.9277 130.115 92.0957C130.115 92.2637 130.154 92.418 130.232 92.5586C130.311 92.6953 130.424 92.8027 130.572 92.8809C130.725 92.959 130.908 92.998 131.123 92.998C131.412 92.998 131.664 92.9395 131.879 92.8223C132.098 92.7012 132.27 92.5547 132.395 92.3828C132.52 92.207 132.586 92.041 132.594 91.8848L133.051 92.5117C133.004 92.6719 132.924 92.8438 132.811 93.0273C132.697 93.2109 132.549 93.3867 132.365 93.5547C132.186 93.7188 131.969 93.8535 131.715 93.959C131.465 94.0645 131.176 94.1172 130.848 94.1172C130.434 94.1172 130.064 94.0352 129.74 93.8711C129.416 93.7031 129.162 93.4785 128.979 93.1973C128.795 92.9121 128.703 92.5898 128.703 92.2305C128.703 91.8945 128.766 91.5977 128.891 91.3398C129.02 91.0781 129.207 90.8594 129.453 90.6836C129.703 90.5078 130.008 90.375 130.367 90.2852C130.727 90.1914 131.137 90.1445 131.598 90.1445H132.705ZM136.906 85V94H135.488V85H136.906ZM142.953 85V94H141.535V85H142.953ZM148.074 92.7285V89.7051C148.074 89.4785 148.033 89.2832 147.951 89.1191C147.869 88.9551 147.744 88.8281 147.576 88.7383C147.412 88.6484 147.205 88.6035 146.955 88.6035C146.725 88.6035 146.525 88.6426 146.357 88.7207C146.189 88.7988 146.059 88.9043 145.965 89.0371C145.871 89.1699 145.824 89.3203 145.824 89.4883H144.418C144.418 89.2383 144.479 88.9961 144.6 88.7617C144.721 88.5273 144.896 88.3184 145.127 88.1348C145.357 87.9512 145.633 87.8066 145.953 87.7012C146.273 87.5957 146.633 87.543 147.031 87.543C147.508 87.543 147.93 87.623 148.297 87.7832C148.668 87.9434 148.959 88.1855 149.17 88.5098C149.385 88.8301 149.492 89.2324 149.492 89.7168V92.5352C149.492 92.8242 149.512 93.084 149.551 93.3145C149.594 93.541 149.654 93.7383 149.732 93.9062V94H148.285C148.219 93.8477 148.166 93.6543 148.127 93.4199C148.092 93.1816 148.074 92.9512 148.074 92.7285ZM148.279 90.1445L148.291 91.0176H147.277C147.016 91.0176 146.785 91.043 146.586 91.0938C146.387 91.1406 146.221 91.2109 146.088 91.3047C145.955 91.3984 145.855 91.5117 145.789 91.6445C145.723 91.7773 145.689 91.9277 145.689 92.0957C145.689 92.2637 145.729 92.418 145.807 92.5586C145.885 92.6953 145.998 92.8027 146.146 92.8809C146.299 92.959 146.482 92.998 146.697 92.998C146.986 92.998 147.238 92.9395 147.453 92.8223C147.672 92.7012 147.844 92.5547 147.969 92.3828C148.094 92.207 148.16 92.041 148.168 91.8848L148.625 92.5117C148.578 92.6719 148.498 92.8438 148.385 93.0273C148.271 93.2109 148.123 93.3867 147.939 93.5547C147.76 93.7188 147.543 93.8535 147.289 93.959C147.039 94.0645 146.75 94.1172 146.422 94.1172C146.008 94.1172 145.639 94.0352 145.314 93.8711C144.99 93.7031 144.736 93.4785 144.553 93.1973C144.369 92.9121 144.277 92.5898 144.277 92.2305C144.277 91.8945 144.34 91.5977 144.465 91.3398C144.594 91.0781 144.781 90.8594 145.027 90.6836C145.277 90.5078 145.582 90.375 145.941 90.2852C146.301 90.1914 146.711 90.1445 147.172 90.1445H148.279ZM152.369 89.0137V94H150.957V87.6602H152.287L152.369 89.0137ZM152.117 90.5957L151.66 90.5898C151.664 90.1406 151.727 89.7285 151.848 89.3535C151.973 88.9785 152.145 88.6562 152.363 88.3867C152.586 88.1172 152.852 87.9102 153.16 87.7656C153.469 87.6172 153.812 87.543 154.191 87.543C154.496 87.543 154.771 87.5859 155.018 87.6719C155.268 87.7539 155.48 87.8887 155.656 88.0762C155.836 88.2637 155.973 88.5078 156.066 88.8086C156.16 89.1055 156.207 89.4707 156.207 89.9043V94H154.789V89.8984C154.789 89.5938 154.744 89.3535 154.654 89.1777C154.568 88.998 154.441 88.8711 154.273 88.7969C154.109 88.7188 153.904 88.6797 153.658 88.6797C153.416 88.6797 153.199 88.7305 153.008 88.832C152.816 88.9336 152.654 89.0723 152.521 89.248C152.393 89.4238 152.293 89.627 152.223 89.8574C152.152 90.0879 152.117 90.334 152.117 90.5957ZM161.709 87.6602H162.992V93.8242C162.992 94.3945 162.871 94.8789 162.629 95.2773C162.387 95.6758 162.049 95.9785 161.615 96.1855C161.182 96.3965 160.68 96.502 160.109 96.502C159.867 96.502 159.598 96.4668 159.301 96.3965C159.008 96.3262 158.723 96.2129 158.445 96.0566C158.172 95.9043 157.943 95.7031 157.76 95.4531L158.422 94.6211C158.648 94.8906 158.898 95.0879 159.172 95.2129C159.445 95.3379 159.732 95.4004 160.033 95.4004C160.357 95.4004 160.633 95.3398 160.859 95.2188C161.09 95.1016 161.268 94.9277 161.393 94.6973C161.518 94.4668 161.58 94.1855 161.58 93.8535V89.0957L161.709 87.6602ZM157.402 90.9004V90.7773C157.402 90.2969 157.461 89.8594 157.578 89.4648C157.695 89.0664 157.863 88.7246 158.082 88.4395C158.301 88.1504 158.566 87.9297 158.879 87.7773C159.191 87.6211 159.545 87.543 159.939 87.543C160.35 87.543 160.699 87.6172 160.988 87.7656C161.281 87.9141 161.525 88.127 161.721 88.4043C161.916 88.6777 162.068 89.0059 162.178 89.3887C162.291 89.7676 162.375 90.1895 162.43 90.6543V91.0469C162.379 91.5 162.293 91.9141 162.172 92.2891C162.051 92.6641 161.891 92.9883 161.691 93.2617C161.492 93.5352 161.246 93.7461 160.953 93.8945C160.664 94.043 160.322 94.1172 159.928 94.1172C159.541 94.1172 159.191 94.0371 158.879 93.877C158.57 93.7168 158.305 93.4922 158.082 93.2031C157.863 92.9141 157.695 92.5742 157.578 92.1836C157.461 91.7891 157.402 91.3613 157.402 90.9004ZM158.814 90.7773V90.9004C158.814 91.1895 158.842 91.459 158.896 91.709C158.955 91.959 159.043 92.1797 159.16 92.3711C159.281 92.5586 159.434 92.707 159.617 92.8164C159.805 92.9219 160.025 92.9746 160.279 92.9746C160.611 92.9746 160.883 92.9043 161.094 92.7637C161.309 92.623 161.473 92.4336 161.586 92.1953C161.703 91.9531 161.785 91.6836 161.832 91.3867V90.3262C161.809 90.0957 161.76 89.8809 161.686 89.6816C161.615 89.4824 161.52 89.3086 161.398 89.1602C161.277 89.0078 161.125 88.8906 160.941 88.8086C160.758 88.7227 160.541 88.6797 160.291 88.6797C160.037 88.6797 159.816 88.7344 159.629 88.8438C159.441 88.9531 159.287 89.1035 159.166 89.2949C159.049 89.4863 158.961 89.709 158.902 89.9629C158.844 90.2168 158.814 90.4883 158.814 90.7773ZM168.271 92.5059V87.6602H169.689V94H168.354L168.271 92.5059ZM168.471 91.1875L168.945 91.1758C168.945 91.6016 168.898 91.9941 168.805 92.3535C168.711 92.709 168.566 93.0195 168.371 93.2852C168.176 93.5469 167.926 93.752 167.621 93.9004C167.316 94.0449 166.951 94.1172 166.525 94.1172C166.217 94.1172 165.934 94.0723 165.676 93.9824C165.418 93.8926 165.195 93.7539 165.008 93.5664C164.824 93.3789 164.682 93.1348 164.58 92.834C164.479 92.5332 164.428 92.1738 164.428 91.7559V87.6602H165.84V91.7676C165.84 91.998 165.867 92.1914 165.922 92.3477C165.977 92.5 166.051 92.623 166.145 92.7168C166.238 92.8105 166.348 92.877 166.473 92.916C166.598 92.9551 166.73 92.9746 166.871 92.9746C167.273 92.9746 167.59 92.8965 167.82 92.7402C168.055 92.5801 168.221 92.3652 168.318 92.0957C168.42 91.8262 168.471 91.5234 168.471 91.1875ZM174.711 92.7285V89.7051C174.711 89.4785 174.67 89.2832 174.588 89.1191C174.506 88.9551 174.381 88.8281 174.213 88.7383C174.049 88.6484 173.842 88.6035 173.592 88.6035C173.361 88.6035 173.162 88.6426 172.994 88.7207C172.826 88.7988 172.695 88.9043 172.602 89.0371C172.508 89.1699 172.461 89.3203 172.461 89.4883H171.055C171.055 89.2383 171.115 88.9961 171.236 88.7617C171.357 88.5273 171.533 88.3184 171.764 88.1348C171.994 87.9512 172.27 87.8066 172.59 87.7012C172.91 87.5957 173.27 87.543 173.668 87.543C174.145 87.543 174.566 87.623 174.934 87.7832C175.305 87.9434 175.596 88.1855 175.807 88.5098C176.021 88.8301 176.129 89.2324 176.129 89.7168V92.5352C176.129 92.8242 176.148 93.084 176.188 93.3145C176.23 93.541 176.291 93.7383 176.369 93.9062V94H174.922C174.855 93.8477 174.803 93.6543 174.764 93.4199C174.729 93.1816 174.711 92.9512 174.711 92.7285ZM174.916 90.1445L174.928 91.0176H173.914C173.652 91.0176 173.422 91.043 173.223 91.0938C173.023 91.1406 172.857 91.2109 172.725 91.3047C172.592 91.3984 172.492 91.5117 172.426 91.6445C172.359 91.7773 172.326 91.9277 172.326 92.0957C172.326 92.2637 172.365 92.418 172.443 92.5586C172.521 92.6953 172.635 92.8027 172.783 92.8809C172.936 92.959 173.119 92.998 173.334 92.998C173.623 92.998 173.875 92.9395 174.09 92.8223C174.309 92.7012 174.48 92.5547 174.605 92.3828C174.73 92.207 174.797 92.041 174.805 91.8848L175.262 92.5117C175.215 92.6719 175.135 92.8438 175.021 93.0273C174.908 93.2109 174.76 93.3867 174.576 93.5547C174.396 93.7188 174.18 93.8535 173.926 93.959C173.676 94.0645 173.387 94.1172 173.059 94.1172C172.645 94.1172 172.275 94.0352 171.951 93.8711C171.627 93.7031 171.373 93.4785 171.189 93.1973C171.006 92.9121 170.914 92.5898 170.914 92.2305C170.914 91.8945 170.977 91.5977 171.102 91.3398C171.23 91.0781 171.418 90.8594 171.664 90.6836C171.914 90.5078 172.219 90.375 172.578 90.2852C172.938 90.1914 173.348 90.1445 173.809 90.1445H174.916ZM181.666 87.6602H182.949V93.8242C182.949 94.3945 182.828 94.8789 182.586 95.2773C182.344 95.6758 182.006 95.9785 181.572 96.1855C181.139 96.3965 180.637 96.502 180.066 96.502C179.824 96.502 179.555 96.4668 179.258 96.3965C178.965 96.3262 178.68 96.2129 178.402 96.0566C178.129 95.9043 177.9 95.7031 177.717 95.4531L178.379 94.6211C178.605 94.8906 178.855 95.0879 179.129 95.2129C179.402 95.3379 179.689 95.4004 179.99 95.4004C180.314 95.4004 180.59 95.3398 180.816 95.2188C181.047 95.1016 181.225 94.9277 181.35 94.6973C181.475 94.4668 181.537 94.1855 181.537 93.8535V89.0957L181.666 87.6602ZM177.359 90.9004V90.7773C177.359 90.2969 177.418 89.8594 177.535 89.4648C177.652 89.0664 177.82 88.7246 178.039 88.4395C178.258 88.1504 178.523 87.9297 178.836 87.7773C179.148 87.6211 179.502 87.543 179.896 87.543C180.307 87.543 180.656 87.6172 180.945 87.7656C181.238 87.9141 181.482 88.127 181.678 88.4043C181.873 88.6777 182.025 89.0059 182.135 89.3887C182.248 89.7676 182.332 90.1895 182.387 90.6543V91.0469C182.336 91.5 182.25 91.9141 182.129 92.2891C182.008 92.6641 181.848 92.9883 181.648 93.2617C181.449 93.5352 181.203 93.7461 180.91 93.8945C180.621 94.043 180.279 94.1172 179.885 94.1172C179.498 94.1172 179.148 94.0371 178.836 93.877C178.527 93.7168 178.262 93.4922 178.039 93.2031C177.82 92.9141 177.652 92.5742 177.535 92.1836C177.418 91.7891 177.359 91.3613 177.359 90.9004ZM178.771 90.7773V90.9004C178.771 91.1895 178.799 91.459 178.854 91.709C178.912 91.959 179 92.1797 179.117 92.3711C179.238 92.5586 179.391 92.707 179.574 92.8164C179.762 92.9219 179.982 92.9746 180.236 92.9746C180.568 92.9746 180.84 92.9043 181.051 92.7637C181.266 92.623 181.43 92.4336 181.543 92.1953C181.66 91.9531 181.742 91.6836 181.789 91.3867V90.3262C181.766 90.0957 181.717 89.8809 181.643 89.6816C181.572 89.4824 181.477 89.3086 181.355 89.1602C181.234 89.0078 181.082 88.8906 180.898 88.8086C180.715 88.7227 180.498 88.6797 180.248 88.6797C179.994 88.6797 179.773 88.7344 179.586 88.8438C179.398 88.9531 179.244 89.1035 179.123 89.2949C179.006 89.4863 178.918 89.709 178.859 89.9629C178.801 90.2168 178.771 90.4883 178.771 90.7773ZM187.209 94.1172C186.74 94.1172 186.316 94.041 185.938 93.8887C185.562 93.7324 185.242 93.5156 184.977 93.2383C184.715 92.9609 184.514 92.6348 184.373 92.2598C184.232 91.8848 184.162 91.4805 184.162 91.0469V90.8125C184.162 90.3164 184.234 89.8672 184.379 89.4648C184.523 89.0625 184.725 88.7188 184.982 88.4336C185.24 88.1445 185.545 87.9238 185.896 87.7715C186.248 87.6191 186.629 87.543 187.039 87.543C187.492 87.543 187.889 87.6191 188.229 87.7715C188.568 87.9238 188.85 88.1387 189.072 88.416C189.299 88.6895 189.467 89.0156 189.576 89.3945C189.689 89.7734 189.746 90.1914 189.746 90.6484V91.252H184.848V90.2383H188.352V90.127C188.344 89.873 188.293 89.6348 188.199 89.4121C188.109 89.1895 187.971 89.0098 187.783 88.873C187.596 88.7363 187.346 88.668 187.033 88.668C186.799 88.668 186.59 88.7188 186.406 88.8203C186.227 88.918 186.076 89.0605 185.955 89.248C185.834 89.4355 185.74 89.6621 185.674 89.9277C185.611 90.1895 185.58 90.4844 185.58 90.8125V91.0469C185.58 91.3242 185.617 91.582 185.691 91.8203C185.77 92.0547 185.883 92.2598 186.031 92.4355C186.18 92.6113 186.359 92.75 186.57 92.8516C186.781 92.9492 187.021 92.998 187.291 92.998C187.631 92.998 187.934 92.9297 188.199 92.793C188.465 92.6562 188.695 92.4629 188.891 92.2129L189.635 92.9336C189.498 93.1328 189.32 93.3242 189.102 93.5078C188.883 93.6875 188.615 93.834 188.299 93.9473C187.986 94.0605 187.623 94.1172 187.209 94.1172Z" fill="#8B8A99"/>
<path d="M64.7168 114.328C64.9316 114.543 65.2969 114.543 65.5117 114.328L71.8281 108.012C72.043 107.797 72.043 107.432 71.8281 107.217L71.0547 106.443C70.8398 106.229 70.4961 106.229 70.2812 106.443L65.125 111.6L62.6973 109.193C62.4824 108.979 62.1387 108.979 61.9238 109.193L61.1504 109.967C60.9355 110.182 60.9355 110.547 61.1504 110.762L64.7168 114.328Z" fill="#3ADA91"/>
<path d="M91.9062 111.723H93.3711C93.3242 112.281 93.168 112.779 92.9023 113.217C92.6367 113.65 92.2637 113.992 91.7832 114.242C91.3027 114.492 90.7188 114.617 90.0312 114.617C89.5039 114.617 89.0293 114.523 88.6074 114.336C88.1855 114.145 87.8242 113.875 87.5234 113.527C87.2227 113.176 86.9922 112.752 86.832 112.256C86.6758 111.76 86.5977 111.205 86.5977 110.592V109.883C86.5977 109.27 86.6777 108.715 86.8379 108.219C87.002 107.723 87.2363 107.299 87.541 106.947C87.8457 106.592 88.2109 106.32 88.6367 106.133C89.0664 105.945 89.5488 105.852 90.084 105.852C90.7637 105.852 91.3379 105.977 91.8066 106.227C92.2754 106.477 92.6387 106.822 92.8965 107.264C93.1582 107.705 93.3184 108.211 93.377 108.781H91.9121C91.873 108.414 91.7871 108.1 91.6543 107.838C91.5254 107.576 91.334 107.377 91.0801 107.24C90.8262 107.1 90.4941 107.029 90.084 107.029C89.748 107.029 89.4551 107.092 89.2051 107.217C88.9551 107.342 88.7461 107.525 88.5781 107.768C88.4102 108.01 88.2832 108.309 88.1973 108.664C88.1152 109.016 88.0742 109.418 88.0742 109.871V110.592C88.0742 111.021 88.1113 111.412 88.1855 111.764C88.2637 112.111 88.3809 112.41 88.5371 112.66C88.6973 112.91 88.9004 113.104 89.1465 113.24C89.3926 113.377 89.6875 113.445 90.0312 113.445C90.4492 113.445 90.7871 113.379 91.0449 113.246C91.3066 113.113 91.5039 112.92 91.6367 112.666C91.7734 112.408 91.8633 112.094 91.9062 111.723ZM95.9844 109.367V114.5H94.5723V108.16H95.9199L95.9844 109.367ZM97.9238 108.119L97.9121 109.432C97.8262 109.416 97.7324 109.404 97.6309 109.396C97.5332 109.389 97.4355 109.385 97.3379 109.385C97.0957 109.385 96.8828 109.42 96.6992 109.49C96.5156 109.557 96.3613 109.654 96.2363 109.783C96.1152 109.908 96.0215 110.061 95.9551 110.24C95.8887 110.42 95.8496 110.621 95.8379 110.844L95.5156 110.867C95.5156 110.469 95.5547 110.1 95.6328 109.76C95.7109 109.42 95.8281 109.121 95.9844 108.863C96.1445 108.605 96.3438 108.404 96.582 108.26C96.8242 108.115 97.1035 108.043 97.4199 108.043C97.5059 108.043 97.5977 108.051 97.6953 108.066C97.7969 108.082 97.873 108.1 97.9238 108.119ZM102.172 113.229V110.205C102.172 109.979 102.131 109.783 102.049 109.619C101.967 109.455 101.842 109.328 101.674 109.238C101.51 109.148 101.303 109.104 101.053 109.104C100.822 109.104 100.623 109.143 100.455 109.221C100.287 109.299 100.156 109.404 100.062 109.537C99.9688 109.67 99.9219 109.82 99.9219 109.988H98.5156C98.5156 109.738 98.5762 109.496 98.6973 109.262C98.8184 109.027 98.9941 108.818 99.2246 108.635C99.4551 108.451 99.7305 108.307 100.051 108.201C100.371 108.096 100.73 108.043 101.129 108.043C101.605 108.043 102.027 108.123 102.395 108.283C102.766 108.443 103.057 108.686 103.268 109.01C103.482 109.33 103.59 109.732 103.59 110.217V113.035C103.59 113.324 103.609 113.584 103.648 113.814C103.691 114.041 103.752 114.238 103.83 114.406V114.5H102.383C102.316 114.348 102.264 114.154 102.225 113.92C102.189 113.682 102.172 113.451 102.172 113.229ZM102.377 110.645L102.389 111.518H101.375C101.113 111.518 100.883 111.543 100.684 111.594C100.484 111.641 100.318 111.711 100.186 111.805C100.053 111.898 99.9531 112.012 99.8867 112.145C99.8203 112.277 99.7871 112.428 99.7871 112.596C99.7871 112.764 99.8262 112.918 99.9043 113.059C99.9824 113.195 100.096 113.303 100.244 113.381C100.396 113.459 100.58 113.498 100.795 113.498C101.084 113.498 101.336 113.439 101.551 113.322C101.77 113.201 101.941 113.055 102.066 112.883C102.191 112.707 102.258 112.541 102.266 112.385L102.723 113.012C102.676 113.172 102.596 113.344 102.482 113.527C102.369 113.711 102.221 113.887 102.037 114.055C101.857 114.219 101.641 114.354 101.387 114.459C101.137 114.564 100.848 114.617 100.52 114.617C100.105 114.617 99.7363 114.535 99.4121 114.371C99.0879 114.203 98.834 113.979 98.6504 113.697C98.4668 113.412 98.375 113.09 98.375 112.73C98.375 112.395 98.4375 112.098 98.5625 111.84C98.6914 111.578 98.8789 111.359 99.125 111.184C99.375 111.008 99.6797 110.875 100.039 110.785C100.398 110.691 100.809 110.645 101.27 110.645H102.377ZM106.977 114.5H105.564V107.551C105.564 107.078 105.652 106.682 105.828 106.361C106.008 106.037 106.264 105.793 106.596 105.629C106.928 105.461 107.32 105.377 107.773 105.377C107.914 105.377 108.053 105.387 108.189 105.406C108.326 105.422 108.459 105.447 108.588 105.482L108.553 106.572C108.475 106.553 108.389 106.539 108.295 106.531C108.205 106.523 108.107 106.52 108.002 106.52C107.787 106.52 107.602 106.561 107.445 106.643C107.293 106.721 107.176 106.836 107.094 106.988C107.016 107.141 106.977 107.328 106.977 107.551V114.5ZM108.283 108.16V109.191H104.592V108.16H108.283ZM112.215 108.16V109.191H108.641V108.16H112.215ZM109.672 106.607H111.084V112.748C111.084 112.943 111.111 113.094 111.166 113.199C111.225 113.301 111.305 113.369 111.406 113.404C111.508 113.439 111.627 113.457 111.764 113.457C111.861 113.457 111.955 113.451 112.045 113.439C112.135 113.428 112.207 113.416 112.262 113.404L112.268 114.482C112.15 114.518 112.014 114.549 111.857 114.576C111.705 114.604 111.529 114.617 111.33 114.617C111.006 114.617 110.719 114.561 110.469 114.447C110.219 114.33 110.023 114.141 109.883 113.879C109.742 113.617 109.672 113.27 109.672 112.836V106.607ZM117.711 109.379V116.938H116.299V108.16H117.6L117.711 109.379ZM121.842 111.271V111.395C121.842 111.855 121.787 112.283 121.678 112.678C121.572 113.068 121.414 113.41 121.203 113.703C120.996 113.992 120.74 114.217 120.436 114.377C120.131 114.537 119.779 114.617 119.381 114.617C118.986 114.617 118.641 114.545 118.344 114.4C118.051 114.252 117.803 114.043 117.6 113.773C117.396 113.504 117.232 113.188 117.107 112.824C116.986 112.457 116.9 112.055 116.85 111.617V111.143C116.9 110.678 116.986 110.256 117.107 109.877C117.232 109.498 117.396 109.172 117.6 108.898C117.803 108.625 118.051 108.414 118.344 108.266C118.637 108.117 118.979 108.043 119.369 108.043C119.768 108.043 120.121 108.121 120.43 108.277C120.738 108.43 120.998 108.648 121.209 108.934C121.42 109.215 121.578 109.555 121.684 109.953C121.789 110.348 121.842 110.787 121.842 111.271ZM120.43 111.395V111.271C120.43 110.979 120.402 110.707 120.348 110.457C120.293 110.203 120.207 109.98 120.09 109.789C119.973 109.598 119.822 109.449 119.639 109.344C119.459 109.234 119.242 109.18 118.988 109.18C118.738 109.18 118.523 109.223 118.344 109.309C118.164 109.391 118.014 109.506 117.893 109.654C117.771 109.803 117.678 109.977 117.611 110.176C117.545 110.371 117.498 110.584 117.471 110.814V111.951C117.518 112.232 117.598 112.49 117.711 112.725C117.824 112.959 117.984 113.146 118.191 113.287C118.402 113.424 118.672 113.492 119 113.492C119.254 113.492 119.471 113.438 119.65 113.328C119.83 113.219 119.977 113.068 120.09 112.877C120.207 112.682 120.293 112.457 120.348 112.203C120.402 111.949 120.43 111.68 120.43 111.395ZM125.838 114.617C125.369 114.617 124.945 114.541 124.566 114.389C124.191 114.232 123.871 114.016 123.605 113.738C123.344 113.461 123.143 113.135 123.002 112.76C122.861 112.385 122.791 111.98 122.791 111.547V111.312C122.791 110.816 122.863 110.367 123.008 109.965C123.152 109.562 123.354 109.219 123.611 108.934C123.869 108.645 124.174 108.424 124.525 108.271C124.877 108.119 125.258 108.043 125.668 108.043C126.121 108.043 126.518 108.119 126.857 108.271C127.197 108.424 127.479 108.639 127.701 108.916C127.928 109.189 128.096 109.516 128.205 109.895C128.318 110.273 128.375 110.691 128.375 111.148V111.752H123.477V110.738H126.98V110.627C126.973 110.373 126.922 110.135 126.828 109.912C126.738 109.689 126.6 109.51 126.412 109.373C126.225 109.236 125.975 109.168 125.662 109.168C125.428 109.168 125.219 109.219 125.035 109.32C124.855 109.418 124.705 109.561 124.584 109.748C124.463 109.936 124.369 110.162 124.303 110.428C124.24 110.689 124.209 110.984 124.209 111.312V111.547C124.209 111.824 124.246 112.082 124.32 112.32C124.398 112.555 124.512 112.76 124.66 112.936C124.809 113.111 124.988 113.25 125.199 113.352C125.41 113.449 125.65 113.498 125.92 113.498C126.26 113.498 126.562 113.43 126.828 113.293C127.094 113.156 127.324 112.963 127.52 112.713L128.264 113.434C128.127 113.633 127.949 113.824 127.73 114.008C127.512 114.188 127.244 114.334 126.928 114.447C126.615 114.561 126.252 114.617 125.838 114.617ZM130.895 109.367V114.5H129.482V108.16H130.83L130.895 109.367ZM132.834 108.119L132.822 109.432C132.736 109.416 132.643 109.404 132.541 109.396C132.443 109.389 132.346 109.385 132.248 109.385C132.006 109.385 131.793 109.42 131.609 109.49C131.426 109.557 131.271 109.654 131.146 109.783C131.025 109.908 130.932 110.061 130.865 110.24C130.799 110.42 130.76 110.621 130.748 110.844L130.426 110.867C130.426 110.469 130.465 110.1 130.543 109.76C130.621 109.42 130.738 109.121 130.895 108.863C131.055 108.605 131.254 108.404 131.492 108.26C131.734 108.115 132.014 108.043 132.33 108.043C132.416 108.043 132.508 108.051 132.605 108.066C132.707 108.082 132.783 108.1 132.834 108.119ZM135.734 114.5H134.322V107.551C134.322 107.078 134.41 106.682 134.586 106.361C134.766 106.037 135.021 105.793 135.354 105.629C135.686 105.461 136.078 105.377 136.531 105.377C136.672 105.377 136.811 105.387 136.947 105.406C137.084 105.422 137.217 105.447 137.346 105.482L137.311 106.572C137.232 106.553 137.146 106.539 137.053 106.531C136.963 106.523 136.865 106.52 136.76 106.52C136.545 106.52 136.359 106.561 136.203 106.643C136.051 106.721 135.934 106.836 135.852 106.988C135.773 107.141 135.734 107.328 135.734 107.551V114.5ZM137.041 108.16V109.191H133.35V108.16H137.041ZM140.721 114.617C140.252 114.617 139.828 114.541 139.449 114.389C139.074 114.232 138.754 114.016 138.488 113.738C138.227 113.461 138.025 113.135 137.885 112.76C137.744 112.385 137.674 111.98 137.674 111.547V111.312C137.674 110.816 137.746 110.367 137.891 109.965C138.035 109.562 138.236 109.219 138.494 108.934C138.752 108.645 139.057 108.424 139.408 108.271C139.76 108.119 140.141 108.043 140.551 108.043C141.004 108.043 141.4 108.119 141.74 108.271C142.08 108.424 142.361 108.639 142.584 108.916C142.811 109.189 142.979 109.516 143.088 109.895C143.201 110.273 143.258 110.691 143.258 111.148V111.752H138.359V110.738H141.863V110.627C141.855 110.373 141.805 110.135 141.711 109.912C141.621 109.689 141.482 109.51 141.295 109.373C141.107 109.236 140.857 109.168 140.545 109.168C140.311 109.168 140.102 109.219 139.918 109.32C139.738 109.418 139.588 109.561 139.467 109.748C139.346 109.936 139.252 110.162 139.186 110.428C139.123 110.689 139.092 110.984 139.092 111.312V111.547C139.092 111.824 139.129 112.082 139.203 112.32C139.281 112.555 139.395 112.76 139.543 112.936C139.691 113.111 139.871 113.25 140.082 113.352C140.293 113.449 140.533 113.498 140.803 113.498C141.143 113.498 141.445 113.43 141.711 113.293C141.977 113.156 142.207 112.963 142.402 112.713L143.146 113.434C143.01 113.633 142.832 113.824 142.613 114.008C142.395 114.188 142.127 114.334 141.811 114.447C141.498 114.561 141.135 114.617 140.721 114.617ZM146.949 113.492C147.18 113.492 147.387 113.447 147.57 113.357C147.758 113.264 147.908 113.135 148.021 112.971C148.139 112.807 148.203 112.617 148.215 112.402H149.545C149.537 112.812 149.416 113.186 149.182 113.521C148.947 113.857 148.637 114.125 148.25 114.324C147.863 114.52 147.436 114.617 146.967 114.617C146.482 114.617 146.061 114.535 145.701 114.371C145.342 114.203 145.043 113.973 144.805 113.68C144.566 113.387 144.387 113.049 144.266 112.666C144.148 112.283 144.09 111.873 144.09 111.436V111.23C144.09 110.793 144.148 110.383 144.266 110C144.387 109.613 144.566 109.273 144.805 108.98C145.043 108.688 145.342 108.459 145.701 108.295C146.061 108.127 146.48 108.043 146.961 108.043C147.469 108.043 147.914 108.145 148.297 108.348C148.68 108.547 148.98 108.826 149.199 109.186C149.422 109.541 149.537 109.955 149.545 110.428H148.215C148.203 110.193 148.145 109.982 148.039 109.795C147.938 109.604 147.793 109.451 147.605 109.338C147.422 109.225 147.201 109.168 146.943 109.168C146.658 109.168 146.422 109.227 146.234 109.344C146.047 109.457 145.9 109.613 145.795 109.812C145.689 110.008 145.613 110.229 145.566 110.475C145.523 110.717 145.502 110.969 145.502 111.23V111.436C145.502 111.697 145.523 111.951 145.566 112.197C145.609 112.443 145.684 112.664 145.789 112.859C145.898 113.051 146.047 113.205 146.234 113.322C146.422 113.436 146.66 113.492 146.949 113.492ZM153.535 108.16V109.191H149.961V108.16H153.535ZM150.992 106.607H152.404V112.748C152.404 112.943 152.432 113.094 152.486 113.199C152.545 113.301 152.625 113.369 152.727 113.404C152.828 113.439 152.947 113.457 153.084 113.457C153.182 113.457 153.275 113.451 153.365 113.439C153.455 113.428 153.527 113.416 153.582 113.404L153.588 114.482C153.471 114.518 153.334 114.549 153.178 114.576C153.025 114.604 152.85 114.617 152.65 114.617C152.326 114.617 152.039 114.561 151.789 114.447C151.539 114.33 151.344 114.141 151.203 113.879C151.062 113.617 150.992 113.27 150.992 112.836V106.607ZM160.408 114.617C159.939 114.617 159.516 114.541 159.137 114.389C158.762 114.232 158.441 114.016 158.176 113.738C157.914 113.461 157.713 113.135 157.572 112.76C157.432 112.385 157.361 111.98 157.361 111.547V111.312C157.361 110.816 157.434 110.367 157.578 109.965C157.723 109.562 157.924 109.219 158.182 108.934C158.439 108.645 158.744 108.424 159.096 108.271C159.447 108.119 159.828 108.043 160.238 108.043C160.691 108.043 161.088 108.119 161.428 108.271C161.768 108.424 162.049 108.639 162.271 108.916C162.498 109.189 162.666 109.516 162.775 109.895C162.889 110.273 162.945 110.691 162.945 111.148V111.752H158.047V110.738H161.551V110.627C161.543 110.373 161.492 110.135 161.398 109.912C161.309 109.689 161.17 109.51 160.982 109.373C160.795 109.236 160.545 109.168 160.232 109.168C159.998 109.168 159.789 109.219 159.605 109.32C159.426 109.418 159.275 109.561 159.154 109.748C159.033 109.936 158.939 110.162 158.873 110.428C158.811 110.689 158.779 110.984 158.779 111.312V111.547C158.779 111.824 158.816 112.082 158.891 112.32C158.969 112.555 159.082 112.76 159.23 112.936C159.379 113.111 159.559 113.25 159.77 113.352C159.98 113.449 160.221 113.498 160.49 113.498C160.83 113.498 161.133 113.43 161.398 113.293C161.664 113.156 161.895 112.963 162.09 112.713L162.834 113.434C162.697 113.633 162.52 113.824 162.301 114.008C162.082 114.188 161.814 114.334 161.498 114.447C161.186 114.561 160.822 114.617 160.408 114.617ZM166.889 110.293V111.418H163.789V110.293H166.889ZM169.537 109.449V114.5H168.125V108.16H169.455L169.537 109.449ZM169.309 111.096L168.828 111.09C168.828 110.652 168.883 110.248 168.992 109.877C169.102 109.506 169.262 109.184 169.473 108.91C169.684 108.633 169.945 108.42 170.258 108.271C170.574 108.119 170.939 108.043 171.354 108.043C171.643 108.043 171.906 108.086 172.145 108.172C172.387 108.254 172.596 108.385 172.771 108.564C172.951 108.744 173.088 108.975 173.182 109.256C173.279 109.537 173.328 109.877 173.328 110.275V114.5H171.916V110.398C171.916 110.09 171.869 109.848 171.775 109.672C171.686 109.496 171.555 109.371 171.383 109.297C171.215 109.219 171.014 109.18 170.779 109.18C170.514 109.18 170.287 109.23 170.1 109.332C169.916 109.434 169.766 109.572 169.648 109.748C169.531 109.924 169.445 110.127 169.391 110.357C169.336 110.588 169.309 110.834 169.309 111.096ZM173.24 110.721L172.578 110.867C172.578 110.484 172.631 110.123 172.736 109.783C172.846 109.439 173.004 109.139 173.211 108.881C173.422 108.619 173.682 108.414 173.99 108.266C174.299 108.117 174.652 108.043 175.051 108.043C175.375 108.043 175.664 108.088 175.918 108.178C176.176 108.264 176.395 108.4 176.574 108.588C176.754 108.775 176.891 109.02 176.984 109.32C177.078 109.617 177.125 109.977 177.125 110.398V114.5H175.707V110.393C175.707 110.072 175.66 109.824 175.566 109.648C175.477 109.473 175.348 109.352 175.18 109.285C175.012 109.215 174.811 109.18 174.576 109.18C174.357 109.18 174.164 109.221 173.996 109.303C173.832 109.381 173.693 109.492 173.58 109.637C173.467 109.777 173.381 109.939 173.322 110.123C173.268 110.307 173.24 110.506 173.24 110.721ZM182.152 113.229V110.205C182.152 109.979 182.111 109.783 182.029 109.619C181.947 109.455 181.822 109.328 181.654 109.238C181.49 109.148 181.283 109.104 181.033 109.104C180.803 109.104 180.604 109.143 180.436 109.221C180.268 109.299 180.137 109.404 180.043 109.537C179.949 109.67 179.902 109.82 179.902 109.988H178.496C178.496 109.738 178.557 109.496 178.678 109.262C178.799 109.027 178.975 108.818 179.205 108.635C179.436 108.451 179.711 108.307 180.031 108.201C180.352 108.096 180.711 108.043 181.109 108.043C181.586 108.043 182.008 108.123 182.375 108.283C182.746 108.443 183.037 108.686 183.248 109.01C183.463 109.33 183.57 109.732 183.57 110.217V113.035C183.57 113.324 183.59 113.584 183.629 113.814C183.672 114.041 183.732 114.238 183.811 114.406V114.5H182.363C182.297 114.348 182.244 114.154 182.205 113.92C182.17 113.682 182.152 113.451 182.152 113.229ZM182.357 110.645L182.369 111.518H181.355C181.094 111.518 180.863 111.543 180.664 111.594C180.465 111.641 180.299 111.711 180.166 111.805C180.033 111.898 179.934 112.012 179.867 112.145C179.801 112.277 179.768 112.428 179.768 112.596C179.768 112.764 179.807 112.918 179.885 113.059C179.963 113.195 180.076 113.303 180.225 113.381C180.377 113.459 180.561 113.498 180.775 113.498C181.064 113.498 181.316 113.439 181.531 113.322C181.75 113.201 181.922 113.055 182.047 112.883C182.172 112.707 182.238 112.541 182.246 112.385L182.703 113.012C182.656 113.172 182.576 113.344 182.463 113.527C182.35 113.711 182.201 113.887 182.018 114.055C181.838 114.219 181.621 114.354 181.367 114.459C181.117 114.564 180.828 114.617 180.5 114.617C180.086 114.617 179.717 114.535 179.393 114.371C179.068 114.203 178.814 113.979 178.631 113.697C178.447 113.412 178.355 113.09 178.355 112.73C178.355 112.395 178.418 112.098 178.543 111.84C178.672 111.578 178.859 111.359 179.105 111.184C179.355 111.008 179.66 110.875 180.02 110.785C180.379 110.691 180.789 110.645 181.25 110.645H182.357ZM186.559 108.16V114.5H185.141V108.16H186.559ZM185.047 106.496C185.047 106.281 185.117 106.104 185.258 105.963C185.402 105.818 185.602 105.746 185.855 105.746C186.105 105.746 186.303 105.818 186.447 105.963C186.592 106.104 186.664 106.281 186.664 106.496C186.664 106.707 186.592 106.883 186.447 107.023C186.303 107.164 186.105 107.234 185.855 107.234C185.602 107.234 185.402 107.164 185.258 107.023C185.117 106.883 185.047 106.707 185.047 106.496ZM189.617 105.5V114.5H188.199V105.5H189.617ZM194.721 112.783C194.721 112.643 194.686 112.516 194.615 112.402C194.545 112.285 194.41 112.18 194.211 112.086C194.016 111.992 193.727 111.906 193.344 111.828C193.008 111.754 192.699 111.666 192.418 111.564C192.141 111.459 191.902 111.332 191.703 111.184C191.504 111.035 191.35 110.859 191.24 110.656C191.131 110.453 191.076 110.219 191.076 109.953C191.076 109.695 191.133 109.451 191.246 109.221C191.359 108.99 191.521 108.787 191.732 108.611C191.943 108.436 192.199 108.297 192.5 108.195C192.805 108.094 193.145 108.043 193.52 108.043C194.051 108.043 194.506 108.133 194.885 108.312C195.268 108.488 195.561 108.729 195.764 109.033C195.967 109.334 196.068 109.674 196.068 110.053H194.656C194.656 109.885 194.613 109.729 194.527 109.584C194.445 109.436 194.32 109.316 194.152 109.227C193.984 109.133 193.773 109.086 193.52 109.086C193.277 109.086 193.076 109.125 192.916 109.203C192.76 109.277 192.643 109.375 192.564 109.496C192.49 109.617 192.453 109.75 192.453 109.895C192.453 110 192.473 110.096 192.512 110.182C192.555 110.264 192.625 110.34 192.723 110.41C192.82 110.477 192.953 110.539 193.121 110.598C193.293 110.656 193.508 110.713 193.766 110.768C194.25 110.869 194.666 111 195.014 111.16C195.365 111.316 195.635 111.52 195.822 111.77C196.01 112.016 196.104 112.328 196.104 112.707C196.104 112.988 196.043 113.246 195.922 113.48C195.805 113.711 195.633 113.912 195.406 114.084C195.18 114.252 194.908 114.383 194.592 114.477C194.279 114.57 193.928 114.617 193.537 114.617C192.963 114.617 192.477 114.516 192.078 114.312C191.68 114.105 191.377 113.842 191.17 113.521C190.967 113.197 190.865 112.861 190.865 112.514H192.23C192.246 112.775 192.318 112.984 192.447 113.141C192.58 113.293 192.744 113.404 192.939 113.475C193.139 113.541 193.344 113.574 193.555 113.574C193.809 113.574 194.021 113.541 194.193 113.475C194.365 113.404 194.496 113.311 194.586 113.193C194.676 113.072 194.721 112.936 194.721 112.783Z" fill="#8B8A99"/>
</g>
</g>
<defs>
<filter id="filter0_d_403_55" x="0" y="0" width="302" height="181" filterUnits="userSpaceOnUse" color-interpolation-filters="sRGB">
<feFlood flood-opacity="0" result="BackgroundImageFix"/>
<feColorMatrix in="SourceAlpha" type="matrix" values="0 0 0 0 0 0 0 0 0 0 0 0 0 0 0 0 0 0 127 0" result="hardAlpha"/>
<feMorphology radius="6" operator="dilate" in="SourceAlpha" result="effect1_dropShadow_403_55"/>
<feOffset dy="3"/>
<feGaussianBlur stdDeviation="20"/>
<feComposite in2="hardAlpha" operator="out"/>
<feColorMatrix type="matrix" values="0 0 0 0 0.823529 0 0 0 0 0.815686 0 0 0 0 1 0 0 0 0.4 0"/>
<feBlend mode="normal" in2="BackgroundImageFix" result="effect1_dropShadow_403_55"/>
<feBlend mode="normal" in="SourceGraphic" in2="effect1_dropShadow_403_55" result="shape"/>
</filter>
<clipPath id="clip0_403_55">
<rect x="46" y="43" width="210" height="89" rx="20" fill="white"/>
</clipPath>
</defs>
</svg>
