<svg width="304" height="175" viewBox="0 0 304 175" fill="none" xmlns="http://www.w3.org/2000/svg">
<g filter="url(#filter0_d_403_70)">
<rect x="46" y="36" width="212" height="82.7969" rx="20" fill="white" shape-rendering="crispEdges"/>
<rect x="61" y="51.8906" width="46" height="46" rx="23" fill="#DCF1FF"/>
<path d="M76.225 74.0156C77.4555 74.0156 78.475 73.0312 78.475 71.7656C78.475 70.5352 77.4555 69.5156 76.225 69.5156C74.9594 69.5156 73.975 70.5352 73.975 71.7656C73.975 73.0312 74.9594 74.0156 76.225 74.0156ZM91.975 74.0156C93.2055 74.0156 94.225 73.0312 94.225 71.7656C94.225 70.5352 93.2055 69.5156 91.975 69.5156C90.7094 69.5156 89.725 70.5352 89.725 71.7656C89.725 73.0312 90.7094 74.0156 91.975 74.0156ZM93.1 75.1406H90.85C90.2172 75.1406 89.6547 75.4219 89.2328 75.8086C90.6742 76.582 91.6586 77.9883 91.9047 79.6406H94.225C94.8227 79.6406 95.35 79.1484 95.35 78.5156V77.3906C95.35 76.1602 94.3305 75.1406 93.1 75.1406ZM84.1 75.1406C86.2445 75.1406 88.0375 73.3828 88.0375 71.2031C88.0375 69.0586 86.2445 67.2656 84.1 67.2656C81.9203 67.2656 80.1625 69.0586 80.1625 71.2031C80.1625 73.3828 81.9203 75.1406 84.1 75.1406ZM86.7719 76.2656H86.4906C85.7523 76.6172 84.9438 76.8281 84.1 76.8281C83.2211 76.8281 82.4125 76.6172 81.6742 76.2656H81.393C79.143 76.2656 77.35 78.0938 77.35 80.3438V81.3281C77.35 82.2773 78.0883 83.0156 79.0375 83.0156H89.1625C90.0766 83.0156 90.85 82.2773 90.85 81.3281V80.3438C90.85 78.0938 89.0219 76.2656 86.7719 76.2656ZM78.932 75.8086C78.5102 75.4219 77.9477 75.1406 77.35 75.1406H75.1C73.8344 75.1406 72.85 76.1602 72.85 77.3906V78.5156C72.85 79.1484 73.3422 79.6406 73.975 79.6406H76.2602C76.5063 77.9883 77.4906 76.582 78.932 75.8086Z" fill="#59BFFF"/>
<path d="M124.04 75C123.907 75 123.793 74.9533 123.7 74.86C123.607 74.7667 123.56 74.6533 123.56 74.52V61.48C123.56 61.3467 123.607 61.2333 123.7 61.14C123.793 61.0467 123.907 61 124.04 61H125.92C126.067 61 126.18 61.0467 126.26 61.14C126.353 61.2333 126.4 61.3467 126.4 61.48V74.52C126.4 74.6533 126.353 74.7667 126.26 74.86C126.18 74.9533 126.067 75 125.92 75H124.04ZM129.777 75C129.643 75 129.53 74.9533 129.437 74.86C129.343 74.7667 129.297 74.6533 129.297 74.52V65.08C129.297 64.9467 129.343 64.8333 129.437 64.74C129.53 64.6467 129.643 64.6 129.777 64.6H131.417C131.55 64.6 131.663 64.6467 131.757 64.74C131.85 64.8333 131.897 64.9467 131.897 65.08V65.9C132.243 65.4733 132.683 65.12 133.217 64.84C133.763 64.5467 134.437 64.4 135.237 64.4C136.05 64.4 136.757 64.5867 137.357 64.96C137.957 65.32 138.417 65.8333 138.737 66.5C139.07 67.1667 139.237 67.9667 139.237 68.9V74.52C139.237 74.6533 139.19 74.7667 139.097 74.86C139.003 74.9533 138.89 75 138.757 75H136.997C136.863 75 136.75 74.9533 136.657 74.86C136.563 74.7667 136.517 74.6533 136.517 74.52V69.02C136.517 68.2467 136.323 67.64 135.937 67.2C135.563 66.76 135.017 66.54 134.297 66.54C133.603 66.54 133.05 66.76 132.637 67.2C132.223 67.64 132.017 68.2467 132.017 69.02V74.52C132.017 74.6533 131.97 74.7667 131.877 74.86C131.783 74.9533 131.67 75 131.537 75H129.777ZM145.145 75C144.931 75 144.771 74.9533 144.665 74.86C144.571 74.7533 144.491 74.6333 144.425 74.5L140.685 65.22C140.658 65.1533 140.645 65.0933 140.645 65.04C140.645 64.92 140.685 64.82 140.765 64.74C140.858 64.6467 140.965 64.6 141.085 64.6H142.705C142.865 64.6 142.985 64.6467 143.065 64.74C143.145 64.82 143.198 64.9 143.225 64.98L145.885 72L148.545 64.98C148.571 64.9 148.625 64.82 148.705 64.74C148.785 64.6467 148.905 64.6 149.065 64.6H150.705C150.811 64.6 150.905 64.6467 150.985 64.74C151.078 64.82 151.125 64.92 151.125 65.04C151.125 65.0933 151.118 65.1533 151.105 65.22L147.345 74.5C147.291 74.6333 147.211 74.7533 147.105 74.86C146.998 74.9533 146.838 75 146.625 75H145.145ZM153.429 75C153.296 75 153.182 74.9533 153.089 74.86C152.996 74.7667 152.949 74.6533 152.949 74.52V65.08C152.949 64.9467 152.996 64.8333 153.089 64.74C153.182 64.6467 153.296 64.6 153.429 64.6H155.089C155.236 64.6 155.349 64.6467 155.429 64.74C155.522 64.8333 155.569 64.9467 155.569 65.08V74.52C155.569 74.6533 155.522 74.7667 155.429 74.86C155.349 74.9533 155.236 75 155.089 75H153.429ZM153.349 62.88C153.202 62.88 153.082 62.84 152.989 62.76C152.909 62.6667 152.869 62.5467 152.869 62.4V60.96C152.869 60.8267 152.909 60.7133 152.989 60.62C153.082 60.5267 153.202 60.48 153.349 60.48H155.169C155.316 60.48 155.436 60.5267 155.529 60.62C155.622 60.7133 155.669 60.8267 155.669 60.96V62.4C155.669 62.5467 155.622 62.6667 155.529 62.76C155.436 62.84 155.316 62.88 155.169 62.88H153.349ZM162.922 75C162.122 75 161.449 74.86 160.902 74.58C160.356 74.3 159.949 73.8867 159.682 73.34C159.416 72.78 159.282 72.0867 159.282 71.26V66.72H157.702C157.569 66.72 157.456 66.6733 157.362 66.58C157.269 66.4867 157.222 66.3733 157.222 66.24V65.08C157.222 64.9467 157.269 64.8333 157.362 64.74C157.456 64.6467 157.569 64.6 157.702 64.6H159.282V61.28C159.282 61.1467 159.322 61.0333 159.402 60.94C159.496 60.8467 159.616 60.8 159.762 60.8H161.382C161.516 60.8 161.629 60.8467 161.722 60.94C161.816 61.0333 161.862 61.1467 161.862 61.28V64.6H164.362C164.496 64.6 164.609 64.6467 164.702 64.74C164.796 64.8333 164.842 64.9467 164.842 65.08V66.24C164.842 66.3733 164.796 66.4867 164.702 66.58C164.609 66.6733 164.496 66.72 164.362 66.72H161.862V71.06C161.862 71.6067 161.956 72.0333 162.142 72.34C162.342 72.6467 162.682 72.8 163.162 72.8H164.542C164.676 72.8 164.789 72.8467 164.882 72.94C164.976 73.0333 165.022 73.1467 165.022 73.28V74.52C165.022 74.6533 164.976 74.7667 164.882 74.86C164.789 74.9533 164.676 75 164.542 75H162.922ZM171.277 75.2C169.797 75.2 168.623 74.7733 167.757 73.92C166.89 73.0667 166.423 71.8533 166.357 70.28C166.343 70.1467 166.337 69.98 166.337 69.78C166.337 69.5667 166.343 69.4 166.357 69.28C166.41 68.28 166.637 67.4133 167.037 66.68C167.45 65.9467 168.017 65.3867 168.737 65C169.457 64.6 170.303 64.4 171.277 64.4C172.357 64.4 173.263 64.6267 173.997 65.08C174.73 65.52 175.283 66.14 175.657 66.94C176.03 67.7267 176.217 68.64 176.217 69.68V70.1C176.217 70.2333 176.17 70.3467 176.077 70.44C175.983 70.5333 175.863 70.58 175.717 70.58H169.077C169.077 70.58 169.077 70.6 169.077 70.64C169.077 70.68 169.077 70.7133 169.077 70.74C169.09 71.2067 169.177 71.64 169.337 72.04C169.51 72.4267 169.757 72.74 170.077 72.98C170.41 73.22 170.803 73.34 171.257 73.34C171.63 73.34 171.943 73.2867 172.197 73.18C172.45 73.06 172.657 72.9267 172.817 72.78C172.977 72.6333 173.09 72.5133 173.157 72.42C173.277 72.26 173.37 72.1667 173.437 72.14C173.517 72.1 173.63 72.08 173.777 72.08H175.497C175.63 72.08 175.737 72.12 175.817 72.2C175.91 72.28 175.95 72.38 175.937 72.5C175.923 72.7133 175.81 72.9733 175.597 73.28C175.397 73.5867 175.103 73.8867 174.717 74.18C174.33 74.4733 173.843 74.72 173.257 74.92C172.683 75.1067 172.023 75.2 171.277 75.2ZM169.077 68.9H173.497V68.84C173.497 68.32 173.41 67.8667 173.237 67.48C173.063 67.0933 172.81 66.7867 172.477 66.56C172.143 66.3333 171.743 66.22 171.277 66.22C170.81 66.22 170.41 66.3333 170.077 66.56C169.743 66.7867 169.49 67.0933 169.317 67.48C169.157 67.8667 169.077 68.32 169.077 68.84V68.9ZM187.2 75C186.4 75 185.726 74.86 185.18 74.58C184.633 74.3 184.226 73.8867 183.96 73.34C183.693 72.78 183.56 72.0867 183.56 71.26V66.72H181.98C181.846 66.72 181.733 66.6733 181.64 66.58C181.546 66.4867 181.5 66.3733 181.5 66.24V65.08C181.5 64.9467 181.546 64.8333 181.64 64.74C181.733 64.6467 181.846 64.6 181.98 64.6H183.56V61.28C183.56 61.1467 183.6 61.0333 183.68 60.94C183.773 60.8467 183.893 60.8 184.04 60.8H185.66C185.793 60.8 185.906 60.8467 186 60.94C186.093 61.0333 186.14 61.1467 186.14 61.28V64.6H188.64C188.773 64.6 188.886 64.6467 188.98 64.74C189.073 64.8333 189.12 64.9467 189.12 65.08V66.24C189.12 66.3733 189.073 66.4867 188.98 66.58C188.886 66.6733 188.773 66.72 188.64 66.72H186.14V71.06C186.14 71.6067 186.233 72.0333 186.42 72.34C186.62 72.6467 186.96 72.8 187.44 72.8H188.82C188.953 72.8 189.066 72.8467 189.16 72.94C189.253 73.0333 189.3 73.1467 189.3 73.28V74.52C189.3 74.6533 189.253 74.7667 189.16 74.86C189.066 74.9533 188.953 75 188.82 75H187.2ZM195.554 75.2C194.074 75.2 192.901 74.7733 192.034 73.92C191.167 73.0667 190.701 71.8533 190.634 70.28C190.621 70.1467 190.614 69.98 190.614 69.78C190.614 69.5667 190.621 69.4 190.634 69.28C190.687 68.28 190.914 67.4133 191.314 66.68C191.727 65.9467 192.294 65.3867 193.014 65C193.734 64.6 194.581 64.4 195.554 64.4C196.634 64.4 197.541 64.6267 198.274 65.08C199.007 65.52 199.561 66.14 199.934 66.94C200.307 67.7267 200.494 68.64 200.494 69.68V70.1C200.494 70.2333 200.447 70.3467 200.354 70.44C200.261 70.5333 200.141 70.58 199.994 70.58H193.354C193.354 70.58 193.354 70.6 193.354 70.64C193.354 70.68 193.354 70.7133 193.354 70.74C193.367 71.2067 193.454 71.64 193.614 72.04C193.787 72.4267 194.034 72.74 194.354 72.98C194.687 73.22 195.081 73.34 195.534 73.34C195.907 73.34 196.221 73.2867 196.474 73.18C196.727 73.06 196.934 72.9267 197.094 72.78C197.254 72.6333 197.367 72.5133 197.434 72.42C197.554 72.26 197.647 72.1667 197.714 72.14C197.794 72.1 197.907 72.08 198.054 72.08H199.774C199.907 72.08 200.014 72.12 200.094 72.2C200.187 72.28 200.227 72.38 200.214 72.5C200.201 72.7133 200.087 72.9733 199.874 73.28C199.674 73.5867 199.381 73.8867 198.994 74.18C198.607 74.4733 198.121 74.72 197.534 74.92C196.961 75.1067 196.301 75.2 195.554 75.2ZM193.354 68.9H197.774V68.84C197.774 68.32 197.687 67.8667 197.514 67.48C197.341 67.0933 197.087 66.7867 196.754 66.56C196.421 66.3333 196.021 66.22 195.554 66.22C195.087 66.22 194.687 66.3333 194.354 66.56C194.021 66.7867 193.767 67.0933 193.594 67.48C193.434 67.8667 193.354 68.32 193.354 68.84V68.9ZM205.637 75.2C204.944 75.2 204.317 75.0667 203.757 74.8C203.197 74.52 202.75 74.1533 202.417 73.7C202.097 73.2333 201.937 72.7133 201.937 72.14C201.937 71.2067 202.31 70.4667 203.057 69.92C203.817 69.36 204.817 68.9867 206.057 68.8L208.797 68.4V67.98C208.797 67.42 208.657 66.9867 208.377 66.68C208.097 66.3733 207.617 66.22 206.937 66.22C206.457 66.22 206.064 66.32 205.757 66.52C205.464 66.7067 205.244 66.96 205.097 67.28C204.99 67.4533 204.837 67.54 204.637 67.54H203.057C202.91 67.54 202.797 67.5 202.717 67.42C202.65 67.34 202.617 67.2333 202.617 67.1C202.63 66.8867 202.717 66.6267 202.877 66.32C203.037 66.0133 203.29 65.72 203.637 65.44C203.984 65.1467 204.43 64.9 204.977 64.7C205.524 64.5 206.184 64.4 206.957 64.4C207.797 64.4 208.504 64.5067 209.077 64.72C209.664 64.92 210.13 65.1933 210.477 65.54C210.824 65.8867 211.077 66.2933 211.237 66.76C211.397 67.2267 211.477 67.72 211.477 68.24V74.52C211.477 74.6533 211.43 74.7667 211.337 74.86C211.244 74.9533 211.13 75 210.997 75H209.377C209.23 75 209.11 74.9533 209.017 74.86C208.937 74.7667 208.897 74.6533 208.897 74.52V73.74C208.724 73.9933 208.49 74.2333 208.197 74.46C207.904 74.6733 207.544 74.8533 207.117 75C206.704 75.1333 206.21 75.2 205.637 75.2ZM206.317 73.3C206.784 73.3 207.204 73.2 207.577 73C207.964 72.8 208.264 72.4933 208.477 72.08C208.704 71.6533 208.817 71.12 208.817 70.48V70.06L206.817 70.38C206.03 70.5 205.444 70.6933 205.057 70.96C204.67 71.2267 204.477 71.5533 204.477 71.94C204.477 72.2333 204.564 72.4867 204.737 72.7C204.924 72.9 205.157 73.0533 205.437 73.16C205.717 73.2533 206.01 73.3 206.317 73.3ZM214.523 75C214.389 75 214.276 74.9533 214.183 74.86C214.089 74.7667 214.043 74.6533 214.043 74.52V65.08C214.043 64.9467 214.089 64.8333 214.183 64.74C214.276 64.6467 214.389 64.6 214.523 64.6H216.083C216.216 64.6 216.329 64.6467 216.423 64.74C216.516 64.8333 216.563 64.9467 216.563 65.08V65.76C216.843 65.3867 217.216 65.0733 217.683 64.82C218.163 64.5533 218.729 64.4133 219.383 64.4C220.903 64.3733 221.963 64.9667 222.563 66.18C222.869 65.6467 223.309 65.22 223.883 64.9C224.469 64.5667 225.116 64.4 225.823 64.4C226.516 64.4 227.143 64.56 227.703 64.88C228.276 65.2 228.723 65.6867 229.043 66.34C229.376 66.98 229.543 67.7933 229.543 68.78V74.52C229.543 74.6533 229.496 74.7667 229.403 74.86C229.309 74.9533 229.196 75 229.063 75H227.423C227.289 75 227.176 74.9533 227.083 74.86C226.989 74.7667 226.943 74.6533 226.943 74.52V68.94C226.943 68.34 226.856 67.8667 226.683 67.52C226.509 67.16 226.276 66.9067 225.983 66.76C225.689 66.6133 225.363 66.54 225.003 66.54C224.709 66.54 224.416 66.6133 224.123 66.76C223.829 66.9067 223.589 67.16 223.403 67.52C223.216 67.8667 223.123 68.34 223.123 68.94V74.52C223.123 74.6533 223.076 74.7667 222.983 74.86C222.889 74.9533 222.776 75 222.643 75H221.003C220.856 75 220.736 74.9533 220.643 74.86C220.563 74.7667 220.523 74.6533 220.523 74.52V68.94C220.523 68.34 220.429 67.8667 220.243 67.52C220.056 67.16 219.816 66.9067 219.523 66.76C219.229 66.6133 218.916 66.54 218.583 66.54C218.276 66.54 217.976 66.62 217.683 66.78C217.389 66.9267 217.149 67.1733 216.963 67.52C216.776 67.8667 216.683 68.34 216.683 68.94V74.52C216.683 74.6533 216.636 74.7667 216.543 74.86C216.449 74.9533 216.336 75 216.203 75H214.523Z" fill="#02314E"/>
<path d="M128.46 95.2812C128.46 95.0488 128.424 94.8438 128.351 94.666C128.282 94.4837 128.159 94.3197 127.981 94.1738C127.808 94.028 127.567 93.889 127.257 93.7568C126.951 93.6247 126.564 93.4902 126.095 93.3535C125.603 93.2077 125.158 93.0459 124.762 92.8682C124.365 92.6859 124.026 92.4785 123.743 92.2461C123.461 92.0137 123.244 91.7471 123.094 91.4463C122.943 91.1455 122.868 90.8014 122.868 90.4141C122.868 90.0267 122.948 89.6689 123.107 89.3408C123.267 89.0127 123.495 88.7279 123.791 88.4863C124.092 88.2402 124.45 88.0488 124.864 87.9121C125.279 87.7754 125.742 87.707 126.252 87.707C126.999 87.707 127.633 87.8506 128.152 88.1377C128.676 88.4202 129.075 88.7917 129.349 89.252C129.622 89.7077 129.759 90.1953 129.759 90.7148H128.446C128.446 90.3411 128.367 90.0107 128.207 89.7236C128.048 89.432 127.806 89.2041 127.482 89.04C127.159 88.8714 126.749 88.7871 126.252 88.7871C125.783 88.7871 125.395 88.8577 125.09 88.999C124.785 89.1403 124.557 89.3317 124.406 89.5732C124.26 89.8148 124.188 90.0905 124.188 90.4004C124.188 90.61 124.231 90.8014 124.317 90.9746C124.409 91.1432 124.548 91.3005 124.734 91.4463C124.926 91.5921 125.167 91.7266 125.459 91.8496C125.755 91.9727 126.108 92.0911 126.519 92.2051C127.084 92.3646 127.571 92.5423 127.981 92.7383C128.392 92.9342 128.729 93.1553 128.993 93.4014C129.262 93.6429 129.46 93.9186 129.588 94.2285C129.72 94.5339 129.786 94.8802 129.786 95.2676C129.786 95.6732 129.704 96.04 129.54 96.3682C129.376 96.6963 129.141 96.9766 128.836 97.209C128.531 97.4414 128.164 97.6214 127.735 97.749C127.312 97.8721 126.838 97.9336 126.313 97.9336C125.853 97.9336 125.4 97.8698 124.953 97.7422C124.511 97.6146 124.108 97.4232 123.743 97.168C123.383 96.9128 123.094 96.5983 122.875 96.2246C122.661 95.8464 122.554 95.4089 122.554 94.9121H123.866C123.866 95.2539 123.932 95.5479 124.064 95.7939C124.197 96.0355 124.377 96.236 124.604 96.3955C124.837 96.555 125.099 96.6735 125.391 96.751C125.687 96.8239 125.994 96.8604 126.313 96.8604C126.774 96.8604 127.163 96.7965 127.482 96.6689C127.801 96.5413 128.043 96.359 128.207 96.1221C128.376 95.8851 128.46 95.6048 128.46 95.2812ZM134.373 90.4004V91.3711H130.374V90.4004H134.373ZM131.728 88.6025H132.992V95.9648C132.992 96.2155 133.031 96.4046 133.108 96.5322C133.186 96.6598 133.286 96.7441 133.409 96.7852C133.532 96.8262 133.664 96.8467 133.806 96.8467C133.91 96.8467 134.02 96.8376 134.134 96.8193C134.252 96.7965 134.341 96.7783 134.4 96.7646L134.407 97.7969C134.307 97.8288 134.175 97.8584 134.011 97.8857C133.851 97.9176 133.658 97.9336 133.43 97.9336C133.12 97.9336 132.835 97.8721 132.575 97.749C132.315 97.626 132.108 97.4209 131.953 97.1338C131.803 96.8421 131.728 96.4502 131.728 95.958V88.6025ZM137.121 91.5625V97.7969H135.856V90.4004H137.087L137.121 91.5625ZM139.432 90.3594L139.425 91.5352C139.32 91.5124 139.22 91.4987 139.124 91.4941C139.033 91.485 138.928 91.4805 138.81 91.4805C138.518 91.4805 138.26 91.526 138.037 91.6172C137.814 91.7083 137.625 91.8359 137.47 92C137.315 92.1641 137.192 92.36 137.101 92.5879C137.014 92.8112 136.957 93.0573 136.93 93.3262L136.574 93.5312C136.574 93.0846 136.618 92.6654 136.704 92.2734C136.795 91.8815 136.934 91.5352 137.121 91.2344C137.308 90.929 137.545 90.6921 137.832 90.5234C138.124 90.3503 138.47 90.2637 138.871 90.2637C138.962 90.2637 139.067 90.2751 139.186 90.2979C139.304 90.3161 139.386 90.3366 139.432 90.3594ZM144.688 96.5322V92.7246C144.688 92.4329 144.629 92.18 144.511 91.9658C144.397 91.7471 144.224 91.5785 143.991 91.46C143.759 91.3415 143.472 91.2822 143.13 91.2822C142.811 91.2822 142.531 91.3369 142.289 91.4463C142.052 91.5557 141.865 91.6992 141.729 91.877C141.596 92.0547 141.53 92.2461 141.53 92.4512H140.266C140.266 92.1868 140.334 91.9248 140.471 91.665C140.607 91.4053 140.803 91.1706 141.059 90.9609C141.318 90.7467 141.628 90.5781 141.988 90.4551C142.353 90.3275 142.758 90.2637 143.205 90.2637C143.743 90.2637 144.217 90.3548 144.627 90.5371C145.042 90.7194 145.365 90.9951 145.598 91.3643C145.835 91.7288 145.953 92.1868 145.953 92.7383V96.1836C145.953 96.4297 145.974 96.6917 146.015 96.9697C146.06 97.2477 146.126 97.487 146.213 97.6875V97.7969H144.894C144.83 97.651 144.78 97.4574 144.743 97.2158C144.707 96.9697 144.688 96.7419 144.688 96.5322ZM144.907 93.3125L144.921 94.2012H143.643C143.283 94.2012 142.961 94.2308 142.679 94.29C142.396 94.3447 142.159 94.429 141.968 94.543C141.776 94.6569 141.631 94.8005 141.53 94.9736C141.43 95.1423 141.38 95.3405 141.38 95.5684C141.38 95.8008 141.432 96.0127 141.537 96.2041C141.642 96.3955 141.799 96.5482 142.009 96.6621C142.223 96.7715 142.485 96.8262 142.795 96.8262C143.182 96.8262 143.524 96.7441 143.82 96.5801C144.117 96.416 144.351 96.2155 144.524 95.9785C144.702 95.7415 144.798 95.5114 144.812 95.2881L145.352 95.8965C145.32 96.0879 145.233 96.2998 145.092 96.5322C144.951 96.7646 144.761 96.988 144.524 97.2021C144.292 97.4118 144.014 97.5872 143.69 97.7285C143.371 97.8652 143.011 97.9336 142.61 97.9336C142.109 97.9336 141.669 97.8356 141.291 97.6396C140.917 97.4437 140.626 97.1816 140.416 96.8535C140.211 96.5208 140.108 96.1494 140.108 95.7393C140.108 95.3428 140.186 94.9941 140.341 94.6934C140.496 94.388 140.719 94.1351 141.011 93.9346C141.302 93.7295 141.653 93.5745 142.063 93.4697C142.474 93.3649 142.932 93.3125 143.438 93.3125H144.907ZM151.039 90.4004V91.3711H147.04V90.4004H151.039ZM148.394 88.6025H149.658V95.9648C149.658 96.2155 149.697 96.4046 149.774 96.5322C149.852 96.6598 149.952 96.7441 150.075 96.7852C150.198 96.8262 150.33 96.8467 150.472 96.8467C150.576 96.8467 150.686 96.8376 150.8 96.8193C150.918 96.7965 151.007 96.7783 151.066 96.7646L151.073 97.7969C150.973 97.8288 150.841 97.8584 150.677 97.8857C150.517 97.9176 150.324 97.9336 150.096 97.9336C149.786 97.9336 149.501 97.8721 149.241 97.749C148.981 97.626 148.774 97.4209 148.619 97.1338C148.469 96.8421 148.394 96.4502 148.394 95.958V88.6025ZM155.592 97.9336C155.077 97.9336 154.61 97.847 154.19 97.6738C153.776 97.4961 153.418 97.2477 153.117 96.9287C152.821 96.6097 152.593 96.2314 152.434 95.7939C152.274 95.3564 152.194 94.8779 152.194 94.3584V94.0713C152.194 93.4697 152.283 92.9342 152.461 92.4648C152.639 91.9909 152.88 91.5898 153.186 91.2617C153.491 90.9336 153.837 90.6852 154.225 90.5166C154.612 90.348 155.013 90.2637 155.428 90.2637C155.956 90.2637 156.412 90.3548 156.795 90.5371C157.182 90.7194 157.499 90.9746 157.745 91.3027C157.991 91.6263 158.174 92.0091 158.292 92.4512C158.41 92.8887 158.47 93.3672 158.47 93.8867V94.4541H152.946V93.4219H157.205V93.3262C157.187 92.998 157.118 92.679 157 92.3691C156.886 92.0592 156.704 91.804 156.453 91.6035C156.202 91.403 155.861 91.3027 155.428 91.3027C155.141 91.3027 154.876 91.3643 154.635 91.4873C154.393 91.6058 154.186 91.7835 154.013 92.0205C153.84 92.2575 153.705 92.5469 153.609 92.8887C153.514 93.2305 153.466 93.6247 153.466 94.0713V94.3584C153.466 94.7093 153.514 95.0397 153.609 95.3496C153.71 95.6549 153.853 95.9238 154.04 96.1562C154.231 96.3887 154.462 96.571 154.73 96.7031C155.004 96.8353 155.314 96.9014 155.66 96.9014C156.107 96.9014 156.485 96.8102 156.795 96.6279C157.105 96.4456 157.376 96.2018 157.608 95.8965L158.374 96.5049C158.215 96.7464 158.012 96.9766 157.766 97.1953C157.52 97.4141 157.216 97.5918 156.856 97.7285C156.501 97.8652 156.079 97.9336 155.592 97.9336ZM164.738 90.4004H165.887V97.6396C165.887 98.2913 165.755 98.8473 165.49 99.3076C165.226 99.7679 164.857 100.117 164.383 100.354C163.913 100.595 163.371 100.716 162.756 100.716C162.501 100.716 162.2 100.675 161.854 100.593C161.512 100.515 161.174 100.381 160.842 100.189C160.514 100.003 160.238 99.7497 160.015 99.4307L160.678 98.6787C160.988 99.0524 161.311 99.3122 161.648 99.458C161.99 99.6038 162.327 99.6768 162.66 99.6768C163.061 99.6768 163.408 99.6016 163.699 99.4512C163.991 99.3008 164.216 99.0775 164.376 98.7812C164.54 98.4896 164.622 98.1296 164.622 97.7012V92.0273L164.738 90.4004ZM159.646 94.1807V94.0371C159.646 93.472 159.712 92.9593 159.844 92.499C159.98 92.0342 160.174 91.6354 160.425 91.3027C160.68 90.9701 160.988 90.7148 161.348 90.5371C161.708 90.3548 162.113 90.2637 162.564 90.2637C163.029 90.2637 163.435 90.3457 163.781 90.5098C164.132 90.6693 164.428 90.904 164.67 91.2139C164.916 91.5192 165.11 91.8883 165.251 92.3213C165.392 92.7542 165.49 93.2441 165.545 93.791V94.4199C165.495 94.9622 165.397 95.4499 165.251 95.8828C165.11 96.3158 164.916 96.6849 164.67 96.9902C164.428 97.2956 164.132 97.5303 163.781 97.6943C163.43 97.8538 163.02 97.9336 162.551 97.9336C162.109 97.9336 161.708 97.8402 161.348 97.6533C160.992 97.4665 160.687 97.2044 160.432 96.8672C160.176 96.5299 159.98 96.1335 159.844 95.6777C159.712 95.2174 159.646 94.7184 159.646 94.1807ZM160.91 94.0371V94.1807C160.91 94.5498 160.947 94.8962 161.02 95.2197C161.097 95.5433 161.213 95.8281 161.368 96.0742C161.528 96.3203 161.73 96.514 161.977 96.6553C162.223 96.792 162.517 96.8604 162.858 96.8604C163.278 96.8604 163.624 96.7715 163.897 96.5938C164.171 96.416 164.387 96.1813 164.547 95.8896C164.711 95.598 164.839 95.2812 164.93 94.9395V93.292C164.88 93.0413 164.802 92.7998 164.697 92.5674C164.597 92.3304 164.465 92.1208 164.301 91.9385C164.141 91.7516 163.943 91.6035 163.706 91.4941C163.469 91.3848 163.191 91.3301 162.872 91.3301C162.526 91.3301 162.227 91.403 161.977 91.5488C161.73 91.6901 161.528 91.8861 161.368 92.1367C161.213 92.3828 161.097 92.6699 161.02 92.998C160.947 93.3216 160.91 93.668 160.91 94.0371ZM169.886 97.0312L171.943 90.4004H173.297L170.33 98.9385C170.262 99.1208 170.171 99.3167 170.057 99.5264C169.947 99.7406 169.806 99.9434 169.633 100.135C169.46 100.326 169.25 100.481 169.004 100.6C168.762 100.723 168.473 100.784 168.136 100.784C168.035 100.784 167.908 100.771 167.753 100.743C167.598 100.716 167.489 100.693 167.425 100.675L167.418 99.6494C167.454 99.654 167.511 99.6585 167.589 99.6631C167.671 99.6722 167.728 99.6768 167.76 99.6768C168.047 99.6768 168.291 99.638 168.491 99.5605C168.692 99.4876 168.86 99.3623 168.997 99.1846C169.138 99.0114 169.259 98.7721 169.359 98.4668L169.886 97.0312ZM168.375 90.4004L170.296 96.1426L170.624 97.4756L169.715 97.9404L166.994 90.4004H168.375ZM179.784 96.4844L181.685 90.4004H182.519L182.354 91.6104L180.42 97.7969H179.606L179.784 96.4844ZM178.506 90.4004L180.126 96.5527L180.242 97.7969H179.388L177.241 90.4004H178.506ZM184.337 96.5049L185.882 90.4004H187.14L184.993 97.7969H184.146L184.337 96.5049ZM182.703 90.4004L184.562 96.3818L184.774 97.7969H183.968L181.979 91.5967L181.814 90.4004H182.703ZM189.812 90.4004V97.7969H188.541V90.4004H189.812ZM188.445 88.4385C188.445 88.2334 188.507 88.0602 188.63 87.9189C188.757 87.7777 188.944 87.707 189.19 87.707C189.432 87.707 189.617 87.7777 189.744 87.9189C189.876 88.0602 189.942 88.2334 189.942 88.4385C189.942 88.6344 189.876 88.8031 189.744 88.9443C189.617 89.0811 189.432 89.1494 189.19 89.1494C188.944 89.1494 188.757 89.0811 188.63 88.9443C188.507 88.8031 188.445 88.6344 188.445 88.4385ZM194.939 90.4004V91.3711H190.94V90.4004H194.939ZM192.294 88.6025H193.559V95.9648C193.559 96.2155 193.597 96.4046 193.675 96.5322C193.752 96.6598 193.853 96.7441 193.976 96.7852C194.099 96.8262 194.231 96.8467 194.372 96.8467C194.477 96.8467 194.586 96.8376 194.7 96.8193C194.819 96.7965 194.908 96.7783 194.967 96.7646L194.974 97.7969C194.873 97.8288 194.741 97.8584 194.577 97.8857C194.418 97.9176 194.224 97.9336 193.996 97.9336C193.686 97.9336 193.401 97.8721 193.142 97.749C192.882 97.626 192.674 97.4209 192.52 97.1338C192.369 96.8421 192.294 96.4502 192.294 95.958V88.6025ZM197.688 87.2969V97.7969H196.423V87.2969H197.688ZM197.387 93.8184L196.86 93.7979C196.865 93.292 196.94 92.8249 197.086 92.3965C197.232 91.9635 197.437 91.5876 197.701 91.2686C197.965 90.9495 198.28 90.7035 198.645 90.5303C199.014 90.3525 199.422 90.2637 199.868 90.2637C200.233 90.2637 200.561 90.3138 200.853 90.4141C201.144 90.5098 201.393 90.6647 201.598 90.8789C201.807 91.0931 201.967 91.3711 202.076 91.7129C202.186 92.0501 202.24 92.4626 202.24 92.9502V97.7969H200.969V92.9365C200.969 92.5492 200.912 92.2393 200.798 92.0068C200.684 91.7699 200.518 91.599 200.299 91.4941C200.08 91.3848 199.811 91.3301 199.492 91.3301C199.178 91.3301 198.891 91.3962 198.631 91.5283C198.376 91.6605 198.155 91.8428 197.968 92.0752C197.785 92.3076 197.642 92.5742 197.537 92.875C197.437 93.1712 197.387 93.4857 197.387 93.8184ZM211.482 88.7256L208.188 97.7969H206.841L210.635 87.8438H211.503L211.482 88.7256ZM214.244 97.7969L210.942 88.7256L210.922 87.8438H211.79L215.598 97.7969H214.244ZM214.073 94.1123V95.1924H208.481V94.1123H214.073ZM218.346 87.8438V97.7969H217.026V87.8438H218.346Z" fill="#8B8A99"/>
</g>
<defs>
<filter id="filter0_d_403_70" x="0" y="0" width="304" height="174.797" filterUnits="userSpaceOnUse" color-interpolation-filters="sRGB">
<feFlood flood-opacity="0" result="BackgroundImageFix"/>
<feColorMatrix in="SourceAlpha" type="matrix" values="0 0 0 0 0 0 0 0 0 0 0 0 0 0 0 0 0 0 127 0" result="hardAlpha"/>
<feOffset dy="10"/>
<feGaussianBlur stdDeviation="23"/>
<feComposite in2="hardAlpha" operator="out"/>
<feColorMatrix type="matrix" values="0 0 0 0 0.823529 0 0 0 0 0.815686 0 0 0 0 1 0 0 0 0.4 0"/>
<feBlend mode="normal" in2="BackgroundImageFix" result="effect1_dropShadow_403_70"/>
<feBlend mode="normal" in="SourceGraphic" in2="effect1_dropShadow_403_70" result="shape"/>
</filter>
</defs>
</svg>
