<svg width="61" height="26" viewBox="0 0 61 26" fill="none" xmlns="http://www.w3.org/2000/svg">
<rect x="0.211914" y="0.469238" width="60.2919" height="24.6782" rx="12.3391" fill="#500AD2"/>
<rect x="0.211914" y="0.469238" width="60.2919" height="24.6782" rx="12.3391" fill="url(#paint0_linear_115_1951)"/>
<path d="M17.4866 12.4033H14.8247L14.8102 11.2852H17.2269C17.626 11.2852 17.9747 11.2179 18.2729 11.0832C18.571 10.9486 18.8019 10.7562 18.9654 10.5061C19.1337 10.2512 19.2179 9.94823 19.2179 9.59716C19.2179 9.21242 19.1433 8.89982 18.9943 8.65936C18.85 8.41409 18.6264 8.23615 18.3234 8.12553C18.0252 8.01011 17.6453 7.9524 17.1836 7.9524H15.1349V17.316H13.7426V6.81261H17.1836C17.7222 6.81261 18.2031 6.86792 18.6264 6.97853C19.0496 7.08433 19.4079 7.25266 19.7012 7.4835C19.9994 7.70953 20.2254 7.99809 20.3793 8.34916C20.5332 8.70024 20.6102 9.12104 20.6102 9.61159C20.6102 10.0444 20.4996 10.4364 20.2783 10.7874C20.0571 11.1337 19.7493 11.4175 19.355 11.6387C18.9654 11.8599 18.5085 12.0018 17.9843 12.0643L17.4866 12.4033ZM17.4216 17.316H14.2764L15.0627 16.1834H17.4216C17.8641 16.1834 18.2392 16.1065 18.547 15.9526C18.8596 15.7987 19.0977 15.5823 19.2612 15.3033C19.4247 15.0196 19.5064 14.6853 19.5064 14.3006C19.5064 13.911 19.4367 13.5744 19.2972 13.2907C19.1578 13.0069 18.939 12.7881 18.6408 12.6342C18.3426 12.4803 17.9579 12.4033 17.4866 12.4033H15.5028L15.5172 11.2852H18.2296L18.5254 11.6892C19.0303 11.7325 19.4584 11.8767 19.8094 12.122C20.1605 12.3625 20.4274 12.6703 20.6102 13.0454C20.7977 13.4205 20.8915 13.8341 20.8915 14.2862C20.8915 14.9402 20.7472 15.4933 20.4587 15.9453C20.1749 16.3926 19.7734 16.7341 19.254 16.9697C18.7346 17.2006 18.1238 17.316 17.4216 17.316ZM29.6203 16.1834V17.316H24.0584V16.1834H29.6203ZM24.3397 6.81261V17.316H22.9475V6.81261H24.3397ZM28.8845 11.3285V12.4611H24.0584V11.3285H28.8845ZM29.5481 6.81261V7.9524H24.0584V6.81261H29.5481ZM35.3697 6.81261V17.316H33.9991V6.81261H35.3697ZM38.7458 6.81261V7.9524H30.6302V6.81261H38.7458ZM43.6151 7.7432L40.1381 17.316H38.7169L42.7206 6.81261H43.6368L43.6151 7.7432ZM46.5295 17.316L43.0452 7.7432L43.0236 6.81261H43.9398L47.9579 17.316H46.5295ZM46.3492 13.4277V14.5675H40.4483V13.4277H46.3492Z" fill="white"/>
<defs>
<linearGradient id="paint0_linear_115_1951" x1="0.211914" y1="0.469238" x2="17.5151" y2="42.7432" gradientUnits="userSpaceOnUse">
<stop stop-color="#4300A3"/>
<stop offset="0.0909091" stop-color="#4D00AA"/>
<stop offset="0.181818" stop-color="#5700B1"/>
<stop offset="0.272727" stop-color="#6000B7"/>
<stop offset="0.363636" stop-color="#6A00BE"/>
<stop offset="0.454545" stop-color="#7200C5"/>
<stop offset="0.545455" stop-color="#7B00CB"/>
<stop offset="0.636364" stop-color="#8300D2"/>
<stop offset="0.727273" stop-color="#8C00DA"/>
<stop offset="0.818182" stop-color="#9500E2"/>
<stop offset="0.909091" stop-color="#9E00E9"/>
<stop offset="1" stop-color="#A700F1"/>
</linearGradient>
</defs>
</svg>
