<svg width="33" height="34" viewBox="0 0 33 34" fill="none" xmlns="http://www.w3.org/2000/svg">
<g clip-path="url(#clip0_115_2015)">
<path d="M16.4566 0H15.8582C7.09993 0 0 7.44666 0 16.6326C0 25.8185 7.09993 33.2652 15.8582 33.2652H16.4566C25.2148 33.2652 32.3147 25.8185 32.3147 16.6326C32.3147 7.44666 25.2148 0 16.4566 0Z" fill="#F9FBFE"/>
<path d="M23.1573 7.37146H9.70546C9.19584 7.37146 8.70709 7.5838 8.34673 7.96176C7.98638 8.3397 7.78394 8.85232 7.78394 9.38683V23.4957C7.78409 24.0301 7.98661 24.5425 8.34694 24.9204C8.70729 25.2982 9.19595 25.5104 9.70546 25.5104H23.1573C23.6668 25.5102 24.1553 25.2979 24.5155 24.9201C24.8757 24.5423 25.0781 24.0299 25.0783 23.4957V9.38683C25.0783 8.85243 24.8759 8.33991 24.5157 7.96197C24.1555 7.58403 23.6669 7.37163 23.1573 7.37146ZM24.1208 23.4957C24.1212 23.6284 24.0964 23.76 24.0482 23.8828C23.9998 24.0055 23.9289 24.1171 23.8394 24.211C23.7498 24.3049 23.6435 24.3793 23.5265 24.4299C23.4094 24.4806 23.284 24.5064 23.1573 24.5062H9.70546C9.5791 24.5061 9.454 24.4798 9.3373 24.429C9.22062 24.3781 9.11464 24.3036 9.02543 24.2098C8.93621 24.1159 8.86553 24.0045 8.81741 23.882C8.76929 23.7595 8.74468 23.6282 8.74499 23.4957V12.4102H24.1208V23.4957ZM8.74499 11.4022V9.38683C8.74516 9.11971 8.8464 8.86357 9.02648 8.67469C9.20657 8.48581 9.45078 8.37962 9.70546 8.37946H23.1573C23.2837 8.37913 23.4089 8.40494 23.5257 8.45541C23.6426 8.50588 23.7488 8.58002 23.8383 8.67358C23.9277 8.76715 23.9987 8.87832 24.0473 9.0007C24.0958 9.12309 24.1208 9.2543 24.1208 9.38683V11.4022H8.74499Z" fill="#F5222D"/>
<path d="M9.74794 10.0378C9.91319 10.0378 10.0471 9.89729 10.0471 9.72393C10.0471 9.55067 9.91319 9.41016 9.74794 9.41016C9.58268 9.41016 9.44873 9.55067 9.44873 9.72393C9.44873 9.89729 9.58268 10.0378 9.74794 10.0378Z" fill="#F5222D"/>
<path d="M10.9457 10.0378C11.111 10.0378 11.2449 9.89729 11.2449 9.72393C11.2449 9.55067 11.111 9.41016 10.9457 9.41016C10.7804 9.41016 10.6465 9.55067 10.6465 9.72393C10.6465 9.89729 10.7804 10.0378 10.9457 10.0378Z" fill="#F5222D"/>
<path d="M12.1432 10.0378C12.3085 10.0378 12.4425 9.89729 12.4425 9.72393C12.4425 9.55067 12.3085 9.41016 12.1432 9.41016C11.978 9.41016 11.844 9.55067 11.844 9.72393C11.844 9.89729 11.978 10.0378 12.1432 10.0378Z" fill="#F5222D"/>
<path d="M17.8695 15.4352H22.6736C22.8011 15.4352 22.9233 15.3822 23.0134 15.2876C23.1035 15.1932 23.1541 15.065 23.1541 14.9313C23.1541 14.7976 23.1035 14.6694 23.0134 14.5749C22.9233 14.4803 22.8011 14.4273 22.6736 14.4273H17.8695C17.742 14.4273 17.6198 14.4803 17.5297 14.5749C17.4396 14.6694 17.3889 14.7976 17.3889 14.9313C17.3889 15.065 17.4396 15.1932 17.5297 15.2876C17.6198 15.3822 17.742 15.4352 17.8695 15.4352Z" fill="#F5222D"/>
<path d="M17.8695 17.4498H22.6736C22.8011 17.4498 22.9233 17.3967 23.0134 17.3022C23.1035 17.2076 23.1541 17.0794 23.1541 16.9458C23.1541 16.8122 23.1035 16.6839 23.0134 16.5894C22.9233 16.4949 22.8011 16.4418 22.6736 16.4418H17.8695C17.742 16.4418 17.6198 16.4949 17.5297 16.5894C17.4396 16.6839 17.3889 16.8122 17.3889 16.9458C17.3889 17.0794 17.4396 17.2076 17.5297 17.3022C17.6198 17.3967 17.742 17.4498 17.8695 17.4498Z" fill="#F5222D"/>
<path d="M17.8695 19.4659H22.6736C22.8011 19.4659 22.9233 19.4128 23.0134 19.3183C23.1035 19.2238 23.1541 19.0956 23.1541 18.962C23.1541 18.8282 23.1035 18.7 23.0134 18.6055C22.9233 18.511 22.8011 18.4579 22.6736 18.4579H17.8695C17.742 18.4579 17.6198 18.511 17.5297 18.6055C17.4396 18.7 17.3889 18.8282 17.3889 18.962C17.3889 19.0956 17.4396 19.2238 17.5297 19.3183C17.6198 19.4128 17.742 19.4659 17.8695 19.4659Z" fill="#F5222D"/>
<path d="M10.1837 21.4803H22.6763C22.8037 21.4803 22.9259 21.4272 23.0161 21.3327C23.1062 21.2383 23.1568 21.1101 23.1568 20.9763C23.1568 20.8427 23.1062 20.7145 23.0161 20.62C22.9259 20.5254 22.8037 20.4724 22.6763 20.4724H10.1837C10.0562 20.4724 9.93399 20.5254 9.84387 20.62C9.75376 20.7145 9.70312 20.8427 9.70312 20.9763C9.70312 21.1101 9.75376 21.2383 9.84387 21.3327C9.93399 21.4272 10.0562 21.4803 10.1837 21.4803Z" fill="#F5222D"/>
<path d="M10.1837 23.4966H22.6763C22.8037 23.4966 22.9259 23.4435 23.0161 23.349C23.1062 23.2544 23.1568 23.1262 23.1568 22.9926C23.1568 22.859 23.1062 22.7308 23.0161 22.6362C22.9259 22.5417 22.8037 22.4886 22.6763 22.4886H10.1837C10.0562 22.4886 9.93399 22.5417 9.84387 22.6362C9.75376 22.7308 9.70312 22.859 9.70312 22.9926C9.70312 23.1262 9.75376 23.2544 9.84387 23.349C9.93399 23.4435 10.0562 23.4966 10.1837 23.4966Z" fill="#F5222D"/>
<path d="M10.6659 19.465H15.47C15.7249 19.465 15.9693 19.3588 16.1496 19.1698C16.3298 18.9807 16.431 18.7244 16.431 18.4571V14.4263C16.431 14.159 16.3298 13.9026 16.1496 13.7135C15.9693 13.5245 15.7249 13.4183 15.47 13.4183H10.6659C10.411 13.4183 10.1666 13.5245 9.98635 13.7135C9.80608 13.9026 9.70483 14.159 9.70483 14.4263V18.4571C9.70483 18.7244 9.80608 18.9807 9.98635 19.1698C10.1666 19.3588 10.411 19.465 10.6659 19.465ZM10.6659 14.9303C10.6659 14.7971 10.7164 14.6694 10.8061 14.5753C10.8959 14.4811 11.0177 14.4282 11.1446 14.4282H14.9877C15.1147 14.4282 15.2364 14.4811 15.3262 14.5753C15.416 14.6694 15.4665 14.7971 15.4665 14.9303V17.9537C15.4665 18.0869 15.416 18.2145 15.3262 18.3087C15.2364 18.4029 15.1147 18.4558 14.9877 18.4558H11.1458C11.0189 18.4558 10.8971 18.4029 10.8073 18.3087C10.7175 18.2145 10.6671 18.0869 10.6671 17.9537L10.6659 14.9303Z" fill="#F5222D"/>
<path fill-rule="evenodd" clip-rule="evenodd" d="M32.4711 13.3024H0.790853C0.582833 14.3772 0.473633 15.4897 0.473633 16.6289C0.473633 17.7681 0.582833 18.8806 0.790853 19.9554H32.4711C32.6791 18.8806 32.7884 17.7681 32.7884 16.6289C32.7884 15.4897 32.6791 14.3772 32.4711 13.3024Z" fill="#F5222D"/>
<path d="M10.9573 17.5823C10.9573 17.9149 10.7378 18.0879 10.3585 18.0879H9.52024V17.0567H10.3452C10.7245 17.0567 10.9573 17.2496 10.9573 17.5823ZM10.8442 15.7394C10.8442 16.0587 10.638 16.225 10.2654 16.225H9.52024V15.247H10.2654C10.638 15.247 10.8442 15.42 10.8442 15.7394ZM12.1083 17.7353C12.1083 17.203 11.7557 16.724 11.2101 16.6109C11.6625 16.4778 12.0018 16.1119 12.0018 15.5464C12.0018 14.8079 11.4363 14.3356 10.4849 14.3356H8.38257V19.006H10.5581C11.5428 19.006 12.1083 18.507 12.1083 17.7353ZM15.7952 14.3356H12.9344V19.006H15.7952V18.0945H14.0721V17.07H15.5956V16.1918H14.0721V15.247H15.7952V14.3356ZM16.4473 15.247H17.6848V19.006H18.8224V15.247H20.0599V14.3356H16.4473V15.247ZM23.984 19.006H25.1882L23.4984 14.3356H22.1811L20.4912 19.006H21.6821L21.9615 18.181H23.7046L23.984 19.006ZM23.4119 17.3028H22.2609L22.8331 15.593L23.4119 17.3028Z" fill="white"/>
</g>
<defs>
<clipPath id="clip0_115_2015">
<rect width="32.3147" height="33.2652" fill="white" transform="translate(0.474121 -0.00183105)"/>
</clipPath>
</defs>
</svg>
