<svg width="34" height="33" viewBox="0 0 34 33" fill="none" xmlns="http://www.w3.org/2000/svg">
<g clip-path="url(#clip0_115_2060)">
<path d="M16.9389 0.309631H16.3229C7.30705 0.309631 -0.00170898 7.61839 -0.00170898 16.6342C-0.00170898 25.65 7.30705 32.9588 16.3229 32.9588H16.9389C25.9547 32.9588 33.2634 25.65 33.2634 16.6342C33.2634 7.61839 25.9547 0.309631 16.9389 0.309631Z" fill="#F9FBFE"/>
<path d="M23.3502 7.54865H9.5027C8.97809 7.54865 8.47497 7.75705 8.10401 8.128C7.73306 8.49896 7.52466 9.00208 7.52466 9.52669V23.3742C7.52482 23.8987 7.73329 24.4017 8.10423 24.7725C8.47517 25.1433 8.9782 25.3517 9.5027 25.3517H23.3502C23.8746 25.3515 24.3775 25.1431 24.7483 24.7723C25.1191 24.4015 25.3275 23.8986 25.3277 23.3742V9.52669C25.3277 9.00219 25.1194 8.49916 24.7485 8.12822C24.3777 7.75728 23.8748 7.54881 23.3502 7.54865ZM24.342 23.3742C24.3424 23.5046 24.3169 23.6337 24.2672 23.7542C24.2175 23.8746 24.1444 23.9841 24.0523 24.0763C23.9601 24.1684 23.8507 24.2415 23.7302 24.2912C23.6097 24.3409 23.4806 24.3664 23.3502 24.366H9.5027C9.37263 24.3659 9.24384 24.3402 9.12372 24.2903C9.0036 24.2404 8.8945 24.1673 8.80267 24.0752C8.71083 23.9831 8.63806 23.8737 8.58853 23.7535C8.53899 23.6332 8.51366 23.5043 8.51399 23.3742V12.4941H24.342V23.3742ZM8.51399 11.5047V9.52669C8.51415 9.26452 8.61837 9.01313 8.80376 8.82774C8.98914 8.64236 9.24053 8.53814 9.5027 8.53798H23.3502C23.4803 8.53765 23.6092 8.56298 23.7295 8.61252C23.8497 8.66205 23.9591 8.73482 24.0512 8.82665C24.1433 8.91849 24.2164 9.02759 24.2663 9.14771C24.3162 9.26783 24.342 9.39661 24.342 9.52669V11.5047H8.51399Z" fill="#F5222D"/>
<path d="M9.54776 10.1653C9.71787 10.1653 9.85577 10.0274 9.85577 9.85727C9.85577 9.68716 9.71787 9.54926 9.54776 9.54926C9.37765 9.54926 9.23975 9.68716 9.23975 9.85727C9.23975 10.0274 9.37765 10.1653 9.54776 10.1653Z" fill="#F5222D"/>
<path d="M10.7782 10.1653C10.9483 10.1653 11.0862 10.0274 11.0862 9.85727C11.0862 9.68716 10.9483 9.54926 10.7782 9.54926C10.6081 9.54926 10.4702 9.68716 10.4702 9.85727C10.4702 10.0274 10.6081 10.1653 10.7782 10.1653Z" fill="#F5222D"/>
<path d="M12.0104 10.1653C12.1805 10.1653 12.3184 10.0274 12.3184 9.85727C12.3184 9.68716 12.1805 9.54926 12.0104 9.54926C11.8403 9.54926 11.7024 9.68716 11.7024 9.85727C11.7024 10.0274 11.8403 10.1653 12.0104 10.1653Z" fill="#F5222D"/>
<path d="M17.9082 15.4622H22.8537C22.9849 15.4622 23.1107 15.4101 23.2034 15.3173C23.2962 15.2246 23.3483 15.0988 23.3483 14.9676C23.3483 14.8364 23.2962 14.7106 23.2034 14.6178C23.1107 14.525 22.9849 14.4729 22.8537 14.4729H17.9082C17.777 14.4729 17.6512 14.525 17.5585 14.6178C17.4657 14.7106 17.4136 14.8364 17.4136 14.9676C17.4136 15.0988 17.4657 15.2246 17.5585 15.3173C17.6512 15.4101 17.777 15.4622 17.9082 15.4622Z" fill="#F5222D"/>
<path d="M17.9082 17.4404H22.8537C22.9849 17.4404 23.1107 17.3883 23.2034 17.2955C23.2962 17.2027 23.3483 17.0769 23.3483 16.9457C23.3483 16.8145 23.2962 16.6887 23.2034 16.5959C23.1107 16.5032 22.9849 16.451 22.8537 16.451H17.9082C17.777 16.451 17.6512 16.5032 17.5585 16.5959C17.4657 16.6887 17.4136 16.8145 17.4136 16.9457C17.4136 17.0769 17.4657 17.2027 17.5585 17.2955C17.6512 17.3883 17.777 17.4404 17.9082 17.4404Z" fill="#F5222D"/>
<path d="M17.9082 19.4185H22.8537C22.9849 19.4185 23.1107 19.3664 23.2034 19.2736C23.2962 19.1809 23.3483 19.0551 23.3483 18.9239C23.3483 18.7927 23.2962 18.6669 23.2034 18.5741C23.1107 18.4813 22.9849 18.4292 22.8537 18.4292H17.9082C17.777 18.4292 17.6512 18.4813 17.5585 18.5741C17.4657 18.6669 17.4136 18.7927 17.4136 18.9239C17.4136 19.0551 17.4657 19.1809 17.5585 19.2736C17.6512 19.3664 17.777 19.4185 17.9082 19.4185Z" fill="#F5222D"/>
<path d="M9.99564 21.3949H22.8557C22.9869 21.3949 23.1127 21.3428 23.2055 21.25C23.2983 21.1573 23.3504 21.0314 23.3504 20.9002C23.3504 20.7691 23.2983 20.6432 23.2055 20.5505C23.1127 20.4577 22.9869 20.4056 22.8557 20.4056H9.99564C9.86445 20.4056 9.73863 20.4577 9.64586 20.5505C9.55309 20.6432 9.50098 20.7691 9.50098 20.9002C9.50098 21.0314 9.55309 21.1573 9.64586 21.25C9.73863 21.3428 9.86445 21.3949 9.99564 21.3949Z" fill="#F5222D"/>
<path d="M9.99564 23.3748H22.8557C22.9869 23.3748 23.1127 23.3227 23.2055 23.2299C23.2983 23.1371 23.3504 23.0113 23.3504 22.8801C23.3504 22.7489 23.2983 22.6231 23.2055 22.5303C23.1127 22.4376 22.9869 22.3854 22.8557 22.3854H9.99564C9.86445 22.3854 9.73863 22.4376 9.64586 22.5303C9.55309 22.6231 9.50098 22.7489 9.50098 22.8801C9.50098 23.0113 9.55309 23.1371 9.64586 23.2299C9.73863 23.3227 9.86445 23.3748 9.99564 23.3748Z" fill="#F5222D"/>
<path d="M10.492 19.4178H15.4374C15.6998 19.4178 15.9515 19.3135 16.137 19.128C16.3225 18.9425 16.4268 18.6908 16.4268 18.4285V14.4724C16.4268 14.21 16.3225 13.9583 16.137 13.7728C15.9515 13.5873 15.6998 13.483 15.4374 13.483H10.492C10.2296 13.483 9.97799 13.5873 9.79245 13.7728C9.60692 13.9583 9.50269 14.21 9.50269 14.4724V18.4285C9.50269 18.6908 9.60692 18.9425 9.79245 19.128C9.97799 19.3135 10.2296 19.4178 10.492 19.4178ZM10.492 14.967C10.492 14.8363 10.5439 14.711 10.6364 14.6186C10.7288 14.5261 10.8541 14.4742 10.9848 14.4742H14.9409C15.0716 14.4742 15.197 14.5261 15.2894 14.6186C15.3818 14.711 15.4337 14.8363 15.4337 14.967V17.9344C15.4337 18.0651 15.3818 18.1905 15.2894 18.2829C15.197 18.3753 15.0716 18.4272 14.9409 18.4272H10.9861C10.8554 18.4272 10.73 18.3753 10.6376 18.2829C10.5452 18.1905 10.4932 18.0651 10.4932 17.9344L10.492 14.967Z" fill="#F5222D"/>
</g>
<defs>
<clipPath id="clip0_115_2060">
<rect width="33.2652" height="32.6491" fill="white" transform="translate(0 0.309448)"/>
</clipPath>
</defs>
</svg>
