<svg width="34" height="33" viewBox="0 0 34 33" fill="none" xmlns="http://www.w3.org/2000/svg">
<g clip-path="url(#clip0_115_1970)">
<path d="M16.9389 0.309143H16.3229C7.30705 0.309143 -0.00170898 7.6179 -0.00170898 16.6337C-0.00170898 25.6495 7.30705 32.9583 16.3229 32.9583H16.9389C25.9547 32.9583 33.2634 25.6495 33.2634 16.6337C33.2634 7.6179 25.9547 0.309143 16.9389 0.309143Z" fill="#F9FBFE"/>
<path d="M18.1713 28.0845V17.6645H21.6691L22.1927 13.603H18.1713V11.0114C18.1713 9.83545 18.4978 9.03401 20.1839 9.03401H22.3344V5.39948C21.2935 5.28944 20.2474 5.23617 19.2007 5.23993C16.1003 5.23993 13.9775 7.13235 13.9775 10.6079V13.603H10.4705V17.6645H13.9775V28.0845H18.1713Z" fill="#3C5A9A"/>
</g>
<defs>
<clipPath id="clip0_115_1970">
<rect width="33.2652" height="32.6491" fill="white" transform="translate(0 0.309143)"/>
</clipPath>
</defs>
</svg>
