<svg width="34" height="33" viewBox="0 0 34 33" fill="none" xmlns="http://www.w3.org/2000/svg">
<g clip-path="url(#clip0_115_1987)">
<path d="M16.9389 0.309143H16.3229C7.30705 0.309143 -0.00170898 7.6179 -0.00170898 16.6337C-0.00170898 25.6495 7.30705 32.9583 16.3229 32.9583H16.9389C25.9547 32.9583 33.2634 25.6495 33.2634 16.6337C33.2634 7.6179 25.9547 0.309143 16.9389 0.309143Z" fill="#F9FBFE"/>
<path d="M27.7178 16.8009C27.7312 16.023 27.6509 15.2464 27.4787 14.4877H16.8567V18.6865H23.0921C22.974 19.4228 22.7081 20.1275 22.3106 20.7584C21.9131 21.3892 21.3921 21.9331 20.7789 22.3574L20.7579 22.4979L24.1165 25.0999L24.3494 25.1233C25.4614 24.0488 26.3358 22.753 26.9161 21.3196C27.4964 19.8862 27.7697 18.3471 27.7184 16.8015" fill="#4285F4"/>
<path d="M16.8562 27.8619C19.6121 27.9396 22.2931 26.9589 24.3483 25.1212L20.7753 22.3552C19.6186 23.1313 18.2486 23.5273 16.8562 23.4881C15.4255 23.4798 14.0338 23.0211 12.8785 22.1772C11.7233 21.3333 10.8631 20.147 10.42 18.7866L10.2876 18.7977L6.79534 21.502L6.74976 21.6289C7.69063 23.5029 9.13411 25.0783 10.9189 26.179C12.7036 27.2797 14.7593 27.8623 16.8562 27.8619Z" fill="#34A853"/>
<path d="M10.4209 18.7871C10.1738 18.067 10.0464 17.3111 10.0439 16.5498C10.0489 15.7893 10.1723 15.0342 10.4098 14.3118L10.4037 14.1621L6.86769 11.4158L6.75188 11.4707C5.95845 13.046 5.54517 14.7853 5.54517 16.5491C5.54517 18.313 5.95845 20.0523 6.75188 21.6276L10.4227 18.7865" fill="#FBBC05"/>
<path d="M16.8568 9.61025C18.4777 9.58538 20.0452 10.1892 21.2306 11.2951L24.4234 8.17738C22.3756 6.25674 19.6642 5.20288 16.8568 5.2365C14.7596 5.23606 12.7035 5.81901 10.9186 6.92018C9.1337 8.02135 7.69028 9.59732 6.74976 11.4719L10.4077 14.313C10.8548 12.9525 11.7178 11.7667 12.8749 10.923C14.032 10.0792 15.4248 9.62007 16.8568 9.61025Z" fill="#EB4335"/>
</g>
<defs>
<clipPath id="clip0_115_1987">
<rect width="33.2652" height="32.6491" fill="white" transform="translate(0 0.309143)"/>
</clipPath>
</defs>
</svg>
