<svg width="34" height="33" viewBox="0 0 34 33" fill="none" xmlns="http://www.w3.org/2000/svg">
<g clip-path="url(#clip0_115_2031)">
<path d="M16.9391 0.307922H16.3231C7.30729 0.307922 -0.00146484 7.61668 -0.00146484 16.6325C-0.00146484 25.6483 7.30729 32.9571 16.3231 32.9571H16.9391C25.9549 32.9571 33.2637 25.6483 33.2637 16.6325C33.2637 7.61668 25.9549 0.307922 16.9391 0.307922Z" fill="#F9FBFE"/>
<path d="M22.1754 6.46716H11.7031C8.98132 6.46716 6.7749 8.67358 6.7749 11.3953V21.8677C6.7749 24.5895 8.98132 26.7959 11.7031 26.7959H22.1754C24.8972 26.7959 27.1036 24.5895 27.1036 21.8677V11.3953C27.1036 8.67358 24.8972 6.46716 22.1754 6.46716Z" stroke="#CB566D" stroke-width="1.23204"/>
<mask id="mask0_115_2031" style="mask-type:luminance" maskUnits="userSpaceOnUse" x="10" y="10" width="14" height="14">
<path d="M23.1386 10.5294H10.4189V23.249H23.1386V10.5294Z" fill="white"/>
</mask>
<g mask="url(#mask0_115_2031)">
<path d="M21.0722 21.2637H12.4904C12.1573 21.2471 11.8423 21.1072 11.6067 20.8712C11.3711 20.6351 11.2318 20.3198 11.2158 19.9867V13.7908C11.2324 13.4581 11.372 13.1434 11.6075 12.9079C11.843 12.6724 12.1577 12.5328 12.4904 12.5162H21.0722C21.405 12.5326 21.7198 12.6722 21.9554 12.9077C22.1911 13.1433 22.3308 13.458 22.3473 13.7908V19.9867C22.3314 20.3199 22.1919 20.6353 21.9562 20.8714C21.7205 21.1074 21.4054 21.2473 21.0722 21.2637ZM14.7376 17.0495C14.7232 17.0494 14.7089 17.0525 14.6958 17.0586C14.6827 17.0647 14.6711 17.0736 14.6618 17.0847L12.5464 19.5937C12.5313 19.6119 12.5228 19.6347 12.5224 19.6584C12.5224 19.6847 12.5329 19.7099 12.5515 19.7285C12.5701 19.7471 12.5953 19.7576 12.6216 19.7576H20.9379C20.9616 19.7576 20.9846 19.749 21.0026 19.7335C21.0224 19.7167 21.035 19.6928 21.0377 19.6669C21.0405 19.641 21.0332 19.615 21.0173 19.5943L18.1652 16.2204C18.1628 16.2174 18.1602 16.2147 18.1571 16.2124L18.1528 16.2087C18.1355 16.1942 18.1138 16.186 18.0912 16.1853C18.0768 16.1852 18.0625 16.1883 18.0494 16.1943C18.0363 16.2004 18.0247 16.2093 18.0155 16.2204L16.0491 18.5532L14.8171 17.0871L14.8066 17.0748H14.8017C14.7839 17.0591 14.7613 17.0502 14.7376 17.0495ZM14.6193 14.3027C14.4621 14.3027 14.3084 14.3493 14.1777 14.4366C14.047 14.5239 13.945 14.648 13.8848 14.7932C13.8245 14.9384 13.8087 15.0982 13.8392 15.2525C13.8697 15.4067 13.9453 15.5484 14.0563 15.6597C14.1674 15.771 14.3089 15.8469 14.4631 15.8778C14.6172 15.9087 14.7771 15.8932 14.9224 15.8333C15.0678 15.7733 15.1921 15.6717 15.2797 15.5412C15.3673 15.4106 15.4143 15.257 15.4146 15.0998C15.4148 14.9953 15.3943 14.8917 15.3545 14.795C15.3146 14.6984 15.256 14.6105 15.1822 14.5365C15.1083 14.4624 15.0206 14.4037 14.924 14.3636C14.8274 14.3235 14.7239 14.3028 14.6193 14.3027Z" fill="url(#paint0_linear_115_2031)"/>
</g>
<g clip-path="url(#clip1_115_2031)">
<mask id="mask1_115_2031" style="mask-type:alpha" maskUnits="userSpaceOnUse" x="6" y="5" width="24" height="24">
<path d="M27.1139 5.00006H7.91944C6.85936 5.00006 6 5.85943 6 6.91951V26.114C6 27.174 6.85936 28.0334 7.91944 28.0334H27.1139C28.174 28.0334 29.0333 27.174 29.0333 26.114V6.91951C29.0333 5.85943 28.174 5.00006 27.1139 5.00006Z" fill="#D9D9D9"/>
</mask>
<g mask="url(#mask1_115_2031)">
<path d="M29.5131 4.5202H5.52002V28.5133H29.5131V4.5202Z" fill="white" stroke="#D4DCE5" stroke-width="0.959722"/>
<path d="M21.54 13.5063C21.9205 13.0677 22.6003 13.0649 22.9845 13.5003L28.7932 20.0835C28.9479 20.2589 29.0333 20.4847 29.0333 20.7185V27.0737C29.0333 27.6037 28.6037 28.0334 28.0736 28.0334H6.95972C6.42968 28.0334 6 27.6037 6 27.0737V24.0267C6 23.8238 6.06426 23.6262 6.18356 23.4622L9.42569 19.0043C9.67172 18.666 10.1085 18.526 10.5053 18.6583L14.989 20.1528C15.3572 20.2756 15.7631 20.1645 16.0174 19.8713L21.54 13.5063Z" fill="#6248FF"/>
<path d="M13.1979 13.6375C14.523 13.6375 15.5972 12.5633 15.5972 11.2382C15.5972 9.91314 14.523 8.83893 13.1979 8.83893C11.8728 8.83893 10.7986 9.91314 10.7986 11.2382C10.7986 12.5633 11.8728 13.6375 13.1979 13.6375Z" fill="#FF4848"/>
</g>
</g>
</g>
<defs>
<linearGradient id="paint0_linear_115_2031" x1="20.6553" y1="12.5162" x2="14.59" y2="22.6854" gradientUnits="userSpaceOnUse">
<stop stop-color="#CC566C"/>
<stop offset="1" stop-color="#E5644F"/>
</linearGradient>
<clipPath id="clip0_115_2031">
<rect width="33.2652" height="32.6491" fill="white" transform="translate(0 0.306702)"/>
</clipPath>
<clipPath id="clip1_115_2031">
<rect width="23.9931" height="23.0333" fill="white" transform="translate(6 5.00006)"/>
</clipPath>
</defs>
</svg>
