<svg width="33" height="34" viewBox="0 0 33 34" fill="none" xmlns="http://www.w3.org/2000/svg">
<path d="M16.4338 0H15.8362C7.09011 0 0 7.44666 0 16.6326C0 25.8185 7.09011 33.2652 15.8362 33.2652H16.4338C25.1799 33.2652 32.27 25.8185 32.27 16.6326C32.27 7.44666 25.1799 0 16.4338 0Z" fill="#F9FBFE"/>
<g clip-path="url(#clip0_236_16)">
<path d="M15.9867 11.9046C15.8111 11.9046 15.6373 11.9136 15.4662 11.9311C15.295 11.9487 15.1262 11.9747 14.9603 12.0089C14.7944 12.043 14.6315 12.0853 14.4718 12.1352L14.003 12.3076L13.5567 12.5234L13.1356 12.78L12.7421 13.0747L12.379 13.405L12.0488 13.7683L11.7542 14.1619L11.4976 14.5832L11.282 15.0296C11.2172 15.1823 11.1595 15.3388 11.1096 15.4986C11.0597 15.6584 11.0175 15.8215 10.9833 15.9875C10.9491 16.1534 10.9232 16.3223 10.9056 16.4935C10.888 16.6648 10.8792 16.8385 10.8792 17.0142C10.8792 17.1899 10.8881 17.3637 10.9056 17.5349C10.9229 17.7049 10.9489 17.8738 10.9833 18.0411C11.0175 18.2076 11.0597 18.3701 11.1096 18.5299C11.1595 18.6897 11.2171 18.8462 11.282 18.9989L11.4976 19.4453L11.7542 19.8666L12.0488 20.2603L12.379 20.6235L12.7421 20.9538L13.1356 21.2486L13.5567 21.5052L14.003 21.721L14.4718 21.8933L14.9603 22.0197C15.1275 22.0541 15.2964 22.0801 15.4662 22.0975C15.6391 22.1151 15.8129 22.124 15.9867 22.1239C16.1623 22.1239 16.336 22.115 16.5071 22.0975C16.677 22.0801 16.8458 22.0541 17.013 22.0197L17.5016 21.8933L17.9704 21.721L18.4166 21.5052L18.8378 21.2486L19.2313 20.9538L19.5945 20.6235L19.9246 20.2603L20.2193 19.8666L20.4758 19.4453L20.6915 18.9989L20.8638 18.5299C20.9137 18.3701 20.956 18.207 20.9901 18.0411L21.0679 17.5349C21.0854 17.3636 21.0944 17.1899 21.0944 17.0142C21.0944 16.8385 21.0854 16.6647 21.0679 16.4935C21.0505 16.3236 21.0246 16.1547 20.9901 15.9874C20.956 15.8208 20.9137 15.6584 20.8638 15.4985L20.6915 15.0295L20.4758 14.5831L20.2193 14.1618L19.9246 13.7682L19.5945 13.4049L19.2313 13.0746L18.8378 12.7799L18.4166 12.5233L17.9704 12.3075L17.5016 12.1351L17.013 12.0088L16.5071 11.9311C16.3342 11.9134 16.1605 11.9045 15.9867 11.9045V11.9046ZM15.9867 13.6683C16.1028 13.6683 16.2174 13.674 16.3303 13.6854L16.663 13.7359L16.9844 13.8179L17.2922 13.9298L17.5848 14.0701L17.8599 14.237L18.1171 14.429L18.3542 14.6445L18.5695 14.8817L18.7615 15.139L18.9283 15.4149L19.0685 15.7077C19.1106 15.8079 19.1479 15.9106 19.1804 16.0156C19.2129 16.1206 19.2403 16.2279 19.2623 16.3372C19.2844 16.4466 19.3007 16.5578 19.3127 16.6707L19.3298 17.0146C19.3298 17.1307 19.3241 17.2454 19.3127 17.3584C19.3013 17.4715 19.2845 17.5827 19.2623 17.6919C19.2401 17.8012 19.2127 17.9085 19.1804 18.0136L19.0685 18.3215L18.9283 18.6143L18.7615 18.8901L18.5695 19.1475L18.3542 19.3847L18.1171 19.6001L17.8599 19.7921L17.5848 19.9591L17.2922 20.0994L16.9844 20.2113L16.663 20.2933L16.3303 20.3437C16.2161 20.3551 16.1014 20.3609 15.9866 20.3609C15.8718 20.3609 15.7571 20.3551 15.6429 20.3437L15.3102 20.2933C15.201 20.2712 15.0937 20.2437 14.9887 20.2113L14.681 20.0994L14.3884 19.9591L14.1133 19.7921L13.856 19.6001L13.6189 19.3847L13.4036 19.1475L13.2117 18.8901L13.0448 18.6143L12.9047 18.3215L12.7927 18.0136L12.7108 17.6919L12.6605 17.3584C12.649 17.2442 12.6433 17.1294 12.6433 17.0146C12.6433 16.8997 12.649 16.785 12.6605 16.6707C12.6718 16.5578 12.6886 16.4465 12.7108 16.3372C12.7328 16.2288 12.7601 16.1214 12.7928 16.0157L12.9047 15.7077L13.0449 15.4149L13.2117 15.139L13.4037 14.8817L13.619 14.6445L13.8561 14.4291L14.1133 14.2371L14.3885 14.0702L14.6811 13.9299C14.7818 13.8875 14.8845 13.8502 14.9889 13.8179L15.3103 13.7359C15.4195 13.7137 15.5308 13.6968 15.643 13.6855C15.7573 13.674 15.872 13.6683 15.9868 13.6683L15.9867 13.6683Z" fill="url(#paint0_radial_236_16)"/>
<path d="M21.3015 10.451C21.261 10.4511 21.2204 10.4531 21.1801 10.4572C21.1397 10.4613 21.0996 10.4674 21.0599 10.4755C21.0201 10.4836 20.9808 10.4938 20.9421 10.5058C20.9033 10.5179 20.8652 10.5319 20.8279 10.5479C20.7905 10.5638 20.754 10.5816 20.7184 10.6012C20.6828 10.6208 20.6482 10.6422 20.6147 10.6652C20.5813 10.6883 20.5489 10.7131 20.5179 10.7394C20.4869 10.7658 20.4572 10.7936 20.429 10.8229C20.4007 10.8522 20.374 10.883 20.3488 10.915C20.3236 10.947 20.3 10.9803 20.2781 11.0147C20.2562 11.0491 20.236 11.0845 20.2176 11.1209C20.1992 11.1574 20.1826 11.1947 20.1679 11.2328C20.1532 11.2709 20.1404 11.3097 20.1295 11.3491C20.1187 11.3885 20.1098 11.4284 20.1029 11.4686C20.096 11.5089 20.0911 11.5495 20.0883 11.5903C20.0862 11.6191 20.0852 11.6481 20.0852 11.677C20.0852 11.7179 20.0872 11.7588 20.0913 11.7994C20.0953 11.8401 20.1014 11.8806 20.1095 11.9206C20.1175 11.9607 20.1275 12.0003 20.1395 12.0393C20.1515 12.0784 20.1654 12.1168 20.1812 12.1545C20.197 12.1921 20.2147 12.229 20.2342 12.2649C20.2536 12.3007 20.2748 12.3356 20.2977 12.3694C20.3206 12.4031 20.3452 12.4356 20.3713 12.4669C20.3974 12.4982 20.425 12.5281 20.4541 12.5566C20.4832 12.5851 20.5137 12.612 20.5455 12.6374C20.5773 12.6629 20.6103 12.6867 20.6444 12.7088C20.6786 12.7309 20.7138 12.7512 20.7499 12.7698C20.7861 12.7883 20.8231 12.805 20.8609 12.8199C20.8987 12.8347 20.9372 12.8476 20.9762 12.8585C21.0153 12.8694 21.0549 12.8784 21.0949 12.8853C21.1348 12.8922 21.1751 12.8972 21.2155 12.9001C21.2442 12.9021 21.2729 12.9032 21.3016 12.9032C21.3422 12.9032 21.3827 12.9011 21.423 12.8971C21.4634 12.893 21.5035 12.8869 21.5433 12.8787C21.583 12.8706 21.6223 12.8605 21.6611 12.8484C21.6998 12.8364 21.7379 12.8223 21.7753 12.8064C21.8126 12.7905 21.8492 12.7727 21.8847 12.7531C21.9203 12.7335 21.9549 12.7121 21.9884 12.689C22.0219 12.666 22.0542 12.6412 22.0852 12.6149C22.1162 12.5886 22.1459 12.5607 22.1741 12.5313C22.2024 12.502 22.2292 12.4713 22.2544 12.4393C22.2796 12.4073 22.3032 12.374 22.3251 12.3396C22.347 12.3052 22.3672 12.2697 22.3855 12.2333C22.404 12.1969 22.4205 12.1595 22.4353 12.1214C22.4499 12.0833 22.4627 12.0445 22.4736 12.0051C22.4844 11.9657 22.4933 11.9258 22.5002 11.8856C22.5071 11.8453 22.512 11.8047 22.5149 11.764C22.5169 11.7351 22.5179 11.7061 22.5179 11.6772C22.5179 11.6363 22.5159 11.5955 22.5118 11.5548C22.5078 11.5142 22.5017 11.4737 22.4937 11.4337C22.4856 11.3936 22.4756 11.354 22.4636 11.3149C22.4516 11.2759 22.4377 11.2375 22.4219 11.1998C22.4061 11.1621 22.3884 11.1253 22.369 11.0894C22.3495 11.0535 22.3283 11.0186 22.3054 10.9849C22.2825 10.9512 22.2579 10.9186 22.2318 10.8873C22.2057 10.856 22.1781 10.8261 22.149 10.7976C22.1199 10.7691 22.0894 10.7422 22.0576 10.7168C22.0259 10.6914 21.9928 10.6676 21.9587 10.6455C21.9246 10.6234 21.8894 10.6031 21.8532 10.5845C21.8171 10.566 21.78 10.5492 21.7422 10.5344C21.7045 10.5196 21.666 10.5067 21.6269 10.4958C21.5878 10.4848 21.5482 10.4759 21.5083 10.4689C21.4683 10.462 21.428 10.4571 21.3876 10.4542C21.3589 10.4521 21.3302 10.4511 21.3015 10.4511V10.451Z" fill="url(#paint1_radial_236_16)"/>
<path d="M15.0182 7.01807C14.4627 7.01717 13.9669 7.01948 13.5216 7.02576L12.3277 7.05779C11.974 7.07317 11.6615 7.09322 11.381 7.11917C11.2407 7.13212 11.1084 7.1466 10.983 7.16255C10.8636 7.17761 10.7446 7.19515 10.626 7.21515C10.5131 7.23438 10.4059 7.25513 10.3032 7.27769C10.2004 7.30024 10.1022 7.32459 10.0075 7.35073C9.91498 7.37629 9.82312 7.40441 9.7321 7.43505C9.64291 7.46517 9.55589 7.49707 9.46996 7.53116C9.2981 7.59933 9.13046 7.67583 8.95784 7.76156C8.82501 7.82756 8.70229 7.89438 8.58571 7.96512C8.46913 8.03585 8.35869 8.11056 8.25056 8.19194C8.1392 8.27614 8.03187 8.36556 7.92892 8.45989C7.8213 8.55804 7.71137 8.66601 7.59716 8.78665C7.45365 8.93741 7.32894 9.07799 7.21825 9.21594C7.16291 9.28488 7.11108 9.35305 7.06226 9.42161C7.01398 9.48917 6.96783 9.55823 6.92386 9.62869C6.88035 9.69853 6.83915 9.76965 6.79974 9.84282C6.75971 9.91725 6.72188 9.99285 6.68629 10.0695C6.61348 10.2261 6.54553 10.3947 6.47771 10.583C6.42739 10.7221 6.38234 10.8632 6.34264 11.0057C6.30214 11.1514 6.26611 11.3039 6.23399 11.4687C6.20187 11.6336 6.17385 11.8109 6.14921 12.0069C6.12267 12.2218 6.10146 12.4374 6.08562 12.6533C6.0677 12.8908 6.05286 13.1521 6.0407 13.4429L6.01191 14.4099L5.99642 15.5886L5.99194 17.0134L6.00506 19.0853L6.04601 20.6551L6.07755 21.2682L6.11697 21.7763C6.1296 21.9133 6.14541 22.0499 6.16438 22.1861C6.18165 22.3071 6.20021 22.4129 6.22017 22.5046C6.26068 22.6908 6.30858 22.8754 6.36375 23.0579C6.41658 23.2326 6.477 23.4049 6.54482 23.5743C6.6115 23.7403 6.68444 23.9003 6.76378 24.0544C6.84312 24.2084 6.92885 24.3564 7.02099 24.4986C7.11313 24.6407 7.21166 24.7771 7.31685 24.9076C7.42192 25.0381 7.53368 25.1631 7.65168 25.282C7.76985 25.4012 7.89449 25.5146 8.02585 25.6224C8.15876 25.7314 8.29692 25.8338 8.43982 25.9293C8.57246 26.0181 8.70369 26.0994 8.83588 26.1741C8.96807 26.2487 9.10141 26.3164 9.23847 26.378C9.37552 26.4396 9.51603 26.495 9.66281 26.5448C9.80958 26.5947 9.9625 26.639 10.1241 26.6784C10.2857 26.7177 10.4568 26.7522 10.6379 26.7824C10.819 26.8125 11.0125 26.8383 11.2193 26.8605C11.4261 26.8828 11.6467 26.9011 11.8838 26.9165C12.1209 26.9319 12.3742 26.9442 12.6465 26.9541C13.067 26.9693 13.7037 26.9782 14.4378 26.9816L16.8145 26.9768L19.0651 26.9452L19.9208 26.9211L20.4783 26.8924C20.5979 26.8827 20.715 26.8712 20.828 26.8576C20.941 26.8441 21.0524 26.8287 21.161 26.8111C21.2695 26.7936 21.3756 26.774 21.4798 26.7522C21.5828 26.7307 21.6853 26.7067 21.7872 26.6802C21.888 26.6546 21.9874 26.6254 22.0858 26.5945C22.1843 26.5635 22.2816 26.5301 22.3784 26.4942C22.4758 26.4581 22.5723 26.4196 22.6678 26.3788C22.7639 26.3378 22.86 26.294 22.9563 26.2475C23.1043 26.1761 23.2235 26.1166 23.3281 26.0585C23.4265 26.0044 23.5213 25.944 23.6118 25.8775C23.7011 25.8117 23.7899 25.7367 23.8923 25.6423C23.9947 25.5478 24.1107 25.434 24.2543 25.2901C24.3805 25.1638 24.487 25.0539 24.5788 24.9541C24.6707 24.8542 24.748 24.7643 24.8158 24.6776C24.8805 24.5954 24.9407 24.5099 24.9963 24.4212C25.0505 24.3347 25.1004 24.2449 25.1512 24.1453C25.2278 23.9953 25.2958 23.8565 25.3568 23.7225C25.416 23.5934 25.4701 23.462 25.5189 23.3286C25.5671 23.1963 25.6087 23.0617 25.6438 22.9253C25.6799 22.785 25.711 22.6368 25.7378 22.4743C25.7647 22.3118 25.7874 22.135 25.8071 21.9375C25.8268 21.7401 25.8436 21.5218 25.8583 21.2766L25.8973 20.4535L25.9309 19.4298L25.9548 18.2893L25.964 17.0968L25.9426 14.7547L25.914 13.7056L25.875 12.8049L25.8264 12.1026C25.8087 11.9072 25.7897 11.7533 25.7694 11.6493C25.7471 11.5343 25.7221 11.4199 25.6945 11.306C25.6676 11.1953 25.638 11.0852 25.6058 10.9759C25.5744 10.8694 25.5404 10.7637 25.5036 10.6589C25.4672 10.5554 25.4287 10.4541 25.3884 10.355C25.3481 10.2559 25.3045 10.1591 25.259 10.0643C25.2136 9.96955 25.166 9.8771 25.116 9.78676C25.0661 9.69641 25.014 9.60831 24.9595 9.52239C24.9051 9.43647 24.8484 9.35273 24.7893 9.27123C24.7306 9.18999 24.6694 9.11061 24.6057 9.0332C24.5424 8.95622 24.4766 8.88126 24.4085 8.80844C24.3405 8.73571 24.2703 8.66515 24.1978 8.59687C24.1253 8.52857 24.0506 8.46245 23.9736 8.3985C23.8963 8.33435 23.817 8.27262 23.7359 8.2134C23.6538 8.15358 23.57 8.09627 23.4845 8.04156C23.3979 7.98607 23.3096 7.93316 23.2198 7.88292C23.1284 7.83182 23.0356 7.78337 22.9414 7.7376C22.7852 7.66155 22.6407 7.59408 22.4989 7.53424C22.3594 7.47484 22.2173 7.4221 22.0729 7.37617C21.9276 7.33036 21.7764 7.29108 21.6101 7.25719C21.4437 7.22329 21.2623 7.19504 21.057 7.17101C20.8517 7.14698 20.6224 7.12757 20.3602 7.11142C20.098 7.09528 19.8031 7.08259 19.4664 7.07234L18.322 7.04671L16.8736 7.0296L15.0188 7.0182L15.0182 7.01807ZM15.9814 8.78018L18.6561 8.79543L19.6652 8.81491C19.943 8.82273 20.1551 8.83189 20.2794 8.84246C20.4413 8.85611 20.5955 8.87321 20.743 8.89372C20.8845 8.91329 21.0253 8.93763 21.1652 8.9667C21.2996 8.99489 21.4278 9.02692 21.5504 9.06306C21.6731 9.0992 21.7902 9.13969 21.9027 9.18448C22.0151 9.22926 22.1226 9.27854 22.226 9.33248C22.3287 9.38603 22.4284 9.44495 22.5248 9.509C22.6208 9.57275 22.7133 9.64144 22.8032 9.71544C22.893 9.78945 22.9801 9.86877 23.0651 9.9536C23.1549 10.0431 23.2377 10.1343 23.314 10.2283C23.3901 10.3218 23.4604 10.4198 23.5247 10.5217C23.5897 10.6251 23.6483 10.7324 23.7001 10.843C23.7531 10.9558 23.8007 11.075 23.8435 11.2017C23.8862 11.3283 23.9243 11.4629 23.958 11.6068C23.9933 11.7593 24.0229 11.9131 24.0467 12.0678C24.0723 12.2318 24.0942 12.4067 24.1127 12.594C24.1313 12.7813 24.1466 12.981 24.1593 13.1947C24.1694 13.3661 24.1782 13.5923 24.1857 13.8594L24.2045 14.7702L24.2188 17.0012L24.2025 19.23L24.1829 20.1382L24.156 20.7987C24.1373 21.108 24.1176 21.368 24.094 21.5943C24.0822 21.7074 24.0694 21.8121 24.0552 21.9104C24.0419 22.0032 24.0261 22.0956 24.0079 22.1875C23.9913 22.2714 23.972 22.3548 23.95 22.4374C23.929 22.5163 23.9053 22.5944 23.879 22.6717C23.8526 22.7494 23.8238 22.8262 23.7927 22.9021C23.7599 22.9823 23.7252 23.0617 23.6888 23.1403C23.6563 23.2105 23.6222 23.2787 23.5861 23.3451C23.5504 23.4109 23.5125 23.4754 23.4725 23.5386C23.4328 23.6012 23.3912 23.662 23.3477 23.7209C23.3045 23.7796 23.2591 23.8367 23.2117 23.8921C23.1645 23.9473 23.1152 24.0007 23.0641 24.0523C23.0129 24.1039 22.9598 24.1537 22.9048 24.2017C22.8497 24.2498 22.7927 24.2959 22.7336 24.3404C22.6746 24.3848 22.6135 24.4275 22.5503 24.4684C22.4871 24.5093 22.422 24.5485 22.3548 24.5859C22.2875 24.6233 22.2182 24.6591 22.1468 24.6931C22.0742 24.7276 22.0007 24.76 21.9261 24.7901C21.8491 24.8212 21.7712 24.8502 21.6926 24.8769C21.5326 24.9315 21.3639 24.9794 21.1863 25.0208C21.0012 25.0636 20.8144 25.0986 20.6263 25.1257C20.554 25.1363 20.3878 25.1462 20.1498 25.1554L19.2428 25.1807L16.6713 25.2141L13.9798 25.2183L12.9228 25.2071L12.2364 25.1857L11.7303 25.15C11.5732 25.1368 11.427 25.122 11.2901 25.1053C11.1532 25.0886 11.0257 25.07 10.9057 25.0489C10.792 25.0293 10.679 25.0058 10.5669 24.9785C10.4647 24.9536 10.3635 24.9245 10.2636 24.8915C10.1673 24.8594 10.0752 24.8242 9.98567 24.7854C9.89609 24.7467 9.80907 24.7042 9.72289 24.6578C9.6367 24.6114 9.55141 24.561 9.46516 24.5061C9.40009 24.4647 9.33719 24.4228 9.27667 24.3784C9.21614 24.334 9.15766 24.2898 9.10135 24.2434C9.04504 24.197 8.99098 24.1492 8.93883 24.1C8.88703 24.051 8.83701 24.0002 8.78886 23.9476C8.74087 23.8952 8.69499 23.8412 8.65097 23.7854C8.60678 23.7293 8.56467 23.6716 8.52473 23.6124C8.4842 23.5523 8.44585 23.4907 8.40975 23.4279C8.37328 23.3644 8.3386 23.2988 8.30565 23.2312C8.27215 23.1622 8.24089 23.0922 8.21192 23.0212C8.18248 22.9489 8.15459 22.8743 8.12835 22.7973C8.07589 22.6432 8.02982 22.4792 7.98976 22.3043C7.94971 22.1294 7.91554 21.9436 7.88662 21.7456C7.8577 21.5476 7.83441 21.3377 7.81586 21.1146C7.80216 20.9502 7.79129 20.6943 7.78297 20.3714L7.76557 19.2229L7.77196 16.2951L7.82232 13.4974L7.86071 12.5117L7.88246 12.1859C7.89001 12.0989 7.89782 12.0345 7.90582 11.9958C7.93218 11.8685 7.95873 11.75 7.98618 11.6391C8.01182 11.5345 8.04035 11.4306 8.07173 11.3275C8.10154 11.2302 8.13296 11.1391 8.16655 11.0528C8.19894 10.9692 8.23504 10.8871 8.27475 10.8067C8.31352 10.7286 8.35517 10.6537 8.40041 10.5809C8.44565 10.508 8.49447 10.4373 8.5477 10.3671C8.60094 10.2968 8.65826 10.2274 8.72065 10.157C8.78303 10.0867 8.85041 10.0156 8.92348 9.94239C9.00863 9.85663 9.09731 9.77444 9.18926 9.69603C9.27609 9.62206 9.36664 9.55258 9.46055 9.48786C9.55288 9.42379 9.64758 9.36676 9.74618 9.31435C9.84477 9.26194 9.94728 9.21459 10.0551 9.17198C10.1629 9.12938 10.2762 9.09125 10.3961 9.05665C10.5222 9.02125 10.6496 8.99105 10.7781 8.96612C10.9132 8.93959 11.0568 8.91646 11.21 8.89628C11.3632 8.8761 11.5263 8.85867 11.7006 8.84355C11.8221 8.83304 12.0316 8.82369 12.3074 8.81581L13.3113 8.79594L15.9819 8.77961L15.9814 8.78018Z" fill="url(#paint2_radial_236_16)"/>
</g>
<defs>
<radialGradient id="paint0_radial_236_16" cx="0" cy="0" r="1" gradientUnits="userSpaceOnUse" gradientTransform="translate(9.17379 28.4369) rotate(-9.54398) scale(42.2123 25.6562)">
<stop stop-color="#FED576"/>
<stop offset="0.263" stop-color="#F47133"/>
<stop offset="0.609" stop-color="#BC3081"/>
<stop offset="1" stop-color="#4C63D2"/>
</radialGradient>
<radialGradient id="paint1_radial_236_16" cx="0" cy="0" r="1" gradientUnits="userSpaceOnUse" gradientTransform="translate(9.1739 28.4369) rotate(-9.54398) scale(42.2123 25.6562)">
<stop stop-color="#FED576"/>
<stop offset="0.263" stop-color="#F47133"/>
<stop offset="0.609" stop-color="#BC3081"/>
<stop offset="1" stop-color="#4C63D2"/>
</radialGradient>
<radialGradient id="paint2_radial_236_16" cx="0" cy="0" r="1" gradientUnits="userSpaceOnUse" gradientTransform="translate(9.17384 28.4369) rotate(-9.54398) scale(42.2123 25.6562)">
<stop stop-color="#FED576"/>
<stop offset="0.263" stop-color="#F47133"/>
<stop offset="0.609" stop-color="#BC3081"/>
<stop offset="1" stop-color="#4C63D2"/>
</radialGradient>
<clipPath id="clip0_236_16">
<rect width="19.9723" height="20" fill="white" transform="translate(5.9917 7)"/>
</clipPath>
</defs>
</svg>
