<svg width="32" height="33" viewBox="0 0 32 33" fill="none" xmlns="http://www.w3.org/2000/svg">
<path d="M15.9994 0H15.4177C6.90271 0 0 7.23981 0 16.1706C0 25.1013 6.90271 32.3411 15.4177 32.3411H15.9994C24.5144 32.3411 31.4171 25.1013 31.4171 16.1706C31.4171 7.23981 24.5144 0 15.9994 0Z" fill="#F9FBFE"/>
<g clip-path="url(#clip0_236_25)">
<path d="M18.4286 17.1291C18.5437 17.0887 18.6435 17.0137 18.7143 16.9143C18.785 16.8149 18.8233 16.6961 18.8238 16.5741V16.0629C18.8238 15.9064 18.7617 15.7564 18.6511 15.6456C18.5406 15.5349 18.3906 15.4725 18.2341 15.4723H15.9164C16.0203 15.1617 16.1283 14.8653 16.2393 14.5853C16.45 14.0863 16.6863 13.5975 16.946 13.123C18.0987 11.0212 19.2565 10.0467 19.3044 10.0069C19.3416 9.97809 19.3885 9.96484 19.4353 9.96999C19.4821 9.97514 19.525 9.99828 19.5551 10.0345C19.5851 10.0708 19.5999 10.1173 19.5962 10.1642C19.5926 10.2111 19.5708 10.2548 19.5356 10.286C19.5172 10.3002 18.3686 11.2737 17.2525 13.3155C16.9938 13.792 16.7596 14.2808 16.5498 14.7808L16.5702 14.7849H16.5896L16.6191 14.789C17.0671 14.8541 17.5661 14.737 17.8961 14.6301C18.0183 14.5975 18.1364 14.5537 18.2494 14.4998L18.2698 14.4906C18.3126 14.4723 18.3543 14.4499 18.395 14.4265C18.428 14.4051 18.4535 14.374 18.4679 14.3375C18.4823 14.301 18.485 14.2609 18.4755 14.2228L18.4348 14.0609C18.4268 14.0291 18.4255 13.9961 18.4309 13.9638C18.4363 13.9315 18.4482 13.9007 18.4659 13.8732C18.4837 13.8457 18.5069 13.8222 18.5341 13.804C18.5613 13.7858 18.592 13.7735 18.6242 13.7676L18.7932 13.736C18.8809 13.7118 18.9604 13.6643 19.0233 13.5986C19.451 13.0222 21.6577 10.0161 21.4266 8.25441C21.4257 8.24823 21.4229 8.24251 21.4184 8.23811C21.4144 8.23506 21.4021 8.23811 21.4021 8.23811C18.0783 8.57212 16.6333 11.3542 16.3197 11.9092C16.2872 11.9667 16.2774 12.0342 16.2922 12.0986L16.3309 12.2656C16.3378 12.2973 16.3383 12.33 16.3322 12.3619C16.3262 12.3937 16.3137 12.424 16.2957 12.451C16.2776 12.4779 16.2543 12.5009 16.2271 12.5185C16.1999 12.5362 16.1694 12.5482 16.1374 12.5538L15.9745 12.5823C15.9357 12.5887 15.8998 12.607 15.8719 12.6348C15.8439 12.6625 15.8254 12.6983 15.8187 12.7371C15.8104 12.7842 15.805 12.8318 15.8024 12.8796V12.8776V12.899C15.7984 13.025 15.8059 13.1511 15.8248 13.2757C15.8513 13.5782 15.9185 13.8766 16.0213 14.1617C15.8441 14.5873 15.6822 15.0252 15.5346 15.4753H12.9694C12.8135 15.4759 12.6641 15.538 12.5538 15.6483C12.4436 15.7586 12.3814 15.908 12.3808 16.0639V16.5751C12.381 16.7003 12.4209 16.8222 12.4948 16.9233C12.5688 17.0243 12.6729 17.0992 12.7922 17.1372L10.5417 19.3062C10.4571 19.3882 10.3898 19.4863 10.3438 19.5948C10.2978 19.7032 10.274 19.8198 10.2739 19.9376V22.904C10.2739 23.2097 10.3954 23.5029 10.6116 23.7191C10.8277 23.9353 11.1209 24.0567 11.4267 24.0567H19.8013C20.1071 24.0567 20.4003 23.9353 20.6164 23.7191C20.8326 23.5029 20.9541 23.2097 20.9541 22.904V19.9386C20.954 19.8211 20.9303 19.7047 20.8845 19.5964C20.8387 19.4882 20.7716 19.3902 20.6873 19.3083L18.4286 17.1291ZM20.5854 19.9376V20.3348C19.8201 20.8457 18.9325 21.1437 18.0139 21.1981C17.0953 21.2525 16.1787 21.0614 15.3584 20.6443C15.3238 20.626 15.2902 20.6077 15.2545 20.5904C15.1751 20.5502 15.095 20.5115 15.0142 20.4743L14.9572 20.4488C15.0326 19.343 15.195 18.2449 15.4429 17.1647H17.728C17.8594 17.1647 17.9847 17.2156 18.0794 17.3073L20.4307 19.5751C20.4792 19.6224 20.5178 19.6789 20.5442 19.7413C20.5706 19.8038 20.5843 19.8708 20.5844 19.9386L20.5854 19.9376ZM18.2341 15.8409C18.2926 15.8412 18.3485 15.8646 18.3897 15.906C18.431 15.9474 18.4541 16.0034 18.4541 16.0619V16.5731C18.4541 16.6314 18.4309 16.6874 18.3897 16.7286C18.3484 16.7699 18.2925 16.793 18.2341 16.793H15.5305C15.615 16.4621 15.7036 16.1444 15.7973 15.8409H18.2341ZM12.7454 16.0619C12.7454 16.0033 12.7687 15.9471 12.8101 15.9056C12.8516 15.8642 12.9078 15.8409 12.9664 15.8409H15.4154C15.334 16.1057 15.2596 16.3745 15.1894 16.6474L15.1537 16.7961H12.9653C12.9071 16.7958 12.8513 16.7726 12.8101 16.7314C12.7689 16.6902 12.7457 16.6344 12.7454 16.5761V16.0619ZM10.7984 19.572L13.1497 17.3032C13.244 17.2123 13.37 17.1616 13.501 17.1617H15.0661C14.8332 18.1986 14.6777 19.2514 14.6008 20.3113C13.3145 19.8596 11.9076 19.8922 10.6436 20.403V19.9366C10.6437 19.8686 10.6574 19.8012 10.684 19.7386C10.7106 19.676 10.7495 19.6193 10.7984 19.572Z" fill="#050033"/>
</g>
<defs>
<clipPath id="clip0_236_25">
<rect width="16.2931" height="16.2931" fill="white" transform="translate(8 8)"/>
</clipPath>
</defs>
</svg>
