<svg width="34" height="34" viewBox="0 0 34 34" fill="none" xmlns="http://www.w3.org/2000/svg">
<g clip-path="url(#clip0_115_2003)">
<path d="M16.6326 33.2644C25.8185 33.2644 33.2652 25.8178 33.2652 16.6318C33.2652 7.44593 25.8185 -0.000732422 16.6326 -0.000732422C7.44666 -0.000732422 0 7.44593 0 16.6318C0 25.8178 7.44666 33.2644 16.6326 33.2644Z" fill="#F9F8FE"/>
<path d="M16.6296 20.7375H22.6358" stroke="#5917B5" stroke-width="1.33472" stroke-linecap="round" stroke-linejoin="round"/>
<path d="M19.6336 9.72641C19.8991 9.46097 20.2592 9.31183 20.6346 9.31183C20.8205 9.31183 21.0046 9.34842 21.1763 9.41957C21.3482 9.49072 21.5042 9.59501 21.6356 9.72641C21.7671 9.85787 21.8714 10.014 21.9426 10.1857C22.0137 10.3575 22.0503 10.5416 22.0503 10.7274C22.0503 10.9134 22.0137 11.0975 21.9426 11.2692C21.8714 11.441 21.7671 11.5971 21.6356 11.7285L13.2937 20.0705L10.6243 20.7378L11.2916 18.0684L19.6336 9.72641Z" fill="#5917B5" stroke="#5917B5" stroke-width="1.33472" stroke-linecap="round" stroke-linejoin="round"/>
<path d="M9.23975 23.4079H22.7922" stroke="#5917B5" stroke-width="1.33472" stroke-linecap="round" stroke-linejoin="round"/>
</g>
<defs>
<clipPath id="clip0_115_2003">
<rect width="33.2652" height="33.2652" fill="white" transform="translate(0 -0.000488281)"/>
</clipPath>
</defs>
</svg>
