<svg width="79" height="79" viewBox="0 0 79 79" fill="none" xmlns="http://www.w3.org/2000/svg">
<g filter="url(#filter0_d_115_1472)">
<path d="M11.877 38.4713C11.877 23.2993 24.1763 11 39.3483 11V11C54.5202 11 66.8196 23.2993 66.8196 38.4713V38.4713C66.8196 53.6433 54.5202 65.9426 39.3483 65.9426V65.9426C24.1763 65.9426 11.877 53.6433 11.877 38.4713V38.4713Z" fill="white"/>
</g>
<path d="M31.4245 37.8858C31.4245 35.7736 31.803 34.1192 32.56 32.9227C33.3292 31.7262 34.5989 31.1279 36.3693 31.1279C38.1397 31.1279 39.4034 31.7262 40.1604 32.9227C40.9295 34.1192 41.3141 35.7736 41.3141 37.8858C41.3141 40.0103 40.9295 41.6769 40.1604 42.8856C39.4034 44.0944 38.1397 44.6987 36.3693 44.6987C34.5989 44.6987 33.3292 44.0944 32.56 42.8856C31.803 41.6769 31.4245 40.0103 31.4245 37.8858ZM38.7868 37.8858C38.7868 36.9823 38.7257 36.2254 38.6036 35.6149C38.4938 34.9922 38.2618 34.4855 37.9077 34.0948C37.5658 33.7041 37.053 33.5087 36.3693 33.5087C35.6856 33.5087 35.1667 33.7041 34.8126 34.0948C34.4707 34.4855 34.2388 34.9922 34.1167 35.6149C34.0068 36.2254 33.9518 36.9823 33.9518 37.8858C33.9518 38.8138 34.0068 39.5952 34.1167 40.2301C34.2265 40.8527 34.4585 41.3594 34.8126 41.7501C35.1667 42.1286 35.6856 42.3179 36.3693 42.3179C37.053 42.3179 37.5719 42.1286 37.926 41.7501C38.2801 41.3594 38.5121 40.8527 38.622 40.2301C38.7318 39.5952 38.7868 38.8138 38.7868 37.8858ZM42.953 33.7468V31.3843H47.3667V44.7354H44.7295V33.7468H42.953Z" fill="#500AD2"/>
<defs>
<filter id="filter0_d_115_1472" x="0.430578" y="0.698263" width="77.8354" height="77.8351" filterUnits="userSpaceOnUse" color-interpolation-filters="sRGB">
<feFlood flood-opacity="0" result="BackgroundImageFix"/>
<feColorMatrix in="SourceAlpha" type="matrix" values="0 0 0 0 0 0 0 0 0 0 0 0 0 0 0 0 0 0 127 0" result="hardAlpha"/>
<feOffset dy="1.14464"/>
<feGaussianBlur stdDeviation="5.72319"/>
<feComposite in2="hardAlpha" operator="out"/>
<feColorMatrix type="matrix" values="0 0 0 0 0.490196 0 0 0 0 0.490196 0 0 0 0 0.572549 0 0 0 0.5 0"/>
<feBlend mode="normal" in2="BackgroundImageFix" result="effect1_dropShadow_115_1472"/>
<feBlend mode="normal" in="SourceGraphic" in2="effect1_dropShadow_115_1472" result="shape"/>
</filter>
</defs>
</svg>
