<svg width="79" height="79" viewBox="0 0 79 79" fill="none" xmlns="http://www.w3.org/2000/svg">
<g filter="url(#filter0_d_247_2)">
<rect x="12" y="11" width="54.9426" height="54.9426" rx="27.4713" fill="white"/>
</g>
<path d="M29.3175 37.8858C29.3175 35.7736 29.6959 34.1192 30.4529 32.9227C31.2221 31.7262 32.4919 31.1279 34.2623 31.1279C36.0327 31.1279 37.2963 31.7262 38.0533 32.9227C38.8225 34.1192 39.2071 35.7736 39.2071 37.8858C39.2071 40.0103 38.8225 41.6769 38.0533 42.8856C37.2963 44.0944 36.0327 44.6987 34.2623 44.6987C32.4919 44.6987 31.2221 44.0944 30.4529 42.8856C29.6959 41.6769 29.3175 40.0103 29.3175 37.8858ZM36.6798 37.8858C36.6798 36.9823 36.6187 36.2254 36.4966 35.6149C36.3867 34.9922 36.1548 34.4855 35.8007 34.0948C35.4588 33.7041 34.946 33.5087 34.2623 33.5087C33.5786 33.5087 33.0597 33.7041 32.7056 34.0948C32.3637 34.4855 32.1317 34.9922 32.0096 35.6149C31.8998 36.2254 31.8448 36.9823 31.8448 37.8858C31.8448 38.8138 31.8998 39.5952 32.0096 40.2301C32.1195 40.8527 32.3515 41.3594 32.7056 41.7501C33.0597 42.1286 33.5786 42.3179 34.2623 42.3179C34.946 42.3179 35.4649 42.1286 35.819 41.7501C36.1731 41.3594 36.405 40.8527 36.5149 40.2301C36.6248 39.5952 36.6798 38.8138 36.6798 37.8858ZM41.9631 41.8417C43.1352 40.865 44.0693 40.053 44.7652 39.4059C45.4611 38.7466 46.0411 38.0629 46.505 37.3547C46.969 36.6466 47.201 35.9506 47.201 35.2669C47.201 34.6442 47.0545 34.1558 46.7614 33.8018C46.4684 33.4477 46.0167 33.2707 45.4062 33.2707C44.7957 33.2707 44.3257 33.4782 43.996 33.8933C43.6663 34.2963 43.4954 34.8518 43.4832 35.5599H40.9925C41.0413 34.0948 41.4747 32.9837 42.2928 32.2268C43.123 31.4698 44.173 31.0913 45.4428 31.0913C46.8347 31.0913 47.903 31.4637 48.6478 32.2084C49.3926 32.941 49.765 33.9117 49.765 35.1204C49.765 36.0727 49.5086 36.9823 48.9958 37.8492C48.483 38.7161 47.8969 39.4731 47.2376 40.1202C46.5783 40.7551 45.7175 41.5243 44.6553 42.4278H50.058V44.5522H41.0108V42.6475L41.9631 41.8417Z" fill="#500AD2"/>
<defs>
<filter id="filter0_d_247_2" x="0.553625" y="0.698263" width="77.8354" height="77.8351" filterUnits="userSpaceOnUse" color-interpolation-filters="sRGB">
<feFlood flood-opacity="0" result="BackgroundImageFix"/>
<feColorMatrix in="SourceAlpha" type="matrix" values="0 0 0 0 0 0 0 0 0 0 0 0 0 0 0 0 0 0 127 0" result="hardAlpha"/>
<feOffset dy="1.14464"/>
<feGaussianBlur stdDeviation="5.72319"/>
<feComposite in2="hardAlpha" operator="out"/>
<feColorMatrix type="matrix" values="0 0 0 0 0.490196 0 0 0 0 0.490196 0 0 0 0 0.572549 0 0 0 0.5 0"/>
<feBlend mode="normal" in2="BackgroundImageFix" result="effect1_dropShadow_247_2"/>
<feBlend mode="normal" in="SourceGraphic" in2="effect1_dropShadow_247_2" result="shape"/>
</filter>
</defs>
</svg>
