<svg width="79" height="79" viewBox="0 0 79 79" fill="none" xmlns="http://www.w3.org/2000/svg">
<g filter="url(#filter0_d_249_66)">
<rect x="12" y="11" width="54.9426" height="54.9426" rx="27.4713" fill="white"/>
</g>
<path d="M29.0939 37.8858C29.0939 35.7736 29.4724 34.1192 30.2294 32.9227C30.9986 31.7262 32.2684 31.1279 34.0387 31.1279C35.8091 31.1279 37.0728 31.7262 37.8298 32.9227C38.599 34.1192 38.9836 35.7736 38.9836 37.8858C38.9836 40.0103 38.599 41.6769 37.8298 42.8856C37.0728 44.0944 35.8091 44.6987 34.0387 44.6987C32.2684 44.6987 30.9986 44.0944 30.2294 42.8856C29.4724 41.6769 29.0939 40.0103 29.0939 37.8858ZM36.4562 37.8858C36.4562 36.9823 36.3952 36.2254 36.2731 35.6149C36.1632 34.9922 35.9312 34.4855 35.5771 34.0948C35.2353 33.7041 34.7225 33.5087 34.0387 33.5087C33.355 33.5087 32.8361 33.7041 32.482 34.0948C32.1402 34.4855 31.9082 34.9922 31.7861 35.6149C31.6762 36.2254 31.6213 36.9823 31.6213 37.8858C31.6213 38.8138 31.6762 39.5952 31.7861 40.2301C31.896 40.8527 32.1279 41.3594 32.482 41.7501C32.8361 42.1286 33.355 42.3179 34.0387 42.3179C34.7225 42.3179 35.2414 42.1286 35.5954 41.7501C35.9495 41.3594 36.1815 40.8527 36.2914 40.2301C36.4013 39.5952 36.4562 38.8138 36.4562 37.8858ZM40.9704 34.9006C41.0314 33.6797 41.4587 32.7396 42.2524 32.0802C43.0582 31.4087 44.1143 31.073 45.4207 31.073C46.312 31.073 47.0751 31.2317 47.71 31.5491C48.3449 31.8544 48.8211 32.2756 49.1385 32.8128C49.4682 33.3378 49.633 33.9361 49.633 34.6076C49.633 35.3768 49.4315 36.03 49.0286 36.5672C48.6379 37.0922 48.1678 37.4463 47.6184 37.6294V37.7027C48.3266 37.9225 48.876 38.3132 49.2667 38.8748C49.6696 39.4364 49.8711 40.1568 49.8711 41.0359C49.8711 41.7685 49.7001 42.4217 49.3583 42.9955C49.0286 43.5693 48.5341 44.0211 47.8748 44.3508C47.2277 44.6682 46.4463 44.8269 45.5306 44.8269C44.1509 44.8269 43.0277 44.479 42.1608 43.783C41.2939 43.0871 40.8361 42.0615 40.7872 40.7062H43.278C43.3024 41.3045 43.5038 41.7868 43.8823 42.153C44.273 42.5071 44.8041 42.6842 45.4757 42.6842C46.0983 42.6842 46.5745 42.5132 46.9042 42.1714C47.246 41.8173 47.417 41.3655 47.417 40.8161C47.417 40.0835 47.185 39.5585 46.721 39.2411C46.2571 38.9236 45.5367 38.7649 44.5599 38.7649H44.0288V36.6588H44.5599C46.2937 36.6588 47.1606 36.0788 47.1606 34.9189C47.1606 34.3939 47.0018 33.9849 46.6844 33.6919C46.3792 33.3989 45.9335 33.2523 45.3475 33.2523C44.7736 33.2523 44.328 33.4111 44.0105 33.7285C43.7053 34.0338 43.5282 34.4245 43.4794 34.9006H40.9704Z" fill="#500AD2"/>
<defs>
<filter id="filter0_d_249_66" x="0.553625" y="0.698263" width="77.8354" height="77.8351" filterUnits="userSpaceOnUse" color-interpolation-filters="sRGB">
<feFlood flood-opacity="0" result="BackgroundImageFix"/>
<feColorMatrix in="SourceAlpha" type="matrix" values="0 0 0 0 0 0 0 0 0 0 0 0 0 0 0 0 0 0 127 0" result="hardAlpha"/>
<feOffset dy="1.14464"/>
<feGaussianBlur stdDeviation="5.72319"/>
<feComposite in2="hardAlpha" operator="out"/>
<feColorMatrix type="matrix" values="0 0 0 0 0.490196 0 0 0 0 0.490196 0 0 0 0 0.572549 0 0 0 0.5 0"/>
<feBlend mode="normal" in2="BackgroundImageFix" result="effect1_dropShadow_249_66"/>
<feBlend mode="normal" in="SourceGraphic" in2="effect1_dropShadow_249_66" result="shape"/>
</filter>
</defs>
</svg>
