<svg width="79" height="79" viewBox="0 0 79 79" fill="none" xmlns="http://www.w3.org/2000/svg">
<g filter="url(#filter0_d_250_67)">
<rect x="11.877" y="11" width="54.9426" height="54.9426" rx="27.4713" fill="white"/>
</g>
<path d="M27.899 37.8858C27.899 35.7736 28.2775 34.1192 29.0345 32.9227C29.8037 31.7262 31.0735 31.1279 32.8438 31.1279C34.6142 31.1279 35.8779 31.7262 36.6349 32.9227C37.4041 34.1192 37.7887 35.7736 37.7887 37.8858C37.7887 40.0103 37.4041 41.6769 36.6349 42.8856C35.8779 44.0944 34.6142 44.6987 32.8438 44.6987C31.0735 44.6987 29.8037 44.0944 29.0345 42.8856C28.2775 41.6769 27.899 40.0103 27.899 37.8858ZM35.2613 37.8858C35.2613 36.9823 35.2003 36.2254 35.0782 35.6149C34.9683 34.9922 34.7363 34.4855 34.3822 34.0948C34.0404 33.7041 33.5276 33.5087 32.8438 33.5087C32.1601 33.5087 31.6412 33.7041 31.2871 34.0948C30.9453 34.4855 30.7133 34.9922 30.5912 35.6149C30.4813 36.2254 30.4264 36.9823 30.4264 37.8858C30.4264 38.8138 30.4813 39.5952 30.5912 40.2301C30.7011 40.8527 30.9331 41.3594 31.2871 41.7501C31.6412 42.1286 32.1601 42.3179 32.8438 42.3179C33.5276 42.3179 34.0465 42.1286 34.4006 41.7501C34.7546 41.3594 34.9866 40.8527 35.0965 40.2301C35.2064 39.5952 35.2613 38.8138 35.2613 37.8858ZM39.629 42.1347V40.1202L45.6177 31.5491H48.6029V39.9004H50.2146V42.1347H48.6029V44.7354H46.0389V42.1347H39.629ZM46.2038 34.2963L42.4494 39.9004H46.2038V34.2963Z" fill="#500AD2"/>
<defs>
<filter id="filter0_d_250_67" x="0.430578" y="0.698263" width="77.8354" height="77.8351" filterUnits="userSpaceOnUse" color-interpolation-filters="sRGB">
<feFlood flood-opacity="0" result="BackgroundImageFix"/>
<feColorMatrix in="SourceAlpha" type="matrix" values="0 0 0 0 0 0 0 0 0 0 0 0 0 0 0 0 0 0 127 0" result="hardAlpha"/>
<feOffset dy="1.14464"/>
<feGaussianBlur stdDeviation="5.72319"/>
<feComposite in2="hardAlpha" operator="out"/>
<feColorMatrix type="matrix" values="0 0 0 0 0.490196 0 0 0 0 0.490196 0 0 0 0 0.572549 0 0 0 0.5 0"/>
<feBlend mode="normal" in2="BackgroundImageFix" result="effect1_dropShadow_250_67"/>
<feBlend mode="normal" in="SourceGraphic" in2="effect1_dropShadow_250_67" result="shape"/>
</filter>
</defs>
</svg>
