<svg width="79" height="75" viewBox="0 0 79 75" fill="none" xmlns="http://www.w3.org/2000/svg">
<path opacity="0.9" d="M62.1635 3.81503C62.6892 3.81503 63.2044 3.82905 63.7125 3.86059C63.7125 3.86059 63.7125 3.86059 63.716 3.86059C65.7312 5.73205 67.1611 8.40958 67.8094 12.0614C62.3843 8.91074 54.576 7.38974 46.5049 6.84652C51.9756 5.0101 57.4007 3.81152 62.16 3.81152M57.8108 57.0537C49.659 64.7814 39.783 68.6399 28.9818 68.7801C28.8451 68.7801 28.7119 68.7801 28.5752 68.7801C28.4035 68.7801 28.2283 68.7801 28.0601 68.7766C28.8346 69.3829 29.6266 69.9472 30.4327 70.4658C30.4327 70.4658 30.4397 70.4658 30.4432 70.4658C30.4432 70.4658 30.4467 70.4658 30.4502 70.4693C31.2843 70.5745 32.1289 70.6271 32.9875 70.6271C36.2959 70.6271 39.783 69.835 43.4418 68.0932C49.0843 65.4017 53.9276 61.7078 57.8108 57.0502" fill="#3F3F3F"/>
<path opacity="0.6" d="M52.582 0.225586C44.9454 0.225586 35.5916 3.30965 27.0929 7.17174C30.3241 6.82478 33.7622 6.66357 37.3474 6.61801C37.8976 6.611 38.4478 6.60749 39.0051 6.60749C41.4898 6.60749 44.0097 6.68109 46.505 6.84931C51.9757 5.01289 57.4008 3.81431 62.1601 3.81431C62.6858 3.81431 63.2009 3.82833 63.7091 3.85987C60.9335 1.28398 57.0503 0.225586 52.5785 0.225586M2.70775 25.0383C-0.264168 30.3373 -0.534024 36.607 3.18788 44.4153C3.51731 45.1022 3.85376 45.7856 4.19721 46.462C2.98111 41.4644 2.41336 35.9867 2.34327 30.4249C2.31873 28.4798 2.4414 26.6855 2.71125 25.0383M23.364 68.2993C25.6104 69.4173 27.9725 70.1672 30.4398 70.4756C29.6302 69.9605 28.8417 69.3962 28.0672 68.7864C26.406 68.7584 24.8394 68.5937 23.364 68.2993ZM63.7196 3.86338C68.3142 4.13323 72.1763 5.66125 74.6821 8.99764V9.00465C74.6821 9.00465 74.6856 9.00816 74.6891 9.01166C76.133 10.9392 77.1248 13.466 77.5454 16.7043C77.5454 16.7078 77.5454 16.7113 77.5454 16.7148C77.5454 16.7148 77.5454 16.7183 77.5454 16.7218C77.5454 16.7218 77.5454 16.7253 77.5454 16.7288C77.5454 16.7323 77.5454 16.7358 77.5454 16.7358C77.5454 16.7358 77.5454 16.7358 77.5454 16.7429V16.7499C77.5454 16.7499 77.5454 16.751 77.5454 16.7534C77.5454 16.7534 77.5454 16.7604 77.5454 16.7639C77.5454 16.7639 77.5454 16.7639 77.5454 16.7674C77.5454 16.7674 77.5454 16.7744 77.5454 16.7779C77.5454 16.7779 77.5454 16.7884 77.5454 16.7919C77.5559 16.89 77.5699 16.9882 77.5804 17.0863C77.6014 17.258 77.6189 17.4298 77.6365 17.6015C80.6049 44.7763 70.792 63.2071 53.0025 71.6918C52.9745 71.7058 52.9429 71.7198 52.9149 71.7338C49.2911 73.4476 45.8321 74.2256 42.5517 74.2256C38.1885 74.2256 34.1407 72.8483 30.4328 70.4792C31.2669 70.5843 32.1115 70.6369 32.9701 70.6369C36.2785 70.6369 39.7656 69.8483 43.4244 68.103C49.0668 65.4115 53.9102 61.7176 57.7933 57.06C64.6063 50.601 70.2102 41.4399 74.1424 29.4856C76.9075 21.0746 73.8199 15.5653 67.792 12.0677C67.1436 8.41237 65.7138 5.73835 63.6986 3.86688M27.0648 7.17875C14.2064 8.55957 4.67033 12.9298 2.71125 25.0313C6.55582 18.1797 14.9213 12.9579 25.0146 8.14252C25.698 7.81659 26.392 7.49416 27.0859 7.17524M4.20071 46.469C6.88175 57.484 12.7134 66.172 23.3394 68.2923C15.5311 64.4021 9.08265 56.0787 4.20071 46.469Z" fill="#909090"/>
<path opacity="0.8" d="M39.0052 6.60742C41.49 6.60742 44.0098 6.68102 46.5051 6.84924C42.4748 8.20202 38.4199 9.90527 34.5894 11.7312C16.6878 20.2684 4.22538 30.1024 12.7626 48.004C16.7509 56.366 21.8922 63.9465 28.0603 68.7828C26.3991 68.7548 24.8325 68.5901 23.3571 68.2957C23.3536 68.2957 23.3501 68.2922 23.3466 68.2887C23.3431 68.2887 23.3396 68.2887 23.3361 68.2887C15.5278 64.3986 9.08278 56.0751 4.19734 46.4654C4.19734 46.4654 4.19734 46.4654 4.19734 46.4619C2.98124 41.4643 2.41349 35.9866 2.3434 30.4248C2.31887 28.4797 2.44153 26.6854 2.70788 25.0382C2.70788 25.0382 2.70788 25.0347 2.71139 25.0312C6.55946 18.1797 14.9215 12.9543 25.0148 8.14244C25.6982 7.81652 26.3886 7.49409 27.086 7.17517C30.3173 6.82821 33.7588 6.67051 37.3405 6.62144C37.8907 6.61443 38.441 6.61093 38.9982 6.61093M67.8061 12.0676C67.8868 12.5267 67.9569 13.0033 68.0129 13.494C70.1683 32.2963 66.2431 46.9456 57.8075 57.0599C64.6205 50.6009 70.2243 41.4398 74.1565 29.4856C76.9217 21.0745 73.8341 15.5652 67.8061 12.0676Z" fill="#474747"/>
<path d="M46.5048 6.84921C54.5759 7.39242 62.3842 8.91343 67.8094 12.0641C67.89 12.5232 67.9601 12.9998 68.0161 13.4905C70.1715 32.2927 66.2463 46.942 57.8107 57.0564C49.6624 64.784 39.7829 68.6426 28.9817 68.7828C28.845 68.7828 28.7118 68.7828 28.5752 68.7828C28.4034 68.7828 28.2317 68.7828 28.06 68.7793C21.8919 63.9429 16.7506 56.3625 12.7623 48.0004C4.22157 30.0988 16.684 20.2649 34.5891 11.7276C38.4161 9.90173 42.4745 8.19849 46.5048 6.8457M24.5904 38.8534H20.9456L24.5904 33.3406V38.8534ZM24.3311 42.0636V44.8848H28.0425V42.0636H29.8228V38.8534H28.0425V29.2612H23.8965L17.038 39.0707V42.0671H24.3311V42.0636ZM45.6426 29.6503H41.9313V39.0917L35.7246 29.6503H32.0132V44.8848H35.7246V35.4889L41.9313 44.8848H45.6426V29.6503ZM62.5489 34.4691C62.1424 32.906 61.3153 31.6829 60.0641 30.8033C58.813 29.9201 57.2745 29.4785 55.4521 29.4785C53.9486 29.4785 52.6098 29.808 51.4358 30.4668C50.2652 31.1257 49.347 32.0439 48.6917 33.2215C48.0328 34.399 47.7034 35.7413 47.7034 37.2483C47.7034 38.7552 48.0328 40.0905 48.6917 41.2646C49.3505 42.4351 50.2687 43.3498 51.4498 44.0087C52.6273 44.6675 53.9696 44.997 55.4766 44.997C56.7488 44.997 57.8913 44.7517 58.9041 44.261C59.917 43.7704 60.751 43.1255 61.4099 42.33C62.0688 41.5344 62.5349 40.6723 62.8083 39.7471V36.295H54.7336V39.0286H59.4438C59.1529 39.8978 58.6938 40.5636 58.0665 41.0262C57.4392 41.4888 56.6682 41.7202 55.757 41.7202C54.4252 41.7202 53.3808 41.3241 52.6203 40.5391C51.8598 39.7506 51.4813 38.6536 51.4813 37.2518C51.4813 35.934 51.8423 34.8826 52.5678 34.0941C53.2897 33.3056 54.2535 32.913 55.4556 32.913C56.1495 32.913 56.7523 33.0462 57.2675 33.3161C57.7791 33.5824 58.1752 33.9714 58.4485 34.4761H62.5489V34.4691Z" fill="#242424"/>
</svg>
