<svg width="112" height="36" viewBox="0 0 112 36" fill="none" xmlns="http://www.w3.org/2000/svg">
<path d="M15.7535 8.21045H0.483466V13.1187H10.5181C11.1725 13.1187 11.6088 13.664 11.6088 14.2094V22.8261H9.42736C8.77293 22.8261 8.33664 22.2807 8.33664 21.7354V15.5183H4.08284C1.9014 15.5183 0.15625 17.2634 0.15625 19.4449V23.8077C0.15625 25.9892 1.9014 27.7343 4.08284 27.7343H19.6801V12.137C19.6801 9.9556 17.935 8.21045 15.7535 8.21045Z" fill="black"/>
<path d="M34.4047 22.8263H32.2233C31.5688 22.8263 31.1325 22.2809 31.1325 21.7356V8.21067H26.8787C24.6973 8.21067 22.9521 9.95582 22.9521 12.1373V23.8079C22.9521 25.9894 24.6973 27.7345 26.8787 27.7345H42.476V0.0302734H34.2956L34.4047 22.8263Z" fill="black"/>
<path d="M57.2006 22.8261H55.0192C54.3647 22.8261 53.9284 22.2807 53.9284 21.7354V8.21045H45.748V23.8077C45.748 25.9892 47.4932 27.7343 49.6746 27.7343H57.2006V30.1339H46.0753V35.8056H61.4544C63.6358 35.8056 65.381 34.0605 65.381 31.8791V8.21045H57.2006V22.8261Z" fill="black"/>
<path d="M84.2508 8.21045H68.5444V23.8077C68.5444 25.9892 70.2896 27.7343 72.471 27.7343H87.8502V22.8261H77.8155C77.1611 22.8261 76.7248 22.2807 76.7248 21.7354V13.1187H78.9063C79.5607 13.1187 79.997 13.664 79.997 14.2094V20.4265H84.2508C86.4322 20.4265 88.1774 18.6814 88.1774 16.4999V12.137C88.1774 9.9556 86.4322 8.21045 84.2508 8.21045Z" fill="black"/>
<path d="M107.047 8.21045H91.4497V27.7343H99.6301V13.1187H101.812C102.466 13.1187 102.902 13.664 102.902 14.2094V27.7343H111.083V12.137C110.974 9.9556 109.228 8.21045 107.047 8.21045Z" fill="black"/>
</svg>
