<svg width="33" height="33" viewBox="0 0 33 33" fill="none" xmlns="http://www.w3.org/2000/svg">
<path d="M21.2266 13.3824V20.9824C21.2266 21.2658 21.3222 21.5031 21.5136 21.6944C21.7056 21.8864 21.9432 21.9824 22.2266 21.9824C22.5099 21.9824 22.7476 21.8864 22.9396 21.6944C23.1309 21.5031 23.2266 21.2658 23.2266 20.9824V10.9824C23.2266 10.6991 23.1309 10.4614 22.9396 10.2694C22.7476 10.0781 22.5099 9.98242 22.2266 9.98242H12.2266C11.9432 9.98242 11.7059 10.0781 11.5146 10.2694C11.3226 10.4614 11.2266 10.6991 11.2266 10.9824C11.2266 11.2658 11.3226 11.5034 11.5146 11.6954C11.7059 11.8868 11.9432 11.9824 12.2266 11.9824H19.8266L10.9266 20.8824C10.7432 21.0658 10.6516 21.2991 10.6516 21.5824C10.6516 21.8658 10.7432 22.0991 10.9266 22.2824C11.1099 22.4658 11.3432 22.5574 11.6266 22.5574C11.9099 22.5574 12.1432 22.4658 12.3266 22.2824L21.2266 13.3824Z" fill="black"/>
<circle cx="16.0006" cy="16.0006" r="15.0006" transform="matrix(-1 0 0 1 32.9397 0.269043)" stroke="black" stroke-width="2"/>
</svg>
