<svg width="165" height="36" viewBox="0 0 165 36" fill="none" xmlns="http://www.w3.org/2000/svg">
<path d="M91.2917 27.5721C91.2917 29.5388 92.4389 30.5767 94.269 30.8499V35.6572C88.8061 35.5753 85.9108 32.9531 85.9108 27.9545V0.0664062H91.2917V27.5721ZM108.199 10.4459C101.453 10.4459 96.1264 15.9635 96.1264 22.956C96.1264 29.9485 101.289 35.466 107.735 35.466C111.013 35.466 113.662 34.2369 115.219 32.4341L115.52 32.5434V35.0017H120.928V10.9376H115.52V12.6311L115.274 12.7403C113.635 11.3746 111.423 10.4459 108.199 10.4459ZM108.882 30.9865C104.84 30.9865 101.507 27.4902 101.507 22.9833C101.507 18.4491 104.84 14.9801 108.882 14.9801C111.532 14.9801 113.854 15.7723 115.492 17.0014V27.299C114.072 29.9485 111.586 30.9865 108.882 30.9865ZM125.38 35.0836H130.761V18.2306C132.455 16.5098 134.804 15.3899 137.563 15.3899H138.71V10.4732H138.027C135.077 10.4732 132.619 11.8663 131.034 13.7783L130.734 13.669V10.9376H125.353L125.38 35.0836ZM68.8119 10.4459C62.0652 10.4459 56.7115 15.9908 56.7115 22.956C56.7115 29.9485 61.874 35.466 68.3202 35.466C71.598 35.466 74.2475 34.2369 75.8044 32.4341L76.1049 32.5434V35.0017H81.5131V10.9376H76.1049V12.6311L75.859 12.7403C74.2475 11.3746 72.035 10.4459 68.8119 10.4459ZM69.4674 30.9865C65.4249 30.9865 62.0925 27.4902 62.0925 22.9833C62.0925 18.4491 65.3976 14.9801 69.4674 14.9801C72.1169 14.9801 74.4387 15.7723 76.0775 17.0014V27.299C74.6845 29.9485 72.1716 30.9865 69.4674 30.9865ZM151.848 10.4459C145.101 10.4459 139.775 15.9635 139.775 22.956C139.775 29.9485 144.937 35.466 151.384 35.466C154.661 35.466 157.311 34.2369 158.868 32.4341L159.168 32.5434V35.0017H164.577V10.9376H159.168V12.6311L158.923 12.7403C157.284 11.3746 155.071 10.4459 151.848 10.4459ZM152.504 30.9865C148.461 30.9865 145.156 27.4902 145.156 22.9833C145.156 18.4491 148.461 14.9801 152.504 14.9801C155.153 14.9801 157.475 15.7723 159.114 17.0014V27.299C157.721 29.9485 155.208 30.9865 152.504 30.9865ZM28.1132 34.9744H33.9858L28.8234 22.6009C27.3211 24.2125 26.01 25.7967 24.8901 27.299L28.1132 34.9744ZM51.4398 10.9649L43.901 28.5828H43.8191H43.7644H43.7371H43.6825H43.6279L36.0891 10.9649H30.2711L41.0057 34.9744H41.0876H46.4413H46.4959L57.2305 10.9649H51.4398ZM19.8915 1.35019H14.7564H14.7291L0.662109 34.9744H6.53473L16.6957 10.9922L17.1874 9.70844H17.4605L17.9522 10.9922L20.9841 18.094C22.3225 16.7556 23.7975 15.4445 25.3271 14.188L19.8915 1.35019Z" fill="#070707"/>
</svg>
