<svg width="100" height="60" viewBox="0 0 100 60" fill="none" xmlns="http://www.w3.org/2000/svg">
<path d="M19.0804 0.612408C14.6236 0.612408 10.0989 2.35029 9.34516 3.30065C9.14853 3.6939 8.69255 6.87217 9.774 6.87217C10.1345 6.87217 10.2999 6.9349 11.3485 6.44333C15.2811 4.9031 17.7727 4.9392 18.1332 4.9392C22.5572 4.51318 25.1126 7.52964 24.7193 11.4294V13.7208C20.9835 12.836 18.849 12.8055 17.8003 12.8055C12.3603 12.4778 7.33538 15.346 7.33538 21.6511C7.33538 28.5658 13.5071 30.0446 15.8993 29.9463C19.4714 29.979 22.8806 28.373 25.1418 25.5875C26.9442 29.6183 28.0917 29.351 28.1245 29.351C28.4522 29.351 28.7136 29.2204 28.9757 29.0566L30.8447 27.7445C31.1724 27.5478 31.4328 27.2224 31.4656 26.8292C31.4328 25.8788 29.7279 24.4041 29.859 21.0943V10.8725C30.0556 8.05423 29.1419 5.29635 27.2412 3.16624C24.98 1.26552 21.997 0.35024 19.0804 0.612408ZM82.5678 0.612408C76.0136 0.612408 72.2477 4.70724 72.346 8.86915C72.346 14.5713 78.1104 16.3788 78.7658 16.5754C84.3041 18.3123 85.0599 18.3753 86.6001 19.6861C87.911 21.0297 87.7463 23.6532 85.8129 24.8002C85.2558 25.1279 82.8609 26.5673 77.4537 25.4531C75.6513 25.0926 74.704 24.6676 73.2293 24.0449C72.8361 23.9138 71.9172 23.6837 71.9172 24.8962V26.5027C71.9172 27.2565 72.3747 27.9416 73.0629 28.2693C76.5039 30.0062 80.6333 30.0743 81.5181 30.0743C81.6492 30.0743 89.1844 30.0783 91.7078 24.9922C92.2289 23.9435 93.5783 20.115 91.0549 16.8379C88.9576 14.3801 87.1549 14.1176 81.7805 12.4791C81.3217 12.348 77.3569 11.3283 77.3897 8.54273C77.1931 4.97069 82.0447 4.77765 83.0606 4.84319C87.157 4.77765 89.1855 6.31302 90.2997 6.41133C90.7912 6.41133 91.0229 6.11947 91.0229 5.46405V3.95351C91.0557 3.59303 90.9251 3.23716 90.7285 2.94222C89.4177 1.23813 84.4029 0.612408 82.5678 0.612408ZM32.8225 1.43168C32.462 1.49722 32.2001 1.85847 32.2656 2.21895C32.3312 2.64498 32.3962 3.07305 32.5601 3.49907L39.9015 27.7125C40.0654 28.499 40.5851 29.3541 41.7321 29.223H44.4203C46.0589 29.3868 46.2885 27.8123 46.3213 27.6484L51.1409 7.46103L56.0246 27.6805C56.0573 27.8443 56.2878 29.4188 57.8935 29.255H60.6138C61.7935 29.3861 62.3509 28.531 62.5148 27.7445C70.773 1.16721 70.2131 2.97397 70.2787 2.7118C70.4097 1.33542 69.6225 1.43091 69.4914 1.46368H66.5727C65.098 1.29983 64.8077 2.64651 64.7422 2.97422L59.3017 23.9809L54.386 2.97422C54.1566 1.36844 52.8448 1.43091 52.5171 1.46368H49.9952C48.5533 1.3326 48.1926 2.48266 48.0943 2.97422L43.2106 23.6865L37.9685 2.97422C37.8375 2.3188 37.4096 1.3006 36.1316 1.43168H32.8225ZM18.882 16.6075C21.2415 16.6402 23.2782 16.9966 24.6873 17.3243C24.6873 18.9629 24.747 19.882 24.3865 21.3567C23.9277 22.9297 21.9 25.7843 17.1155 25.8499C14.3627 25.981 12.5608 23.8145 12.7247 21.3567C12.5608 17.4242 16.6208 16.4436 18.882 16.6075ZM92.6743 36.6349C89.6155 36.6775 86.0051 37.3627 83.2654 39.2847C82.4199 39.8713 82.5681 40.6858 83.5087 40.5776C86.5891 40.2073 93.4456 39.376 94.6713 40.9424C95.9002 42.5089 93.3123 48.9714 92.1686 51.8618C91.8147 52.7237 92.563 53.0805 93.3527 52.4251C98.4781 48.1321 99.8099 39.1326 98.7612 37.8382C98.2353 37.1909 95.733 36.5923 92.6743 36.6349ZM1.49165 39.912C0.777036 40.0103 0.469245 40.916 1.21642 41.6337C14.0528 53.6738 31.0145 59.5681 49.848 59.5681C63.2808 59.5681 78.8751 55.1853 89.6404 46.927C91.4199 45.5539 89.904 43.4964 88.0787 44.3092C76.0091 49.6344 62.9 52.2011 50.9681 52.2011C33.2849 52.2011 16.1663 48.5093 2.31732 40.1232C2.01419 39.9397 1.72985 39.8792 1.49165 39.912Z" fill="black"/>
</svg>
