<svg width="115" height="78" viewBox="0 0 115 78" fill="none" xmlns="http://www.w3.org/2000/svg">
<g clip-path="url(#clip0_1139_2121)">
<path d="M43.2787 52.6825C30.6231 52.6825 20.3462 42.3891 20.3462 29.7646C20.3462 17.1171 30.6462 6.84668 43.2787 6.84668C55.9113 6.84668 66.2112 17.1401 66.2112 29.7646C66.2346 42.3891 55.9344 52.6825 43.2787 52.6825ZM43.2787 10.0547C32.4014 10.0547 23.5794 18.8942 23.5794 29.7415C23.5794 40.5889 32.4245 49.4283 43.2787 49.4283C54.133 49.4283 62.978 40.5889 62.978 29.7415C62.978 18.8942 54.1561 10.0547 43.2787 10.0547Z" fill="#F9F0E9"/>
<path d="M16.2119 41.1649V41.211L19.422 40.5879C23.4404 49.4504 32.1007 55.2895 42.0543 55.6588L42.6779 58.913C31.1308 58.7283 20.5998 51.7583 16.2119 41.1649Z" fill="#272B5B"/>
<path d="M6.62907 24.571V25.9095H3.53446C3.48827 25.9095 3.44208 25.9326 3.39589 25.9557C3.3497 25.9788 3.30352 26.025 3.25732 26.0481C3.21114 26.0942 3.18805 26.1403 3.16495 26.1865C3.14185 26.2327 3.14185 26.2788 3.14185 26.325V30.9409C3.14185 30.9871 3.16495 31.0332 3.18805 31.0793C3.21114 31.1255 3.25732 31.1717 3.30352 31.2179C3.3497 31.264 3.39589 31.2871 3.44208 31.3102C3.48827 31.3333 3.55755 31.3333 3.60374 31.3333H6.76767V32.6718H1.98714C1.84858 32.6718 1.73311 32.6488 1.61764 32.6257C1.50217 32.6026 1.3636 32.5565 1.27123 32.5103C1.15576 32.4641 1.06338 32.3949 0.971002 32.3257C0.878624 32.2564 0.786248 32.1641 0.716965 32.0718C0.647683 31.9795 0.601494 31.8871 0.532212 31.7948C0.486023 31.6794 0.439835 31.5871 0.393647 31.4486C0.370552 31.3333 0.347458 31.2409 0.324364 31.1024C0.30127 31.0101 0.30127 30.8716 0.30127 30.7332V26.5558C0.30127 26.4173 0.30127 26.3019 0.324364 26.1634C0.347458 26.0481 0.370552 25.9326 0.393647 25.8173C0.439835 25.6788 0.486023 25.5634 0.555306 25.448C0.601494 25.3326 0.670777 25.2403 0.740059 25.1479C0.809342 25.0556 0.878624 24.9864 0.947909 24.9171C1.01719 24.8479 1.08647 24.8018 1.17885 24.7556C1.29432 24.6863 1.3867 24.6402 1.50217 24.594C1.61764 24.571 1.73311 24.5479 1.87167 24.5479H6.62907V24.571Z" fill="#272B5B"/>
<path d="M7.69092 24.6172H13.7647C14.0649 24.6172 14.3189 24.6633 14.5268 24.7326C14.7347 24.8018 14.9194 24.9172 15.058 25.0788C15.1273 25.148 15.1735 25.2403 15.2427 25.3327C15.2889 25.425 15.3351 25.5404 15.3582 25.6557C15.4044 25.8404 15.4275 26.0481 15.4275 26.302V27.9637C15.4275 28.056 15.4275 28.1253 15.4275 28.2176C15.4275 28.2868 15.4044 28.3791 15.4044 28.4714C15.3813 28.5407 15.3582 28.633 15.3351 28.7023C15.312 28.7715 15.2658 28.8407 15.1965 28.91C15.1504 28.9561 15.1042 29.0023 15.058 29.0253C15.0118 29.0715 14.9425 29.0946 14.8502 29.1177C14.7809 29.1408 14.6885 29.1638 14.5961 29.1869C14.5037 29.1869 14.4113 29.21 14.2728 29.21L15.8894 32.695H12.7716L11.4322 29.1869H10.5315V32.6719H7.69092V24.6172ZM10.5546 25.9327V27.8483H12.3098C12.3791 27.8483 12.4253 27.8483 12.4484 27.8252C12.4714 27.8021 12.5176 27.7791 12.5407 27.7329C12.5638 27.7098 12.5869 27.6636 12.5869 27.6175C12.5869 27.5714 12.5869 27.5252 12.5869 27.4559V26.2327C12.5869 26.1866 12.5869 26.1404 12.5638 26.0942C12.5407 26.0481 12.5176 26.025 12.4945 26.002C12.4714 25.9789 12.4253 25.9558 12.3791 25.9558C12.3329 25.9558 12.2867 25.9558 12.2636 25.9558H10.5546V25.9327Z" fill="#272B5B"/>
<path d="M16.9761 24.5938H20.6019L22.0337 29.1866L23.5579 24.5938H27.1145V32.6716H24.32V26.2324L22.1954 32.6716H20.2554L18.2001 26.3016V32.6716H16.9761V24.5938Z" fill="#272B5B"/>
<path d="M33.9023 26.7405C34.0177 26.7405 34.1101 26.7405 34.2256 26.7636C34.341 26.7866 34.4334 26.8097 34.5258 26.8558C34.6874 26.9251 34.826 27.0174 34.9415 27.1559C35.0339 27.2482 35.1032 27.3636 35.1725 27.479C35.2417 27.5944 35.2879 27.7329 35.3341 27.8945C35.3572 27.9868 35.3803 28.1022 35.3803 28.1945C35.3803 28.3099 35.4034 28.4252 35.4034 28.5407V30.8486C35.4034 30.964 35.4034 31.0794 35.3803 31.1948C35.3803 31.3102 35.3572 31.4025 35.3341 31.4949C35.2879 31.6102 35.2418 31.7257 35.1956 31.841C35.1494 31.9564 35.1032 32.0488 35.0339 32.118C34.9646 32.2103 34.8953 32.2796 34.826 32.3257C34.7567 32.3949 34.6643 32.4411 34.5951 32.4873C34.4796 32.5334 34.3641 32.5796 34.2487 32.6026C34.1332 32.6257 34.0177 32.6488 33.8792 32.6488H30.8076V34.8876H28.0825V26.6943H33.9023V26.7405ZM32.3781 27.9176H31.1079C31.0617 27.9176 31.0386 27.9406 30.9924 27.9637C30.9693 27.9868 30.9231 28.0098 30.9 28.056C30.8769 28.1022 30.8538 28.1253 30.8307 28.1714C30.8076 28.2175 30.8076 28.2637 30.8076 28.2868V31.2179C30.8076 31.241 30.8076 31.2872 30.8307 31.3102C30.8538 31.3564 30.8769 31.3794 30.9 31.4025C30.9231 31.4256 30.9693 31.4487 30.9924 31.4718C31.0386 31.4949 31.0617 31.4949 31.1079 31.4949H32.355C32.4012 31.4949 32.4243 31.4949 32.4704 31.4718C32.4935 31.4487 32.5397 31.4256 32.5628 31.4025C32.5859 31.3564 32.609 31.3333 32.6321 31.2872C32.6552 31.241 32.6552 31.1948 32.6552 31.1717V28.2175C32.6552 28.1714 32.6552 28.1483 32.6321 28.1022C32.609 28.056 32.5859 28.0329 32.5628 28.0098C32.5397 27.9868 32.4935 27.9637 32.4704 27.9406C32.4473 27.9176 32.4242 27.9176 32.3781 27.9176Z" fill="#FFA825"/>
<path d="M43.4405 28.7722V32.6495H41.0156L40.854 32.0264C40.854 32.0725 40.8309 32.1187 40.8078 32.1418C40.7847 32.1649 40.7616 32.211 40.7616 32.2341C40.7385 32.2802 40.7154 32.3264 40.6923 32.3495C40.6692 32.3726 40.6231 32.4188 40.6 32.4418C40.5076 32.511 40.4383 32.5572 40.346 32.6034C40.2536 32.6265 40.1381 32.6495 40.0457 32.6495H37.5285C37.3899 32.6495 37.2744 32.6495 37.1589 32.6265C37.0435 32.6034 36.9511 32.5803 36.8587 32.5341C36.7664 32.488 36.674 32.4418 36.6047 32.3495C36.5354 32.2802 36.4661 32.188 36.42 32.0956C36.3507 32.0033 36.3045 31.8879 36.2814 31.7725C36.2583 31.6571 36.2121 31.5186 36.2121 31.4033C36.189 31.2648 36.189 31.1494 36.189 31.0109C36.189 30.8724 36.189 30.757 36.189 30.6416V30.2954C36.189 30.18 36.189 30.0646 36.2121 29.9261C36.2352 29.8108 36.2583 29.6953 36.2814 29.58C36.3045 29.4646 36.3507 29.3492 36.3969 29.2569C36.4431 29.1414 36.5123 29.0491 36.6047 28.9799C36.674 28.8876 36.7894 28.8184 36.8818 28.7722C36.9742 28.726 37.0665 28.7029 37.182 28.6799C37.2975 28.6568 37.413 28.6568 37.5516 28.6568H40.346C40.3921 28.6568 40.4614 28.6337 40.5076 28.6107C40.5538 28.5876 40.6 28.5414 40.6462 28.4952C40.6692 28.4721 40.6923 28.426 40.7154 28.3798C40.7385 28.3336 40.7385 28.2875 40.7385 28.2644C40.7385 28.2183 40.7385 28.1721 40.7154 28.1259C40.6923 28.0798 40.6693 28.0337 40.6231 28.0106C40.5769 27.9644 40.5538 27.9413 40.5076 27.9182C40.4614 27.8952 40.4152 27.8952 40.3691 27.8952H36.6509V26.7412H41.8471C42.0087 26.7412 42.1473 26.7643 42.2627 26.7873C42.4013 26.8104 42.5168 26.8566 42.6092 26.9027C42.7247 26.9489 42.8401 27.0182 42.9094 27.1104C43.0018 27.2028 43.0711 27.2951 43.1403 27.3874C43.2096 27.4797 43.2558 27.572 43.302 27.6644C43.3482 27.7567 43.3713 27.8721 43.3943 27.9644C43.4405 28.1029 43.4636 28.2414 43.4636 28.4029C43.4405 28.5183 43.4405 28.6568 43.4405 28.7722ZM40.7154 29.8108H39.376C39.3067 29.8108 39.2605 29.8339 39.1912 29.8569C39.1451 29.88 39.0758 29.9261 39.0296 29.9723C38.9834 30.0185 38.9603 30.0646 38.9372 30.1338C38.9141 30.18 38.891 30.2493 38.891 30.2954V31.1494C38.891 31.1956 38.891 31.2186 38.9141 31.2648C38.9372 31.3109 38.9603 31.3571 38.9834 31.3802C39.0296 31.4263 39.0758 31.4494 39.122 31.4725C39.1682 31.4955 39.2143 31.5186 39.2605 31.5186H40.346C40.3921 31.5186 40.4152 31.4955 40.4614 31.4725C40.5076 31.4494 40.5538 31.4033 40.5769 31.3802C40.6 31.3571 40.6231 31.3109 40.6462 31.2648C40.6692 31.2186 40.6693 31.1725 40.6693 31.1494V29.8108H40.7154Z" fill="#FFA825"/>
<path d="M47.2057 32.6723H44.4575V26.7409H47.2057V27.2717C47.2519 27.2024 47.2981 27.1563 47.3443 27.1102C47.3674 27.0871 47.3905 27.0409 47.4367 27.0178C47.4598 26.9947 47.506 26.9717 47.5291 26.9486C47.5753 26.9255 47.6214 26.8793 47.6676 26.8562C47.7138 26.8331 47.76 26.8101 47.8062 26.787C47.8524 26.7639 47.8986 26.7639 47.9678 26.7409C48.014 26.7409 48.0602 26.7178 48.1064 26.7178H49.7461V28.3564H48.2911C48.1526 28.3564 48.014 28.3795 47.8986 28.4026C47.76 28.4256 47.6676 28.4718 47.5753 28.518C47.5291 28.5411 47.4829 28.5641 47.4367 28.6103C47.3905 28.6334 47.3674 28.6795 47.3443 28.7257C47.2981 28.7718 47.275 28.818 47.2519 28.8873C47.2288 28.9334 47.2288 29.0026 47.2288 29.0719V32.6723H47.2057Z" fill="#FFA825"/>
<path d="M54.2945 25.4482V26.7407H56.4654V27.8947H54.2945V31.2181C54.2945 31.2643 54.2945 31.2873 54.3176 31.3334C54.3176 31.3796 54.3407 31.4027 54.3638 31.4258C54.3869 31.4488 54.41 31.472 54.4562 31.4951C54.5023 31.5181 54.5485 31.5181 54.6178 31.5181H56.6039V32.6721H53.0012C52.8396 32.6721 52.701 32.6491 52.5625 32.626C52.4239 32.6029 52.3084 32.5336 52.216 32.4875C52.1467 32.4414 52.0775 32.3721 52.0082 32.3259C51.9389 32.2567 51.8927 32.2105 51.8234 32.1413C51.7772 32.049 51.7311 31.9797 51.6849 31.8874C51.6387 31.7951 51.6156 31.7028 51.5925 31.6105C51.5694 31.5412 51.5694 31.4719 51.5694 31.3796C51.5694 31.3104 51.5694 31.2411 51.5694 31.1488V27.8947H50.3916V26.7407H51.5463V25.4482H54.2945Z" fill="#FFA825"/>
<path d="M60.1612 28.2414V32.6726H57.4131V26.7412H63.1869C63.4641 26.7412 63.7179 26.8104 63.9489 26.9258C64.1565 27.0412 64.3185 27.1797 64.4571 27.3874C64.5033 27.4567 64.5495 27.5489 64.5957 27.6413C64.6419 27.7336 64.6881 27.849 64.7109 27.9644C64.7343 28.0798 64.7571 28.1952 64.7805 28.3336C64.8033 28.4721 64.8033 28.5876 64.8033 28.7491V32.6726H62.0782V28.2644C62.0782 28.1952 62.0782 28.149 62.0554 28.1029C62.032 28.0567 62.0092 28.0337 61.9858 27.9875C61.9396 27.9413 61.9168 27.9182 61.8472 27.9182C61.801 27.8951 61.7548 27.8951 61.7086 27.8951H60.5309C60.4847 27.8951 60.4619 27.8951 60.4157 27.9182C60.3695 27.9413 60.3233 27.9644 60.2999 27.9875C60.2767 28.0106 60.2536 28.0337 60.2305 28.0798C60.1612 28.149 60.1612 28.1952 60.1612 28.2414Z" fill="#FFA825"/>
<path d="M71.4551 26.7174C71.5937 26.7174 71.7095 26.7174 71.8475 26.7405C71.9861 26.7636 72.1019 26.8097 72.2171 26.8558C72.3094 26.902 72.379 26.9713 72.4714 27.0405C72.5404 27.1098 72.61 27.2021 72.679 27.2944C72.7252 27.3636 72.7486 27.4559 72.7714 27.5252C72.7948 27.6175 72.8176 27.6867 72.841 27.8021C72.8638 27.9406 72.8638 28.056 72.8638 28.2175V30.3178H68.2681V30.964C68.2681 31.0332 68.2915 31.0794 68.3143 31.1487C68.3377 31.2179 68.3839 31.2641 68.4301 31.3102C68.4763 31.3564 68.5452 31.4025 68.5914 31.4256C68.661 31.4487 68.7072 31.4718 68.7762 31.4718H72.5866V32.6257H66.9055C66.7903 32.6257 66.6745 32.6257 66.5594 32.6026C66.4436 32.5796 66.3284 32.5565 66.236 32.4873C66.1436 32.4411 66.0512 32.3949 65.9816 32.3257C65.9126 32.2565 65.843 32.1642 65.774 32.0719C65.7278 32.0026 65.6816 31.9334 65.6588 31.841C65.6354 31.7487 65.6126 31.6333 65.5892 31.541C65.5664 31.4718 65.5664 31.3794 65.5664 31.2872C65.5664 31.1948 65.5664 31.1025 65.5664 31.0102V28.333C65.5664 28.2406 65.5664 28.1483 65.5664 28.0791C65.5664 27.9868 65.5892 27.9176 65.5892 27.8483C65.6126 27.7098 65.6354 27.5944 65.6816 27.5021C65.7278 27.3867 65.774 27.2944 65.8202 27.2251C65.8892 27.1328 65.9588 27.0405 66.0278 26.9713C66.0974 26.902 66.1898 26.8558 66.2822 26.8097C66.3746 26.7636 66.467 26.7405 66.5822 26.7174C66.6979 26.6943 66.7903 26.6943 66.9055 26.6943H71.4551V26.7174ZM70.2084 29.1869V28.2637C70.2084 28.2175 70.2084 28.1945 70.185 28.1483C70.1622 28.1022 70.1388 28.056 70.116 28.0329C70.0926 27.9868 70.0464 27.9637 70.0236 27.9406C69.9774 27.9176 69.954 27.9176 69.9078 27.9176H68.5914C68.5452 27.9176 68.5224 27.9176 68.4763 27.9406C68.4529 27.9637 68.4067 27.9868 68.3839 28.0098C68.3605 28.056 68.3377 28.0791 68.3143 28.1253C68.2915 28.1714 68.2915 28.1945 68.2915 28.2406V29.1869H70.2084Z" fill="#FFA825"/>
<path d="M76.6272 32.6723H73.8794V26.7409H76.6272V27.2717C76.6734 27.2024 76.7196 27.1563 76.7658 27.1102C76.7892 27.0871 76.812 27.0409 76.8582 27.0178C76.8816 26.9947 76.9278 26.9717 76.9506 26.9486C76.9968 26.9255 77.043 26.8793 77.0892 26.8562C77.1354 26.8331 77.1816 26.8101 77.2278 26.787C77.274 26.7639 77.3202 26.7639 77.3898 26.7409C77.436 26.7409 77.4822 26.7178 77.5284 26.7178H79.1681V28.3564H77.7126C77.5746 28.3564 77.436 28.3795 77.3202 28.4026C77.1816 28.4256 77.0892 28.4718 76.9968 28.518C76.9506 28.5411 76.9044 28.5641 76.8582 28.6103C76.812 28.6334 76.7892 28.6795 76.7658 28.7257C76.7196 28.7718 76.6968 28.818 76.6734 28.8873C76.6506 28.9334 76.6506 29.0026 76.6506 29.0719V32.6723H76.6272Z" fill="#FFA825"/>
<path d="M86.3737 26.7409V27.8256H82.7481C82.7247 27.8256 82.7019 27.8256 82.6557 27.8487C82.6323 27.8487 82.5861 27.8718 82.5633 27.8949C82.5399 27.9179 82.5171 27.9179 82.4937 27.941C82.4709 27.9641 82.4709 27.9871 82.4709 28.0102V28.3334C82.4709 28.3564 82.4709 28.3795 82.4937 28.4026C82.5171 28.4256 82.5399 28.4487 82.5633 28.4487C82.5861 28.4718 82.6323 28.4718 82.6557 28.4718C82.6785 28.4718 82.7247 28.4718 82.7481 28.4718H85.427C85.5194 28.4718 85.5884 28.4718 85.6808 28.4949C85.7732 28.518 85.8427 28.518 85.9351 28.5411C86.0275 28.5641 86.0965 28.6103 86.1661 28.6565C86.2351 28.7026 86.3047 28.7488 86.3737 28.818C86.4199 28.8642 86.4661 28.9334 86.5123 29.0026C86.5585 29.0719 86.5813 29.1411 86.6275 29.2334C86.6509 29.3027 86.6737 29.395 86.6971 29.4873C86.7199 29.5796 86.7199 29.6951 86.7199 29.8104V31.1952C86.7199 31.3106 86.7199 31.4029 86.6971 31.4953C86.6737 31.5875 86.6509 31.6799 86.6047 31.7722C86.5813 31.8645 86.5351 31.9337 86.4895 32.003C86.4433 32.0722 86.3737 32.1415 86.3275 32.2107C86.2585 32.28 86.1889 32.3261 86.1199 32.3722C86.0503 32.4184 85.9579 32.4646 85.8889 32.5107C85.7732 32.5569 85.6808 32.5799 85.5656 32.603C85.4498 32.6261 85.3574 32.6261 85.2422 32.6261H79.9769V31.5645H83.8563C83.8797 31.5645 83.9258 31.5645 83.9486 31.5414C83.972 31.5183 84.0182 31.5183 84.041 31.4953C84.0644 31.4722 84.0872 31.4491 84.1106 31.426C84.1334 31.4029 84.1334 31.3567 84.1334 31.3337V31.0105C84.1334 30.9875 84.1334 30.9413 84.1106 30.9183C84.0872 30.8952 84.0644 30.8721 84.041 30.849C84.0182 30.8259 83.972 30.8028 83.9486 30.8028C83.9258 30.8028 83.8797 30.7797 83.8563 30.7797H81.1774C81.0622 30.7797 80.9698 30.7797 80.854 30.7567C80.7388 30.7336 80.6464 30.7105 80.5306 30.6644C80.4616 30.6413 80.3926 30.5951 80.323 30.549C80.254 30.5028 80.2078 30.4567 80.1616 30.3874C80.1155 30.3413 80.0692 30.272 80.0458 30.2027C80.0231 30.1335 79.9769 30.0643 79.9535 29.995C79.9307 29.9258 79.9307 29.8797 79.9307 29.8104C79.9307 29.7412 79.9307 29.672 79.9307 29.6027V28.0333C79.9307 27.9179 79.9307 27.8256 79.9535 27.7564C79.9769 27.664 79.9997 27.5948 80.0458 27.5025C80.092 27.4332 80.1382 27.364 80.1844 27.2948C80.2306 27.2255 80.3002 27.1563 80.3692 27.1102C80.4388 27.0409 80.5078 26.9947 80.6002 26.9486C80.6692 26.9024 80.7616 26.8562 80.854 26.8331C80.9698 26.787 81.0622 26.7639 81.1774 26.7409C81.2932 26.7178 81.4084 26.7178 81.5008 26.7178H86.3737V26.7409Z" fill="#FFA825"/>
<path d="M70.1381 18.3165V18.3626L66.9283 18.9858C62.9097 10.1233 54.2261 4.19184 44.2956 3.82257L43.6489 0.568359C55.2191 0.729916 65.7272 7.72298 70.1381 18.3165Z" fill="#FFA825"/>
</g>
<defs>
<clipPath id="clip0_1139_2121">
<rect width="86.9954" height="58.7969" fill="white" transform="translate(0.30127 0.568359)"/>
</clipPath>
</defs>
</svg>
