<svg width="190" height="44" viewBox="0 0 190 44" fill="none" xmlns="http://www.w3.org/2000/svg">
<path d="M17.0424 10.5816C17.137 10.7392 17.2 10.9284 17.2 11.1175C17.1685 11.4643 16.9793 11.748 16.6641 11.8741L13.8269 13.8601C13.6693 13.9547 13.4486 14.0178 13.2595 14.0178C12.8181 14.0178 12.5344 13.6395 12.3768 13.3873C11.6832 12.41 10.8005 11.748 9.50805 11.748C7.64811 11.8111 6.19798 13.3873 6.26103 15.2472C6.32408 17.0126 7.74268 18.4312 9.50805 18.4942C10.8005 18.4942 11.6517 17.8322 12.3768 16.855C12.5344 16.6343 12.8496 16.2245 13.2595 16.2245C13.4486 16.2245 13.6693 16.2875 13.8269 16.3821L16.6641 18.3681C16.9793 18.4942 17.1685 18.8095 17.2 19.1247C17.2 19.3139 17.137 19.503 17.0424 19.6606C15.7814 22.2772 12.4713 23.8219 9.16128 23.8219C3.92823 23.8219 0.365967 19.9444 0.365967 15.1842C0.365967 10.2664 4.21194 6.38887 9.3189 6.38887C12.5344 6.42039 15.7814 7.93356 17.0424 10.5816ZM30.724 26.4069C30.0304 28.7397 28.9901 29.9376 27.7292 30.7257C26.4367 31.4823 24.9865 31.8921 23.4734 31.8921C22.1178 31.8921 20.7938 31.5769 19.6274 30.9149C19.186 30.6627 18.8077 30.3789 18.461 30.0637C18.2718 29.8746 18.1457 29.6224 18.1457 29.3702C18.1773 29.118 18.2403 28.8658 18.3979 28.6766L20.1948 26.0286C20.3524 25.8079 20.6046 25.6818 20.8568 25.6503C21.1721 25.6503 21.4873 25.7764 21.708 25.9655C22.2439 26.3753 22.9059 26.6275 23.5995 26.6591C24.4506 26.6906 25.2072 26.1547 25.4909 25.3666L26.1214 23.349H23.0951C22.6222 23.349 22.2124 23.0338 22.0863 22.5609L17.862 8.24881C17.799 8.02813 17.7359 7.77594 17.7359 7.55526C17.7359 7.24002 17.9566 6.9563 18.4295 6.9563H23.3473C23.7886 6.9563 24.0408 7.3346 24.1354 7.74441L26.8465 19.0302H27.2878L30.1565 7.74441C30.2511 7.36612 30.5033 6.9563 30.9446 6.9563H35.5472C36.0201 6.9563 36.2407 7.2085 36.2407 7.55526C36.2407 7.80746 36.1777 8.02813 36.1147 8.24881L30.724 26.4069ZM46.4862 18.5258C48.3461 18.5573 49.8908 17.0756 49.9539 15.2157C49.9854 13.3558 48.5037 11.8111 46.6438 11.748C44.7839 11.685 43.2392 13.1981 43.1761 15.0581C43.1761 15.0896 43.1761 15.0896 43.1761 15.1211C43.1446 16.9811 44.6262 18.4942 46.4862 18.5258ZM43.1446 8.02813C43.9958 7.01935 45.635 6.38887 47.5265 6.38887C51.8138 6.38887 55.5967 9.63588 55.5967 15.0581C55.5967 20.4803 51.8138 23.8219 47.495 23.8219C46.0133 23.8219 44.0273 23.4436 43.1761 22.3087V22.5609C43.1761 22.9707 42.8609 23.3175 42.4511 23.3175H42.4195H38.2583C37.8485 23.3175 37.5017 23.0022 37.5017 22.5924V22.5609V0.840568C37.5017 0.430751 37.817 0.0839844 38.2268 0.0839844H38.2583H42.4195C42.8293 0.0839844 43.1761 0.430751 43.1761 0.840568L43.1446 8.02813ZM62.5636 13.1981H68.0174C67.7967 11.8741 66.5672 11.1491 65.3063 11.1491C64.0453 11.1491 62.7843 11.8741 62.5636 13.1981ZM68.4587 17.3594C68.6163 17.1387 68.9316 16.7289 69.3414 16.7289C69.5305 16.7289 69.7512 16.7919 69.9088 16.8865L72.7145 18.6519C73.0297 18.778 73.2189 19.0617 73.2504 19.3769C73.2504 19.5661 73.1874 19.7552 73.0928 19.9128C71.9264 22.4348 68.7739 23.8534 65.4324 23.8534C60.0102 23.8534 56.637 20.0389 56.637 15.2472C56.637 10.3294 60.2623 6.42039 65.3378 6.42039C70.5708 6.42039 73.5657 10.6131 73.5657 14.6167V15.3103C73.5657 15.7831 73.408 16.256 72.683 16.256H62.4375C62.5321 17.7377 63.6985 18.9356 65.4954 18.9356C66.6933 18.9356 67.8282 18.3366 68.4587 17.3594ZM80.9108 22.6555C80.8793 23.0653 80.5326 23.349 80.1227 23.349H75.93C75.5202 23.349 75.1734 23.0338 75.1734 22.6239V22.5924V7.68137C75.1734 7.27155 75.4886 6.92478 75.8985 6.92478H75.93H79.8705C80.2803 6.92478 80.6271 7.2085 80.6586 7.61832V8.53252C81.6359 7.14545 83.4328 6.60953 84.7568 6.60953H85.7026C86.0493 6.60953 86.5852 6.73563 86.5852 7.61832V11.7165C86.6168 12.2524 86.2385 12.6937 85.7341 12.7568C85.671 12.7568 85.6395 12.7568 85.5765 12.7568H83.9372C81.762 12.7568 80.8793 13.3242 80.8793 15.2157L80.9108 22.6555ZM95.5066 6.42039C98.8798 6.42039 100.96 7.58679 101.843 8.28033C102.316 8.65862 102.41 8.81625 102.41 9.03692C102.379 9.28911 102.284 9.54131 102.158 9.73046L100.771 12.0633C100.645 12.2839 100.424 12.41 100.172 12.3785C99.7624 12.347 99.3842 12.2209 99.0689 12.0002C97.871 11.4012 96.547 11.023 95.1914 10.9599C94.1826 10.9599 93.2684 11.2436 93.2684 12.0317C93.2684 12.3785 93.4576 12.6938 94.088 12.8829C96.3578 13.608 102.757 13.0405 102.757 18.2736C102.757 21.363 100.488 23.8849 95.1284 23.8849C91.9129 23.8849 89.4224 23.0022 87.9093 21.8358C87.4364 21.4575 87.3103 21.2684 87.3103 20.8586C87.3103 20.4488 87.4049 20.3227 87.7516 19.9128L89.2648 17.8638C89.3909 17.6746 89.6116 17.58 89.8323 17.6116C90.3682 17.6116 90.6204 17.9898 91.4085 18.4312C92.5118 19.0932 93.7728 19.44 95.0653 19.4715C96.1371 19.4715 97.0198 19.2193 97.0198 18.5573C97.0198 16.5082 87.8462 18.6203 87.8462 12.2839C87.8777 8.62709 90.8726 6.42039 95.5066 6.42039ZM116.187 15.1526C116.155 13.3242 114.673 11.8426 112.845 11.8741C111.017 11.9056 109.535 13.3873 109.567 15.2157C109.598 17.0441 111.08 18.4942 112.877 18.4942C114.737 18.4942 116.218 16.9811 116.187 15.1526ZM121.987 15.1842C121.987 20.0074 117.952 23.8534 112.877 23.8534C107.833 23.8534 103.798 20.0074 103.798 15.1842C103.798 10.3609 107.833 6.42039 112.877 6.42039C117.921 6.42039 121.987 10.3294 121.987 15.1842ZM129.112 15.5625C129.112 17.6116 129.963 18.9356 132.043 18.9356C133.84 18.9356 135.164 17.8953 135.164 15.8777V7.61832C135.196 7.2085 135.543 6.92478 135.952 6.92478H140.145C140.555 6.92478 140.902 7.24003 140.902 7.64984V7.68137V22.5924C140.902 23.0022 140.587 23.349 140.177 23.349H140.145H135.952C135.543 23.349 135.196 23.0653 135.164 22.6555V22.088C134.124 23.0653 132.926 23.8849 130.562 23.8849C125.991 23.8849 123.406 20.9216 123.406 16.4767V7.61832C123.437 7.2085 123.784 6.92478 124.194 6.92478H128.324C128.733 6.92478 129.08 7.2085 129.112 7.61832V15.5625ZM148.783 22.6555C148.751 23.0653 148.405 23.349 147.995 23.349H143.802C143.392 23.3805 143.045 23.0653 143.014 22.6555C143.014 22.6239 143.014 22.6239 143.014 22.5924V7.68137C143.014 7.27155 143.329 6.92478 143.739 6.92478H143.771H147.711C148.121 6.92478 148.468 7.2085 148.499 7.61832V8.53252C149.508 7.14545 151.273 6.60953 152.629 6.60953H153.543C153.921 6.60953 154.426 6.73563 154.426 7.61832V11.7165C154.457 12.2524 154.079 12.6937 153.543 12.7568C153.48 12.7568 153.449 12.7568 153.385 12.7568H151.746C149.571 12.7568 148.688 13.3242 148.688 15.2157L148.783 22.6555ZM171.796 10.5816C171.89 10.7392 171.953 10.9284 171.953 11.1175C171.922 11.4328 171.733 11.748 171.417 11.8741L168.549 13.8601C168.391 13.9547 168.17 14.0178 167.981 14.0178C167.54 14.0178 167.256 13.6395 167.099 13.3873C166.405 12.41 165.522 11.748 164.23 11.748C162.37 11.8111 160.92 13.3873 160.983 15.2472C161.046 17.0126 162.465 18.4312 164.23 18.4942C165.522 18.4942 166.374 17.8322 167.099 16.855C167.256 16.6343 167.571 16.2245 167.981 16.2245C168.17 16.2245 168.391 16.2875 168.549 16.3821L171.417 18.3681C171.733 18.5258 171.922 18.8095 171.953 19.1247C171.953 19.3139 171.89 19.503 171.796 19.6606C170.535 22.2772 167.225 23.8219 163.915 23.8219C158.682 23.8219 155.119 19.9444 155.119 15.1842C155.119 10.2664 158.965 6.38887 164.072 6.38887C167.319 6.42039 170.535 7.93356 171.796 10.5816ZM178.479 13.1981H183.933C183.712 11.8741 182.483 11.1491 181.222 11.1491C179.961 11.1491 178.731 11.8741 178.479 13.1981ZM184.406 17.3594C184.563 17.1387 184.878 16.7289 185.288 16.7289C185.477 16.7289 185.698 16.7919 185.856 16.8865L188.661 18.6519C188.977 18.778 189.166 19.0617 189.197 19.3769C189.197 19.5661 189.134 19.7552 189.04 19.9128C187.873 22.4348 184.721 23.8534 181.379 23.8534C175.957 23.8534 172.584 20.0389 172.584 15.2472C172.584 10.3294 176.209 6.42039 181.285 6.42039C186.518 6.42039 189.512 10.6131 189.512 14.6167V15.3103C189.512 15.7831 189.355 16.256 188.63 16.256H178.384C178.479 17.7377 179.645 18.9356 181.442 18.9356C182.64 18.9356 183.743 18.3366 184.406 17.3594ZM97.4612 43.367C97.4296 43.4931 97.3981 43.5246 97.272 43.5246H95.7588C95.6327 43.5246 95.6012 43.4931 95.5697 43.367L91.5031 32.0497C91.4715 31.9236 91.503 31.8921 91.6291 31.8921H92.9216C93.0477 31.8921 93.0793 31.9552 93.1108 32.0497L96.4839 41.8854L99.857 32.0497C99.8885 31.9236 99.9516 31.8921 100.046 31.8921H101.339C101.465 31.8921 101.496 31.9552 101.465 32.0497L97.4612 43.367ZM103.167 35.3598C103.167 35.2337 103.23 35.2022 103.325 35.2022H104.302C104.428 35.2022 104.46 35.2337 104.46 35.3598V43.3985C104.46 43.5246 104.397 43.5561 104.302 43.5561H103.325C103.199 43.5561 103.167 43.5246 103.167 43.3985V35.3598ZM102.946 32.0497C102.946 31.9236 103.009 31.8921 103.104 31.8921H104.523C104.649 31.8921 104.68 31.9552 104.68 32.0497V33.4999C104.68 33.626 104.617 33.6575 104.523 33.6575H103.104C102.978 33.6575 102.946 33.5944 102.946 33.4999V32.0497ZM109.661 43.7138C107.707 43.7138 106.162 42.5789 106.162 41.0027C106.162 40.9081 106.193 40.845 106.288 40.845H106.32H107.391C107.517 40.845 107.549 40.9081 107.549 41.0027C107.675 41.9799 108.463 42.4843 109.724 42.4843C110.828 42.4843 111.647 42.1376 111.647 41.2549C111.647 40.4037 110.922 40.0885 109.22 39.8363C107.234 39.521 106.383 38.859 106.383 37.4089C106.383 35.8642 107.77 35.0446 109.535 35.0446C111.395 35.0446 112.53 35.9903 112.751 37.4404C112.751 37.535 112.719 37.598 112.624 37.598H112.593H111.647C111.521 37.598 111.521 37.5665 111.49 37.4404C111.237 36.6208 110.386 36.274 109.503 36.274C108.432 36.274 107.675 36.6523 107.675 37.3774C107.675 38.197 108.337 38.4807 110.039 38.7644C111.647 39.0482 113.034 39.521 113.034 41.0972C113.034 42.768 111.616 43.7138 109.661 43.7138ZM118.078 39.521C116.912 39.521 115.998 39.9624 115.998 40.9711C115.998 41.9484 116.66 42.4843 117.763 42.4843C119.118 42.5474 120.285 41.5071 120.348 40.1515C120.348 40.0569 120.348 39.9624 120.348 39.8993C119.591 39.6156 118.835 39.521 118.078 39.521ZM115.052 37.6611C114.989 37.6611 114.957 37.6296 114.926 37.5665C114.926 37.5035 114.926 37.4404 114.926 37.4089C115.272 36.1479 116.344 35.0446 118.299 35.0446C120.253 35.0446 121.609 36.211 121.609 37.9448V41.9484C121.546 42.4528 121.64 42.9257 121.893 43.367C121.924 43.3985 121.924 43.4301 121.924 43.4616C121.924 43.4931 121.861 43.5561 121.798 43.5561H120.474C120.348 43.5561 120.316 43.5246 120.316 43.3985V42.5474C119.654 43.367 118.646 43.8083 117.574 43.7453C116.124 43.7453 114.579 42.8941 114.579 41.0972C114.579 39.2373 116.092 38.3231 117.952 38.3231C118.74 38.3231 119.56 38.4492 120.316 38.7014V38.197C120.316 36.936 119.591 36.274 118.299 36.274C117.448 36.211 116.628 36.7154 116.344 37.535C116.313 37.6296 116.218 37.6926 116.124 37.6926H115.052V37.6611ZM131.98 31.7345C134.502 31.7345 135.921 33.2792 135.984 34.9815C135.984 35.1076 135.921 35.1391 135.826 35.1391H134.755C134.628 35.1391 134.597 35.0761 134.597 34.9815C134.534 33.8466 133.431 33.0585 132.012 33.0585C130.593 33.0585 129.49 33.689 129.49 34.7608C129.49 36.0218 130.814 36.4632 132.579 36.936C134.723 37.5035 136.394 38.2916 136.394 40.12C136.394 42.5158 134.628 43.6507 132.106 43.6507C129.679 43.6507 127.819 42.1691 127.819 39.9624C127.819 39.8363 127.882 39.8047 127.977 39.8047H129.049C129.175 39.8047 129.206 39.8678 129.206 39.9624C129.269 41.3179 130.373 42.3267 132.106 42.3267C133.903 42.3267 135.007 41.6647 135.007 40.183C135.007 39.0166 133.588 38.5753 131.949 38.1655C129.679 37.598 128.103 36.7784 128.103 34.7924C128.071 32.7748 129.9 31.703 131.98 31.7345ZM142.1 42.4843C143.802 42.4843 144.968 41.2233 144.968 39.3634C144.968 37.5035 143.802 36.2425 142.1 36.2425C140.397 36.2425 139.231 37.5035 139.231 39.3634C139.231 41.2233 140.366 42.4843 142.1 42.4843ZM142.1 35.013C144.496 35.013 146.356 36.7154 146.356 39.3319C146.356 41.9799 144.496 43.6507 142.1 43.6507C139.704 43.6507 137.844 41.9484 137.844 39.3319C137.844 36.7154 139.704 35.013 142.1 35.013ZM148.405 31.8921H149.382C149.476 31.8921 149.539 31.9552 149.539 32.0497V43.367C149.539 43.4616 149.476 43.5246 149.382 43.5246H148.405C148.31 43.5246 148.247 43.4616 148.247 43.367V32.0497C148.247 31.9552 148.31 31.8921 148.405 31.8921ZM158.713 43.367C158.713 43.4931 158.65 43.5246 158.555 43.5246H157.61C157.484 43.5246 157.452 43.4931 157.452 43.367V42.4213C156.79 43.2409 155.75 43.7138 154.71 43.7138C152.976 43.7138 151.809 42.6419 151.809 40.6874V35.3598C151.809 35.2337 151.841 35.2022 151.967 35.2022H152.944C153.07 35.2022 153.102 35.2337 153.102 35.3598V40.4668C153.102 41.8223 153.795 42.4528 154.993 42.4528C156.38 42.4528 157.452 41.444 157.452 39.4264V35.3283C157.452 35.2022 157.515 35.1707 157.61 35.1707H158.587C158.713 35.1707 158.745 35.2022 158.745 35.3283L158.713 43.367ZM166.279 35.2022C166.405 35.2022 166.437 35.2337 166.437 35.3598V36.274C166.437 36.4001 166.405 36.4316 166.279 36.4316H163.536V41.0657C163.536 41.9799 163.978 42.4843 164.86 42.4843C165.396 42.5158 165.932 42.4213 166.437 42.2321C166.468 42.2006 166.5 42.2006 166.563 42.2006C166.657 42.2006 166.689 42.2637 166.689 42.3582V43.1463C166.689 43.304 166.689 43.367 166.563 43.4301C165.995 43.6192 165.396 43.7138 164.797 43.7138C163.221 43.7138 162.275 42.768 162.275 41.1918V36.4316H160.794C160.668 36.4316 160.636 36.3686 160.636 36.274V35.3598C160.636 35.2337 160.668 35.2022 160.794 35.2022H162.275V32.8063C162.275 32.6802 162.338 32.6487 162.433 32.6487H163.41C163.536 32.6487 163.568 32.7118 163.568 32.8063V35.2022H166.279ZM168.58 35.3598C168.58 35.2337 168.612 35.2022 168.738 35.2022H169.715C169.841 35.2022 169.873 35.2337 169.873 35.3598V43.3985C169.873 43.5246 169.841 43.5561 169.715 43.5561H168.738C168.612 43.5561 168.58 43.5246 168.58 43.3985V35.3598ZM168.328 32.0497C168.328 31.9236 168.391 31.8921 168.486 31.8921H169.904C170.03 31.8921 170.062 31.9552 170.062 32.0497V33.4999C170.062 33.626 170.03 33.6575 169.904 33.6575H168.486C168.36 33.6575 168.328 33.5944 168.328 33.4999V32.0497ZM175.925 42.4843C177.628 42.4843 178.794 41.2233 178.794 39.3634C178.794 37.5035 177.628 36.2425 175.925 36.2425C174.223 36.2425 173.057 37.5035 173.057 39.3634C173.057 41.2233 174.223 42.4843 175.925 42.4843ZM175.925 35.013C178.321 35.013 180.181 36.7154 180.181 39.3319C180.181 41.9799 178.321 43.6507 175.925 43.6507C173.53 43.6507 171.67 41.9484 171.67 39.3319C171.67 36.7154 173.53 35.013 175.925 35.013ZM181.852 35.3598C181.852 35.2337 181.915 35.2022 182.01 35.2022H182.987C183.113 35.2022 183.145 35.2337 183.145 35.3598V36.3055C183.807 35.4859 184.847 35.013 185.887 35.013C187.621 35.013 188.787 36.0849 188.787 38.0394V43.367C188.787 43.4931 188.756 43.5246 188.63 43.5246H187.653C187.526 43.5246 187.495 43.4931 187.495 43.367V38.2601C187.495 36.9045 186.801 36.274 185.603 36.274C184.216 36.274 183.145 37.2828 183.145 39.3004V43.3985C183.145 43.5246 183.113 43.5561 182.987 43.5561H182.041C181.915 43.5561 181.884 43.5246 181.884 43.3985L181.852 35.3598ZM80.8163 38.8275H84.5992L82.7077 33.5629L80.8163 38.8275ZM85.1036 40.1515H80.3434L79.2085 43.367C79.177 43.4931 79.1455 43.5246 79.0194 43.5246H77.8845C77.7584 43.5246 77.6954 43.4931 77.6954 43.367C77.6954 43.3355 77.6954 43.304 77.6954 43.2724L81.8251 32.0497C81.8566 31.9236 81.8566 31.8921 81.9827 31.8921H83.4013C83.5274 31.8921 83.5274 31.9552 83.5589 32.0497L87.6886 43.2724C87.6886 43.304 87.6886 43.3355 87.6886 43.367C87.6886 43.4931 87.6255 43.5246 87.4994 43.5246H86.3961C86.27 43.5246 86.2385 43.4931 86.2069 43.367L85.1036 40.1515Z" fill="#202A44"/>
</svg>
