<svg width="191" height="29" viewBox="0 0 191 29" fill="none" xmlns="http://www.w3.org/2000/svg">
<path d="M13.4013 13.7189H22.1045C22.2627 14.605 22.4526 16.1874 22.4526 18.118C22.4526 23.4348 18.3384 28.815 12.1987 28.815C6.21718 28.815 0.963611 23.5931 0.995259 16.3457C1.02691 8.75017 6.78685 3.84473 14.3824 3.84473C15.2052 3.84473 16.1547 3.93967 16.8509 4.00297L19.4144 12.1681L18.3384 12.5163L15.6166 10.0161C13.243 7.86402 11.629 7.16777 9.98329 7.16777C7.76793 7.16777 5.99564 8.78181 5.99564 12.0099C5.99564 18.023 10.2998 24.2577 15.047 24.2577C17.294 24.2577 18.4017 23.4348 19.1929 22.5803L13.3696 14.9532V13.7189H13.4013ZM45.0809 18.5294C45.0809 24.321 40.6502 28.8783 34.5421 28.8783C28.4341 28.8783 24.0034 24.321 24.0034 18.5294C24.0034 12.7378 28.4341 8.1805 34.5421 8.1805C40.6502 8.21215 45.0809 12.7695 45.0809 18.5294ZM37.9918 17.4217C36.441 12.7378 34.4156 9.95279 32.0103 10.744C29.6051 11.5352 29.6051 14.9848 31.0925 19.6371C32.6433 24.321 34.6687 27.106 37.074 26.3148C39.5109 25.5553 39.5109 22.1056 37.9918 17.4217ZM65.3673 19.8586L65.842 21.441C65.2091 24.9539 62.5506 28.815 57.2654 28.815C51.2839 28.815 46.6 23.783 46.6 16.5356C46.6 8.75016 52.3283 3.81308 59.4175 3.81308C60.4619 3.81308 61.348 3.90802 61.886 3.97132L64.4495 12.1365L63.3735 12.4846L60.6517 9.98444C58.3098 7.89567 56.8856 7.10447 55.2716 7.10447C53.0562 7.10447 51.6004 8.78181 51.6004 11.9783C51.6004 17.9914 54.9235 23.4348 59.7973 23.4348C62.8038 23.4032 64.4179 21.7575 65.3673 19.8586ZM88.4704 25.2388L88.8818 26.5047C88.5653 27.0427 87.1728 28.7517 84.7359 28.7517C81.4445 28.7517 80.1153 26.8212 79.1658 24.1944C78.248 26.6629 76.1593 28.7834 72.3615 28.7834C68.9435 28.7834 67.1079 26.5363 67.1079 24.0678C67.1079 20.6498 69.9246 18.2446 75.9377 15.1114C75.1782 13.6872 73.4692 13.0226 71.6653 13.0226C69.4499 12.991 66.9814 13.9404 65.7154 15.6494L65.2724 14.2886C66.2218 11.7251 69.3866 8.30709 74.4503 8.30709C79.0076 8.30709 82.0775 11.0921 83.5016 15.4595L86.2233 23.8463C86.6348 25.1122 87.2677 25.4603 87.7741 25.4603C88.0273 25.5236 88.3121 25.397 88.4704 25.2388ZM77.2353 19.0041L76.4125 16.5039C74.1654 18.2129 73.0578 20.3966 73.0578 21.979C73.0578 24.0362 74.1021 24.9856 75.5263 24.9856C77.9632 24.9856 78.4696 22.7069 77.2353 19.0041ZM104.991 14.4152L103.946 14.7633C101.794 13.7822 101.003 13.6872 99.2307 13.6872C98.1546 13.6872 97.1419 14.162 97.1419 14.162V24.859C97.1419 25.9667 97.6799 26.7895 99.1674 27.2326V28.4352H89.2299V27.2326C90.5275 26.7895 90.6541 25.9667 90.6541 24.859V13.4657C90.6541 11.4086 90.0527 10.6807 87.964 9.8262V8.62357H97.0786L96.9204 12.9277H97.0153L97.7749 11.9466C99.2623 9.95278 101.193 8.52863 103.028 8.52863H103.187L104.991 14.4152ZM125.15 27.2643V28.4669H116.985L117.017 25.9034H116.827C116.194 26.8528 114.517 28.6251 111.573 28.6251C107.048 28.6251 104.263 24.8274 104.263 19.9219C104.263 13.4657 108.63 8.78181 115.751 8.78181C116.321 8.78181 116.859 8.81346 116.859 8.81346V7.19941C116.859 5.45877 115.972 4.85746 114.548 4.73087V3.65484L122.967 0.933105H123.315V24.8907C123.346 25.9983 123.853 26.8212 125.15 27.2643ZM116.859 21.9474V11.5668C116.574 11.4402 116.099 11.282 115.403 11.282C113.061 11.282 110.181 13.0543 110.181 18.0547C110.181 22.6753 111.953 25.2071 114.39 25.2071C115.276 25.2388 116.859 24.7957 116.859 21.9474ZM136.734 27.2643V28.4669H126.606V27.2643C127.904 26.8212 128.442 25.9983 128.442 24.8907V7.19941C128.442 5.45877 127.556 4.85746 126.131 4.73087V3.65484L134.55 0.933105H134.898V24.8907C134.898 25.9983 135.404 26.8212 136.734 27.2643ZM157.4 19.0674L157.843 20.4283C157.178 25.0489 153.412 28.815 148.507 28.815C142.209 28.815 138.158 24.0994 138.158 18.1496C138.158 12.7378 141.955 8.37039 147.304 8.37039C151.197 8.37039 154.077 10.744 155.248 13.9404L144.867 20.9347C146.323 22.4854 148.38 23.5614 150.754 23.5614C154.013 23.5614 156.482 21.3144 157.4 19.0674ZM142.209 14.5734C142.209 16.314 142.81 18.1496 143.823 19.6687L145.563 17.9914C146.766 16.8837 147.747 15.6494 147.747 13.9404C147.747 12.6429 146.861 11.0921 145.12 11.0921C143.538 11.1238 142.209 12.358 142.209 14.5734ZM168.856 15.9026C172.686 17.8331 174.236 19.732 174.236 22.3905C174.236 25.5869 171.673 28.815 166.166 28.815C163.223 28.815 161.546 28.3403 160.121 27.739L158.254 21.9474L159.299 21.6309L160.216 22.5171C163.033 25.1755 165.438 26.9161 167.306 26.9161C168.698 26.9161 169.458 26.03 169.458 25.1438C169.458 24.2577 169.299 23.245 166.926 22.0423L163.413 20.27C160.311 18.6876 158.856 16.7571 158.856 14.5417C158.856 10.744 162.179 8.52863 166.451 8.52863C169.331 8.52863 170.977 8.94005 170.977 8.94005L172.591 13.9721L171.546 14.2886L170.913 13.7189C167.622 10.8389 166.483 10.2376 165.09 10.2376C164.109 10.2376 163.255 10.8706 163.255 11.7567C163.255 12.3897 163.381 13.1809 165.343 14.162L168.856 15.9026ZM185.503 15.9343C189.301 17.9281 190.883 19.732 190.883 22.3905C190.883 25.5869 188.32 28.815 182.813 28.815C179.87 28.815 178.192 28.3403 176.768 27.739L174.901 21.9474L175.945 21.6309L176.863 22.5171C179.68 25.1755 182.085 26.9161 183.952 26.9161C185.345 26.9161 186.104 26.03 186.104 25.1438C186.104 24.2577 185.946 23.2766 183.573 22.0423L180.06 20.2067C176.958 18.6243 175.502 16.7255 175.502 14.5101C175.502 10.7123 178.825 8.49698 183.098 8.49698C185.978 8.49698 187.624 8.90841 187.624 8.90841L189.238 13.9404L188.193 14.2569L187.56 13.6872C184.269 10.8073 183.13 10.206 181.737 10.206C180.756 10.206 179.901 10.8389 179.901 11.7251C179.901 12.358 180.028 13.1176 181.99 14.1303L185.503 15.9343Z" fill="black"/>
</svg>
