<svg width="151" height="44" viewBox="0 0 151 44" fill="none" xmlns="http://www.w3.org/2000/svg">
<g clip-path="url(#clip0_2204_8240)">
<path d="M0.636719 8.17334H5.8668V19.8856H16.8974V8.17334H22.1342V36.9234H16.8974V24.9651H5.8668V36.9234H0.636719V8.17334Z" fill="#070707"/>
<path d="M38.7031 27.559C38.7031 29.9657 36.7578 31.9242 34.3707 31.9242C31.9827 31.9242 30.0386 29.9657 30.0386 27.559V15.1812H25.0786V27.559C25.0786 32.723 29.2473 36.9234 34.3707 36.9234C39.493 36.9234 43.6613 32.723 43.6613 27.559V15.1812H38.7031V27.559Z" fill="#070707"/>
<path d="M57.5076 15.3261C55.0473 15.3261 53.3299 16.0458 51.6714 17.6868V8.17334H46.6953V25.8043C46.6953 32.4038 51.4291 36.9234 56.7474 36.9234C62.6598 36.9234 67.84 32.3231 67.84 26.125C67.84 20.0055 63.0632 15.3261 57.5076 15.3261ZM57.6313 32.2833C54.2595 32.2833 51.6811 29.4448 51.6811 26.125C51.6811 22.8047 54.2595 19.9653 57.6313 19.9653C60.4883 19.9653 63.0682 22.8047 63.0682 26.125C63.0682 29.4448 60.4883 32.2833 57.6313 32.2833Z" fill="#070707"/>
<path d="M76.1974 16.59C76.1974 14.0687 77.8641 13.2693 79.6887 13.2693C81.1576 13.2693 83.1015 14.3891 84.37 15.7493L87.6229 11.9101C85.9972 9.71064 82.7045 8.19043 80.0063 8.19043C74.6095 8.19043 70.7209 11.3502 70.7209 16.59C70.7209 26.3084 82.5853 23.2278 82.5853 28.6684C82.5853 30.3464 80.959 31.8276 79.0951 31.8276C76.1578 31.8276 75.2051 30.3877 73.8565 28.8675L70.2451 32.6264C72.5479 35.4663 75.4037 36.9068 78.8165 36.9068C83.9347 36.9068 88.0614 33.7072 88.0614 28.7071C88.0614 17.9091 76.1974 21.2691 76.1974 16.59Z" fill="#070707"/>
<path d="M101.161 15.0444C95.8438 15.0444 91.1094 19.5614 91.1094 26.1623V43.8387H96.0852V34.2801C97.7439 35.9199 99.4605 36.6408 101.922 36.6408C107.477 36.6408 112.254 31.962 112.254 25.8424C112.254 19.6435 107.073 15.0444 101.161 15.0444ZM102.046 32.0022C98.6741 32.0022 96.0954 29.1599 96.0954 25.8424C96.0954 22.5221 98.6741 19.6827 102.046 19.6827C104.902 19.6827 107.482 22.5221 107.482 25.8424C107.482 29.1599 104.902 32.0022 102.046 32.0022Z" fill="#070707"/>
<path d="M148.881 32.2836C145.946 32.2836 145.113 31.0044 145.113 29.0439V20.3655H149.675V15.9667H145.113V10.167L140.076 12.4461V30.1238C140.076 34.6437 143.169 36.9237 147.413 36.9237C148.048 36.9237 148.922 36.8824 149.399 36.764L150.629 32.2051C150.073 32.2438 149.439 32.2836 148.881 32.2836Z" fill="#070707"/>
<path d="M135.759 20.6211C134.805 18.9669 133.463 17.6406 131.786 16.6422C130.532 15.9066 129.232 15.4398 127.768 15.2393V9.98288C129.232 9.35595 130.142 7.96833 130.142 6.34948C130.142 4.14298 128.386 2.35493 126.199 2.35493C124.01 2.35493 122.223 4.14298 122.223 6.34948C122.223 7.96833 123.08 9.35595 124.545 9.98288V15.2416C123.373 15.4123 122.158 15.7805 121.048 16.3463C118.781 14.6111 111.349 8.91861 107.001 5.5938C107.104 5.21907 107.183 4.83281 107.183 4.42529C107.183 1.98137 105.22 0.000488281 102.794 0.000488281C100.369 0.000488281 98.4062 1.98137 98.4062 4.42529C98.4062 6.86892 100.371 8.85039 102.796 8.85039C103.624 8.85039 104.389 8.60647 105.049 8.20545L105.967 8.90709L118.575 18.0638C117.909 18.6807 117.288 19.3823 116.791 20.1696C115.785 21.7746 115.17 23.5405 115.17 25.4667V25.8686C115.17 27.2208 115.425 28.4974 115.859 29.6966C116.241 30.7438 116.8 31.6958 117.493 32.5566L113.308 36.7848C112.937 36.6469 112.547 36.5713 112.14 36.5713C111.234 36.5713 110.385 36.928 109.744 37.5726C109.103 38.2191 108.751 39.0775 108.751 39.9912C108.752 40.9045 109.105 41.763 109.746 42.4088C110.386 43.0549 111.238 43.4111 112.144 43.4111C113.051 43.4111 113.903 43.0549 114.544 42.4088C115.184 41.763 115.537 40.9042 115.537 39.9912C115.537 39.6377 115.483 39.2928 115.381 38.965L119.706 34.6049C120.299 35.0177 120.94 35.3653 121.628 35.665C122.986 36.2568 124.485 36.6173 126.125 36.6173H126.426C128.239 36.6173 129.95 36.188 131.558 35.3097C133.253 34.3816 134.579 33.1124 135.581 31.4921C136.588 29.8673 137.143 28.0722 137.143 26.0972V25.9986C137.143 24.0558 136.696 22.2633 135.759 20.6211ZM130.475 29.7675C129.301 31.0825 127.951 31.8925 126.426 31.8925H126.174C125.303 31.8925 124.451 31.6498 123.617 31.2083C122.676 30.7222 121.961 30.0289 121.376 29.1509C120.771 28.2892 120.443 27.3484 120.443 26.3509V26.0479C120.443 25.0672 120.63 24.1373 121.1 23.2591C121.604 22.299 122.283 21.5525 123.186 20.959C124.074 20.3695 125.021 20.0804 126.076 20.0804H126.174C127.131 20.0804 128.037 20.2706 128.892 20.7115C129.763 21.1816 130.475 21.8239 131.026 22.6688C131.562 23.5139 131.881 24.4255 131.983 25.4186C132 25.625 132.008 25.8365 132.008 26.0384C132.008 27.3862 131.497 28.6344 130.475 29.7675Z" fill="#070707"/>
</g>
<defs>
<clipPath id="clip0_2204_8240">
<rect width="150" height="44" fill="white" transform="translate(0.619141)"/>
</clipPath>
</defs>
</svg>
