<svg width="73" height="42" viewBox="0 0 73 42" fill="none" xmlns="http://www.w3.org/2000/svg">
<path d="M26.9894 12.1953C24.0715 12.1941 21.2187 13.0583 18.7919 14.6785C16.3652 16.2988 14.4734 18.6024 13.356 21.2979C12.2386 23.9934 11.9456 26.9598 12.5143 29.8218C13.0829 32.6838 14.4875 35.3129 16.5505 37.3765C18.6135 39.4401 21.2421 40.8456 24.104 41.4151C26.9658 41.9847 29.9322 41.6927 32.6281 40.5761C35.324 39.4595 37.6282 37.5685 39.2492 35.1422C40.8702 32.716 41.7353 29.8635 41.735 26.9455C41.7305 23.0357 40.1756 19.2873 37.4114 16.5222C34.6472 13.7571 30.8992 12.2011 26.9894 12.1953ZM26.9894 34.1588C25.5628 34.1585 24.1684 33.7352 22.9823 32.9424C21.7963 32.1496 20.872 31.023 20.3263 29.7049C19.7806 28.3868 19.6379 26.9365 19.9164 25.5373C20.1949 24.1382 20.8821 22.853 21.8909 21.8444C22.8998 20.8358 24.1851 20.1489 25.5843 19.8707C26.9835 19.5925 28.4338 19.7354 29.7517 20.2814C31.0697 20.8275 32.1962 21.752 32.9887 22.9382C33.7813 24.1244 34.2043 25.5189 34.2043 26.9455C34.2022 28.8584 33.4414 30.6923 32.0888 32.0449C30.7362 33.3976 28.9023 34.1583 26.9894 34.1604V34.1588Z" fill="#161616"/>
<path d="M7.66228 12.6094H1.7433C1.4531 12.6094 1.17466 12.7241 0.968733 12.9286C0.762803 13.1331 0.646087 13.4107 0.644043 13.7009V40.1513C0.646087 40.4415 0.762803 40.7191 0.968733 40.9236C1.17466 41.128 1.4531 41.2428 1.7433 41.2428H7.66073C7.95094 41.2428 8.22937 41.128 8.4353 40.9236C8.64123 40.7191 8.75795 40.4415 8.75999 40.1513V13.7009C8.75795 13.411 8.64145 13.1336 8.43585 12.9291C8.23025 12.7247 7.95222 12.6098 7.66228 12.6094Z" fill="#161616"/>
<path d="M7.64569 0.566406H1.70968C1.41949 0.56845 1.14187 0.685166 0.937389 0.891096C0.732909 1.09703 0.618157 1.37546 0.618164 1.66567V7.59548C0.620208 7.88568 0.736924 8.1633 0.942854 8.36778C1.14878 8.57226 1.42722 8.68701 1.71742 8.687H7.64104C7.93125 8.68701 8.20969 8.57226 8.41562 8.36778C8.62155 8.1633 8.73826 7.88568 8.74031 7.59548V1.66567C8.74031 1.37493 8.62513 1.09603 8.41998 0.89001C8.21484 0.683991 7.93643 0.567635 7.64569 0.566406Z" fill="#161616"/>
<path d="M58.8898 12.1953C51.3514 12.1953 45.2188 18.1422 45.2188 25.4515V40.1599C45.2228 40.4487 45.3404 40.7244 45.5461 40.9272C45.7519 41.13 46.0291 41.2437 46.318 41.2437H52.2819C52.5599 41.2431 52.8275 41.1373 53.0306 40.9474C53.2337 40.7575 53.3573 40.4977 53.3765 40.2203V25.9283C53.3765 22.9959 55.8537 20.6132 58.8914 20.6132C61.9291 20.6132 64.4063 22.9975 64.4063 25.9283V40.211C64.4228 40.4906 64.5455 40.7533 64.7492 40.9455C64.9529 41.1377 65.2223 41.2449 65.5024 41.2452H71.522C71.8122 41.2452 72.0907 41.1305 72.2966 40.926C72.5025 40.7215 72.6193 40.4439 72.6213 40.1537V25.4515C72.6198 18.1422 66.4608 12.1953 58.8898 12.1953Z" fill="#161616"/>
</svg>
