<svg width="186" height="41" viewBox="0 0 186 41" fill="none" xmlns="http://www.w3.org/2000/svg">
<g clip-path="url(#clip0_1139_2103)">
<path d="M136.523 18.0061C136.643 17.8861 136.703 17.6462 136.703 17.3463V5.46866H140.242C140.542 5.46866 140.782 5.40867 140.902 5.28869C141.022 5.16872 141.082 4.92877 141.082 4.62883V1.68943C141.082 1.38949 141.022 1.14954 140.902 1.02956C140.782 0.909588 140.542 0.849601 140.242 0.849601H127.525C127.225 0.849601 126.985 0.909588 126.865 1.02956C126.745 1.14954 126.685 1.38949 126.685 1.68943V4.62883C126.685 4.92877 126.745 5.16872 126.865 5.28869C126.985 5.40867 127.225 5.46866 127.525 5.46866H131.064V17.2863C131.064 17.5862 131.124 17.8262 131.244 17.9461C131.364 18.0661 131.604 18.1261 131.904 18.1261H135.803C136.163 18.1861 136.403 18.1261 136.523 18.0061ZM114.628 18.0061C114.748 17.8861 114.808 17.6462 114.808 17.3463V9.36788L118.947 14.3469V17.2863C118.947 17.5862 119.007 17.8262 119.127 17.9461C119.247 18.0661 119.487 18.1261 119.787 18.1261H123.386C123.686 18.1261 123.926 18.0661 124.046 17.9461C124.166 17.8262 124.226 17.5862 124.226 17.2863V1.68943C124.226 1.38949 124.166 1.14954 124.046 1.02956C123.926 0.909588 123.686 0.849601 123.386 0.849601H119.787C119.487 0.849601 119.247 0.909588 119.127 1.02956C119.007 1.14954 118.947 1.38949 118.947 1.68943V6.8484L114.268 1.50947C114.088 1.26951 113.848 1.08955 113.608 1.02956C113.368 0.909588 113.128 0.909588 112.828 0.909588H110.308C110.009 0.909588 109.769 0.969576 109.649 1.08955C109.529 1.20953 109.469 1.44948 109.469 1.74942V17.4062C109.469 17.7062 109.529 17.9461 109.649 18.0661C109.769 18.1861 110.009 18.2461 110.308 18.2461H113.908C114.268 18.1861 114.508 18.1261 114.628 18.0061ZM106.529 1.68943C106.529 1.38949 106.469 1.14954 106.349 1.02956C106.229 0.909588 105.989 0.849601 105.689 0.849601H102.03C101.73 0.849601 101.49 0.909588 101.37 1.02956C101.25 1.14954 101.19 1.38949 101.19 1.68943V12.6672C101.19 12.9671 101.07 13.2671 100.83 13.4471C100.59 13.627 100.051 13.747 99.2107 13.747C98.3709 13.747 97.831 13.627 97.591 13.4471C97.3511 13.2071 97.2311 12.9671 97.2311 12.6672V1.68943C97.2311 1.38949 97.1711 1.14954 97.0512 1.02956C96.9312 0.909588 96.6912 0.849601 96.3913 0.849601H92.6121C92.3121 0.849601 92.0722 0.909588 91.9522 1.02956C91.8322 1.14954 91.7722 1.38949 91.7722 1.68943V13.627C91.7722 14.3469 91.8922 15.0667 92.0722 15.6666C92.3121 16.2665 92.672 16.8064 93.2119 17.2263C93.7518 17.6462 94.5317 18.0061 95.4915 18.2461C96.4513 18.486 97.711 18.606 99.2107 18.606C100.71 18.606 101.91 18.486 102.93 18.2461C103.89 18.0061 104.67 17.6462 105.209 17.2263C105.749 16.8064 106.169 16.2665 106.349 15.6666C106.589 15.0667 106.649 14.4069 106.649 13.627V1.68943H106.529ZM61.8983 6.30851C61.8983 6.00855 62.0183 5.7686 62.2583 5.52864C62.4982 5.28869 63.0381 5.22871 63.9379 5.22871C64.7777 5.22871 65.3776 5.34868 65.6176 5.52864C65.8575 5.70861 65.9775 6.00855 65.9775 6.30851V12.7872C65.9775 13.0871 65.8575 13.3871 65.6176 13.567C65.3776 13.747 64.8377 13.867 63.9379 13.867C63.0981 13.867 62.4982 13.747 62.2583 13.567C62.0183 13.3871 61.8983 13.0871 61.8983 12.7872V6.30851ZM71.3764 5.40867C71.3764 4.68882 71.2564 3.96896 71.0765 3.36909C70.8365 2.76921 70.4766 2.22932 69.9367 1.8094C69.3968 1.38949 68.617 1.02956 67.6572 0.789613C66.6974 0.549664 65.4376 0.429688 63.9379 0.429688C62.4382 0.429688 61.1785 0.549664 60.2187 0.789613C59.2591 1.02956 58.4792 1.38949 57.9393 1.8094C57.3994 2.22932 56.9795 2.76921 56.7996 3.36909C56.5596 3.96896 56.4996 4.62883 56.4996 5.40867V13.627C56.4996 14.3469 56.6196 15.0667 56.7996 15.6666C57.0395 16.2665 57.3994 16.8064 57.9393 17.2263C58.4792 17.6462 59.2591 18.0061 60.2187 18.2461C61.1785 18.486 62.4382 18.606 63.9379 18.606C65.4376 18.606 66.6974 18.486 67.6572 18.2461C68.617 18.0061 69.3968 17.6462 69.9367 17.2263C70.4766 16.8064 70.8965 16.2665 71.0765 15.6666C71.3164 15.0667 71.3764 14.4069 71.3764 13.627V5.40867ZM43.7222 18.0061C43.8422 17.8861 43.9022 17.6462 43.9022 17.3463V9.36788L48.0413 14.3469V17.2863C48.0413 17.5862 48.1013 17.8262 48.2213 17.9461C48.3413 18.0661 48.5812 18.1261 48.8812 18.1261H52.4804C52.7804 18.1261 53.0203 18.0661 53.1403 17.9461C53.2603 17.8262 53.3203 17.5862 53.3203 17.2863V1.68943C53.3203 1.38949 53.2603 1.14954 53.1403 1.02956C53.0203 0.909588 52.7804 0.849601 52.4804 0.849601H48.8812C48.5812 0.849601 48.3413 0.909588 48.2213 1.02956C48.1013 1.14954 48.0413 1.38949 48.0413 1.68943V6.8484L43.3623 1.50947C43.1823 1.26951 42.9424 1.08955 42.7024 1.02956C42.4625 0.909588 42.2225 0.909588 41.9226 0.909588H39.4031C39.1032 0.909588 38.8632 0.969576 38.7432 1.08955C38.6233 1.20953 38.5633 1.44948 38.5633 1.74942V17.4062C38.5633 17.7062 38.6233 17.9461 38.7432 18.0661C38.8632 18.1861 39.1032 18.2461 39.4031 18.2461H43.0024C43.3623 18.1861 43.6023 18.1261 43.7222 18.0061ZM26.0258 6.30851C26.0258 6.00855 26.1458 5.7686 26.3858 5.52864C26.6257 5.28869 27.1656 5.22871 28.0654 5.22871C28.9053 5.22871 29.5051 5.34868 29.7451 5.52864C29.985 5.7686 30.105 6.00855 30.105 6.30851V12.7872C30.105 13.0871 29.985 13.3871 29.7451 13.567C29.5051 13.807 28.9652 13.867 28.0654 13.867C27.2256 13.867 26.6257 13.747 26.3858 13.567C26.1458 13.3271 26.0258 13.0871 26.0258 12.7872V6.30851ZM35.5039 5.40867C35.5039 4.68882 35.3839 3.96896 35.204 3.36909C34.964 2.76921 34.6041 2.22932 34.0642 1.8094C33.5243 1.38949 32.7445 1.02956 31.7847 0.789613C30.7649 0.609651 29.5651 0.489676 28.0654 0.489676C26.5657 0.489676 25.306 0.609651 24.3462 0.849601C23.3864 1.08955 22.6065 1.44948 22.0667 1.86939C21.5268 2.28931 21.1068 2.8292 20.9269 3.42907C20.6869 4.02895 20.6269 4.68882 20.6269 5.46866V13.687C20.6269 14.4069 20.7469 15.1267 20.9269 15.7266C21.1668 16.3265 21.5268 16.8664 22.0667 17.2863C22.6065 17.7062 23.3864 18.0661 24.3462 18.3061C25.306 18.546 26.5657 18.666 28.0654 18.666C29.5651 18.666 30.7649 18.546 31.7847 18.3061C32.7445 18.0661 33.5243 17.7062 34.0642 17.2863C34.6041 16.8664 35.024 16.3265 35.204 15.7266C35.4439 15.1267 35.5039 14.4668 35.5039 13.687V5.40867ZM5.45003 18.0061C5.57001 17.8861 5.62999 17.6462 5.62999 17.3463V8.828L7.06971 11.4675C7.18969 11.7674 7.36965 11.9474 7.6096 12.0673C7.84955 12.1873 8.0895 12.2473 8.38944 12.2473H9.34925C9.64919 12.2473 9.88914 12.1873 10.1291 12.0673C10.369 11.9474 10.489 11.7674 10.669 11.4675L12.1087 8.828V17.3463C12.1087 17.6462 12.1687 17.8861 12.2886 18.0061C12.4086 18.1261 12.6486 18.1861 12.9485 18.1861H16.6678C16.9677 18.1861 17.2076 18.1261 17.3276 18.0061C17.4476 17.8861 17.5076 17.6462 17.5076 17.3463V1.68943C17.5076 1.38949 17.4476 1.14954 17.3276 1.02956C17.2076 0.909588 16.9677 0.849601 16.6678 0.849601H12.7685C12.5286 0.849601 12.2886 0.909588 12.1087 1.02956C11.9287 1.08955 11.7488 1.3295 11.6288 1.56945L9.46922 5.52864C9.40924 5.64862 9.34925 5.7686 9.28926 5.82858C9.16928 5.88857 9.1093 5.88857 8.98932 5.88857H8.74937C8.62939 5.88857 8.56941 5.82858 8.50942 5.7686C8.44943 5.70861 8.38944 5.58863 8.32946 5.46866L6.1699 1.50947C6.04991 1.3295 5.86995 1.08955 5.74997 1.02956C5.57001 0.909588 5.33006 0.849601 5.09011 0.849601H1.1909C0.890963 0.849601 0.651013 0.909588 0.531037 1.02956C0.411062 1.14954 0.351074 1.38949 0.351074 1.68943V17.3463C0.351074 17.6462 0.411062 17.8861 0.531037 18.0061C0.651013 18.1261 0.890963 18.1861 1.1909 18.1861H4.79017C5.09011 18.1861 5.33006 18.1261 5.45003 18.0061Z" fill="black"/>
<path d="M80.0747 11.2875C79.7747 11.2875 79.5348 11.3475 79.4148 11.5275C79.2348 11.7074 79.1748 11.8874 79.1748 12.2473V13.2071C79.1748 13.507 79.2348 13.747 79.4148 13.927C79.5948 14.1069 79.7747 14.1669 80.0747 14.1669H83.194V11.2875H80.0747ZM81.1544 4.92878C80.8545 4.92878 80.6146 4.98876 80.4946 5.16873C80.3146 5.34869 80.2546 5.58864 80.2546 5.88858V6.54847C80.2546 6.84841 80.3146 7.08836 80.4946 7.26832C80.6745 7.44829 80.8545 7.50827 81.1544 7.50827H83.194V4.92878H81.1544ZM74.9757 17.2263C74.1959 16.5664 73.8359 15.6066 73.8359 14.2269V12.0074C73.8359 10.8076 74.0759 9.96777 74.5558 9.30791C75.0357 8.70803 75.8155 8.3481 76.8353 8.22813C76.3554 8.04816 75.9955 7.68824 75.7555 7.26832C75.5156 6.84841 75.3956 6.30852 75.3956 5.58864V4.50886C75.3956 3.24912 75.7555 2.3493 76.5354 1.74943C77.3152 1.14955 78.455 0.849609 80.0147 0.849609H87.6931C87.993 0.849609 88.233 0.909597 88.353 1.02957C88.473 1.14955 88.5329 1.3895 88.5329 1.68944V17.3463C88.5329 17.6462 88.473 17.8862 88.353 18.0061C88.233 18.1261 87.993 18.1861 87.6931 18.1861H78.515C76.8953 18.1861 75.6956 17.8862 74.9757 17.2263Z" fill="black"/>
<path d="M76.5369 28.3238V27.8439C76.357 28.0239 76.177 28.2039 75.997 28.2638C75.8171 28.3238 75.6371 28.3838 75.3972 28.3838C75.1572 28.3838 74.9772 28.3238 74.7973 28.2638C74.6173 28.2039 74.4374 28.0839 74.3174 27.9639C74.1974 27.8439 74.1374 27.724 74.0774 27.604C74.0174 27.484 73.9575 27.304 73.9575 27.1241C73.8975 26.9441 73.8975 26.8241 73.8975 26.6442C73.8975 26.4642 73.8975 26.2842 73.8975 26.1643C73.8975 25.9843 73.8975 25.8043 73.8975 25.6844C73.8975 25.5044 73.9575 25.3244 73.9575 25.2045C74.0174 25.0245 74.0174 24.9045 74.0774 24.7246C74.1374 24.5446 74.2574 24.4846 74.3174 24.3646C74.4374 24.2447 74.6173 24.1247 74.7973 24.0647C74.9772 24.0047 75.1572 23.9447 75.3972 23.9447C75.6371 23.9447 75.8171 24.0047 75.997 24.0647C76.177 24.1247 76.357 24.2447 76.5369 24.4246V22.2051H77.4367V28.3238H76.5369ZM76.4769 25.6244C76.4769 25.4444 76.4169 25.3244 76.357 25.1445C76.297 25.0245 76.177 24.9045 76.057 24.8445C75.937 24.7845 75.7571 24.7246 75.5771 24.7246C75.3972 24.7246 75.2172 24.7845 75.0972 24.8445C74.9772 24.9045 74.9173 25.0245 74.7973 25.1445C74.7373 25.2645 74.6773 25.4444 74.6773 25.6244C74.6773 25.8043 74.6773 25.9843 74.6773 26.1643C74.6773 26.3442 74.6773 26.5242 74.6773 26.7042C74.6773 26.8841 74.7373 27.0041 74.7973 27.1841C74.8573 27.364 74.9772 27.424 75.0972 27.484C75.2172 27.544 75.3972 27.604 75.5771 27.604C75.7571 27.604 75.937 27.544 76.057 27.484C76.177 27.424 76.297 27.304 76.357 27.1841C76.4169 27.0641 76.4769 26.8841 76.4769 26.7042C76.4769 26.5242 76.4769 26.3442 76.4769 26.1643C76.5369 25.9843 76.4769 25.8043 76.4769 25.6244Z" fill="black"/>
<path d="M79.4155 23.1645V22.2646H80.3153V23.1645H79.4155ZM79.4755 28.3234V24.0043H80.3753V28.3234H79.4755Z" fill="black"/>
<path d="M85.5937 29.0433C85.5337 29.2832 85.4137 29.4632 85.2338 29.6432C85.0538 29.8231 84.8738 29.9431 84.6339 30.0031C84.3939 30.1231 84.154 30.1231 83.854 30.1231C83.4941 30.1231 83.2542 30.0631 83.0142 30.0031C82.7743 29.9431 82.5343 29.7631 82.3543 29.5832L82.8942 29.0433C83.0142 29.1633 83.1942 29.2832 83.3141 29.3432C83.4341 29.4032 83.6141 29.4632 83.854 29.4632C84.034 29.4632 84.214 29.4632 84.3339 29.4032C84.4539 29.3432 84.5739 29.2832 84.6339 29.1633C84.6939 29.0433 84.7539 28.9233 84.8138 28.8033C84.8738 28.6834 84.8738 28.5034 84.8738 28.3834V27.8435C84.6939 28.0235 84.5139 28.1435 84.3339 28.2035C84.154 28.2635 83.974 28.3234 83.7341 28.3234C83.4941 28.3234 83.3142 28.2635 83.1342 28.2035C82.9542 28.1435 82.8342 28.0235 82.7143 27.9035C82.4743 27.6636 82.3543 27.4236 82.2944 27.1237C82.2344 26.8237 82.2344 26.4638 82.2344 26.1039C82.2344 25.744 82.2344 25.384 82.2944 25.0841C82.3543 24.7842 82.4743 24.5442 82.7143 24.3043C82.9542 24.0643 83.3142 23.9443 83.7341 23.9443C83.974 23.9443 84.154 24.0043 84.3339 24.0643C84.5139 24.1243 84.6939 24.2443 84.8738 24.4842V24.0043H85.7137V28.3234C85.7137 28.5634 85.7137 28.8033 85.5937 29.0433ZM84.8138 25.564C84.8138 25.384 84.7539 25.2641 84.6939 25.1441C84.6339 25.0241 84.5139 24.9041 84.4539 24.8442C84.3339 24.7842 84.154 24.7242 83.974 24.7242C83.7941 24.7242 83.6141 24.7842 83.4941 24.8442C83.3741 24.9041 83.3142 25.0241 83.2542 25.1441C83.1942 25.2641 83.1342 25.444 83.1342 25.564C83.1342 25.744 83.1342 25.9239 83.1342 26.0439C83.1342 26.1639 83.1342 26.4038 83.1342 26.5238C83.1342 26.7038 83.1942 26.8237 83.2542 26.9437C83.3142 27.0637 83.3741 27.1837 83.4941 27.2437C83.6141 27.3036 83.7941 27.3636 83.974 27.3636C84.154 27.3636 84.3339 27.3036 84.4539 27.2437C84.5739 27.1837 84.6339 27.0637 84.6939 26.9437C84.7539 26.8237 84.8138 26.6438 84.8138 26.5238C84.8138 26.3438 84.8138 26.1639 84.8138 26.0439C84.8138 25.9239 84.8738 25.744 84.8138 25.564Z" fill="black"/>
<path d="M87.814 23.1645V22.2646H88.7138V23.1645H87.814ZM87.814 28.3234V24.0043H88.7138V28.3234H87.814Z" fill="black"/>
<path d="M92.0737 28.324C91.8937 28.324 91.7138 28.264 91.5338 28.204C91.4138 28.144 91.2339 28.024 91.1739 27.9041C91.0539 27.7841 90.9939 27.6641 90.9339 27.5441C90.874 27.4242 90.8739 27.2442 90.8739 27.1242V24.7247H90.394V24.0648H90.8739V22.7451H91.7738V24.0648H92.6136V24.7247H91.7738V27.0642C91.7738 27.2442 91.8337 27.3642 91.8937 27.4242C91.9537 27.4841 92.0737 27.5441 92.2537 27.5441H92.6136V28.264H92.0737V28.324Z" fill="black"/>
<path d="M96.6932 28.3234V27.9035C96.5132 28.0835 96.3932 28.2035 96.2133 28.2635C96.0333 28.3234 95.7934 28.3834 95.5534 28.3834C95.2535 28.3834 95.0735 28.3234 94.8935 28.2635C94.7136 28.2035 94.5336 28.0835 94.4136 27.9635C94.1737 27.7236 94.0537 27.4236 94.0537 27.0037C94.0537 26.6438 94.1737 26.3438 94.4136 26.1039C94.6536 25.8639 95.0135 25.744 95.5534 25.744H96.6932V25.444C96.6932 25.1441 96.6332 24.9641 96.4532 24.8442C96.2733 24.7242 96.0933 24.6642 95.7334 24.6642C95.4934 24.6642 95.3135 24.7242 95.1935 24.7842C95.0735 24.8442 94.9535 24.9641 94.8336 25.0841L94.2337 24.5442C94.4136 24.3043 94.6536 24.1243 94.8935 24.0643C95.1335 24.0043 95.4334 23.9443 95.7934 23.9443C96.9931 23.9443 97.593 24.4242 97.593 25.444V28.3234H96.6932ZM96.6932 26.4038H95.6734C95.4334 26.4038 95.1935 26.4638 95.0735 26.5838C94.9535 26.7038 94.8935 26.8237 94.8935 27.0637C94.8935 27.2437 94.9535 27.4236 95.0735 27.5436C95.1935 27.6636 95.3734 27.7236 95.6734 27.7236C95.8534 27.7236 95.9733 27.7236 96.0933 27.6636C96.2133 27.6636 96.3332 27.5436 96.4532 27.4236C96.5732 27.3036 96.6332 27.0637 96.6332 26.7638V26.4038H96.6932Z" fill="black"/>
<path d="M100.773 28.3238C100.593 28.3238 100.413 28.2638 100.233 28.2039C100.053 28.1439 99.9327 28.0239 99.8727 27.9639C99.7527 27.8439 99.6927 27.724 99.6327 27.604C99.5727 27.484 99.5728 27.304 99.5728 27.1241V22.2051H100.473V27.0641C100.473 27.244 100.533 27.364 100.593 27.424C100.653 27.484 100.773 27.544 100.952 27.544H101.312V28.2638H100.773V28.3238Z" fill="black"/>
<path d="M105.27 28.3234V27.9035C105.09 28.0835 104.97 28.2035 104.79 28.2635C104.61 28.3234 104.37 28.3834 104.13 28.3834C103.83 28.3834 103.65 28.3234 103.47 28.2635C103.29 28.2035 103.11 28.0835 102.99 27.9635C102.75 27.7236 102.63 27.4236 102.63 27.0037C102.63 26.6438 102.75 26.3438 102.99 26.1039C103.23 25.8639 103.59 25.744 104.13 25.744H105.27V25.444C105.27 25.1441 105.21 24.9641 105.03 24.8442C104.91 24.7242 104.67 24.6642 104.31 24.6642C104.07 24.6642 103.89 24.7242 103.77 24.7842C103.65 24.8442 103.53 24.9641 103.41 25.0841L102.81 24.5442C102.99 24.3043 103.23 24.1243 103.47 24.0643C103.71 24.0043 104.01 23.9443 104.37 23.9443C105.57 23.9443 106.17 24.4242 106.17 25.444V28.3234H105.27ZM105.27 26.4038H104.25C104.01 26.4038 103.77 26.4638 103.65 26.5838C103.53 26.7038 103.47 26.8237 103.47 27.0637C103.47 27.2437 103.53 27.4236 103.65 27.5436C103.77 27.6636 103.95 27.7236 104.25 27.7236C104.43 27.7236 104.55 27.7236 104.67 27.6636C104.79 27.6636 104.91 27.5436 105.03 27.4236C105.15 27.3036 105.21 27.0637 105.21 26.7638V26.4038H105.27Z" fill="black"/>
<path d="M111.33 29.0433C111.27 29.2832 111.15 29.4632 110.97 29.6432C110.79 29.8231 110.61 29.9431 110.37 30.0031C110.13 30.1231 109.89 30.1231 109.59 30.1231C109.23 30.1231 108.99 30.0631 108.751 30.0031C108.511 29.9431 108.271 29.7631 108.091 29.5832L108.631 29.0433C108.751 29.1633 108.93 29.2832 109.05 29.3432C109.17 29.4032 109.35 29.4632 109.59 29.4632C109.77 29.4632 109.95 29.4632 110.07 29.4032C110.19 29.3432 110.31 29.2832 110.37 29.1633C110.43 29.0433 110.49 28.9233 110.55 28.8033C110.61 28.6834 110.61 28.5034 110.61 28.3834V27.8435C110.43 28.0235 110.25 28.1435 110.07 28.2035C109.89 28.2635 109.71 28.3234 109.47 28.3234C109.23 28.3234 109.05 28.2635 108.871 28.2035C108.691 28.1435 108.571 28.0235 108.451 27.9035C108.211 27.6636 108.091 27.4236 108.031 27.1237C107.971 26.8237 107.971 26.4638 107.971 26.1039C107.971 25.744 107.971 25.384 108.031 25.0841C108.091 24.7842 108.211 24.5442 108.451 24.3043C108.691 24.0643 109.05 23.9443 109.47 23.9443C109.71 23.9443 109.89 24.0043 110.07 24.0643C110.25 24.1243 110.43 24.2443 110.61 24.4842V24.0043H111.45V28.3234C111.45 28.5634 111.45 28.8033 111.33 29.0433ZM110.61 25.564C110.61 25.384 110.55 25.2641 110.49 25.1441C110.43 25.0241 110.31 24.9041 110.25 24.8442C110.13 24.7842 109.95 24.7242 109.77 24.7242C109.59 24.7242 109.41 24.7842 109.29 24.8442C109.17 24.9041 109.11 25.0241 109.05 25.1441C108.99 25.2641 108.931 25.444 108.931 25.564C108.931 25.744 108.931 25.9239 108.931 26.0439C108.931 26.1639 108.931 26.4038 108.931 26.5238C108.931 26.7038 108.99 26.8237 109.05 26.9437C109.11 27.0637 109.17 27.1837 109.29 27.2437C109.41 27.3036 109.59 27.3636 109.77 27.3636C109.95 27.3636 110.13 27.3036 110.25 27.2437C110.37 27.1837 110.43 27.0637 110.49 26.9437C110.55 26.8237 110.61 26.6438 110.61 26.5238C110.61 26.3438 110.61 26.1639 110.61 26.0439C110.61 25.9239 110.61 25.744 110.61 25.564Z" fill="black"/>
<path d="M114.209 26.4034C114.209 26.7633 114.329 27.0633 114.509 27.3032C114.689 27.5432 114.989 27.6032 115.349 27.6032C115.589 27.6032 115.769 27.5432 115.949 27.4832C116.129 27.4232 116.249 27.3032 116.429 27.1233L116.969 27.6632C116.849 27.7831 116.729 27.9031 116.609 27.9631C116.489 28.0231 116.369 28.1431 116.249 28.203C116.129 28.263 116.009 28.323 115.829 28.323C115.649 28.323 115.529 28.383 115.349 28.383C115.049 28.383 114.809 28.323 114.569 28.263C114.329 28.203 114.149 28.0831 113.97 27.9031C113.79 27.7231 113.67 27.4832 113.55 27.2432C113.43 26.9433 113.37 26.5834 113.37 26.2235C113.37 25.5036 113.55 24.9637 113.85 24.6038C114.209 24.2439 114.629 24.0039 115.169 24.0039C115.469 24.0039 115.709 24.0639 115.949 24.1839C116.189 24.3038 116.369 24.4238 116.549 24.6038C116.729 24.7837 116.849 25.0237 116.909 25.2636C116.969 25.5036 117.029 25.8035 117.029 26.1035V26.4634H114.209V26.4034ZM116.129 25.5036C116.129 25.4436 116.069 25.3236 116.069 25.2037C116.009 25.0237 115.889 24.9037 115.769 24.7837C115.649 24.6638 115.469 24.6638 115.229 24.6638C115.049 24.6638 114.869 24.7238 114.689 24.7837C114.509 24.9037 114.449 25.0237 114.389 25.2037C114.329 25.3236 114.329 25.3836 114.329 25.5036C114.329 25.5636 114.329 25.6836 114.329 25.8035H116.309C116.129 25.6836 116.129 25.5636 116.129 25.5036Z" fill="black"/>
<path d="M121.528 28.3234V25.684C121.528 25.3241 121.468 25.0841 121.288 24.9641C121.108 24.7842 120.928 24.7242 120.688 24.7242C120.448 24.7242 120.208 24.7842 120.028 24.9641C119.848 25.1441 119.788 25.384 119.788 25.684V28.3234H118.888V24.0043H119.728V24.4242C119.848 24.2443 120.028 24.1243 120.268 24.0643C120.448 24.0043 120.688 23.9443 120.868 23.9443C121.108 23.9443 121.288 24.0043 121.468 24.0643C121.648 24.1243 121.828 24.2443 121.948 24.3643C122.128 24.5442 122.247 24.7242 122.307 24.9041C122.367 25.0841 122.427 25.3241 122.427 25.564V28.3234H121.528Z" fill="black"/>
<path d="M125.727 28.324C125.547 28.324 125.367 28.264 125.187 28.204C125.067 28.144 124.887 28.024 124.827 27.9041C124.707 27.7841 124.647 27.6641 124.587 27.5441C124.527 27.4242 124.527 27.2442 124.527 27.1242V24.7247H124.047V24.0648H124.527V22.7451H125.427V24.0648H126.267V24.7247H125.427V27.0642C125.427 27.2442 125.487 27.3642 125.547 27.4242C125.607 27.4841 125.727 27.5441 125.907 27.5441H126.267V28.264H125.727V28.324Z" fill="black"/>
<path d="M130.646 28.323V27.9031C130.526 28.0831 130.346 28.203 130.106 28.263C129.926 28.323 129.686 28.383 129.506 28.383C129.267 28.383 129.087 28.323 128.907 28.263C128.727 28.203 128.547 28.0831 128.427 27.9631C128.247 27.7831 128.127 27.6032 128.067 27.4232C128.007 27.2432 127.947 27.0033 127.947 26.7633V24.0039H128.847V26.6434C128.847 27.0033 128.907 27.2432 129.087 27.3632C129.267 27.5432 129.446 27.6032 129.686 27.6032C129.806 27.6032 129.926 27.6032 130.046 27.5432C130.166 27.4832 130.226 27.4232 130.346 27.3632C130.406 27.3032 130.466 27.1833 130.526 27.0633C130.586 26.9433 130.586 26.8233 130.586 26.6434V24.0039H131.486V28.323H130.646Z" fill="black"/>
<path d="M135.984 25.0237C135.864 24.9037 135.805 24.8437 135.685 24.7837C135.565 24.7238 135.445 24.7238 135.325 24.7238C135.085 24.7238 134.905 24.7837 134.725 24.9637C134.545 25.1437 134.485 25.3836 134.485 25.6836V28.323H133.585V24.0039H134.425V24.4838C134.545 24.3038 134.725 24.1839 134.905 24.1239C135.085 24.0039 135.325 24.0039 135.565 24.0039C135.805 24.0039 135.984 24.0639 136.104 24.1239C136.284 24.1839 136.404 24.3038 136.584 24.4238L135.984 25.0237Z" fill="black"/>
</g>
<defs>
<clipPath id="clip0_1139_2103">
<rect width="140.971" height="30.5938" fill="white" transform="translate(0.133301 0.0683594)"/>
</clipPath>
</defs>
</svg>
