<svg width="205" height="40" viewBox="0 0 205 40" fill="none" xmlns="http://www.w3.org/2000/svg">
<path d="M203.445 29.8786C203.445 29.491 203.058 29.336 202.709 29.336H202.05V31.2737H202.399V30.4986H202.67L203.097 31.2737H203.523L203.019 30.4211C203.252 30.3823 203.445 30.1498 203.445 29.9173V29.8786ZM202.399 30.1886V29.646H202.709C202.903 29.646 203.097 29.6848 203.097 29.9173C203.097 30.1498 202.864 30.1886 202.67 30.1886H202.399ZM202.709 28.6384C201.779 28.6772 201.004 29.4523 201.043 30.3824C201.081 31.3124 201.856 32.0875 202.787 32.0488C203.717 32.01 204.492 31.2349 204.453 30.3048C204.453 29.3748 203.678 28.5997 202.748 28.5997C202.748 28.5997 202.709 28.5997 202.709 28.6384ZM202.709 31.7387C201.895 31.7387 201.236 31.0799 201.236 30.2661C201.236 29.4523 201.895 28.7935 202.709 28.7935C203.523 28.7935 204.182 29.4523 204.182 30.2661V30.3048C204.182 31.1187 203.523 31.7775 202.709 31.7775V31.7387ZM91.8735 28.9097C89.3546 28.9097 88.0757 26.6232 88.0757 24.453C88.0757 22.2828 89.4708 20.1126 91.7573 20.1126C92.8424 20.1126 94.1988 20.6552 94.7413 21.4303L97.3766 18.7563C95.8652 17.3224 93.85 16.5085 91.7573 16.586C87.1068 16.586 83.7353 19.9189 83.7353 24.4918C83.7353 29.1422 87.0681 32.4363 91.8735 32.4363C94.1213 32.4363 96.214 31.7775 97.4541 30.4211L94.8576 27.6308C94.0825 28.4447 92.9974 28.9097 91.8735 28.9097ZM76.9534 32.01H81.1388V17.0123H76.9921L76.9534 32.01ZM69.3964 25.2281C69.3964 26.972 68.2338 28.871 66.1411 28.871C64.4747 28.871 63.5834 27.7084 63.5834 25.2669V17.0511H59.4367V26.352C59.4367 29.4523 60.9869 32.475 65.1335 32.475C67.0712 32.475 68.6989 30.9249 69.5127 29.7623H69.5902V32.0488H73.5431V17.0123H69.3964V25.2281ZM51.9573 18.9113H51.8798C51.2985 18.2525 49.7096 16.586 47.1518 16.586C42.9277 16.586 39.6724 19.8801 39.6724 24.453C39.6724 29.1035 42.6951 32.4363 46.9581 32.4363C48.8182 32.3975 50.5234 31.5837 51.7635 30.1886H51.841V39.3732H55.9489V17.0123H51.996L51.9573 18.9113ZM47.9656 28.9097C45.4079 28.9097 43.9353 26.662 43.9353 24.453C43.9353 22.3216 45.2529 20.0739 47.9656 20.0739C50.4071 20.0739 51.9185 22.3991 51.9185 24.4918C51.9185 26.5845 50.4459 28.9097 47.9656 28.9097ZM142.253 16.586C137.564 16.586 134.115 19.8801 134.115 24.453C134.115 29.181 137.603 32.475 142.253 32.475C146.904 32.475 150.392 29.1422 150.392 24.453C150.392 19.8801 146.981 16.586 142.253 16.586ZM142.253 28.9097C139.541 28.9097 138.339 26.5845 138.339 24.453C138.339 22.3216 139.579 20.0739 142.253 20.0739C144.927 20.0739 146.245 22.3216 146.245 24.453C146.245 26.5845 145.005 28.9097 142.253 28.9097ZM194.028 22.7866C191.897 22.2828 191.122 22.0116 191.122 21.1202C191.122 19.9576 192.672 19.6863 193.331 19.6863C194.609 19.6863 196.043 20.4614 196.625 21.159L199.066 18.8338C197.904 17.4386 195.695 16.6248 193.369 16.6248C190.347 16.6248 187.208 18.1362 187.208 21.469C187.208 24.3755 189.494 25.2281 191.703 25.7707C194.028 26.3132 194.881 26.7008 194.881 27.6696C194.881 29.026 193.331 29.2585 192.749 29.2585C191.315 29.181 189.959 28.5609 188.99 27.4758L186.471 30.0336C187.828 31.5837 190.192 32.475 192.594 32.475C196.663 32.475 199.066 30.5374 199.066 27.3596C199.066 24.3368 196.121 23.2904 194.028 22.7866ZM186.161 17.0123H180.813L175.465 23.2129H175.388V8.75781H171.241V32.01H175.388V24.6468H175.465L181.007 32.01H186.432L179.999 23.833L186.161 17.0123ZM124.775 16.6248C122.838 16.6248 121.481 17.3999 120.125 18.64H120.086V8.75781H115.94V32.01H119.892V29.8786H119.97C121.016 31.4675 122.76 32.3975 124.659 32.3975C128.922 32.3975 132.177 29.0647 132.177 24.453C132.177 19.8801 129 16.586 124.775 16.586V16.6248ZM123.962 28.9097C121.443 28.9097 119.97 26.662 119.97 24.4918C119.97 22.3216 121.52 20.0739 123.962 20.0739C126.636 20.0739 127.953 22.3216 127.953 24.453C127.953 26.662 126.519 28.9097 123.962 28.9097ZM114.389 17.0123H109.041L103.693 23.2129H103.616V8.75781H99.4693V32.01H103.616V24.6468H103.693L109.235 32.01H114.661L108.266 23.833L114.389 17.0123ZM160.429 16.6248C155.701 16.6248 152.29 19.9189 152.29 24.453C152.29 29.181 155.778 32.475 160.429 32.475C165.079 32.475 168.567 29.1422 168.567 24.453C168.567 19.8801 165.118 16.586 160.429 16.586V16.6248ZM160.429 28.9097C157.716 28.9097 156.476 26.5845 156.476 24.453C156.476 22.3216 157.716 20.0739 160.429 20.0739C163.142 20.0739 164.343 22.3216 164.343 24.453C164.343 26.5845 163.103 28.9097 160.429 28.9097Z" fill="black"/>
<path d="M17.5827 34.9164C27.2141 34.9164 35.0218 27.1086 35.0218 17.4772C35.0218 7.84586 27.2141 0.0380859 17.5827 0.0380859C7.95133 0.0380859 0.143555 7.84586 0.143555 17.4772C0.143555 27.1086 7.95133 34.9164 17.5827 34.9164Z" fill="black"/>
<path d="M4.98779 17.4773C4.98779 21.2364 8.01058 24.2591 11.7697 24.2591H12.7385V21.7402H11.7697C9.40571 21.7402 7.50678 19.8412 7.50678 17.4773C7.50678 15.1133 9.40571 13.2143 11.7697 13.2143H14.0949V26.3906C14.0949 27.7857 15.2188 28.9096 16.6139 28.9096V10.6954H11.7697C8.01058 10.6954 4.98779 13.7181 4.98779 17.4773ZM23.3958 10.6954H22.4269V13.2143H23.3958C25.7598 13.2143 27.6587 15.1133 27.6587 17.4773C27.6587 19.8412 25.7598 21.7402 23.3958 21.7402H21.0706V8.56391C21.0706 7.16878 19.9467 6.04492 18.5516 6.04492V24.2591H23.3958C27.1549 24.2591 30.1777 21.2364 30.1777 17.4773C30.1777 13.7181 27.1549 10.6954 23.3958 10.6954Z" fill="white"/>
<path d="M56.7239 4.02999C57.3827 4.02999 57.8865 3.52619 57.8865 2.86738C57.8865 2.20857 57.3827 1.70477 56.7239 1.70477C56.0651 1.70477 55.5613 2.20857 55.5613 2.86738C55.5613 3.52619 56.0651 4.02999 56.7239 4.02999ZM49.8645 4.80506C48.8956 4.80506 47.9655 5.34761 47.5393 6.23895H47.4617V4.99883H45.6791V12.6333H47.578V8.44791C47.578 7.44031 48.1593 6.39396 49.3607 6.39396C50.562 6.39396 50.7946 7.51782 50.7946 8.40916V12.6721H52.6935V7.82785C52.6935 6.2777 51.8797 4.72756 49.8645 4.72756V4.80506ZM41.8037 12.6333H43.7414V4.99883H41.8037V12.6333ZM76.4882 3.99123C77.147 3.99123 77.6508 3.48744 77.6508 2.82863C77.6508 2.16981 77.147 1.66602 76.4882 1.66602C75.8294 1.66602 75.3256 2.16981 75.3256 2.82863C75.3256 3.48744 75.8294 3.99123 76.4882 3.99123ZM73.3879 4.99883V6.70399H75.5194V12.6333H77.4571V6.70399H79.5885V4.99883H73.3879ZM70.1326 12.6333H72.0703V4.99883H70.1326V12.6333ZM53.6623 6.70399H55.7938V12.6333H57.7315V6.70399H59.8629V4.99883H53.6623V6.70399ZM66.296 9.22298C66.296 10.2306 65.7147 11.2769 64.5134 11.2769C63.312 11.2769 63.0795 10.1143 63.0795 9.22298V4.99883H61.1418V9.76553C61.1418 11.3157 61.9944 12.8658 63.9708 12.8658C64.9784 12.8658 65.8697 12.3233 66.3348 11.4319H66.3735V12.6721H68.195V4.99883H66.2573L66.296 9.22298Z" fill="black"/>
</svg>
