<svg width="109" height="76" viewBox="0 0 109 76" fill="none" xmlns="http://www.w3.org/2000/svg">
<g clip-path="url(#clip0_2204_8224)">
<path d="M45.8811 8.28861C49.3639 4.64104 54.2126 2.37896 59.5748 2.37896C66.7051 2.37896 72.9247 6.37473 76.2355 12.3087C79.1152 11.0158 82.3001 10.2975 85.6521 10.2975C98.5103 10.2975 108.937 20.87 108.937 33.9093C108.937 46.9485 98.5127 57.5235 85.6521 57.5235C84.0826 57.5235 82.5495 57.3628 81.0649 57.0633C78.1488 62.2936 72.5904 65.8267 66.2086 65.8267C63.5396 65.8267 61.0135 65.2083 58.7635 64.1028C55.8087 71.096 48.9182 76 40.8894 76C32.8606 76 25.401 70.682 22.6666 63.2213C21.4726 63.4746 20.2325 63.6085 18.961 63.6085C9.00918 63.6085 0.939209 55.41 0.939209 45.2976C0.939209 38.5186 4.56246 32.6017 9.95132 29.4362C8.84206 26.8698 8.22688 24.0379 8.22688 21.06C8.22688 9.4306 17.6192 0 29.2011 0C36.0019 0 42.0471 3.25067 45.8811 8.28861Z" fill="black"/>
<path d="M16.5802 39.4096C16.5124 39.5874 16.6044 39.6239 16.6262 39.6556C16.8296 39.8041 17.0331 39.9112 17.2414 40.0306C18.3434 40.6174 19.3848 40.7878 20.4723 40.7878C22.6884 40.7878 24.064 39.6044 24.064 37.6979V37.6613C24.064 35.8984 22.5091 35.2556 21.0535 34.793L20.8622 34.7321C19.7626 34.3741 18.8157 34.0625 18.8157 33.3369V33.3003C18.8157 32.677 19.3703 32.2192 20.2277 32.2192C21.1819 32.2192 22.313 32.5382 23.042 32.9448C23.042 32.9448 23.2575 33.0836 23.335 32.8742C23.3786 32.7598 23.7468 31.7639 23.7855 31.6543C23.8267 31.5374 23.754 31.4498 23.6765 31.4035C22.8434 30.8946 21.6929 30.5464 20.5013 30.5464H20.2809C18.2513 30.5464 16.8369 31.7809 16.8369 33.5438V33.5803C16.8369 35.4382 18.3991 36.0445 19.8619 36.4633L20.0969 36.5364C21.1625 36.8651 22.0829 37.15 22.0829 37.9024V37.9414C22.0829 38.6305 21.4847 39.1442 20.5231 39.1442C20.1477 39.1442 18.9561 39.1369 17.6701 38.3188C17.5151 38.2263 17.4255 38.1605 17.3044 38.0875C17.2414 38.0485 17.0815 37.9779 17.0113 38.1873L16.5753 39.4072L16.5802 39.4096Z" fill="white"/>
<path d="M49.0126 39.4096C48.9447 39.5874 49.0368 39.6239 49.0586 39.6556C49.262 39.8041 49.4655 39.9112 49.6738 40.0306C50.7757 40.6174 51.8172 40.7878 52.9046 40.7878C55.1207 40.7878 56.4964 39.6044 56.4964 37.6979V37.6613C56.4964 35.8984 54.9415 35.2556 53.4859 34.793L53.2946 34.7321C52.195 34.3741 51.248 34.0625 51.248 33.3369V33.3003C51.248 32.677 51.8027 32.2192 52.66 32.2192C53.6143 32.2192 54.7453 32.5382 55.4743 32.9448C55.4743 32.9448 55.6899 33.0836 55.7674 32.8742C55.811 32.7598 56.1791 31.7639 56.2179 31.6543C56.2591 31.5374 56.1864 31.4498 56.1089 31.4035C55.2757 30.8946 54.1253 30.5464 52.9337 30.5464H52.7133C50.6837 30.5464 49.2693 31.7809 49.2693 33.5438V33.5803C49.2693 35.4382 50.8339 36.0445 52.2943 36.4633L52.5292 36.5364C53.5949 36.8651 54.5177 37.15 54.5177 37.9024V37.9414C54.5177 38.6305 53.9194 39.1442 52.9555 39.1442C52.5801 39.1442 51.3909 39.1369 50.1024 38.3188C49.9474 38.2263 49.8554 38.1629 49.7367 38.0875C49.698 38.0631 49.5091 37.9876 49.4461 38.1873L49.0077 39.4072L49.0126 39.4096Z" fill="white"/>
<path d="M73.0022 33.6778C72.8205 33.0593 72.5372 32.5164 72.1618 32.0634C71.7863 31.6081 71.3068 31.2429 70.7401 30.9775C70.1757 30.712 69.5073 30.5781 68.7589 30.5781C68.0105 30.5781 67.3396 30.7145 66.7753 30.9775C66.211 31.2404 65.7314 31.6081 65.356 32.0634C64.9782 32.5164 64.6949 33.0618 64.5156 33.6778C64.334 34.2914 64.2419 34.9635 64.2419 35.6745C64.2419 36.3855 64.334 37.06 64.5156 37.6736C64.6973 38.2896 64.9782 38.8326 65.356 39.288C65.7314 39.7433 66.211 40.1061 66.7777 40.3642C67.3445 40.6223 68.0105 40.7538 68.7613 40.7538C69.5121 40.7538 70.1757 40.6223 70.7425 40.3642C71.3068 40.1061 71.7863 39.7409 72.1642 39.288C72.5396 38.8351 72.8254 38.2896 73.0046 37.6736C73.1862 37.06 73.2783 36.3879 73.2783 35.6745C73.2783 34.9611 73.1862 34.2914 73.0046 33.6778M71.1566 35.6745C71.1566 36.7507 70.9556 37.603 70.5633 38.202C70.1733 38.7961 69.5848 39.0859 68.7637 39.0859C67.9427 39.0859 67.3566 38.7961 66.9715 38.202C66.5816 37.603 66.3854 36.7507 66.3854 35.6745C66.3854 34.5982 66.5816 33.7509 66.9691 33.1567C67.3542 32.5699 67.9403 32.2826 68.7637 32.2826C69.5872 32.2826 70.1733 32.5675 70.5633 33.1567C70.958 33.7509 71.1566 34.5982 71.1566 35.6745Z" fill="white"/>
<path fill-rule="evenodd" clip-rule="evenodd" d="M88.1879 38.7985C88.1274 38.6183 87.9506 38.6865 87.9506 38.6865C87.6817 38.7912 87.3959 38.8838 87.0908 38.9324C86.7832 38.9811 86.4441 39.0055 86.0784 39.0055C85.1847 39.0055 84.4726 38.7377 83.9616 38.2093C83.453 37.6784 83.1648 36.8238 83.1672 35.6672C83.1696 34.6153 83.4239 33.8239 83.8768 33.22C84.3273 32.621 85.0151 32.3118 85.9282 32.3118C86.6911 32.3118 87.2724 32.4019 87.8827 32.5918C87.8827 32.5918 88.028 32.6551 88.0959 32.4652C88.2606 32.0123 88.3792 31.6909 88.5512 31.1941C88.5996 31.0529 88.481 30.992 88.4349 30.975C88.1952 30.88 87.6309 30.7266 87.2022 30.6609C86.805 30.6 86.3351 30.5684 85.8144 30.5684C85.0394 30.5684 84.3467 30.7023 83.7533 30.9677C83.1623 31.2307 82.661 31.5959 82.2638 32.0513C81.8666 32.5066 81.5663 33.0496 81.3652 33.6656C81.1642 34.2792 81.0625 34.9537 81.0625 35.6672C81.0625 37.2085 81.4742 38.4552 82.2929 39.3659C83.1115 40.2839 84.3394 40.7489 85.9427 40.7489C86.8897 40.7489 87.8609 40.5566 88.5609 40.279C88.5609 40.279 88.6941 40.2132 88.636 40.0574L88.1831 38.7961L88.1879 38.7985Z" fill="white"/>
<path fill-rule="evenodd" clip-rule="evenodd" d="M97.648 33.3272C97.4906 32.7306 97.1031 32.1292 96.8488 31.854C96.4467 31.4158 96.0495 31.1114 95.6596 30.9434C95.151 30.7242 94.5382 30.5781 93.8649 30.5781C93.0851 30.5781 92.3754 30.7096 91.799 30.9823C91.2226 31.2526 90.7382 31.6252 90.3579 32.0878C89.9777 32.548 89.6919 33.0983 89.5103 33.7217C89.3286 34.3401 89.2366 35.0146 89.2366 35.7281C89.2366 36.4415 89.331 37.1306 89.5199 37.7369C89.7113 38.3505 90.014 38.8886 90.4258 39.3367C90.8375 39.7871 91.3679 40.1378 92 40.3861C92.6297 40.6296 93.3951 40.7587 94.2718 40.7538C96.0786 40.749 97.0329 40.3448 97.4252 40.1256C97.4955 40.0866 97.5608 40.0185 97.4785 39.8237L97.0668 38.6719C97.0038 38.5015 96.8318 38.5624 96.8318 38.5624C96.3838 38.7304 95.7468 39.0299 94.2621 39.0274C93.2909 39.0274 92.5716 38.7377 92.1211 38.2872C91.6585 37.827 91.4309 37.1501 91.3921 36.1956L97.6505 36.2004C97.6505 36.2004 97.8151 36.2005 97.8321 36.0349C97.8394 35.9667 98.0452 34.7419 97.6456 33.3248M91.4212 34.6396C91.5108 34.0406 91.6731 33.5439 91.9274 33.1567C92.31 32.5675 92.8937 32.2412 93.7172 32.2412C94.5407 32.2412 95.0808 32.5675 95.4707 33.1567C95.7298 33.5463 95.8413 34.0626 95.8873 34.6421H91.4212V34.6396Z" fill="white"/>
<path fill-rule="evenodd" clip-rule="evenodd" d="M47.516 33.3272C47.3585 32.7306 46.971 32.1292 46.7167 31.854C46.3147 31.4158 45.9199 31.1114 45.5275 30.9434C45.0165 30.7242 44.4062 30.5781 43.7353 30.5781C42.953 30.5781 42.2434 30.7096 41.6669 30.9823C41.0905 31.2526 40.6061 31.6252 40.2259 32.0878C39.8456 32.548 39.5598 33.0983 39.3782 33.7217C39.1965 34.3401 39.1045 35.0146 39.1045 35.7281C39.1045 36.4415 39.1989 37.1306 39.3879 37.7369C39.5792 38.3505 39.8819 38.8886 40.2937 39.3367C40.7054 39.7871 41.2358 40.1378 41.8679 40.3861C42.4977 40.6296 43.263 40.7587 44.1397 40.7538C45.9465 40.749 46.9008 40.3448 47.2931 40.1256C47.3634 40.0866 47.4288 40.0185 47.3464 39.8237L46.9347 38.6719C46.8717 38.5015 46.6998 38.5624 46.6998 38.5624C46.2517 38.7304 45.6147 39.0299 44.1301 39.0274C43.1613 39.0274 42.4395 38.7377 41.989 38.2872C41.5265 37.827 41.2988 37.1501 41.26 36.1956L47.5184 36.2004C47.5184 36.2004 47.6831 36.2005 47.7 36.0349C47.7073 35.9667 47.9132 34.7419 47.5135 33.3248M41.2891 34.6396C41.3787 34.0406 41.541 33.5439 41.7929 33.1567C42.178 32.5675 42.7617 32.2412 43.5827 32.2412C44.4037 32.2412 44.9487 32.5675 45.3386 33.1567C45.5953 33.5463 45.7092 34.0626 45.7528 34.6421H41.2867L41.2891 34.6396Z" fill="white"/>
<path d="M30.2498 34.3425C29.9955 34.3231 29.6662 34.3133 29.2738 34.3133C28.7361 34.3133 28.2178 34.3815 27.731 34.513C27.2418 34.6445 26.8034 34.849 26.4256 35.1217C26.0453 35.3969 25.7402 35.7451 25.5173 36.1615C25.2945 36.5778 25.1831 37.0648 25.1831 37.6103C25.1831 38.1557 25.2776 38.6524 25.4713 39.0469C25.6627 39.4438 25.9363 39.7774 26.2875 40.0306C26.6363 40.2863 27.065 40.4738 27.5615 40.5858C28.0531 40.7002 28.6102 40.7562 29.2205 40.7562C29.8623 40.7562 30.5017 40.7027 31.1218 40.5955C31.7369 40.4908 32.4877 40.3374 32.6984 40.2887C32.9067 40.24 33.1368 40.1767 33.1368 40.1767C33.2918 40.1378 33.2797 39.9697 33.2797 39.9697V34.2159C33.2773 32.9522 32.9406 32.0172 32.2819 31.4352C31.6255 30.8581 30.6567 30.5659 29.4046 30.5659C28.9347 30.5659 28.1815 30.6292 27.7262 30.7218C27.7262 30.7218 26.3602 30.9872 25.7983 31.4328C25.7983 31.4328 25.6748 31.5082 25.7402 31.6836L26.1834 32.8816C26.2391 33.0374 26.3892 32.9838 26.3892 32.9838C26.3892 32.9838 26.4377 32.9644 26.4934 32.9303C27.6971 32.2728 29.2205 32.2923 29.2205 32.2923C29.8962 32.2923 30.417 32.4311 30.7681 32.6989C31.1096 32.9644 31.2816 33.3588 31.2816 34.1989V34.4643C30.7439 34.3864 30.2498 34.3425 30.2498 34.3425ZM27.7601 38.7644C27.513 38.5672 27.4815 38.5185 27.3992 38.3919C27.2733 38.1995 27.2103 37.9244 27.2103 37.5737C27.2103 37.021 27.3919 36.6217 27.7698 36.3563C27.7673 36.3563 28.3099 35.8839 29.5862 35.9009C30.4824 35.9131 31.2864 36.047 31.2864 36.047V38.9081C31.2864 38.9081 30.492 39.0785 29.5959 39.1321C28.322 39.21 27.7552 38.7644 27.7601 38.7644Z" fill="white"/>
<path fill-rule="evenodd" clip-rule="evenodd" d="M80.7404 31.0994C80.7889 30.9581 80.6872 30.89 80.646 30.8729C80.5394 30.8339 80.0066 30.7195 79.5973 30.6927C78.8101 30.644 78.3742 30.7779 77.9818 30.9533C77.5919 31.1286 77.1632 31.4135 76.9259 31.7373V30.9703C76.9259 30.8656 76.8508 30.7804 76.7442 30.7804H75.1385C75.0343 30.7804 74.9592 30.8656 74.9592 30.9703V40.3595C74.9592 40.4642 75.044 40.5494 75.1506 40.5494H76.7951C76.8992 40.5494 76.984 40.4642 76.984 40.3595V35.6698C76.984 35.0391 77.0542 34.4133 77.1923 34.0189C77.3279 33.6268 77.512 33.3176 77.7396 33.0936C77.9673 32.8696 78.2289 32.7137 78.5147 32.6261C78.8053 32.536 79.1274 32.5068 79.3527 32.5068C79.6821 32.5068 80.0405 32.592 80.0405 32.592C80.1616 32.6042 80.2294 32.5287 80.2706 32.4215C80.3771 32.1342 80.6823 31.2722 80.7404 31.0994Z" fill="white"/>
<path fill-rule="evenodd" clip-rule="evenodd" d="M65.3027 26.748C65.1017 26.6847 64.9225 26.6433 64.6827 26.6019C64.4405 26.558 64.1547 26.5337 63.8326 26.5337C62.7015 26.5337 61.8078 26.8551 61.183 27.4906C60.5605 28.1213 60.1367 29.0807 59.9235 30.3444L59.8485 30.7705H58.4268C58.4268 30.7705 58.2524 30.7632 58.2161 30.9531L57.9835 32.2607C57.9666 32.3849 58.0199 32.4628 58.187 32.4628H59.5699L58.1652 40.3399C58.0562 40.973 57.9303 41.4941 57.7898 41.891C57.6542 42.283 57.5185 42.5728 57.3538 42.7871C57.194 42.9916 57.0438 43.145 56.7798 43.2327C56.5643 43.3033 56.3148 43.3374 56.0436 43.3374C55.8934 43.3374 55.6924 43.313 55.5422 43.2814C55.392 43.2521 55.3145 43.218 55.2031 43.1718C55.2031 43.1718 55.0409 43.1085 54.9755 43.2716C54.9246 43.4055 54.5565 44.4258 54.5129 44.5524C54.4693 44.6766 54.5298 44.774 54.6098 44.8032C54.7938 44.8689 54.9295 44.9128 55.1813 44.9712C55.5301 45.054 55.8232 45.0589 56.0993 45.0589C56.6757 45.0589 57.2012 44.9785 57.6348 44.8202C58.0732 44.6595 58.4534 44.382 58.7925 44.0094C59.1558 43.6052 59.3859 43.1791 59.6063 42.5996C59.8242 42.0273 60.0083 41.3139 60.156 40.486L61.5656 32.4628H63.6267C63.6267 32.4628 63.8011 32.4701 63.8374 32.2802L64.0699 30.9726C64.0869 30.8484 64.0336 30.7705 63.8665 30.7705H61.8659C61.8756 30.7267 61.9652 30.0181 62.1953 29.3509C62.2946 29.0661 62.4787 28.8372 62.6361 28.6789C62.7887 28.5231 62.9655 28.4135 63.1593 28.3502C63.3579 28.2869 63.5831 28.2552 63.8302 28.2552C64.0191 28.2552 64.2031 28.2771 64.3436 28.3063C64.5374 28.3477 64.6124 28.3697 64.6633 28.3843C64.8667 28.4476 64.8934 28.3867 64.9346 28.2893L65.4117 26.9671C65.4601 26.8259 65.3415 26.765 65.2979 26.748" fill="white"/>
<path fill-rule="evenodd" clip-rule="evenodd" d="M37.3363 40.3595C37.3363 40.4642 37.2612 40.5518 37.1571 40.5518H35.4956C35.3915 40.5518 35.3164 40.4666 35.3164 40.3595V26.9282C35.3164 26.8235 35.3915 26.7383 35.4956 26.7383H37.1571C37.2612 26.7383 37.3363 26.8235 37.3363 26.9282V40.3595Z" fill="white"/>
</g>
<defs>
<clipPath id="clip0_2204_8224">
<rect width="108" height="76" fill="white" transform="translate(0.939209)"/>
</clipPath>
</defs>
</svg>
