<svg width="31" height="31" viewBox="0 0 31 31" fill="none" xmlns="http://www.w3.org/2000/svg">
<path d="M4.71124 0.322754C3.7166 0.322754 2.76269 0.717874 2.05938 1.42119C1.35606 2.12451 0.960938 3.07841 0.960938 4.07306V7.05579C0.960938 8.3559 1.63599 9.561 2.73858 10.2436L12.4044 16.219C10.9342 17.0112 9.77038 18.2713 9.09744 19.7997C8.4245 21.3282 8.28089 23.0375 8.68937 24.6568C9.09785 26.2761 10.0351 27.7127 11.3525 28.7391C12.6699 29.7654 14.2921 30.3228 15.9621 30.3228C17.6322 30.3228 19.2544 29.7654 20.5718 28.7391C21.8892 27.7127 22.8264 26.2761 23.2349 24.6568C23.6434 23.0375 23.4998 21.3282 22.8268 19.7997C22.1539 18.2713 20.9901 17.0112 19.5199 16.219L29.1857 10.2436C29.729 9.90757 30.1774 9.43839 30.4885 8.88052C30.7996 8.32264 30.963 7.69455 30.9633 7.05579V4.07306C30.9633 3.07841 30.5682 2.12451 29.8649 1.42119C29.1616 0.717874 28.2077 0.322754 27.213 0.322754H4.71124ZM3.46114 4.07306C3.46114 3.74151 3.59285 3.42354 3.82728 3.1891C4.06172 2.95466 4.37969 2.82295 4.71124 2.82295H8.46154V10.8436L4.05369 8.11838C3.8726 8.00639 3.72312 7.85 3.61943 7.66404C3.51573 7.47808 3.46124 7.26871 3.46114 7.05579V4.07306ZM10.9617 12.3887V2.82295H20.9625V12.3887L16.6197 15.0739C16.4221 15.1961 16.1944 15.2608 15.9621 15.2608C15.7299 15.2608 15.5022 15.1961 15.3046 15.0739L10.9617 12.3887ZM23.4627 10.8436V2.82295H27.213C27.5446 2.82295 27.8626 2.95466 28.097 3.1891C28.3314 3.42354 28.4631 3.74151 28.4631 4.07306V7.05579C28.463 7.26871 28.4086 7.47808 28.3049 7.66404C28.2012 7.85 28.0517 8.00639 27.8706 8.11838L23.4627 10.8436ZM10.9617 22.8246C10.9617 21.4984 11.4886 20.2265 12.4263 19.2887C13.3641 18.351 14.636 17.8242 15.9621 17.8242C17.2883 17.8242 18.5602 18.351 19.498 19.2887C20.4357 20.2265 20.9625 21.4984 20.9625 22.8246C20.9625 24.1508 20.4357 25.4226 19.498 26.3604C18.5602 27.2981 17.2883 27.825 15.9621 27.825C14.636 27.825 13.3641 27.2981 12.4263 26.3604C11.4886 25.4226 10.9617 24.1508 10.9617 22.8246Z" fill="#500AD2"/>
</svg>
