<svg width="34" height="25" viewBox="0 0 34 25" fill="none" xmlns="http://www.w3.org/2000/svg">
<path d="M29.5216 0.496321C29.1772 0.273534 28.7834 0.138752 28.3747 0.103823C27.9661 0.0688947 27.5551 0.134889 27.1779 0.296005L14.8184 5.16368C14.5258 5.28277 14.2129 5.344 13.8969 5.34397H5.98446C5.32037 5.34397 4.68348 5.60778 4.2139 6.07736C3.74432 6.54694 3.48051 7.18383 3.48051 7.84792V8.04823H0.976562V14.0577H3.48051V14.3181C3.4962 14.9717 3.76692 15.5933 4.23482 16.05C4.70271 16.5066 5.33066 16.7622 5.98446 16.762L8.9892 23.132C9.19267 23.561 9.51299 23.9239 9.91339 24.179C10.3138 24.4341 10.778 24.5711 11.2528 24.5743H12.5148C13.1754 24.569 13.8071 24.3029 14.2724 23.8339C14.7376 23.3649 14.9987 22.731 14.9987 22.0704V17.0024L27.1779 21.87C27.4775 21.9893 27.797 22.0504 28.1194 22.0503C28.6196 22.0423 29.1067 21.8892 29.5216 21.6096C29.8511 21.3872 30.1228 21.0895 30.3144 20.7411C30.506 20.3928 30.6119 20.0038 30.6233 19.6065V2.55958C30.6215 2.15197 30.5202 1.75096 30.3282 1.3914C30.1362 1.03184 29.8593 0.724582 29.5216 0.496321ZM12.4947 7.84792V14.3181H5.98446V7.84792H12.4947ZM12.4947 22.0704H11.2327L8.76886 16.762H12.4947V22.0704ZM15.7399 14.6186C15.502 14.4971 15.254 14.3965 14.9987 14.3181V7.7077C15.2516 7.65552 15.4995 7.5818 15.7399 7.48735L28.1194 2.55958V19.5464L15.7399 14.6186ZM30.6834 8.54902V13.5569C31.3475 13.5569 31.9844 13.2931 32.454 12.8235C32.9236 12.354 33.1874 11.7171 33.1874 11.053C33.1874 10.3889 32.9236 9.752 32.454 9.28241C31.9844 8.81283 31.3475 8.54902 30.6834 8.54902Z" fill="#500AD2"/>
</svg>
