<svg width="32" height="32" viewBox="0 0 32 32" fill="none" xmlns="http://www.w3.org/2000/svg">
<path d="M30.0916 11.0538C31.9425 9.20296 31.0985 7.04113 30.0916 5.98983L25.6495 1.54771C23.7838 -0.30317 21.6367 0.540832 20.5854 1.54771L18.0683 4.07972H14.2332C11.4199 4.07972 9.79111 5.56042 8.96192 7.26323L2.38759 13.8376V19.7604L1.33629 20.7969C-0.514595 22.6626 0.329406 24.8096 1.33629 25.8609L5.7784 30.303C6.57798 31.1026 7.43679 31.3987 8.25118 31.3987C9.30248 31.3987 10.2649 30.8805 10.8424 30.303L14.8403 26.2903H20.156C22.6732 26.2903 23.9466 24.7207 24.4057 23.1808C26.0789 22.7366 26.9969 21.4632 27.3671 20.2194C29.6622 19.6271 30.521 17.4505 30.521 15.9254V11.4832H29.6474L30.0916 11.0538ZM27.5596 15.9254C27.5596 16.5917 27.2782 17.4061 26.0789 17.4061H24.5982V18.8868C24.5982 19.5531 24.3168 20.3675 23.1175 20.3675H21.6367V21.8482C21.6367 22.5145 21.3554 23.3289 20.156 23.3289H13.6261L8.76942 28.1856C8.3104 28.615 8.04388 28.3633 7.881 28.2004L3.45369 23.7879C3.02429 23.3289 3.27601 23.0624 3.43889 22.8995L5.349 20.9746V15.0517L8.3104 12.0903V14.4447C8.3104 16.2363 9.49497 18.8868 12.7525 18.8868C16.0101 18.8868 17.1946 16.2363 17.1946 14.4447H27.5596V15.9254ZM27.989 8.95123L25.4718 11.4832H14.2332V14.4447C14.2332 15.111 13.9519 15.9254 12.7525 15.9254C11.5531 15.9254 11.2718 15.111 11.2718 14.4447V10.0025C11.2718 9.32141 11.5235 7.04113 14.2332 7.04113H19.2824L22.6584 3.66512C23.1175 3.23571 23.384 3.48743 23.5469 3.65031L27.9742 8.06281C28.4036 8.52183 28.1519 8.78836 27.989 8.95123Z" fill="#500AD2"/>
</svg>
