<svg width="168" height="31" viewBox="0 0 168 31" fill="none" xmlns="http://www.w3.org/2000/svg">
<g clip-path="url(#clip0_1139_2083)">
<path d="M40.5733 20.8577C39.5423 20.8577 38.723 20.6071 38.116 20.1056C37.5086 19.6046 37.205 18.711 37.205 17.4258V12.2356H35.4043V10.3501H37.205L37.4803 7.68066H39.4504V10.3501H42.4163V12.2356H39.4504V17.4258C39.4504 18.0051 39.574 18.404 39.8212 18.6226C40.0681 18.8418 40.4955 18.9511 41.1029 18.9511H42.3104V20.8577H40.5733Z" fill="black"/>
<path d="M48.1953 21.1117C47.1923 21.1117 46.292 20.8819 45.4942 20.4233C44.6963 19.9646 44.0641 19.3216 43.5981 18.4955C43.132 17.6695 42.8989 16.7053 42.8989 15.6037C42.8989 14.5022 43.1351 13.5382 43.6085 12.712C44.0815 11.8857 44.7208 11.2433 45.5259 10.7842C46.3309 10.3254 47.2275 10.0957 48.2162 10.0957C49.2188 10.0957 50.1191 10.3254 50.9173 10.7842C51.7148 11.2433 52.3505 11.8857 52.8239 12.712C53.2969 13.5382 53.5335 14.502 53.5335 15.6037C53.5335 16.7055 53.2969 17.6693 52.8239 18.4955C52.3505 19.3218 51.7117 19.9646 50.9066 20.4233C50.1015 20.8819 49.1976 21.1117 48.1949 21.1117H48.1953ZM48.1953 19.184C48.7317 19.184 49.2296 19.05 49.6888 18.7814C50.1476 18.5131 50.5182 18.114 50.801 17.5843C51.0835 17.0548 51.2248 16.3948 51.2248 15.6035C51.2248 14.8123 51.0873 14.1523 50.8117 13.6228C50.5362 13.0932 50.1689 12.6944 49.7102 12.4259C49.251 12.1577 48.7531 12.0233 48.2166 12.0233C47.6802 12.0233 47.1819 12.1577 46.7231 12.4259C46.2639 12.6944 45.8933 13.0932 45.6108 13.6228C45.3282 14.1523 45.1871 14.8129 45.1871 15.6035C45.1871 16.3942 45.3282 17.0546 45.6108 17.5843C45.8933 18.114 46.2604 18.5131 46.7124 18.7814C47.1643 19.05 47.6584 19.184 48.1955 19.184H48.1953Z" fill="black"/>
<path d="M54.7651 20.8576V10.3499H56.7777L56.9683 12.3411C57.3353 11.6493 57.8475 11.102 58.5043 10.6994C59.1609 10.2969 59.9553 10.0957 60.8875 10.0957V12.4471H60.2732C59.6515 12.4471 59.0975 12.5497 58.6103 12.7543C58.123 12.9592 57.7344 13.3051 57.445 13.7924C57.1555 14.2796 57.0108 14.9542 57.0108 15.8156V20.8576H54.7651Z" fill="black"/>
<path d="M70.1148 25.5184V19.2265C69.7758 19.721 69.3097 20.1586 68.7166 20.5399C68.1234 20.9212 67.3606 21.1119 66.4286 21.1119C65.4116 21.1119 64.5147 20.8716 63.7382 20.3915C62.9612 19.9116 62.3538 19.2548 61.9164 18.4212C61.4784 17.5881 61.2598 16.6419 61.2598 15.5824C61.2598 14.5229 61.4786 13.5805 61.9164 12.7543C62.354 11.928 62.965 11.2787 63.7489 10.8053C64.5328 10.3323 65.433 10.0957 66.45 10.0957C67.2831 10.0957 68.0141 10.2582 68.6426 10.5829C69.2708 10.9079 69.7618 11.3669 70.115 11.9599L70.3481 10.3499H72.3606V25.5182H70.115L70.1148 25.5184ZM66.8311 19.1628C67.7913 19.1628 68.5788 18.8312 69.1931 18.1672C69.8074 17.5035 70.1148 16.649 70.1148 15.6037C70.1148 14.5445 69.8076 13.6864 69.1931 13.0296C68.5788 12.373 67.7913 12.0445 66.8311 12.0445C65.8708 12.0445 65.0798 12.373 64.4583 13.0296C63.8367 13.6864 63.5262 14.5443 63.5262 15.6037C63.5262 16.296 63.6673 16.9103 63.9499 17.4467C64.2324 17.9836 64.6242 18.4038 65.1256 18.7074C65.6267 19.0112 66.1954 19.1628 66.8311 19.1628Z" fill="black"/>
<path d="M75.6108 19.3427C75.187 19.3427 74.8374 19.2051 74.562 18.9297C74.2867 18.6542 74.1489 18.3259 74.1489 17.9446C74.1489 17.5495 74.2867 17.2136 74.562 16.9383C74.8374 16.663 75.1868 16.5254 75.6108 16.5254C76.0348 16.5254 76.3805 16.663 76.649 16.9383C76.917 17.2138 77.0516 17.5495 77.0516 17.9446C77.0516 18.3259 76.917 18.6542 76.649 18.9297C76.3805 19.2051 76.0344 19.3427 75.6108 19.3427Z" fill="black"/>
<path d="M78.8389 25.5184V10.3501H80.8515L81.0845 11.9812C81.4235 11.487 81.8896 11.049 82.4828 10.6677C83.0759 10.2864 83.8385 10.0957 84.7707 10.0957C85.7875 10.0957 86.6843 10.3361 87.4611 10.816C88.2377 11.2963 88.8487 11.9529 89.2936 12.7861C89.7385 13.6196 89.9609 14.5656 89.9609 15.6249C89.9609 16.6842 89.7385 17.627 89.2936 18.4532C88.8487 19.2795 88.2377 19.9292 87.4611 20.4021C86.6843 20.8751 85.7804 21.1119 84.7495 21.1119C83.93 21.1119 83.2062 20.9493 82.578 20.6247C81.9495 20.3 81.4516 19.8406 81.0845 19.2476V25.5182H78.8389V25.5184ZM84.3681 19.1628C85.3285 19.1628 86.1191 18.8345 86.7408 18.1777C87.362 17.5211 87.673 16.663 87.673 15.6037C87.673 14.9119 87.5316 14.2974 87.2494 13.7605C86.9667 13.2241 86.5783 12.8041 86.084 12.5001C85.5896 12.1965 85.0174 12.0445 84.3681 12.0445C83.4074 12.0445 82.6203 12.3767 82.006 13.0403C81.3917 13.7042 81.0845 14.5587 81.0845 15.6037C81.0845 16.6628 81.3917 17.5211 82.006 18.1777C82.6205 18.8345 83.4076 19.1628 84.3681 19.1628Z" fill="black"/>
<path d="M94.7765 21.1117C93.8868 21.1117 93.1523 20.9635 92.5733 20.6668C91.994 20.3701 91.5635 19.9784 91.2812 19.4912C90.9985 19.0039 90.8574 18.4708 90.8574 17.8915C90.8574 16.8747 91.2527 16.0696 92.0438 15.4765C92.8346 14.8835 93.9643 14.5868 95.4335 14.5868H98.1875V14.3962C98.1875 13.5771 97.9649 12.963 97.5202 12.553C97.0753 12.1435 96.4995 11.9387 95.7936 11.9387C95.172 11.9387 94.6318 12.0905 94.173 12.3941C93.7138 12.6981 93.4347 13.1462 93.3361 13.7394H91.0905C91.1608 12.9766 91.4188 12.3237 91.8637 11.7798C92.3087 11.2362 92.8732 10.8195 93.5585 10.53C94.2434 10.2408 94.9955 10.0957 95.8146 10.0957C97.2832 10.0957 98.4204 10.4807 99.2254 11.2502C100.03 12.0201 100.433 13.0687 100.433 14.3962V20.8576H98.484L98.2935 19.0567C97.9968 19.636 97.5659 20.1234 97.0011 20.5186C96.4362 20.9137 95.6946 21.1117 94.7767 21.1117H94.7765ZM95.2214 19.2899C95.8284 19.2899 96.3408 19.1453 96.7574 18.8557C97.1739 18.5663 97.4989 18.1813 97.7319 17.7009C97.9649 17.221 98.1096 16.6915 98.1662 16.1121H95.6663C94.7765 16.1121 94.1445 16.2675 93.7704 16.578C93.396 16.8889 93.2088 17.2771 93.2088 17.7432C93.2088 18.2236 93.3891 18.6013 93.749 18.8766C94.1092 19.1522 94.5998 19.2899 95.2214 19.2899Z" fill="black"/>
<path d="M102.165 20.8576V10.3499H104.178L104.368 12.3411C104.736 11.6493 105.248 11.102 105.904 10.6994C106.561 10.2969 107.355 10.0957 108.288 10.0957V12.4471H107.673C107.052 12.4471 106.498 12.5497 106.01 12.7543C105.523 12.9592 105.135 13.3051 104.845 13.7924C104.555 14.2796 104.411 14.9542 104.411 15.8156V20.8576H102.165H102.165Z" fill="black"/>
<path d="M114.4 20.8577C113.368 20.8577 112.549 20.6071 111.942 20.1056C111.335 19.6046 111.031 18.711 111.031 17.4258V12.2356H109.23V10.3501H111.031L111.307 7.68066H113.277V10.3501H116.243V12.2356H113.277V17.4258C113.277 18.0051 113.4 18.404 113.648 18.6226C113.894 18.8418 114.322 18.9511 114.929 18.9511H116.137V20.8577H114.4Z" fill="black"/>
<path d="M117.734 20.8576V10.3499H119.725L119.895 12.1929C120.219 11.5434 120.696 11.0316 121.325 10.6571C121.953 10.2831 122.677 10.0957 123.496 10.0957C124.767 10.0957 125.766 10.4912 126.494 11.2821C127.221 12.0731 127.585 13.2522 127.585 14.8198V20.8576H125.361V15.0529C125.361 13.0191 124.527 12.0022 122.861 12.0022C122.027 12.0022 121.339 12.2988 120.795 12.892C120.251 13.4852 119.98 14.3326 119.98 15.4342V20.8576H117.734Z" fill="black"/>
<path d="M134.138 21.1119C133.107 21.1119 132.192 20.8821 131.395 20.4235C130.596 19.9648 129.972 19.3255 129.52 18.5062C129.068 17.6871 128.842 16.734 128.842 15.6462C128.842 14.5445 129.064 13.5773 129.509 12.7438C129.954 11.9106 130.575 11.2609 131.373 10.7948C132.171 10.3287 133.1 10.0957 134.159 10.0957C135.19 10.0957 136.087 10.3254 136.85 10.7842C137.612 11.2433 138.206 11.8539 138.629 12.6167C139.053 13.3793 139.265 14.2197 139.265 15.1377C139.265 15.279 139.261 15.431 139.254 15.5933C139.247 15.7559 139.236 15.9358 139.222 16.1335H131.045C131.116 17.1503 131.451 17.9237 132.051 18.4532C132.651 18.9828 133.347 19.2476 134.138 19.2476C134.774 19.2476 135.307 19.1028 135.738 18.8132C136.168 18.524 136.49 18.132 136.702 17.6375H138.947C138.665 18.6262 138.103 19.4524 137.263 20.1161C136.423 20.7801 135.381 21.1119 134.138 21.1119H134.138ZM134.138 11.9389C133.389 11.9389 132.725 12.1613 132.147 12.6062C131.567 13.0511 131.214 13.7184 131.087 14.6081H137.019C136.977 13.7892 136.687 13.1395 136.151 12.6592C135.614 12.1793 134.943 11.9389 134.138 11.9389H134.138Z" fill="black"/>
<path d="M140.587 20.8576V10.3499H142.599L142.79 12.3411C143.157 11.6493 143.669 11.102 144.326 10.6994C144.982 10.2969 145.777 10.0957 146.709 10.0957V12.4471H146.095C145.473 12.4471 144.919 12.5497 144.432 12.7543C143.944 12.9592 143.556 13.3051 143.266 13.7924C142.977 14.2796 142.832 14.9542 142.832 15.8156V20.8576H140.587Z" fill="black"/>
<path d="M151.837 21.1117C150.51 21.1117 149.415 20.787 148.554 20.1371C147.692 19.4876 147.198 18.626 147.071 17.5527H149.337C149.45 18.033 149.719 18.4461 150.142 18.792C150.566 19.1383 151.124 19.3109 151.816 19.3109C152.494 19.3109 152.988 19.17 153.299 18.8873C153.61 18.605 153.765 18.2803 153.765 17.9128C153.765 17.3764 153.55 17.0125 153.119 16.8217C152.688 16.6312 152.091 16.4582 151.329 16.3029C150.736 16.1756 150.146 16.0062 149.56 15.7943C148.974 15.5824 148.486 15.2825 148.098 14.8939C147.71 14.5057 147.516 13.9798 147.516 13.3158C147.516 12.3979 147.869 11.6315 148.575 11.0172C149.281 10.4029 150.27 10.0957 151.541 10.0957C152.713 10.0957 153.662 10.3784 154.39 10.9431C155.117 11.508 155.545 12.3062 155.672 13.337H153.511C153.44 12.8851 153.232 12.5321 152.886 12.2779C152.54 12.0237 152.077 11.8964 151.498 11.8964C150.934 11.8964 150.495 12.013 150.185 12.2461C149.874 12.4793 149.719 12.7794 149.719 13.1464C149.719 13.5135 149.934 13.8032 150.365 14.0149C150.796 14.2268 151.364 14.4176 152.071 14.587C152.777 14.7423 153.43 14.9226 154.03 15.1272C154.63 15.332 155.114 15.6322 155.481 16.0273C155.849 16.4229 156.032 17.0018 156.032 17.7646C156.046 18.7252 155.675 19.523 154.92 20.1584C154.164 20.7939 153.137 21.1117 151.838 21.1117H151.837Z" fill="black"/>
<path d="M24.6131 4.70417L26.5522 2.76531L25.855 2.06835L23.9162 4.00721C18.379 -1.16025 9.67159 -1.04936 4.27503 4.34699C-1.12173 9.74336 -1.23262 18.4498 3.93524 23.9866L1.99619 25.9255L2.69334 26.6225L4.6322 24.6836C7.34076 27.2115 10.8064 28.4787 14.2739 28.4787C17.8951 28.4787 21.5163 27.1006 24.2731 24.3438C29.6699 18.9475 29.781 10.2409 24.6131 4.70417ZM14.2743 24.9977C8.40022 24.9977 3.62136 20.219 3.62136 14.3453C3.62136 11.5037 4.7421 8.92049 6.56197 7.00851L7.95252 8.39906C6.43013 10.0151 5.59284 12.1153 5.59284 14.3453C5.59284 16.6641 6.49595 18.8441 8.13575 20.4837C9.77536 22.1235 11.9556 23.0264 14.2745 23.0264C16.5048 23.0264 18.6051 22.1891 20.2213 20.6667L21.6118 22.0573C19.6998 23.8769 17.1161 24.9977 14.2743 24.9977ZM19.7162 19.7869C18.2626 21.2405 16.3298 22.0409 14.2743 22.0409C12.2189 22.0409 10.2861 21.2405 8.83251 19.7869C7.37891 18.3333 6.57838 16.401 6.57838 14.3453C6.57838 12.2896 7.37891 10.3573 8.83251 8.90369C10.2861 7.45028 12.2189 6.64975 14.2743 6.64975C16.3298 6.64975 18.2626 7.45028 19.7162 8.90369C21.1698 10.3571 21.9704 12.2896 21.9704 14.3451C21.9704 16.4006 21.17 18.3333 19.7162 19.7869ZM21.9868 21.6821L20.5962 20.2916C22.1186 18.6755 22.9561 16.5753 22.9561 14.3453C22.9561 12.0265 22.053 9.84654 20.4132 8.20693C18.7735 6.56713 16.5933 5.66421 14.2743 5.66421C12.0441 5.66421 9.94377 6.50151 8.32768 8.0239L6.93713 6.63335C8.84911 4.81348 11.4326 3.69293 14.2743 3.69293C20.1485 3.69293 24.9274 8.4716 24.9274 14.3453C24.9274 17.1869 23.8066 19.7701 21.9868 21.6821ZM4.97198 5.04395C7.46963 2.54649 10.7287 1.26921 14.0089 1.20358V3.16913C7.96458 3.31105 3.09044 8.26801 3.09044 14.3455C3.09044 20.423 7.96458 25.38 14.0089 25.5219V27.4874C10.7305 27.4218 7.47201 26.1451 4.97514 23.6498L4.96921 23.6441C-0.156942 18.515 -0.156151 10.1719 4.97198 5.04395ZM23.5764 23.6471C21.0791 26.1441 17.8192 27.4218 14.5396 27.4874V25.5219C20.584 25.38 25.4581 20.423 25.4581 14.3455C25.4581 8.26801 20.584 3.31105 14.5396 3.16913V1.20358C17.818 1.26921 21.0775 2.54649 23.5742 5.04178L23.5785 5.04612C28.7055 10.1752 28.7047 18.5189 23.5764 23.6471Z" fill="black"/>
</g>
<defs>
<clipPath id="clip0_1139_2083">
<rect width="155.955" height="28.2656" fill="white" transform="translate(0.141602 0.213867)"/>
</clipPath>
</defs>
</svg>
