<svg width="312" height="183" viewBox="0 0 312 183" fill="none" xmlns="http://www.w3.org/2000/svg">
<g filter="url(#filter0_d_1628_3035)">
<rect x="46.5251" y="43.448" width="218.508" height="90" rx="20" fill="white"/>
</g>
<path d="M81.7091 118.272C80.4371 118.272 79.3451 118.002 78.4331 117.462C77.5211 116.91 76.8191 116.148 76.3271 115.176C75.8351 114.192 75.5891 113.058 75.5891 111.774C75.5891 110.49 75.8351 109.356 76.3271 108.372C76.8191 107.388 77.5211 106.62 78.4331 106.068C79.3451 105.516 80.4371 105.24 81.7091 105.24C83.2211 105.24 84.4571 105.618 85.4171 106.374C86.3891 107.118 86.9951 108.168 87.2351 109.524H84.6971C84.5411 108.84 84.2051 108.306 83.6891 107.922C83.1851 107.526 82.5131 107.328 81.6731 107.328C80.5091 107.328 79.5971 107.724 78.9371 108.516C78.2771 109.308 77.9471 110.394 77.9471 111.774C77.9471 113.154 78.2771 114.24 78.9371 115.032C79.5971 115.812 80.5091 116.202 81.6731 116.202C82.5131 116.202 83.1851 116.022 83.6891 115.662C84.2051 115.29 84.5411 114.78 84.6971 114.132H87.2351C86.9951 115.428 86.3891 116.442 85.4171 117.174C84.4571 117.906 83.2211 118.272 81.7091 118.272ZM93.5045 118.272C92.6405 118.272 91.8605 118.074 91.1645 117.678C90.4805 117.282 89.9345 116.736 89.5265 116.04C89.1305 115.332 88.9325 114.516 88.9325 113.592C88.9325 112.668 89.1365 111.858 89.5445 111.162C89.9525 110.454 90.4985 109.902 91.1825 109.506C91.8785 109.11 92.6585 108.912 93.5225 108.912C94.3745 108.912 95.1425 109.11 95.8265 109.506C96.5225 109.902 97.0685 110.454 97.4645 111.162C97.8725 111.858 98.0765 112.668 98.0765 113.592C98.0765 114.516 97.8725 115.332 97.4645 116.04C97.0685 116.736 96.5225 117.282 95.8265 117.678C95.1305 118.074 94.3565 118.272 93.5045 118.272ZM93.5045 116.274C94.1045 116.274 94.6265 116.052 95.0705 115.608C95.5145 115.152 95.7365 114.48 95.7365 113.592C95.7365 112.704 95.5145 112.038 95.0705 111.594C94.6265 111.138 94.1105 110.91 93.5225 110.91C92.9105 110.91 92.3825 111.138 91.9385 111.594C91.5065 112.038 91.2905 112.704 91.2905 113.592C91.2905 114.48 91.5065 115.152 91.9385 115.608C92.3825 116.052 92.9045 116.274 93.5045 116.274ZM100.137 118.056V109.128H102.171L102.351 110.64C102.627 110.112 103.023 109.692 103.539 109.38C104.067 109.068 104.685 108.912 105.393 108.912C106.497 108.912 107.355 109.26 107.967 109.956C108.579 110.652 108.885 111.672 108.885 113.016V118.056H106.581V113.232C106.581 112.464 106.425 111.876 106.113 111.468C105.801 111.06 105.315 110.856 104.655 110.856C104.007 110.856 103.473 111.084 103.053 111.54C102.645 111.996 102.441 112.632 102.441 113.448V118.056H100.137ZM115.066 118.056C114.13 118.056 113.38 117.828 112.816 117.372C112.252 116.916 111.97 116.106 111.97 114.942V111.054H110.44V109.128H111.97L112.24 106.734H114.274V109.128H116.686V111.054H114.274V114.96C114.274 115.392 114.364 115.692 114.544 115.86C114.736 116.016 115.06 116.094 115.516 116.094H116.632V118.056H115.066ZM122.773 118.272C121.873 118.272 121.075 118.08 120.379 117.696C119.683 117.312 119.137 116.772 118.741 116.076C118.345 115.38 118.147 114.576 118.147 113.664C118.147 112.74 118.339 111.918 118.723 111.198C119.119 110.478 119.659 109.92 120.343 109.524C121.039 109.116 121.855 108.912 122.791 108.912C123.667 108.912 124.441 109.104 125.113 109.488C125.785 109.872 126.307 110.4 126.679 111.072C127.063 111.732 127.255 112.47 127.255 113.286C127.255 113.418 127.249 113.556 127.237 113.7C127.237 113.844 127.231 113.994 127.219 114.15H120.433C120.481 114.846 120.721 115.392 121.153 115.788C121.597 116.184 122.131 116.382 122.755 116.382C123.223 116.382 123.613 116.28 123.925 116.076C124.249 115.86 124.489 115.584 124.645 115.248H126.985C126.817 115.812 126.535 116.328 126.139 116.796C125.755 117.252 125.275 117.612 124.699 117.876C124.135 118.14 123.493 118.272 122.773 118.272ZM122.791 110.784C122.227 110.784 121.729 110.946 121.297 111.27C120.865 111.582 120.589 112.062 120.469 112.71H124.915C124.879 112.122 124.663 111.654 124.267 111.306C123.871 110.958 123.379 110.784 122.791 110.784ZM129.193 118.056V109.128H131.227L131.407 110.64C131.683 110.112 132.079 109.692 132.595 109.38C133.123 109.068 133.741 108.912 134.449 108.912C135.553 108.912 136.411 109.26 137.023 109.956C137.635 110.652 137.941 111.672 137.941 113.016V118.056H135.637V113.232C135.637 112.464 135.481 111.876 135.169 111.468C134.857 111.06 134.371 110.856 133.711 110.856C133.063 110.856 132.529 111.084 132.109 111.54C131.701 111.996 131.497 112.632 131.497 113.448V118.056H129.193ZM144.122 118.056C143.186 118.056 142.436 117.828 141.872 117.372C141.308 116.916 141.026 116.106 141.026 114.942V111.054H139.496V109.128H141.026L141.296 106.734H143.33V109.128H145.742V111.054H143.33V114.96C143.33 115.392 143.42 115.692 143.6 115.86C143.792 116.016 144.116 116.094 144.572 116.094H145.688V118.056H144.122ZM153.432 118.056V108.084L151.362 108.57V106.806L154.404 105.456H155.826V118.056H153.432ZM163.435 118.272C162.271 118.272 161.275 118.002 160.447 117.462C159.619 116.91 158.977 116.148 158.521 115.176C158.077 114.192 157.855 113.052 157.855 111.756C157.855 110.472 158.077 109.338 158.521 108.354C158.977 107.37 159.619 106.608 160.447 106.068C161.275 105.516 162.271 105.24 163.435 105.24C164.599 105.24 165.595 105.516 166.423 106.068C167.251 106.608 167.887 107.37 168.331 108.354C168.787 109.338 169.015 110.472 169.015 111.756C169.015 113.052 168.787 114.192 168.331 115.176C167.887 116.148 167.251 116.91 166.423 117.462C165.595 118.002 164.599 118.272 163.435 118.272ZM163.435 116.202C164.383 116.202 165.157 115.806 165.757 115.014C166.357 114.222 166.657 113.136 166.657 111.756C166.657 110.376 166.357 109.29 165.757 108.498C165.157 107.706 164.383 107.31 163.435 107.31C162.475 107.31 161.695 107.706 161.095 108.498C160.507 109.29 160.213 110.376 160.213 111.756C160.213 113.136 160.507 114.222 161.095 115.014C161.695 115.806 162.475 116.202 163.435 116.202ZM169.61 118.056L173.552 111.684L169.556 105.456H172.202L175.028 109.848L177.62 105.456H180.212L176.27 111.792L180.302 118.056H177.656L174.794 113.61L172.202 118.056H169.61ZM186.736 118.056V111.054H185.512V109.128H186.736V108.084C186.736 107.004 187.006 106.236 187.546 105.78C188.098 105.324 188.842 105.096 189.778 105.096H190.768V107.058H190.138C189.742 107.058 189.46 107.136 189.292 107.292C189.124 107.448 189.04 107.712 189.04 108.084V109.128H190.966V111.054H189.04V118.056H186.736ZM195.517 118.272C194.749 118.272 194.119 118.152 193.627 117.912C193.135 117.66 192.769 117.33 192.529 116.922C192.289 116.514 192.169 116.064 192.169 115.572C192.169 114.744 192.493 114.072 193.141 113.556C193.789 113.04 194.761 112.782 196.057 112.782H198.325V112.566C198.325 111.954 198.151 111.504 197.803 111.216C197.455 110.928 197.023 110.784 196.507 110.784C196.039 110.784 195.631 110.898 195.283 111.126C194.935 111.342 194.719 111.666 194.635 112.098H192.385C192.445 111.45 192.661 110.886 193.033 110.406C193.417 109.926 193.909 109.56 194.509 109.308C195.109 109.044 195.781 108.912 196.525 108.912C197.797 108.912 198.799 109.23 199.531 109.866C200.263 110.502 200.629 111.402 200.629 112.566V118.056H198.667L198.451 116.616C198.187 117.096 197.815 117.492 197.335 117.804C196.867 118.116 196.261 118.272 195.517 118.272ZM196.039 116.472C196.699 116.472 197.209 116.256 197.569 115.824C197.941 115.392 198.175 114.858 198.271 114.222H196.309C195.697 114.222 195.259 114.336 194.995 114.564C194.731 114.78 194.599 115.05 194.599 115.374C194.599 115.722 194.731 115.992 194.995 116.184C195.259 116.376 195.607 116.472 196.039 116.472ZM206.518 118.272C205.726 118.272 205.03 118.146 204.43 117.894C203.83 117.63 203.35 117.27 202.99 116.814C202.63 116.358 202.414 115.83 202.342 115.23H204.664C204.736 115.578 204.928 115.878 205.24 116.13C205.564 116.37 205.978 116.49 206.482 116.49C206.986 116.49 207.352 116.388 207.58 116.184C207.82 115.98 207.94 115.746 207.94 115.482C207.94 115.098 207.772 114.84 207.436 114.708C207.1 114.564 206.632 114.426 206.032 114.294C205.648 114.21 205.258 114.108 204.862 113.988C204.466 113.868 204.1 113.718 203.764 113.538C203.44 113.346 203.176 113.106 202.972 112.818C202.768 112.518 202.666 112.152 202.666 111.72C202.666 110.928 202.978 110.262 203.602 109.722C204.238 109.182 205.126 108.912 206.266 108.912C207.322 108.912 208.162 109.158 208.786 109.65C209.422 110.142 209.8 110.82 209.92 111.684H207.742C207.61 111.024 207.112 110.694 206.248 110.694C205.816 110.694 205.48 110.778 205.24 110.946C205.012 111.114 204.898 111.324 204.898 111.576C204.898 111.84 205.072 112.05 205.42 112.206C205.768 112.362 206.23 112.506 206.806 112.638C207.43 112.782 208 112.944 208.516 113.124C209.044 113.292 209.464 113.55 209.776 113.898C210.088 114.234 210.244 114.72 210.244 115.356C210.256 115.908 210.112 116.406 209.812 116.85C209.512 117.294 209.08 117.642 208.516 117.894C207.952 118.146 207.286 118.272 206.518 118.272ZM215.982 118.056C215.046 118.056 214.296 117.828 213.732 117.372C213.168 116.916 212.886 116.106 212.886 114.942V111.054H211.356V109.128H212.886L213.156 106.734H215.19V109.128H217.602V111.054H215.19V114.96C215.19 115.392 215.28 115.692 215.46 115.86C215.652 116.016 215.976 116.094 216.432 116.094H217.548V118.056H215.982ZM223.689 118.272C222.789 118.272 221.991 118.08 221.295 117.696C220.599 117.312 220.053 116.772 219.657 116.076C219.261 115.38 219.063 114.576 219.063 113.664C219.063 112.74 219.255 111.918 219.639 111.198C220.035 110.478 220.575 109.92 221.259 109.524C221.955 109.116 222.771 108.912 223.707 108.912C224.583 108.912 225.357 109.104 226.029 109.488C226.701 109.872 227.223 110.4 227.595 111.072C227.979 111.732 228.171 112.47 228.171 113.286C228.171 113.418 228.165 113.556 228.153 113.7C228.153 113.844 228.147 113.994 228.135 114.15H221.349C221.397 114.846 221.637 115.392 222.069 115.788C222.513 116.184 223.047 116.382 223.671 116.382C224.139 116.382 224.529 116.28 224.841 116.076C225.165 115.86 225.405 115.584 225.561 115.248H227.901C227.733 115.812 227.451 116.328 227.055 116.796C226.671 117.252 226.191 117.612 225.615 117.876C225.051 118.14 224.409 118.272 223.689 118.272ZM223.707 110.784C223.143 110.784 222.645 110.946 222.213 111.27C221.781 111.582 221.505 112.062 221.385 112.71H225.831C225.795 112.122 225.579 111.654 225.183 111.306C224.787 110.958 224.295 110.784 223.707 110.784ZM230.109 118.056V109.128H232.161L232.377 110.802C232.701 110.226 233.139 109.77 233.691 109.434C234.255 109.086 234.915 108.912 235.671 108.912V111.342H235.023C234.519 111.342 234.069 111.42 233.673 111.576C233.277 111.732 232.965 112.002 232.737 112.386C232.521 112.77 232.413 113.304 232.413 113.988V118.056H230.109Z" fill="#02314E"/>
<circle cx="155.331" cy="74.8152" r="23.7021" fill="#DCF1FF"/>
<path d="M160.244 70.4926L156.47 74.2665C156.244 74.2064 156.012 74.1745 155.778 74.1715C155.058 74.1715 154.367 74.4575 153.858 74.9667C153.349 75.4759 153.063 76.1665 153.063 76.8865C153.066 77.1203 153.098 77.3529 153.158 77.5789L152.099 78.6377C151.972 78.7639 151.871 78.9141 151.802 79.0795C151.733 79.2449 151.698 79.4223 151.698 79.6016C151.698 79.7808 151.733 79.9582 151.802 80.1236C151.871 80.2891 151.972 80.4392 152.099 80.5654C152.225 80.6926 152.376 80.7936 152.541 80.8625C152.706 80.9315 152.884 80.9669 153.063 80.9669C153.242 80.9669 153.42 80.9315 153.585 80.8625C153.751 80.7936 153.901 80.6926 154.027 80.5654L155.086 79.5065C155.312 79.5666 155.544 79.5985 155.778 79.6016C156.498 79.6016 157.189 79.3155 157.698 78.8063C158.207 78.2972 158.493 77.6066 158.493 76.8865C158.49 76.6527 158.458 76.4202 158.398 76.1942L162.172 72.4203C162.428 72.1647 162.571 71.818 162.571 71.4565C162.571 71.095 162.428 70.7483 162.172 70.4926C161.916 70.237 161.57 70.0934 161.208 70.0934C160.847 70.0934 160.5 70.237 160.244 70.4926ZM155.778 61.9539C153.995 61.9539 152.23 62.305 150.583 62.9872C148.936 63.6694 147.44 64.6694 146.179 65.9299C143.633 68.4758 142.203 71.9287 142.203 75.529C142.196 78.2177 142.995 80.8466 144.497 83.0768C144.699 83.3756 145.011 83.5821 145.365 83.6509C145.719 83.7196 146.085 83.6449 146.384 83.4433C146.683 83.2417 146.889 82.9296 146.958 82.5758C147.027 82.2219 146.952 81.8552 146.751 81.5564C145.657 79.9213 145.028 78.02 144.931 76.0553C144.834 74.0907 145.272 72.1366 146.199 70.4017C147.126 68.6668 148.507 67.2162 150.194 66.2048C151.881 65.1934 153.811 64.6591 155.778 64.6591C157.745 64.6591 159.675 65.1934 161.362 66.2048C163.049 67.2162 164.43 68.6668 165.357 70.4017C166.284 72.1366 166.722 74.0907 166.625 76.0553C166.528 78.02 165.899 79.9213 164.806 81.5564C164.705 81.7043 164.636 81.8704 164.6 82.0454C164.564 82.2203 164.563 82.4006 164.597 82.5759C164.631 82.7512 164.7 82.918 164.798 83.0669C164.897 83.2157 165.024 83.3436 165.172 83.4433C165.397 83.5943 165.662 83.6747 165.932 83.6741C166.155 83.6744 166.374 83.6201 166.57 83.516C166.767 83.4118 166.935 83.261 167.059 83.0768C168.561 80.8466 169.36 78.2177 169.353 75.529C169.353 71.9287 167.923 68.4758 165.377 65.9299C162.831 63.3841 159.378 61.9539 155.778 61.9539Z" fill="#59BFFF"/>
<defs>
<filter id="filter0_d_1628_3035" x="0.525146" y="0.447998" width="310.508" height="182" filterUnits="userSpaceOnUse" color-interpolation-filters="sRGB">
<feFlood flood-opacity="0" result="BackgroundImageFix"/>
<feColorMatrix in="SourceAlpha" type="matrix" values="0 0 0 0 0 0 0 0 0 0 0 0 0 0 0 0 0 0 127 0" result="hardAlpha"/>
<feMorphology radius="6" operator="dilate" in="SourceAlpha" result="effect1_dropShadow_1628_3035"/>
<feOffset dy="3"/>
<feGaussianBlur stdDeviation="20"/>
<feComposite in2="hardAlpha" operator="out"/>
<feColorMatrix type="matrix" values="0 0 0 0 0.823529 0 0 0 0 0.815686 0 0 0 0 1 0 0 0 0.4 0"/>
<feBlend mode="normal" in2="BackgroundImageFix" result="effect1_dropShadow_1628_3035"/>
<feBlend mode="normal" in="SourceGraphic" in2="effect1_dropShadow_1628_3035" result="shape"/>
</filter>
</defs>
</svg>
