<svg width="100" height="80" viewBox="0 0 100 80" fill="none" xmlns="http://www.w3.org/2000/svg">
<g clip-path="url(#clip0_116_181)">
<path d="M100 2.52834C100 1.49459 99.1458 0.658962 98.1134 0.697086C69.8403 1.74047 53.7041 16.5707 53.7041 49.1672V77.5C53.7041 78.5228 54.5332 79.3518 55.556 79.3518H97.0245C98.0476 79.3518 98.8763 78.5228 98.8763 77.5V36.4857C98.8763 35.463 98.0476 34.6339 97.0245 34.6339H84.4876C83.8702 34.6339 83.3697 34.1333 83.3697 33.5159C83.3697 26.0813 87.0208 20.6647 98.1772 19.9502C99.1847 19.8856 100 19.0676 100 18.0577V2.52834Z" fill="url(#paint0_linear_116_181)" fill-opacity="0.6"/>
<path d="M46.2963 2.52834C46.2963 1.49459 45.4421 0.658962 44.4091 0.697086C16.1363 1.74047 0 16.5707 0 49.1672V77.5C0 78.5228 0.829103 79.3518 1.85185 79.3518H43.3207C44.3435 79.3518 45.1726 78.5228 45.1726 77.5V36.4857C45.1726 35.463 44.3435 34.6339 43.3207 34.6339H30.7835C30.1661 34.6339 29.6656 34.1333 29.6656 33.5159C29.6656 26.0813 33.3167 20.6647 44.473 19.9502C45.4808 19.8856 46.2963 19.0676 46.2963 18.0577V2.52834Z" fill="url(#paint1_linear_116_181)" fill-opacity="0.6"/>
</g>
<defs>
<linearGradient id="paint0_linear_116_181" x1="53.7041" y1="39.5676" x2="99.556" y2="83.5348" gradientUnits="userSpaceOnUse">
<stop stop-color="#FDA781"/>
<stop offset="1" stop-color="white" stop-opacity="0"/>
</linearGradient>
<linearGradient id="paint1_linear_116_181" x1="-4.766e-07" y1="39.5676" x2="45.8516" y2="83.5348" gradientUnits="userSpaceOnUse">
<stop stop-color="#FDA781"/>
<stop offset="1" stop-color="white" stop-opacity="0"/>
</linearGradient>
<clipPath id="clip0_116_181">
<rect width="100" height="78.7037" fill="white" transform="translate(0 0.648148)"/>
</clipPath>
</defs>
</svg>
