<svg width="305" height="176" viewBox="0 0 305 176" fill="none" xmlns="http://www.w3.org/2000/svg">
<g filter="url(#filter0_d_1628_3024)">
<rect x="46.5623" y="36.4539" width="212" height="82.7969" rx="20" fill="white" shape-rendering="crispEdges"/>
<rect x="61.5623" y="52.3445" width="46" height="46" rx="23" fill="#DCF1FF"/>
<path d="M76.7873 74.4695C78.0177 74.4695 79.0373 73.4851 79.0373 72.2195C79.0373 70.989 78.0177 69.9695 76.7873 69.9695C75.5216 69.9695 74.5373 70.989 74.5373 72.2195C74.5373 73.4851 75.5216 74.4695 76.7873 74.4695ZM92.5373 74.4695C93.7677 74.4695 94.7873 73.4851 94.7873 72.2195C94.7873 70.989 93.7677 69.9695 92.5373 69.9695C91.2716 69.9695 90.2873 70.989 90.2873 72.2195C90.2873 73.4851 91.2716 74.4695 92.5373 74.4695ZM93.6623 75.5945H91.4123C90.7794 75.5945 90.2169 75.8757 89.7951 76.2625C91.2365 77.0359 92.2208 78.4421 92.4669 80.0945H94.7873C95.3849 80.0945 95.9123 79.6023 95.9123 78.9695V77.8445C95.9123 76.614 94.8927 75.5945 93.6623 75.5945ZM84.6623 75.5945C86.8068 75.5945 88.5998 73.8367 88.5998 71.657C88.5998 69.5125 86.8068 67.7195 84.6623 67.7195C82.4826 67.7195 80.7248 69.5125 80.7248 71.657C80.7248 73.8367 82.4826 75.5945 84.6623 75.5945ZM87.3341 76.7195H87.0529C86.3146 77.071 85.506 77.282 84.6623 77.282C83.7833 77.282 82.9748 77.071 82.2365 76.7195H81.9552C79.7052 76.7195 77.9123 78.5476 77.9123 80.7976V81.782C77.9123 82.7312 78.6505 83.4695 79.5998 83.4695H89.7248C90.6388 83.4695 91.4123 82.7312 91.4123 81.782V80.7976C91.4123 78.5476 89.5841 76.7195 87.3341 76.7195ZM79.4943 76.2625C79.0724 75.8757 78.5099 75.5945 77.9123 75.5945H75.6623C74.3966 75.5945 73.4123 76.614 73.4123 77.8445V78.9695C73.4123 79.6023 73.9044 80.0945 74.5373 80.0945H76.8224C77.0685 78.4421 78.0529 77.0359 79.4943 76.2625Z" fill="#59BFFF"/>
<path d="M124.602 75.4539C124.469 75.4539 124.356 75.4072 124.262 75.3139C124.169 75.2205 124.122 75.1072 124.122 74.9739V61.9339C124.122 61.8005 124.169 61.6872 124.262 61.5939C124.356 61.5005 124.469 61.4539 124.602 61.4539H126.482C126.629 61.4539 126.742 61.5005 126.822 61.5939C126.916 61.6872 126.962 61.8005 126.962 61.9339V74.9739C126.962 75.1072 126.916 75.2205 126.822 75.3139C126.742 75.4072 126.629 75.4539 126.482 75.4539H124.602ZM130.339 75.4539C130.205 75.4539 130.092 75.4072 129.999 75.3139C129.905 75.2205 129.859 75.1072 129.859 74.9739V65.5339C129.859 65.4005 129.905 65.2872 129.999 65.1939C130.092 65.1005 130.205 65.0539 130.339 65.0539H131.979C132.112 65.0539 132.225 65.1005 132.319 65.1939C132.412 65.2872 132.459 65.4005 132.459 65.5339V66.3539C132.805 65.9272 133.245 65.5739 133.779 65.2939C134.325 65.0005 134.999 64.8539 135.799 64.8539C136.612 64.8539 137.319 65.0405 137.919 65.4139C138.519 65.7739 138.979 66.2872 139.299 66.9539C139.632 67.6205 139.799 68.4205 139.799 69.3539V74.9739C139.799 75.1072 139.752 75.2205 139.659 75.3139C139.565 75.4072 139.452 75.4539 139.319 75.4539H137.559C137.425 75.4539 137.312 75.4072 137.219 75.3139C137.125 75.2205 137.079 75.1072 137.079 74.9739V69.4739C137.079 68.7005 136.885 68.0939 136.499 67.6539C136.125 67.2139 135.579 66.9939 134.859 66.9939C134.165 66.9939 133.612 67.2139 133.199 67.6539C132.785 68.0939 132.579 68.7005 132.579 69.4739V74.9739C132.579 75.1072 132.532 75.2205 132.439 75.3139C132.345 75.4072 132.232 75.4539 132.099 75.4539H130.339ZM145.707 75.4539C145.493 75.4539 145.333 75.4072 145.227 75.3139C145.133 75.2072 145.053 75.0872 144.987 74.9539L141.247 65.6739C141.22 65.6072 141.207 65.5472 141.207 65.4939C141.207 65.3739 141.247 65.2739 141.327 65.1939C141.42 65.1005 141.527 65.0539 141.647 65.0539H143.267C143.427 65.0539 143.547 65.1005 143.627 65.1939C143.707 65.2739 143.76 65.3539 143.787 65.4339L146.447 72.4539L149.107 65.4339C149.133 65.3539 149.187 65.2739 149.267 65.1939C149.347 65.1005 149.467 65.0539 149.627 65.0539H151.267C151.373 65.0539 151.467 65.1005 151.547 65.1939C151.64 65.2739 151.687 65.3739 151.687 65.4939C151.687 65.5472 151.68 65.6072 151.667 65.6739L147.907 74.9539C147.853 75.0872 147.773 75.2072 147.667 75.3139C147.56 75.4072 147.4 75.4539 147.187 75.4539H145.707ZM153.991 75.4539C153.858 75.4539 153.744 75.4072 153.651 75.3139C153.558 75.2205 153.511 75.1072 153.511 74.9739V65.5339C153.511 65.4005 153.558 65.2872 153.651 65.1939C153.744 65.1005 153.858 65.0539 153.991 65.0539H155.651C155.798 65.0539 155.911 65.1005 155.991 65.1939C156.084 65.2872 156.131 65.4005 156.131 65.5339V74.9739C156.131 75.1072 156.084 75.2205 155.991 75.3139C155.911 75.4072 155.798 75.4539 155.651 75.4539H153.991ZM153.911 63.3339C153.764 63.3339 153.644 63.2939 153.551 63.2139C153.471 63.1205 153.431 63.0005 153.431 62.8539V61.4139C153.431 61.2805 153.471 61.1672 153.551 61.0739C153.644 60.9805 153.764 60.9339 153.911 60.9339H155.731C155.878 60.9339 155.998 60.9805 156.091 61.0739C156.184 61.1672 156.231 61.2805 156.231 61.4139V62.8539C156.231 63.0005 156.184 63.1205 156.091 63.2139C155.998 63.2939 155.878 63.3339 155.731 63.3339H153.911ZM163.485 75.4539C162.685 75.4539 162.011 75.3139 161.465 75.0339C160.918 74.7539 160.511 74.3405 160.245 73.7939C159.978 73.2339 159.845 72.5405 159.845 71.7139V67.1739H158.265C158.131 67.1739 158.018 67.1272 157.925 67.0339C157.831 66.9405 157.785 66.8272 157.785 66.6939V65.5339C157.785 65.4005 157.831 65.2872 157.925 65.1939C158.018 65.1005 158.131 65.0539 158.265 65.0539H159.845V61.7339C159.845 61.6005 159.885 61.4872 159.965 61.3939C160.058 61.3005 160.178 61.2539 160.325 61.2539H161.945C162.078 61.2539 162.191 61.3005 162.285 61.3939C162.378 61.4872 162.425 61.6005 162.425 61.7339V65.0539H164.925C165.058 65.0539 165.171 65.1005 165.265 65.1939C165.358 65.2872 165.405 65.4005 165.405 65.5339V66.6939C165.405 66.8272 165.358 66.9405 165.265 67.0339C165.171 67.1272 165.058 67.1739 164.925 67.1739H162.425V71.5139C162.425 72.0605 162.518 72.4872 162.705 72.7939C162.905 73.1005 163.245 73.2539 163.725 73.2539H165.105C165.238 73.2539 165.351 73.3005 165.445 73.3939C165.538 73.4872 165.585 73.6005 165.585 73.7339V74.9739C165.585 75.1072 165.538 75.2205 165.445 75.3139C165.351 75.4072 165.238 75.4539 165.105 75.4539H163.485ZM171.839 75.6539C170.359 75.6539 169.185 75.2272 168.319 74.3739C167.452 73.5205 166.985 72.3072 166.919 70.7339C166.905 70.6005 166.899 70.4339 166.899 70.2339C166.899 70.0205 166.905 69.8539 166.919 69.7339C166.972 68.7339 167.199 67.8672 167.599 67.1339C168.012 66.4005 168.579 65.8405 169.299 65.4539C170.019 65.0539 170.865 64.8539 171.839 64.8539C172.919 64.8539 173.825 65.0805 174.559 65.5339C175.292 65.9739 175.845 66.5939 176.219 67.3939C176.592 68.1805 176.779 69.0939 176.779 70.1339V70.5539C176.779 70.6872 176.732 70.8005 176.639 70.8939C176.545 70.9872 176.425 71.0339 176.279 71.0339H169.639C169.639 71.0339 169.639 71.0539 169.639 71.0939C169.639 71.1339 169.639 71.1672 169.639 71.1939C169.652 71.6605 169.739 72.0939 169.899 72.4939C170.072 72.8805 170.319 73.1939 170.639 73.4339C170.972 73.6739 171.365 73.7939 171.819 73.7939C172.192 73.7939 172.505 73.7405 172.759 73.6339C173.012 73.5139 173.219 73.3805 173.379 73.2339C173.539 73.0872 173.652 72.9672 173.719 72.8739C173.839 72.7139 173.932 72.6205 173.999 72.5939C174.079 72.5539 174.192 72.5339 174.339 72.5339H176.059C176.192 72.5339 176.299 72.5739 176.379 72.6539C176.472 72.7339 176.512 72.8339 176.499 72.9539C176.485 73.1672 176.372 73.4272 176.159 73.7339C175.959 74.0405 175.665 74.3405 175.279 74.6339C174.892 74.9272 174.405 75.1739 173.819 75.3739C173.245 75.5605 172.585 75.6539 171.839 75.6539ZM169.639 69.3539H174.059V69.2939C174.059 68.7739 173.972 68.3205 173.799 67.9339C173.625 67.5472 173.372 67.2405 173.039 67.0139C172.705 66.7872 172.305 66.6739 171.839 66.6739C171.372 66.6739 170.972 66.7872 170.639 67.0139C170.305 67.2405 170.052 67.5472 169.879 67.9339C169.719 68.3205 169.639 68.7739 169.639 69.2939V69.3539ZM187.762 75.4539C186.962 75.4539 186.289 75.3139 185.742 75.0339C185.195 74.7539 184.789 74.3405 184.522 73.7939C184.255 73.2339 184.122 72.5405 184.122 71.7139V67.1739H182.542C182.409 67.1739 182.295 67.1272 182.202 67.0339C182.109 66.9405 182.062 66.8272 182.062 66.6939V65.5339C182.062 65.4005 182.109 65.2872 182.202 65.1939C182.295 65.1005 182.409 65.0539 182.542 65.0539H184.122V61.7339C184.122 61.6005 184.162 61.4872 184.242 61.3939C184.335 61.3005 184.455 61.2539 184.602 61.2539H186.222C186.355 61.2539 186.469 61.3005 186.562 61.3939C186.655 61.4872 186.702 61.6005 186.702 61.7339V65.0539H189.202C189.335 65.0539 189.449 65.1005 189.542 65.1939C189.635 65.2872 189.682 65.4005 189.682 65.5339V66.6939C189.682 66.8272 189.635 66.9405 189.542 67.0339C189.449 67.1272 189.335 67.1739 189.202 67.1739H186.702V71.5139C186.702 72.0605 186.795 72.4872 186.982 72.7939C187.182 73.1005 187.522 73.2539 188.002 73.2539H189.382C189.515 73.2539 189.629 73.3005 189.722 73.3939C189.815 73.4872 189.862 73.6005 189.862 73.7339V74.9739C189.862 75.1072 189.815 75.2205 189.722 75.3139C189.629 75.4072 189.515 75.4539 189.382 75.4539H187.762ZM196.116 75.6539C194.636 75.6539 193.463 75.2272 192.596 74.3739C191.729 73.5205 191.263 72.3072 191.196 70.7339C191.183 70.6005 191.176 70.4339 191.176 70.2339C191.176 70.0205 191.183 69.8539 191.196 69.7339C191.249 68.7339 191.476 67.8672 191.876 67.1339C192.289 66.4005 192.856 65.8405 193.576 65.4539C194.296 65.0539 195.143 64.8539 196.116 64.8539C197.196 64.8539 198.103 65.0805 198.836 65.5339C199.569 65.9739 200.123 66.5939 200.496 67.3939C200.869 68.1805 201.056 69.0939 201.056 70.1339V70.5539C201.056 70.6872 201.009 70.8005 200.916 70.8939C200.823 70.9872 200.703 71.0339 200.556 71.0339H193.916C193.916 71.0339 193.916 71.0539 193.916 71.0939C193.916 71.1339 193.916 71.1672 193.916 71.1939C193.929 71.6605 194.016 72.0939 194.176 72.4939C194.349 72.8805 194.596 73.1939 194.916 73.4339C195.249 73.6739 195.643 73.7939 196.096 73.7939C196.469 73.7939 196.783 73.7405 197.036 73.6339C197.289 73.5139 197.496 73.3805 197.656 73.2339C197.816 73.0872 197.929 72.9672 197.996 72.8739C198.116 72.7139 198.209 72.6205 198.276 72.5939C198.356 72.5539 198.469 72.5339 198.616 72.5339H200.336C200.469 72.5339 200.576 72.5739 200.656 72.6539C200.749 72.7339 200.789 72.8339 200.776 72.9539C200.763 73.1672 200.649 73.4272 200.436 73.7339C200.236 74.0405 199.943 74.3405 199.556 74.6339C199.169 74.9272 198.683 75.1739 198.096 75.3739C197.523 75.5605 196.863 75.6539 196.116 75.6539ZM193.916 69.3539H198.336V69.2939C198.336 68.7739 198.249 68.3205 198.076 67.9339C197.903 67.5472 197.649 67.2405 197.316 67.0139C196.983 66.7872 196.583 66.6739 196.116 66.6739C195.649 66.6739 195.249 66.7872 194.916 67.0139C194.583 67.2405 194.329 67.5472 194.156 67.9339C193.996 68.3205 193.916 68.7739 193.916 69.2939V69.3539ZM206.199 75.6539C205.506 75.6539 204.879 75.5205 204.319 75.2539C203.759 74.9739 203.312 74.6072 202.979 74.1539C202.659 73.6872 202.499 73.1672 202.499 72.5939C202.499 71.6605 202.872 70.9205 203.619 70.3739C204.379 69.8139 205.379 69.4405 206.619 69.2539L209.359 68.8539V68.4339C209.359 67.8739 209.219 67.4405 208.939 67.1339C208.659 66.8272 208.179 66.6739 207.499 66.6739C207.019 66.6739 206.626 66.7739 206.319 66.9739C206.026 67.1605 205.806 67.4139 205.659 67.7339C205.552 67.9072 205.399 67.9939 205.199 67.9939H203.619C203.472 67.9939 203.359 67.9539 203.279 67.8739C203.212 67.7939 203.179 67.6872 203.179 67.5539C203.192 67.3405 203.279 67.0805 203.439 66.7739C203.599 66.4672 203.852 66.1739 204.199 65.8939C204.546 65.6005 204.992 65.3539 205.539 65.1539C206.086 64.9539 206.746 64.8539 207.519 64.8539C208.359 64.8539 209.066 64.9605 209.639 65.1739C210.226 65.3739 210.692 65.6472 211.039 65.9939C211.386 66.3405 211.639 66.7472 211.799 67.2139C211.959 67.6805 212.039 68.1739 212.039 68.6939V74.9739C212.039 75.1072 211.992 75.2205 211.899 75.3139C211.806 75.4072 211.692 75.4539 211.559 75.4539H209.939C209.792 75.4539 209.672 75.4072 209.579 75.3139C209.499 75.2205 209.459 75.1072 209.459 74.9739V74.1939C209.286 74.4472 209.052 74.6872 208.759 74.9139C208.466 75.1272 208.106 75.3072 207.679 75.4539C207.266 75.5872 206.772 75.6539 206.199 75.6539ZM206.879 73.7539C207.346 73.7539 207.766 73.6539 208.139 73.4539C208.526 73.2539 208.826 72.9472 209.039 72.5339C209.266 72.1072 209.379 71.5739 209.379 70.9339V70.5139L207.379 70.8339C206.592 70.9539 206.006 71.1472 205.619 71.4139C205.232 71.6805 205.039 72.0072 205.039 72.3939C205.039 72.6872 205.126 72.9405 205.299 73.1539C205.486 73.3539 205.719 73.5072 205.999 73.6139C206.279 73.7072 206.572 73.7539 206.879 73.7539ZM215.085 75.4539C214.952 75.4539 214.838 75.4072 214.745 75.3139C214.652 75.2205 214.605 75.1072 214.605 74.9739V65.5339C214.605 65.4005 214.652 65.2872 214.745 65.1939C214.838 65.1005 214.952 65.0539 215.085 65.0539H216.645C216.778 65.0539 216.892 65.1005 216.985 65.1939C217.078 65.2872 217.125 65.4005 217.125 65.5339V66.2139C217.405 65.8405 217.778 65.5272 218.245 65.2739C218.725 65.0072 219.292 64.8672 219.945 64.8539C221.465 64.8272 222.525 65.4205 223.125 66.6339C223.432 66.1005 223.872 65.6739 224.445 65.3539C225.032 65.0205 225.678 64.8539 226.385 64.8539C227.078 64.8539 227.705 65.0139 228.265 65.3339C228.838 65.6539 229.285 66.1405 229.605 66.7939C229.938 67.4339 230.105 68.2472 230.105 69.2339V74.9739C230.105 75.1072 230.058 75.2205 229.965 75.3139C229.872 75.4072 229.758 75.4539 229.625 75.4539H227.985C227.852 75.4539 227.738 75.4072 227.645 75.3139C227.552 75.2205 227.505 75.1072 227.505 74.9739V69.3939C227.505 68.7939 227.418 68.3205 227.245 67.9739C227.072 67.6139 226.838 67.3605 226.545 67.2139C226.252 67.0672 225.925 66.9939 225.565 66.9939C225.272 66.9939 224.978 67.0672 224.685 67.2139C224.392 67.3605 224.152 67.6139 223.965 67.9739C223.778 68.3205 223.685 68.7939 223.685 69.3939V74.9739C223.685 75.1072 223.638 75.2205 223.545 75.3139C223.452 75.4072 223.338 75.4539 223.205 75.4539H221.565C221.418 75.4539 221.298 75.4072 221.205 75.3139C221.125 75.2205 221.085 75.1072 221.085 74.9739V69.3939C221.085 68.7939 220.992 68.3205 220.805 67.9739C220.618 67.6139 220.378 67.3605 220.085 67.2139C219.792 67.0672 219.478 66.9939 219.145 66.9939C218.838 66.9939 218.538 67.0739 218.245 67.2339C217.952 67.3805 217.712 67.6272 217.525 67.9739C217.338 68.3205 217.245 68.7939 217.245 69.3939V74.9739C217.245 75.1072 217.198 75.2205 217.105 75.3139C217.012 75.4072 216.898 75.4539 216.765 75.4539H215.085Z" fill="#02314E"/>
<path d="M129.022 95.7351C129.022 95.5027 128.986 95.2976 128.913 95.1199C128.844 94.9376 128.721 94.7735 128.544 94.6277C128.371 94.4819 128.129 94.3429 127.819 94.2107C127.514 94.0785 127.126 93.9441 126.657 93.8074C126.165 93.6615 125.72 93.4998 125.324 93.322C124.927 93.1397 124.588 92.9324 124.305 92.7C124.023 92.4675 123.806 92.2009 123.656 91.9001C123.506 91.5994 123.43 91.2553 123.43 90.8679C123.43 90.4806 123.51 90.1228 123.67 89.7947C123.829 89.4666 124.057 89.1817 124.353 88.9402C124.654 88.6941 125.012 88.5027 125.427 88.366C125.841 88.2292 126.304 88.1609 126.814 88.1609C127.562 88.1609 128.195 88.3044 128.715 88.5916C129.239 88.8741 129.637 89.2455 129.911 89.7058C130.184 90.1615 130.321 90.6492 130.321 91.1687H129.009C129.009 90.795 128.929 90.4646 128.769 90.1775C128.61 89.8858 128.368 89.658 128.045 89.4939C127.721 89.3253 127.311 89.241 126.814 89.241C126.345 89.241 125.957 89.3116 125.652 89.4529C125.347 89.5942 125.119 89.7856 124.969 90.0271C124.823 90.2686 124.75 90.5444 124.75 90.8542C124.75 91.0639 124.793 91.2553 124.88 91.4285C124.971 91.5971 125.11 91.7543 125.297 91.9001C125.488 92.046 125.73 92.1804 126.021 92.3035C126.317 92.4265 126.671 92.545 127.081 92.6589C127.646 92.8184 128.134 92.9962 128.544 93.1921C128.954 93.3881 129.291 93.6091 129.555 93.8552C129.824 94.0968 130.023 94.3725 130.15 94.6824C130.282 94.9877 130.348 95.3341 130.348 95.7214C130.348 96.127 130.266 96.4939 130.102 96.822C129.938 97.1501 129.704 97.4304 129.398 97.6628C129.093 97.8953 128.726 98.0753 128.298 98.2029C127.874 98.3259 127.4 98.3875 126.876 98.3875C126.415 98.3875 125.962 98.3236 125.515 98.196C125.073 98.0684 124.67 97.877 124.305 97.6218C123.945 97.3666 123.656 97.0522 123.437 96.6785C123.223 96.3002 123.116 95.8627 123.116 95.366H124.428C124.428 95.7078 124.495 96.0017 124.627 96.2478C124.759 96.4893 124.939 96.6899 125.167 96.8494C125.399 97.0089 125.661 97.1274 125.953 97.2048C126.249 97.2778 126.557 97.3142 126.876 97.3142C127.336 97.3142 127.726 97.2504 128.045 97.1228C128.364 96.9952 128.605 96.8129 128.769 96.5759C128.938 96.3389 129.022 96.0587 129.022 95.7351ZM134.935 90.8542V91.825H130.936V90.8542H134.935ZM132.29 89.0564H133.554V96.4187C133.554 96.6694 133.593 96.8585 133.671 96.9861C133.748 97.1137 133.848 97.198 133.971 97.239C134.094 97.28 134.227 97.3005 134.368 97.3005C134.473 97.3005 134.582 97.2914 134.696 97.2732C134.815 97.2504 134.903 97.2322 134.963 97.2185L134.969 98.2507C134.869 98.2826 134.737 98.3123 134.573 98.3396C134.413 98.3715 134.22 98.3875 133.992 98.3875C133.682 98.3875 133.397 98.3259 133.137 98.2029C132.878 98.0798 132.67 97.8748 132.515 97.5876C132.365 97.296 132.29 96.9041 132.29 96.4119V89.0564ZM137.683 92.0164V98.2507H136.419V90.8542H137.649L137.683 92.0164ZM139.994 90.8132L139.987 91.989C139.882 91.9662 139.782 91.9526 139.686 91.948C139.595 91.9389 139.49 91.9343 139.372 91.9343C139.08 91.9343 138.823 91.9799 138.599 92.071C138.376 92.1622 138.187 92.2898 138.032 92.4539C137.877 92.6179 137.754 92.8139 137.663 93.0417C137.576 93.2651 137.519 93.5111 137.492 93.78L137.136 93.9851C137.136 93.5385 137.18 93.1192 137.266 92.7273C137.358 92.3354 137.497 91.989 137.683 91.6882C137.87 91.3829 138.107 91.1459 138.394 90.9773C138.686 90.8041 139.032 90.7175 139.433 90.7175C139.524 90.7175 139.629 90.7289 139.748 90.7517C139.866 90.7699 139.948 90.7904 139.994 90.8132ZM145.251 96.9861V93.1785C145.251 92.8868 145.191 92.6339 145.073 92.4197C144.959 92.2009 144.786 92.0323 144.553 91.9138C144.321 91.7953 144.034 91.7361 143.692 91.7361C143.373 91.7361 143.093 91.7908 142.851 91.9001C142.614 92.0095 142.427 92.1531 142.291 92.3308C142.159 92.5085 142.093 92.7 142.093 92.905H140.828C140.828 92.6407 140.896 92.3787 141.033 92.1189C141.17 91.8591 141.366 91.6244 141.621 91.4148C141.881 91.2006 142.191 91.032 142.551 90.9089C142.915 90.7813 143.321 90.7175 143.767 90.7175C144.305 90.7175 144.779 90.8087 145.189 90.991C145.604 91.1733 145.927 91.449 146.16 91.8181C146.397 92.1827 146.515 92.6407 146.515 93.1921V96.6375C146.515 96.8835 146.536 97.1456 146.577 97.4236C146.622 97.7016 146.689 97.9408 146.775 98.1414V98.2507H145.456C145.392 98.1049 145.342 97.9112 145.305 97.6697C145.269 97.4236 145.251 97.1957 145.251 96.9861ZM145.469 93.7664L145.483 94.655H144.205C143.845 94.655 143.524 94.6847 143.241 94.7439C142.958 94.7986 142.721 94.8829 142.53 94.9968C142.339 95.1108 142.193 95.2543 142.093 95.4275C141.992 95.5961 141.942 95.7944 141.942 96.0222C141.942 96.2546 141.995 96.4666 142.099 96.658C142.204 96.8494 142.361 97.002 142.571 97.116C142.785 97.2253 143.047 97.28 143.357 97.28C143.745 97.28 144.086 97.198 144.383 97.0339C144.679 96.8699 144.913 96.6694 145.087 96.4324C145.264 96.1954 145.36 95.9653 145.374 95.7419L145.914 96.3503C145.882 96.5417 145.795 96.7537 145.654 96.9861C145.513 97.2185 145.324 97.4418 145.087 97.656C144.854 97.8656 144.576 98.0411 144.253 98.1824C143.934 98.3191 143.574 98.3875 143.173 98.3875C142.671 98.3875 142.232 98.2895 141.853 98.0935C141.48 97.8975 141.188 97.6355 140.978 97.3074C140.773 96.9747 140.671 96.6033 140.671 96.1931C140.671 95.7966 140.748 95.448 140.903 95.1472C141.058 94.8419 141.281 94.5889 141.573 94.3884C141.865 94.1833 142.216 94.0284 142.626 93.9236C143.036 93.8188 143.494 93.7664 144 93.7664H145.469ZM151.601 90.8542V91.825H147.602V90.8542H151.601ZM148.956 89.0564H150.22V96.4187C150.22 96.6694 150.259 96.8585 150.337 96.9861C150.414 97.1137 150.514 97.198 150.637 97.239C150.76 97.28 150.893 97.3005 151.034 97.3005C151.139 97.3005 151.248 97.2914 151.362 97.2732C151.481 97.2504 151.569 97.2322 151.629 97.2185L151.635 98.2507C151.535 98.2826 151.403 98.3123 151.239 98.3396C151.08 98.3715 150.886 98.3875 150.658 98.3875C150.348 98.3875 150.063 98.3259 149.803 98.2029C149.544 98.0798 149.336 97.8748 149.181 97.5876C149.031 97.296 148.956 96.9041 148.956 96.4119V89.0564ZM156.154 98.3875C155.639 98.3875 155.172 98.3009 154.753 98.1277C154.338 97.95 153.98 97.7016 153.679 97.3826C153.383 97.0636 153.155 96.6853 152.996 96.2478C152.836 95.8103 152.757 95.3318 152.757 94.8123V94.5251C152.757 93.9236 152.845 93.3881 153.023 92.9187C153.201 92.4447 153.442 92.0437 153.748 91.7156C154.053 91.3875 154.399 91.1391 154.787 90.9705C155.174 90.8018 155.575 90.7175 155.99 90.7175C156.519 90.7175 156.974 90.8087 157.357 90.991C157.745 91.1733 158.061 91.4285 158.307 91.7566C158.553 92.0802 158.736 92.463 158.854 92.905C158.973 93.3425 159.032 93.821 159.032 94.3406V94.908H153.509V93.8757H157.767V93.78C157.749 93.4519 157.681 93.1329 157.562 92.823C157.448 92.5131 157.266 92.2579 157.015 92.0574C156.765 91.8569 156.423 91.7566 155.99 91.7566C155.703 91.7566 155.439 91.8181 155.197 91.9412C154.955 92.0597 154.748 92.2374 154.575 92.4744C154.402 92.7113 154.267 93.0007 154.172 93.3425C154.076 93.6843 154.028 94.0785 154.028 94.5251V94.8123C154.028 95.1632 154.076 95.4936 154.172 95.8035C154.272 96.1088 154.415 96.3777 154.602 96.6101C154.794 96.8425 155.024 97.0248 155.293 97.157C155.566 97.2891 155.876 97.3552 156.222 97.3552C156.669 97.3552 157.047 97.2641 157.357 97.0818C157.667 96.8995 157.938 96.6557 158.171 96.3503L158.936 96.9587C158.777 97.2003 158.574 97.4304 158.328 97.6492C158.082 97.8679 157.779 98.0457 157.419 98.1824C157.063 98.3191 156.642 98.3875 156.154 98.3875ZM165.301 90.8542H166.449V98.0935C166.449 98.7452 166.317 99.3012 166.052 99.7615C165.788 100.222 165.419 100.57 164.945 100.807C164.476 101.049 163.933 101.17 163.318 101.17C163.063 101.17 162.762 101.129 162.416 101.047C162.074 100.969 161.737 100.835 161.404 100.643C161.076 100.456 160.8 100.204 160.577 99.8845L161.24 99.1326C161.55 99.5063 161.873 99.766 162.211 99.9119C162.552 100.058 162.89 100.131 163.222 100.131C163.623 100.131 163.97 100.055 164.261 99.905C164.553 99.7546 164.779 99.5313 164.938 99.2351C165.102 98.9434 165.184 98.5834 165.184 98.155V92.4812L165.301 90.8542ZM160.208 94.6345V94.491C160.208 93.9259 160.274 93.4132 160.406 92.9529C160.543 92.488 160.736 92.0893 160.987 91.7566C161.242 91.4239 161.55 91.1687 161.91 90.991C162.27 90.8087 162.676 90.7175 163.127 90.7175C163.592 90.7175 163.997 90.7996 164.344 90.9636C164.694 91.1231 164.991 91.3578 165.232 91.6677C165.478 91.9731 165.672 92.3422 165.813 92.7751C165.955 93.2081 166.052 93.698 166.107 94.2449V94.8738C166.057 95.4161 165.959 95.9037 165.813 96.3367C165.672 96.7696 165.478 97.1388 165.232 97.4441C164.991 97.7494 164.694 97.9841 164.344 98.1482C163.993 98.3077 163.582 98.3875 163.113 98.3875C162.671 98.3875 162.27 98.294 161.91 98.1072C161.554 97.9203 161.249 97.6583 160.994 97.321C160.739 96.9838 160.543 96.5873 160.406 96.1316C160.274 95.6713 160.208 95.1723 160.208 94.6345ZM161.472 94.491V94.6345C161.472 95.0037 161.509 95.35 161.582 95.6736C161.659 95.9972 161.775 96.282 161.93 96.5281C162.09 96.7742 162.293 96.9679 162.539 97.1091C162.785 97.2458 163.079 97.3142 163.421 97.3142C163.84 97.3142 164.186 97.2253 164.46 97.0476C164.733 96.8699 164.95 96.6352 165.109 96.3435C165.273 96.0518 165.401 95.7351 165.492 95.3933V93.7458C165.442 93.4952 165.364 93.2537 165.26 93.0212C165.159 92.7843 165.027 92.5746 164.863 92.3923C164.704 92.2055 164.505 92.0574 164.268 91.948C164.031 91.8386 163.753 91.7839 163.434 91.7839C163.088 91.7839 162.789 91.8569 162.539 92.0027C162.293 92.144 162.09 92.3399 161.93 92.5906C161.775 92.8367 161.659 93.1238 161.582 93.4519C161.509 93.7755 161.472 94.1218 161.472 94.491ZM170.448 97.4851L172.506 90.8542H173.859L170.892 99.3923C170.824 99.5746 170.733 99.7706 170.619 99.9802C170.51 100.194 170.368 100.397 170.195 100.589C170.022 100.78 169.812 100.935 169.566 101.053C169.325 101.177 169.035 101.238 168.698 101.238C168.598 101.238 168.47 101.224 168.315 101.197C168.16 101.17 168.051 101.147 167.987 101.129L167.98 100.103C168.017 100.108 168.074 100.112 168.151 100.117C168.233 100.126 168.29 100.131 168.322 100.131C168.609 100.131 168.853 100.092 169.053 100.014C169.254 99.9415 169.423 99.8162 169.559 99.6384C169.701 99.4653 169.821 99.226 169.922 98.9207L170.448 97.4851ZM168.937 90.8542L170.858 96.5964L171.186 97.9294L170.277 98.3943L167.556 90.8542H168.937ZM180.346 96.9382L182.247 90.8542H183.081L182.917 92.0642L180.982 98.2507H180.169L180.346 96.9382ZM179.068 90.8542L180.688 97.0066L180.804 98.2507H179.95L177.803 90.8542H179.068ZM184.899 96.9587L186.444 90.8542H187.702L185.555 98.2507H184.708L184.899 96.9587ZM183.265 90.8542L185.125 96.8357L185.337 98.2507H184.53L182.541 92.0505L182.377 90.8542H183.265ZM190.375 90.8542V98.2507H189.103V90.8542H190.375ZM189.008 88.8923C189.008 88.6873 189.069 88.5141 189.192 88.3728C189.32 88.2315 189.507 88.1609 189.753 88.1609C189.994 88.1609 190.179 88.2315 190.306 88.3728C190.439 88.5141 190.505 88.6873 190.505 88.8923C190.505 89.0883 190.439 89.2569 190.306 89.3982C190.179 89.5349 189.994 89.6033 189.753 89.6033C189.507 89.6033 189.32 89.5349 189.192 89.3982C189.069 89.2569 189.008 89.0883 189.008 88.8923ZM195.502 90.8542V91.825H191.503V90.8542H195.502ZM192.856 89.0564H194.121V96.4187C194.121 96.6694 194.16 96.8585 194.237 96.9861C194.315 97.1137 194.415 97.198 194.538 97.239C194.661 97.28 194.793 97.3005 194.934 97.3005C195.039 97.3005 195.149 97.2914 195.262 97.2732C195.381 97.2504 195.47 97.2322 195.529 97.2185L195.536 98.2507C195.436 98.2826 195.303 98.3123 195.139 98.3396C194.98 98.3715 194.786 98.3875 194.558 98.3875C194.248 98.3875 193.964 98.3259 193.704 98.2029C193.444 98.0798 193.237 97.8748 193.082 97.5876C192.931 97.296 192.856 96.9041 192.856 96.4119V89.0564ZM198.25 87.7507V98.2507H196.985V87.7507H198.25ZM197.949 94.2722L197.423 94.2517C197.427 93.7458 197.502 93.2787 197.648 92.8503C197.794 92.4174 197.999 92.0414 198.263 91.7224C198.528 91.4034 198.842 91.1573 199.207 90.9841C199.576 90.8064 199.984 90.7175 200.43 90.7175C200.795 90.7175 201.123 90.7677 201.415 90.8679C201.706 90.9636 201.955 91.1186 202.16 91.3328C202.37 91.547 202.529 91.825 202.638 92.1667C202.748 92.504 202.802 92.9164 202.802 93.4041V98.2507H201.531V93.3904C201.531 93.003 201.474 92.6931 201.36 92.4607C201.246 92.2237 201.08 92.0528 200.861 91.948C200.642 91.8386 200.373 91.7839 200.054 91.7839C199.74 91.7839 199.453 91.85 199.193 91.9822C198.938 92.1143 198.717 92.2966 198.53 92.5291C198.348 92.7615 198.204 93.0281 198.099 93.3289C197.999 93.6251 197.949 93.9395 197.949 94.2722ZM212.045 89.1794L208.75 98.2507H207.403L211.197 88.2976H212.065L212.045 89.1794ZM214.806 98.2507L211.505 89.1794L211.484 88.2976H212.352L216.16 98.2507H214.806ZM214.635 94.5662V95.6462H209.044V94.5662H214.635ZM218.908 88.2976V98.2507H217.589V88.2976H218.908Z" fill="#8B8A99"/>
</g>
<defs>
<filter id="filter0_d_1628_3024" x="0.562256" y="0.453857" width="304" height="174.797" filterUnits="userSpaceOnUse" color-interpolation-filters="sRGB">
<feFlood flood-opacity="0" result="BackgroundImageFix"/>
<feColorMatrix in="SourceAlpha" type="matrix" values="0 0 0 0 0 0 0 0 0 0 0 0 0 0 0 0 0 0 127 0" result="hardAlpha"/>
<feOffset dy="10"/>
<feGaussianBlur stdDeviation="23"/>
<feComposite in2="hardAlpha" operator="out"/>
<feColorMatrix type="matrix" values="0 0 0 0 0.823529 0 0 0 0 0.815686 0 0 0 0 1 0 0 0 0.4 0"/>
<feBlend mode="normal" in2="BackgroundImageFix" result="effect1_dropShadow_1628_3024"/>
<feBlend mode="normal" in="SourceGraphic" in2="effect1_dropShadow_1628_3024" result="shape"/>
</filter>
</defs>
</svg>
